<svg id="Layer_1" data-name="Layer 1" xmlns="http://www.w3.org/2000/svg" viewBox="0 0 700 700">
  <defs>
    <style>
      .cls-1 {
        fill: #333;
      }

      .cls-2, .cls-4 {
        fill: #785836;
      }

      .cls-3 {
        fill: #3a2a1b;
      }

      .cls-4 {
        stroke: #3a2a1b;
      }

      .cls-4, .cls-5 {
        stroke-linejoin: bevel;
        stroke-width: 5px;
      }

      .cls-5 {
        fill: #555;
        stroke: #333;
      }

      .cls-6, .cls-8 {
        font-size: 46.75px;
      }

      .cls-6 {
        fill: #bdac68;
      }

      .cls-45, .cls-6, .cls-8 {
        font-family: Marion-Bold, Marion;
      }

      .cls-45, .cls-50, .cls-6, .cls-8 {
        font-weight: 700;
      }

      .cls-7 {
        letter-spacing: -0.09em;
      }

      .cls-34, .cls-8 {
        fill: #ddcc78;
      }

      .cls-9 {
        fill: #db5853;
      }

      .cls-10 {
        fill: #3553a5;
      }

      .cls-11 {
        fill: #6a515b;
      }

      .cls-12 {
        fill: #da5885;
      }

      .cls-13 {
        fill: #e5bb6c;
      }

      .cls-14 {
        fill: #444f8a;
      }

      .cls-15 {
        fill: #9ea121;
      }

      .cls-16 {
        fill: #e19a63;
      }

      .cls-17 {
        fill: #182e17;
      }

      .cls-18 {
        fill: #db596f;
      }

      .cls-19 {
        fill: #923749;
      }

      .cls-20 {
        fill: #dd6d58;
      }

      .cls-21 {
        fill: #316b22;
      }

      .cls-22 {
        fill: #c06c77;
      }

      .cls-23 {
        fill: #2a4186;
      }

      .cls-24 {
        fill: #5a4a24;
      }

      .cls-25 {
        fill: #955388;
      }

      .cls-26 {
        fill: #88b4be;
      }

      .cls-27 {
        fill: #8e7ab5;
      }

      .cls-28 {
        fill: #ba9133;
      }

      .cls-29 {
        fill: #632423;
      }

      .cls-30 {
        fill: #c18555;
      }

      .cls-31 {
        fill: #e2b191;
      }

      .cls-32 {
        fill: #279dd8;
      }

      .cls-33, .cls-44, .cls-45, .cls-49, .cls-50 {
        fill: #ddd;
      }

      .cls-35 {
        fill: #d4d3c5;
      }

      .cls-36 {
        fill: #e7ddee;
      }

      .cls-37 {
        fill: #f9cde0;
      }

      .cls-38 {
        fill: #fff2d0;
      }

      .cls-39 {
        fill: #dfefd9;
      }

      .cls-40 {
        fill: #cee0f3;
      }

      .cls-41 {
        fill: #d2eef8;
      }

      .cls-42, .cls-48 {
        fill: none;
      }

      .cls-42 {
        stroke: #bcc3c4;
        stroke-width: 3px;
      }

      .cls-42, .cls-48, .cls-49 {
        stroke-miterlimit: 10;
      }

      .cls-43 {
        fill: #969696;
      }

      .cls-44 {
        fill-rule: evenodd;
      }

      .cls-45 {
        font-size: 22px;
      }

      .cls-46 {
        letter-spacing: -0.09em;
      }

      .cls-47 {
        letter-spacing: 0em;
      }

      .cls-48, .cls-49 {
        stroke: #ddd;
        stroke-width: 1.05px;
      }

      .cls-50 {
        font-size: 7.09px;
        font-family: Baskerville-Bold, Baskerville;
        letter-spacing: 0.05em;
      }

      .cls-51 {
        letter-spacing: 0.1em;
      }

      .cls-52 {
        letter-spacing: 0.05em;
      }

      .cls-53 {
        letter-spacing: 0.2em;
      }
    </style>
  </defs>
  <g>
    <rect class="cls-1" x="82.7" y="89.54" width="378.03" height="531.93" rx="5.51"/>
    <g>
      <rect class="cls-2" x="89.12" y="94.9" width="365.19" height="521.19"/>
      <path class="cls-3" d="M451.81,97.4V613.6H91.62V97.4H451.81m5-5H86.62V618.6H456.81V92.4Z"/>
    </g>
    <polygon class="cls-4" points="86.62 618.6 73 604.73 73 78.54 86.62 92.41 86.62 618.6"/>
    <polygon class="cls-5" points="456.81 92.41 443.19 78.54 73 78.54 86.62 92.41 456.81 92.41"/>
    <g>
      <rect class="cls-2" x="89.12" y="239.86" width="365.19" height="231.28"/>
      <path class="cls-3" d="M451.81,242.36V468.64H91.62V242.36H451.81m5-5H86.62V473.64H456.81V237.36Z"/>
    </g>
    <g>
      <text class="cls-6" transform="translate(215.28 317.23)">ME, <tspan x="-83.94" y="56.1">MY SHEL</tspan><tspan class="cls-7" x="136.35" y="56.1">F</tspan><tspan x="161.83" y="56.1">, </tspan><tspan x="-18.16" y="112.21">AND I</tspan></text>
      <text class="cls-8" transform="translate(216.29 316.23)">ME, <tspan x="-83.94" y="56.1">MY SHEL</tspan><tspan class="cls-7" x="136.35" y="56.1">F</tspan><tspan x="161.83" y="56.1">, </tspan><tspan x="-18.16" y="112.21">AND I</tspan></text>
    </g>
    <rect class="cls-9" x="97.16" y="101.85" width="32.45" height="135.51" rx="2.62"/>
    <rect class="cls-10" x="129.61" y="127.28" width="23.13" height="110.08" rx="2.62"/>
    <rect class="cls-11" x="208.37" y="120.91" width="24.99" height="116.45" rx="2.62"/>
    <rect class="cls-12" x="233.15" y="113.83" width="22.66" height="123.53" rx="2.62"/>
    <rect class="cls-13" x="255.81" y="119.24" width="29.87" height="118.12" rx="2.62"/>
    <rect class="cls-14" x="287.13" y="125.84" width="29.87" height="111.52" rx="2.62"/>
    <rect class="cls-15" x="371.74" y="125.84" width="29.87" height="111.52" rx="2.62"/>
    <rect class="cls-16" x="316.71" y="120.91" width="20.24" height="116.45" rx="2.62"/>
    <rect class="cls-17" x="425.43" y="120.91" width="24.38" height="116.45" rx="2.62"/>
    <rect class="cls-18" x="347.51" y="111.07" width="24.87" height="126.29" rx="2.62"/>
    <rect class="cls-19" x="401.61" y="101.85" width="22.47" height="135.51" rx="2.62"/>
    <rect class="cls-20" x="336.25" y="136.75" width="11.29" height="100.61" rx="2.62"/>
    <rect class="cls-21" x="194.74" y="133.41" width="9.41" height="104.08" rx="2.62"/>
    <rect class="cls-22" x="152.19" y="109.87" width="42.55" height="127.62" rx="2.62"/>
    <rect class="cls-9" x="419.39" y="478.03" width="32.45" height="135.51" rx="2.62" transform="translate(871.23 1091.57) rotate(-180)"/>
    <rect class="cls-23" x="396.26" y="503.46" width="23.13" height="110.08" rx="2.62" transform="translate(815.65 1117) rotate(-180)"/>
    <rect class="cls-11" x="259.88" y="497.09" width="24.99" height="116.45" rx="2.62" transform="translate(544.75 1110.63) rotate(-180)"/>
    <rect class="cls-12" x="237.43" y="490.01" width="22.66" height="123.53" rx="2.62" transform="translate(497.53 1103.55) rotate(-180)"/>
    <rect class="cls-24" x="207.57" y="495.42" width="29.87" height="118.12" rx="2.62" transform="translate(445 1108.96) rotate(-180)"/>
    <rect class="cls-25" x="176.24" y="502.02" width="29.87" height="111.52" rx="2.62" transform="translate(382.35 1115.56) rotate(-180)"/>
    <rect class="cls-26" x="155.46" y="488.16" width="20.41" height="124.46" rx="2.62" transform="translate(331.33 1100.78) rotate(-180)"/>
    <rect class="cls-27" x="107.1" y="494.35" width="20.41" height="118.27" rx="2.62" transform="translate(234.61 1106.98) rotate(-180)"/>
    <rect class="cls-28" x="93.47" y="484.2" width="13.56" height="128.42" rx="2.62" transform="translate(200.5 1096.83) rotate(-180)"/>
    <rect class="cls-29" x="127.33" y="524.49" width="28.61" height="87.6" rx="2.62" transform="translate(283.28 1136.59) rotate(-180)"/>
    <rect class="cls-30" x="322.64" y="497.09" width="20.24" height="116.45" rx="2.62" transform="translate(665.53 1110.63) rotate(-180)"/>
    <rect class="cls-31" x="287.21" y="487.25" width="24.87" height="126.29" rx="2.62" transform="translate(599.3 1100.78) rotate(-180)"/>
    <rect class="cls-20" x="312.06" y="512.93" width="11.29" height="100.61" rx="2.62" transform="translate(635.41 1126.47) rotate(-180)"/>
    <rect class="cls-32" x="354.26" y="486.05" width="42.55" height="127.62" rx="2.62" transform="translate(751.08 1099.73) rotate(-180)"/>
    <g>
      <g>
        <path class="cls-33" d="M113.43,105.93h1.65v7.9h-1.65Zm1.58,3.62h.11l2.89-3.62h1.84l-2.9,3.58h-.32l-1.62,2Zm.53.54,1.2-1.09,3.31,4.83h-2Z"/>
        <path class="cls-33" d="M123,105.93h1.46v1.54H124l-2,6.36h-1.74Zm-.87,4.75h3.68l.41,1.23h-4.49Zm1.86-3.21v-1.54h1l2.76,7.9H126Z"/>
        <path class="cls-33" d="M129.33,107.3H127v-1.37h6.23v1.37H131v6.53h-1.65Z"/>
        <path class="cls-33" d="M134.18,105.93h1.65v3.21h3.56v-3.21H141v7.9h-1.65v-3.32h-3.56v3.32h-1.65Z"/>
        <path class="cls-33" d="M142.36,105.93h5.23v1.37H144v1.89h3.37v1.3H144v2h3.58v1.36h-5.23Z"/>
        <path class="cls-33" d="M148.78,105.93H152a3.38,3.38,0,0,1,1.52.31,2.22,2.22,0,0,1,1,.87,2.6,2.6,0,0,1,.33,1.35h0a2.5,2.5,0,0,1-.38,1.39,2.18,2.18,0,0,1-1,.86l1.66,3.11h-1.88L151.76,111h-1.33v2.86h-1.65Zm3.08,3.78a1.33,1.33,0,0,0,1-.32,1.18,1.18,0,0,0,.35-.91h0a1.2,1.2,0,0,0-.36-.91,1.39,1.39,0,0,0-1-.33h-1.41v2.48Z"/>
        <path class="cls-33" d="M156,105.93h1.66v7.9H156Z"/>
        <path class="cls-33" d="M158.92,105.93h1.44l4.29,6.18-1.38-1H164v-5.14h1.65v7.9h-1.43l-4.3-6.21,1.38,1h-.69v5.17h-1.65Z"/>
        <path class="cls-33" d="M166.92,105.93h5.24v1.37h-3.58v1.89H172v1.3h-3.37v2h3.58v1.36h-5.24Z"/>
        <path class="cls-33" d="M107.07,119.38h1.65v7.9h-1.65Zm.83,6.67h2.25a1.76,1.76,0,0,0,1.08-.29,1,1,0,0,0,.38-.84h0a1,1,0,0,0-.18-.61,1,1,0,0,0-.51-.37,2.34,2.34,0,0,0-.85-.13H107.9v-1.12h2a1.7,1.7,0,0,0,1.06-.28.94.94,0,0,0,.37-.79h0a.86.86,0,0,0-.33-.73,1.4,1.4,0,0,0-.9-.26H107.9v-1.23h2.61a3.16,3.16,0,0,1,1.29.24,1.8,1.8,0,0,1,1.13,1.74h0a1.73,1.73,0,0,1-.2.81,1.67,1.67,0,0,1-.54.61,1.77,1.77,0,0,1-.79.31v0a2.09,2.09,0,0,1,1,.29,1.84,1.84,0,0,1,.67.66,1.76,1.76,0,0,1,.25.94h0a2,2,0,0,1-1.28,2,3.38,3.38,0,0,1-1.45.28H107.9Z"/>
        <path class="cls-33" d="M114.24,119.38h1.65v6.53h3.45v1.37h-5.1Z"/>
        <path class="cls-33" d="M122.57,119.38H124v1.53h-.5l-2,6.37h-1.73Zm-.86,4.75h3.68l.4,1.23H121.3Zm1.85-3.22v-1.53h1l2.75,7.9h-1.74Z"/>
        <path class="cls-33" d="M129.21,126.92a3.32,3.32,0,0,1-1.3-1.4,4.78,4.78,0,0,1-.46-2.19h0a4.78,4.78,0,0,1,.46-2.19,3.32,3.32,0,0,1,1.3-1.4,4,4,0,0,1,2-.49,3.77,3.77,0,0,1,1.71.38,3.07,3.07,0,0,1,1.2,1,2.94,2.94,0,0,1,.53,1.49v.05H133l0-.09a1.87,1.87,0,0,0-.33-.76,1.64,1.64,0,0,0-.61-.5,2,2,0,0,0-.87-.18,1.85,1.85,0,0,0-1.1.32,2.1,2.1,0,0,0-.72.92,3.62,3.62,0,0,0-.25,1.43h0a3.71,3.71,0,0,0,.25,1.44,2.13,2.13,0,0,0,.72.93,2,2,0,0,0,1.1.32,2.08,2.08,0,0,0,.85-.17,1.62,1.62,0,0,0,.62-.51,2,2,0,0,0,.36-.8v0h1.62v.06a3,3,0,0,1-.53,1.48,3.08,3.08,0,0,1-1.21,1,3.77,3.77,0,0,1-1.71.37A3.9,3.9,0,0,1,129.21,126.92Z"/>
        <path class="cls-33" d="M135.68,119.38h1.65v7.9h-1.65Zm1.59,3.61h.1l2.9-3.61h1.84l-2.9,3.57h-.33l-1.61,2Zm.53.55,1.19-1.09,3.32,4.83h-2Z"/>
        <path class="cls-33" d="M143,119.38h1.66v7.9H143Zm.83,6.67h2.25a1.76,1.76,0,0,0,1.08-.29,1,1,0,0,0,.38-.84h0a1.09,1.09,0,0,0-.17-.61,1.07,1.07,0,0,0-.52-.37,2.28,2.28,0,0,0-.84-.13h-2.18v-1.12h2a1.73,1.73,0,0,0,1.07-.28.93.93,0,0,0,.36-.79h0a.88.88,0,0,0-.32-.73,1.45,1.45,0,0,0-.91-.26h-2.18v-1.23h2.61a3.16,3.16,0,0,1,1.29.24,1.92,1.92,0,0,1,.84.69,1.84,1.84,0,0,1,.29,1h0a1.73,1.73,0,0,1-.19.81,1.83,1.83,0,0,1-1.33.92v0a2.12,2.12,0,0,1,1,.29,1.93,1.93,0,0,1,.67.66,1.85,1.85,0,0,1,.24.94h0a2.1,2.1,0,0,1-.33,1.19,2.08,2.08,0,0,1-.94.78,3.43,3.43,0,0,1-1.46.28h-2.67Z"/>
        <path class="cls-33" d="M151.73,127.05a2.62,2.62,0,0,1-1.15-1,2.87,2.87,0,0,1-.41-1.53v-5.11h1.65v5a1.69,1.69,0,0,0,.44,1.22,1.89,1.89,0,0,0,2.45,0,1.73,1.73,0,0,0,.43-1.22v-5h1.65v5.11a3,3,0,0,1-.4,1.53,2.75,2.75,0,0,1-1.15,1,4.46,4.46,0,0,1-3.51,0Z"/>
        <path class="cls-33" d="M158.1,119.38h3.26a3.38,3.38,0,0,1,1.52.31,2.26,2.26,0,0,1,1,.86,2.66,2.66,0,0,1,.34,1.36h0a2.53,2.53,0,0,1-.39,1.39,2.13,2.13,0,0,1-1,.86l1.66,3.11h-1.88l-1.46-2.86h-1.33v2.86H158.1Zm3.08,3.78a1.33,1.33,0,0,0,1-.33,1.16,1.16,0,0,0,.36-.9v0a1.17,1.17,0,0,0-.37-.9,1.39,1.39,0,0,0-1-.33h-1.41v2.48Z"/>
        <path class="cls-33" d="M165.27,119.38h1.45l4.29,6.18-1.39-1h.7v-5.13H172v7.9h-1.44l-4.3-6.21,1.39,1h-.7v5.17h-1.65Z"/>
        <path class="cls-33" d="M173.28,119.38h5.23v1.36h-3.58v1.9h3.38v1.29h-3.38v2h3.58v1.37h-5.23Z"/>
      </g>
      <g>
        <path class="cls-33" d="M193.21,113.47a3.23,3.23,0,0,1-1.31-1.4,4.92,4.92,0,0,1-.46-2.19h0a4.84,4.84,0,0,1,.46-2.18,3.23,3.23,0,0,1,1.31-1.4,3.88,3.88,0,0,1,2-.49,3.77,3.77,0,0,1,1.71.37,3.23,3.23,0,0,1,1.2,1,3.07,3.07,0,0,1,.53,1.49v0H197l0-.09a1.93,1.93,0,0,0-.33-.76,1.78,1.78,0,0,0-.62-.5,1.94,1.94,0,0,0-.86-.18,1.9,1.9,0,0,0-1.1.32,2.15,2.15,0,0,0-.72.92,3.65,3.65,0,0,0-.26,1.43h0a3.67,3.67,0,0,0,.26,1.44,2.13,2.13,0,0,0,.72.93,1.86,1.86,0,0,0,1.1.33,2,2,0,0,0,.85-.18,1.68,1.68,0,0,0,.62-.51,2,2,0,0,0,.36-.8v0h1.61v.06a3,3,0,0,1-.53,1.49,3.23,3.23,0,0,1-1.2,1,4.2,4.2,0,0,1-3.71-.13Z"/>
        <path class="cls-33" d="M201.21,113.47a3.33,3.33,0,0,1-1.32-1.41,4.77,4.77,0,0,1-.46-2.18h0a4.73,4.73,0,0,1,.46-2.17,3.42,3.42,0,0,1,1.33-1.41,4.43,4.43,0,0,1,4.05,0,3.5,3.5,0,0,1,1.31,1.41,4.73,4.73,0,0,1,.47,2.17h0a4.77,4.77,0,0,1-.47,2.18,3.37,3.37,0,0,1-1.31,1.41,4.37,4.37,0,0,1-4.06,0Zm3.16-1.24a2.07,2.07,0,0,0,.73-.93,3.6,3.6,0,0,0,.26-1.42h0a3.64,3.64,0,0,0-.26-1.42,2.16,2.16,0,0,0-.74-.93,2.12,2.12,0,0,0-2.24,0,2.09,2.09,0,0,0-.74.93,3.43,3.43,0,0,0-.26,1.42h0a3.48,3.48,0,0,0,.26,1.43,2.14,2.14,0,0,0,.73.93,2,2,0,0,0,1.13.33A1.87,1.87,0,0,0,204.37,112.23Z"/>
        <path class="cls-33" d="M208.11,105.93h1.65v6.54h3.46v1.36h-5.11Z"/>
        <path class="cls-33" d="M214.2,105.93h1.65v7.9H214.2Z"/>
        <path class="cls-33" d="M217.16,105.93h1.45l4.29,6.18-1.39-1h.7v-5.14h1.64v7.9h-1.43l-4.3-6.21,1.38,1h-.69v5.17h-1.65Z"/>
        <path class="cls-33" d="M190.46,119.38h1.66v7.9h-1.66Zm1.59,3.61h.1l2.9-3.61h1.84L194,123h-.32l-1.62,2Zm.53.55,1.19-1.09,3.32,4.83h-2Z"/>
        <path class="cls-33" d="M197.79,119.38H203v1.36h-3.58v1.9h3.37v1.29h-3.37v2H203v1.37h-5.23Z"/>
        <path class="cls-33" d="M206.46,119.38h1.46v1.53h-.5l-2,6.37h-1.73Zm-.87,4.75h3.69l.4,1.23h-4.49Zm1.86-3.22v-1.53h1l2.75,7.9h-1.74Z"/>
        <path class="cls-33" d="M212,119.38h1.44l4.29,6.18-1.38-1H217v-5.13h1.65v7.9h-1.43l-4.3-6.21,1.38,1h-.69v5.17H212Z"/>
        <path class="cls-33" d="M220,119.38h5.23v1.36h-3.57v1.9H225v1.29h-3.37v2h3.57v1.37H220Z"/>
      </g>
      <g>
        <path class="cls-33" d="M324.07,105.93h1.46v1.54H325l-2,6.36h-1.73Zm-.86,4.75h3.68l.4,1.23H322.8Zm1.85-3.21v-1.54h1l2.75,7.9H327Z"/>
        <path class="cls-33" d="M329.58,105.93h3a4.22,4.22,0,0,1,2,.46,3,3,0,0,1,1.29,1.32,4.65,4.65,0,0,1,.45,2.13h0a4.88,4.88,0,0,1-.44,2.15,3.14,3.14,0,0,1-1.29,1.36,4.17,4.17,0,0,1-2,.47h-3Zm2.82,6.53a2.47,2.47,0,0,0,1.24-.29,1.85,1.85,0,0,0,.77-.88,3.38,3.38,0,0,0,.27-1.43h0a3.22,3.22,0,0,0-.27-1.39,2,2,0,0,0-.78-.87,2.49,2.49,0,0,0-1.23-.29h-1.17v5.16Z"/>
        <path class="cls-33" d="M339.35,105.93h1.46v1.54h-.5l-2,6.36H336.6Zm-.87,4.75h3.69l.4,1.23h-4.49Zm1.86-3.21v-1.54h1l2.75,7.9h-1.74Z"/>
        <path class="cls-33" d="M344.86,105.93h1.91l2.24,5.68h0l2.23-5.68h1.92v7.9h-1.48v-5.34H351l1.65-2.34-3.06,7.68h-1l-3.06-7.68,1.65,2.34h-.77v5.34h-1.47Z"/>
        <path class="cls-33" d="M319.1,127.14a2.6,2.6,0,0,1-1.1-.8,2.24,2.24,0,0,1-.44-1.24V125h1.56v.06a1,1,0,0,0,.28.53,1.44,1.44,0,0,0,.58.34,2.2,2.2,0,0,0,.8.13,2.08,2.08,0,0,0,.79-.13,1.06,1.06,0,0,0,.51-.35.8.8,0,0,0,.18-.52h0a.74.74,0,0,0-.31-.63,2.89,2.89,0,0,0-1.05-.37l-.83-.17a3.52,3.52,0,0,1-1.76-.79,1.89,1.89,0,0,1-.59-1.45h0a2.1,2.1,0,0,1,.39-1.26,2.5,2.5,0,0,1,1.07-.83,3.64,3.64,0,0,1,1.55-.31,4,4,0,0,1,1.58.29,2.43,2.43,0,0,1,1,.81,2.3,2.3,0,0,1,.41,1.21v.1H322.2v-.07a.91.91,0,0,0-.23-.53,1.24,1.24,0,0,0-.51-.34,2,2,0,0,0-.72-.12,2,2,0,0,0-.73.12,1,1,0,0,0-.46.34.79.79,0,0,0-.17.49h0a.71.71,0,0,0,.32.6,2.69,2.69,0,0,0,1,.37l.83.17a3.63,3.63,0,0,1,1.82.78,1.86,1.86,0,0,1,.58,1.46h0a2.29,2.29,0,0,1-.38,1.31,2.43,2.43,0,0,1-1.09.86,4.43,4.43,0,0,1-1.71.3A4.55,4.55,0,0,1,319.1,127.14Z"/>
        <path class="cls-33" d="M326.44,126.92a3.32,3.32,0,0,1-1.3-1.4,4.78,4.78,0,0,1-.46-2.19h0a4.78,4.78,0,0,1,.46-2.19,3.32,3.32,0,0,1,1.3-1.4,4,4,0,0,1,2-.49,3.77,3.77,0,0,1,1.71.38,3.07,3.07,0,0,1,1.2,1,2.94,2.94,0,0,1,.53,1.49v.05h-1.62l0-.09a1.87,1.87,0,0,0-.33-.76,1.64,1.64,0,0,0-.61-.5,2,2,0,0,0-.87-.18,1.85,1.85,0,0,0-1.1.32,2.1,2.1,0,0,0-.72.92,3.62,3.62,0,0,0-.25,1.43h0a3.71,3.71,0,0,0,.25,1.44,2.13,2.13,0,0,0,.72.93,2,2,0,0,0,1.1.32,2.08,2.08,0,0,0,.85-.17,1.62,1.62,0,0,0,.62-.51,2,2,0,0,0,.36-.8v0h1.61v.06a3,3,0,0,1-.54,1.48,3,3,0,0,1-1.2,1,3.77,3.77,0,0,1-1.71.37A3.88,3.88,0,0,1,326.44,126.92Z"/>
        <path class="cls-33" d="M332.91,119.38h1.65v3.21h3.56v-3.21h1.65v7.9h-1.65V124h-3.56v3.32h-1.65Z"/>
        <path class="cls-33" d="M341.09,119.38h1.65v7.9h-1.65Z"/>
        <path class="cls-33" d="M344.05,119.38h5.23v1.36h-3.57v1.9h3.37v1.29h-3.37v2h3.57v1.37h-5.23Z"/>
        <path class="cls-33" d="M350.48,119.38h1.44l4.29,6.18-1.38-1h.69v-5.13h1.65v7.9h-1.44l-4.3-6.21,1.39,1h-.7v5.17h-1.64Z"/>
      </g>
      <g>
        <path class="cls-33" d="M371.23,113.69a2.58,2.58,0,0,1-1.1-.79,2.19,2.19,0,0,1-.44-1.25v-.09h1.56v.06a1,1,0,0,0,.28.53,1.49,1.49,0,0,0,.57.35,2.55,2.55,0,0,0,.81.12,2.3,2.3,0,0,0,.79-.12,1.13,1.13,0,0,0,.51-.35.83.83,0,0,0,.18-.53h0a.72.72,0,0,0-.31-.62,2.87,2.87,0,0,0-1.05-.38l-.83-.17a3.39,3.39,0,0,1-1.76-.79,1.89,1.89,0,0,1-.6-1.45h0a2.12,2.12,0,0,1,.4-1.25,2.52,2.52,0,0,1,1.07-.84,3.79,3.79,0,0,1,1.55-.3,4,4,0,0,1,1.58.28,2.51,2.51,0,0,1,1,.81,2.33,2.33,0,0,1,.41,1.21v.1h-1.56v-.07a.94.94,0,0,0-.23-.53,1.34,1.34,0,0,0-.51-.34,2.25,2.25,0,0,0-1.45,0,1.12,1.12,0,0,0-.47.34.85.85,0,0,0-.16.5h0a.74.74,0,0,0,.32.61,2.63,2.63,0,0,0,1,.36l.83.17a3.63,3.63,0,0,1,1.82.78,1.86,1.86,0,0,1,.58,1.46h0a2.29,2.29,0,0,1-.38,1.31,2.43,2.43,0,0,1-1.09.86,4.42,4.42,0,0,1-1.71.31A4.54,4.54,0,0,1,371.23,113.69Z"/>
        <path class="cls-33" d="M379.14,105.93h1.46v1.54h-.5l-2,6.36h-1.73Zm-.86,4.75H382l.41,1.23h-4.5Zm1.85-3.21v-1.54h1l2.75,7.9H382.1Z"/>
        <path class="cls-33" d="M384.65,105.93h1.91l2.24,5.68h0l2.24-5.68H393v7.9h-1.48v-5.34h-.76l1.66-2.34-3.07,7.68h-1l-3.06-7.68,1.65,2.34h-.77v5.34h-1.47Z"/>
        <path class="cls-33" d="M396.55,105.93H398v1.54h-.5l-2,6.36H393.8Zm-.86,4.75h3.68l.41,1.23h-4.5Zm1.85-3.21v-1.54h1l2.75,7.9h-1.74Z"/>
        <path class="cls-33" d="M402.06,105.93h1.45l4.29,6.18-1.39-1h.7v-5.14h1.65v7.9h-1.44l-4.3-6.21,1.39,1h-.7v5.17h-1.65Z"/>
        <path class="cls-33" d="M412,107.3h-2.29v-1.37h6.23v1.37h-2.29v6.53H412Z"/>
        <path class="cls-33" d="M416.81,105.93h1.65v3.21H422v-3.21h1.65v7.9H422v-3.32h-3.56v3.32h-1.65Z"/>
        <path class="cls-33" d="M427.23,105.93h1.47v1.54h-.51l-2,6.36h-1.74Zm-.86,4.75h3.68l.41,1.23H426Zm1.85-3.21v-1.54h1l2.75,7.9H430.2Z"/>
        <path class="cls-33" d="M377.06,119.38h1.46v1.53H378l-2,6.37H374.3Zm-.87,4.75h3.69l.4,1.23h-4.49Zm1.86-3.22v-1.53H379l2.76,7.9H380Z"/>
        <path class="cls-33" d="M382.57,119.38h3a4.14,4.14,0,0,1,2,.46,3,3,0,0,1,1.29,1.32,4.59,4.59,0,0,1,.45,2.13h0a4.7,4.7,0,0,1-.45,2.14,3.17,3.17,0,0,1-1.29,1.37,4.14,4.14,0,0,1-2,.47h-3Zm2.81,6.53a2.41,2.41,0,0,0,1.25-.3,1.88,1.88,0,0,0,.77-.87,3.6,3.6,0,0,0,.26-1.44h0a3.25,3.25,0,0,0-.27-1.39,1.9,1.9,0,0,0-.77-.86,2.5,2.5,0,0,0-1.24-.29h-1.16v5.16Z"/>
        <path class="cls-33" d="M390.41,119.38h5.23v1.36h-3.57v1.9h3.37v1.29h-3.37v2h3.57v1.37h-5.23Z"/>
        <path class="cls-33" d="M396.84,119.38h1.65v6.53h3.45v1.37h-5.1Z"/>
        <path class="cls-33" d="M405.17,119.38h1.46v1.53h-.5l-2,6.37h-1.73Zm-.86,4.75H408l.4,1.23H403.9Zm1.85-3.22v-1.53h1l2.75,7.9h-1.74Z"/>
        <path class="cls-33" d="M410.68,119.38h1.65v7.9h-1.65Z"/>
        <path class="cls-33" d="M413.65,119.38h3a4.14,4.14,0,0,1,2,.46,3,3,0,0,1,1.29,1.32,4.59,4.59,0,0,1,.45,2.13h0a4.7,4.7,0,0,1-.45,2.14,3.17,3.17,0,0,1-1.29,1.37,4.14,4.14,0,0,1-2,.47h-3Zm2.82,6.53a2.4,2.4,0,0,0,1.24-.3,1.88,1.88,0,0,0,.77-.87,3.6,3.6,0,0,0,.26-1.44h0a3.25,3.25,0,0,0-.27-1.39,1.9,1.9,0,0,0-.77-.86,2.49,2.49,0,0,0-1.23-.29H415.3v5.16Z"/>
        <path class="cls-33" d="M421.49,119.38h5.24v1.36h-3.58v1.9h3.37v1.29h-3.37v2h3.58v1.37h-5.24Z"/>
      </g>
      <g>
        <path class="cls-33" d="M247.49,105.93h3.26a3.38,3.38,0,0,1,1.52.31,2.22,2.22,0,0,1,1,.87,2.6,2.6,0,0,1,.33,1.35h0a2.5,2.5,0,0,1-.38,1.39,2.18,2.18,0,0,1-1,.86l1.66,3.11h-1.88L250.47,111h-1.33v2.86h-1.65Zm3.08,3.78a1.33,1.33,0,0,0,1-.32,1.18,1.18,0,0,0,.35-.91h0a1.2,1.2,0,0,0-.36-.91,1.39,1.39,0,0,0-1-.33h-1.41v2.48Z"/>
        <path class="cls-33" d="M254.66,105.93h1.66v7.9h-1.66Z"/>
        <path class="cls-33" d="M259.14,113.47a3.21,3.21,0,0,1-1.3-1.4,4.78,4.78,0,0,1-.46-2.19h0a4.71,4.71,0,0,1,.46-2.18,3.21,3.21,0,0,1,1.3-1.4,3.9,3.9,0,0,1,2-.49,3.77,3.77,0,0,1,1.71.37,3.15,3.15,0,0,1,1.2,1,3,3,0,0,1,.53,1.49v0H263l0-.09a1.93,1.93,0,0,0-.33-.76,1.75,1.75,0,0,0-.61-.5,2,2,0,0,0-.87-.18,1.92,1.92,0,0,0-1.1.32,2.15,2.15,0,0,0-.72.92,3.66,3.66,0,0,0-.25,1.43h0a3.67,3.67,0,0,0,.25,1.44,2.13,2.13,0,0,0,.72.93,1.88,1.88,0,0,0,1.1.33,1.93,1.93,0,0,0,.85-.18,1.54,1.54,0,0,0,.62-.51,2,2,0,0,0,.36-.8v0h1.62v.06a3.07,3.07,0,0,1-.53,1.49,3.26,3.26,0,0,1-1.21,1,4.2,4.2,0,0,1-3.71-.13Z"/>
        <path class="cls-33" d="M265.61,105.93h1.66v3.21h3.55v-3.21h1.65v7.9h-1.65v-3.32h-3.55v3.32h-1.66Z"/>
        <path class="cls-33" d="M276,105.93h1.46v1.54H277l-2,6.36h-1.74Zm-.87,4.75h3.68l.41,1.23h-4.49Zm1.86-3.21v-1.54h1l2.76,7.9H279Z"/>
        <path class="cls-33" d="M281.55,105.93h3.26a3.38,3.38,0,0,1,1.52.31,2.14,2.14,0,0,1,1,.87,2.51,2.51,0,0,1,.34,1.35h0a2.59,2.59,0,0,1-.38,1.39,2.16,2.16,0,0,1-1.05.86l1.67,3.11H286L284.52,111H283.2v2.86h-1.65Zm3.08,3.78a1.33,1.33,0,0,0,1-.32,1.21,1.21,0,0,0,.35-.91h0a1.2,1.2,0,0,0-.36-.91,1.41,1.41,0,0,0-1-.33H283.2v2.48Z"/>
        <path class="cls-33" d="M288.72,105.93h3a4.22,4.22,0,0,1,2,.46,3,3,0,0,1,1.29,1.32,4.65,4.65,0,0,1,.45,2.13h0a4.74,4.74,0,0,1-.45,2.15,3.07,3.07,0,0,1-1.28,1.36,4.17,4.17,0,0,1-2,.47h-3Zm2.82,6.53a2.47,2.47,0,0,0,1.24-.29,1.85,1.85,0,0,0,.77-.88,3.38,3.38,0,0,0,.27-1.43h0a3.22,3.22,0,0,0-.27-1.39,2,2,0,0,0-.78-.87,2.49,2.49,0,0,0-1.23-.29h-1.17v5.16Z"/>
        <path class="cls-33" d="M237.18,119.38h1.91l2.25,5.68h0l2.24-5.68h1.91v7.9H244v-5.34h-.76l1.66-2.34-3.07,7.68h-1l-3.06-7.68,1.65,2.34h-.77v5.34h-1.47Z"/>
        <path class="cls-33" d="M249.08,119.38h1.47v1.53H250l-2,6.37h-1.74Zm-.86,4.75h3.68l.41,1.23h-4.5Zm1.85-3.22v-1.53h1l2.75,7.9H252Z"/>
        <path class="cls-33" d="M255.72,126.92a3.38,3.38,0,0,1-1.3-1.4,4.78,4.78,0,0,1-.46-2.19h0a4.78,4.78,0,0,1,.46-2.19,3.38,3.38,0,0,1,1.3-1.4,4,4,0,0,1,2-.49,3.77,3.77,0,0,1,1.71.38,3,3,0,0,1,1.74,2.51v.05h-1.61l0-.09a2,2,0,0,0-.34-.76,1.57,1.57,0,0,0-.61-.5,2,2,0,0,0-.87-.18,1.85,1.85,0,0,0-1.1.32,2.1,2.1,0,0,0-.72.92,3.81,3.81,0,0,0-.25,1.43h0a3.9,3.9,0,0,0,.25,1.44,2.14,2.14,0,0,0,.73.93,1.89,1.89,0,0,0,1.09.32,2.08,2.08,0,0,0,.85-.17,1.73,1.73,0,0,0,.63-.51,2.16,2.16,0,0,0,.35-.8v0h1.62v.06a3,3,0,0,1-.53,1.48,3.08,3.08,0,0,1-1.21,1,3.77,3.77,0,0,1-1.71.37A3.9,3.9,0,0,1,255.72,126.92Z"/>
        <path class="cls-33" d="M264.17,119.38h1.46v1.53h-.5l-2,6.37h-1.73Zm-.86,4.75H267l.4,1.23H262.9Zm1.85-3.22v-1.53h1l2.75,7.9h-1.74Z"/>
        <path class="cls-33" d="M269.68,119.38h3.26a3.38,3.38,0,0,1,1.52.31,2.26,2.26,0,0,1,1,.86,2.66,2.66,0,0,1,.34,1.36h0a2.53,2.53,0,0,1-.39,1.39,2.18,2.18,0,0,1-1,.86l1.66,3.11h-1.88l-1.46-2.86h-1.33v2.86h-1.65Zm3.08,3.78a1.33,1.33,0,0,0,1-.33,1.15,1.15,0,0,0,.35-.9v0a1.16,1.16,0,0,0-.36-.9,1.39,1.39,0,0,0-1-.33h-1.41v2.48Z"/>
        <path class="cls-33" d="M278.74,120.74h-2.28v-1.36h6.22v1.36h-2.29v6.54h-1.65Z"/>
        <path class="cls-33" d="M283.6,119.38h1.65v3.21h3.55v-3.21h1.66v7.9H288.8V124h-3.55v3.32H283.6Z"/>
        <path class="cls-33" d="M293.33,127.05a2.62,2.62,0,0,1-1.15-1,2.87,2.87,0,0,1-.41-1.53v-5.11h1.65v5a1.69,1.69,0,0,0,.44,1.22,1.59,1.59,0,0,0,1.22.45,1.63,1.63,0,0,0,1.23-.45,1.72,1.72,0,0,0,.42-1.22v-5h1.66v5.11A2.87,2.87,0,0,1,298,126a2.72,2.72,0,0,1-1.14,1,4.46,4.46,0,0,1-3.51,0Z"/>
        <path class="cls-33" d="M299.7,119.38H303a3.38,3.38,0,0,1,1.52.31,2.26,2.26,0,0,1,1,.86,2.66,2.66,0,0,1,.33,1.36h0a2.53,2.53,0,0,1-.38,1.39,2.18,2.18,0,0,1-1,.86l1.66,3.11h-1.88l-1.46-2.86h-1.33v2.86H299.7Zm3.08,3.78a1.33,1.33,0,0,0,1-.33,1.15,1.15,0,0,0,.35-.9v0a1.16,1.16,0,0,0-.36-.9,1.39,1.39,0,0,0-1-.33h-1.41v2.48Z"/>
      </g>
    </g>
    <g>
      <path class="cls-34" d="M78.15,297.81l.38.19q0,1.23.6,1.53L83,301.36l-4.8-5.22v-1.26l4.78-.61-3.67-1.89c-.49-.24-.73.09-.73,1l-.38-.19v-3.49l.38.19a2.57,2.57,0,0,0,.2,1.06,1.31,1.31,0,0,0,.6.65l4,2.12a1,1,0,0,0,.2.07c.06,0,.1,0,.14-.08a1,1,0,0,0,.1-.36,5.21,5.21,0,0,0,0-.78l.4.2v3.79l-4.43.48,4.43,4.87v3.33l-.4-.21a6.12,6.12,0,0,0,0-.69,2.84,2.84,0,0,0-.11-.46.66.66,0,0,0-.16-.27.52.52,0,0,0-.17-.13l-4.13-1.95c-.45-.2-.67.1-.67.91l-.38-.19Z"/>
      <path class="cls-34" d="M78.15,303.7l.38.2c0,.84.18,1.35.53,1.53l4.06,2.09c.46.24.69-.1.69-1l.4.21v8.1l-1.8-.83,0-.88a1.39,1.39,0,0,0,.77,0,.72.72,0,0,0,.4-.37,2,2,0,0,0,.14-.7c0-.29,0-.61,0-1a2.73,2.73,0,0,0-.09-.76.57.57,0,0,0-.25-.38l-1.61-.84c-.15-.07-.22,0-.22.21a6.4,6.4,0,0,0,0,.64,2.66,2.66,0,0,0,.12.56,1.86,1.86,0,0,0,.29.51,2.14,2.14,0,0,0,.52.45v.82l-2.44-1.27v-.82a1.53,1.53,0,0,0,.5.12.38.38,0,0,0,.3-.12.76.76,0,0,0,.13-.37,4.85,4.85,0,0,0,.05-.62c0-.33-.1-.53-.25-.61l-1.7-.88c-.29-.15-.44.12-.44.82a9.08,9.08,0,0,0,.09,1.41,3.68,3.68,0,0,0,.26,1,3.11,3.11,0,0,0,.45.75,9.86,9.86,0,0,0,.66.75l-.08.77-1.88-1.38Z"/>
      <path class="cls-34" d="M77,312.77a7.5,7.5,0,0,0,.34.88,3.64,3.64,0,0,0,.28.51,1.14,1.14,0,0,0,.22.25l.18.11c.1.05.15,0,.15-.14,0-.59.16-.79.49-.62a1.31,1.31,0,0,1,.63,1.26c0,.79-.3,1-.91.7a2.46,2.46,0,0,1-1-1,8,8,0,0,1-.72-1.84Z"/>
      <path class="cls-34" d="M78.15,328.9l.38.2c0,.82.2,1.33.6,1.55l3.82,2-4.8-5.39V326l4.78-.44-3.67-2c-.49-.26-.73.07-.73,1l-.38-.21v-3.49l.38.21a2.65,2.65,0,0,0,.2,1.07,1.4,1.4,0,0,0,.6.67l4,2.26.2.08c.06,0,.1,0,.14-.08a1,1,0,0,0,.1-.36,5.06,5.06,0,0,0,0-.77l.4.21v3.79l-4.43.32,4.43,5v3.33l-.4-.22a6.32,6.32,0,0,0,0-.7,3.3,3.3,0,0,0-.11-.47.83.83,0,0,0-.16-.27.75.75,0,0,0-.17-.14l-4.13-2.08c-.45-.23-.67.07-.67.88l-.38-.21Z"/>
      <path class="cls-34" d="M78.15,336.3l.38.21c0,.94.12,1.47.36,1.6l1.72.95,2.47-.93a1.08,1.08,0,0,0,.73-1.12l.4.22v4.7l-.4-.22c0-.67-.08-1-.25-1.14s-.17,0-.32,0l-2,.75,2,2.82a1.42,1.42,0,0,0,.37.27c.14.08.21-.25.21-1l.4.22v3.41l-.4-.23a2.4,2.4,0,0,0-.31-1.28l-2.85-4.16-1.8-1c-.21-.12-.32.28-.32,1.17l-.38-.21Z"/>
      <path class="cls-34" d="M82.24,356a2.86,2.86,0,0,0,.67.1,1.08,1.08,0,0,0,.52-.12.77.77,0,0,0,.34-.37,1.51,1.51,0,0,0,.12-.65,3.83,3.83,0,0,0-.22-1.39,1.4,1.4,0,0,0-.56-.77.47.47,0,0,0-.41-.07.65.65,0,0,0-.28.29,3.16,3.16,0,0,0-.23.59c-.07.25-.15.53-.24.83s-.21.66-.31.94a1.94,1.94,0,0,1-.38.64.73.73,0,0,1-.53.26A1.49,1.49,0,0,1,80,356a3,3,0,0,1-.82-.7,4.73,4.73,0,0,1-.6-1,5.28,5.28,0,0,1-.38-1.24,7,7,0,0,1-.14-1.38,4.75,4.75,0,0,1,.09-1,1.38,1.38,0,0,1,.29-.68c-.09-.24-.16-.48-.23-.71a6.2,6.2,0,0,1-.16-.72,2.48,2.48,0,0,1,.64.12,5.53,5.53,0,0,1,.67.31l.46.28.47.34v.92a2,2,0,0,0-.62-.23.89.89,0,0,0-.56.06.92.92,0,0,0-.43.46,2.15,2.15,0,0,0-.16.94,4.65,4.65,0,0,0,.08,1,3.33,3.33,0,0,0,.21.73,2.46,2.46,0,0,0,.31.51,1.38,1.38,0,0,0,.38.32.5.5,0,0,0,.53.05,1,1,0,0,0,.35-.63c.12-.5.25-.95.38-1.36a3.53,3.53,0,0,1,.44-1,1.17,1.17,0,0,1,.62-.48,1.22,1.22,0,0,1,.88.21,2.32,2.32,0,0,1,.71.63,4.44,4.44,0,0,1,.54.93,5.62,5.62,0,0,1,.34,1.12,6.75,6.75,0,0,1,.11,1.19,3.38,3.38,0,0,1-.12.93.93.93,0,0,1-.42.56,2.46,2.46,0,0,1,.3.63,5,5,0,0,1,.18.69,3,3,0,0,1-1-.31c-.37-.18-.72-.36-1.05-.55Z"/>
      <path class="cls-34" d="M78.15,362.16l.38.22c0,.91.19,1.48.56,1.7l1.84,1.07a1.55,1.55,0,0,0,.08-.34,4.45,4.45,0,0,0,0-.57v-1.69a4.3,4.3,0,0,0-.11-1l-1.84-1.07c-.37-.21-.56.1-.56.94l-.38-.22v-5l.38.22c0,.95.19,1.53.56,1.74l4,2.3c.49.27.73-.06.73-1l.4.23v5l-.4-.23a1.79,1.79,0,0,0-.73-1.69l-1.5-.87a3.91,3.91,0,0,0-.07.39c0,.13,0,.29,0,.48v1.69a4.68,4.68,0,0,0,.07,1l1.51.88c.48.28.73,0,.73-1l.4.23v5l-.4-.24a1.81,1.81,0,0,0-.73-1.71l-4-2.33c-.37-.22-.56.1-.56.95l-.38-.22Z"/>
      <path class="cls-34" d="M78.15,368.54l.38.22c0,.84.18,1.37.53,1.58l4.06,2.39c.46.27.69-.06.69-1l.4.24v8.1l-1.8-1,0-.88a1.41,1.41,0,0,0,.77.09.64.64,0,0,0,.4-.34,1.87,1.87,0,0,0,.14-.69q0-.42,0-1a2.76,2.76,0,0,0-.09-.77.67.67,0,0,0-.25-.41l-1.61-.95c-.15-.08-.22,0-.22.2a6.19,6.19,0,0,0,0,.63,2.85,2.85,0,0,0,.12.58,2.13,2.13,0,0,0,.29.53,2.47,2.47,0,0,0,.52.49v.82L80.06,376v-.82a1.55,1.55,0,0,0,.5.16.34.34,0,0,0,.3-.1.76.76,0,0,0,.13-.36,4.85,4.85,0,0,0,.05-.62c0-.33-.1-.54-.25-.63l-1.7-1c-.29-.17-.44.1-.44.8a9.31,9.31,0,0,0,.09,1.42,4,4,0,0,0,.26,1,3.84,3.84,0,0,0,.45.79c.18.24.4.5.66.79l-.08.76-1.88-1.52Z"/>
      <path class="cls-34" d="M78.15,378.33l.38.22c0,.81.14,1.29.42,1.46l4.23,2.54q.63.38.63-1l.4.24v4.95l-.4-.24q0-1.27-.63-1.65L79,382.31q-.3-.18-.3.63v.24c0,.41,0,.77,0,1.07a3.13,3.13,0,0,0,.17.86,3.64,3.64,0,0,0,.44.85,10.08,10.08,0,0,0,.86,1.05l0,.78-1.94-1.63Z"/>
      <path class="cls-34" d="M78.15,387.23l.38.23a1.72,1.72,0,0,0,.67,1.61l3.88,2.37c.49.3.73,0,.73-.87l.4.25v7.93l-1.76-.85-.06-1a1.29,1.29,0,0,0,.72.08.59.59,0,0,0,.39-.33,1.91,1.91,0,0,0,.17-.73c0-.3,0-.66,0-1.06s-.11-.83-.31-.95l-1.58-1c-.18-.11-.28.06-.28.53a4.73,4.73,0,0,0,0,.6,1.52,1.52,0,0,0,.15.44,1.61,1.61,0,0,0,.28.38c.12.12.27.27.46.43v.77l-2.41-1.48v-.78l.23.14a.88.88,0,0,0,.24.11.26.26,0,0,0,.25-.05.65.65,0,0,0,.19-.35,3.56,3.56,0,0,0,.07-.78.93.93,0,0,0-.06-.39.38.38,0,0,0-.15-.18l-1.63-1c-.45-.28-.67.07-.67,1l-.38-.24Z"/>
      <path class="cls-34" d="M77,394.1a8.62,8.62,0,0,0,.34.92,3.5,3.5,0,0,0,.28.53.93.93,0,0,0,.22.27L78,396c.1.06.15,0,.15-.14,0-.58.16-.77.49-.57a1.44,1.44,0,0,1,.63,1.32c0,.79-.3,1-.91.62a2.91,2.91,0,0,1-1-1.08,8.92,8.92,0,0,1-.72-1.91Z"/>
      <path class="cls-34" d="M78.15,407.22l.37.24c0,.14,0,.28,0,.44s0,.29,0,.42a2.29,2.29,0,0,0,.06.32q0,.14.06.15a.2.2,0,0,0,.11,0H79l1.11.08c.07,0,.12-.06.14-.19a2,2,0,0,0,0-.44v-2a1,1,0,0,0-.18-.66l-.93-1a.52.52,0,0,0-.1-.11l-.12-.09c-.23-.14-.35.18-.35,1l-.42-.26v-3.27l.42.26a2.68,2.68,0,0,0,.62,1.56l5.17,6.58-.12,1.24-5.36-.12a.23.23,0,0,0-.17.08.83.83,0,0,0-.1.23,2.5,2.5,0,0,0,0,.29c0,.1,0,.2,0,.3l-.37-.24Zm4.7,1.84-1.75-2.21a1.77,1.77,0,0,0-.27-.33s-.07.1-.07.39v1.73a.92.92,0,0,0,0,.36,1.93,1.93,0,0,0,.5.05Z"/>
      <path class="cls-34" d="M78,420.32,82.12,417l-2.59-1.65c-.66-.43-1-.17-1,.79l-.38-.25v-3.49l.38.24a2.05,2.05,0,0,0,1,1.82l4,2.53c.21.13.31-.26.31-1.18l.4.25v2.67l-3.68,2.92,2.35,1.51c.62.4.93.13.93-.82l.4.26v3.5l-.4-.26a2.09,2.09,0,0,0-.93-1.89l-4.76-3.07Z"/>
      <path class="cls-34" d="M78.15,423l.38.25a6.73,6.73,0,0,0,0,.69,1.55,1.55,0,0,0,.11.47,1.08,1.08,0,0,0,.23.34,2.44,2.44,0,0,0,.4.3L83,427.48a1.55,1.55,0,0,0,.45.23.18.18,0,0,0,.2-.1,1,1,0,0,0,.07-.37c0-.16,0-.36.08-.59l.4.26c0,.22,0,.44,0,.64s0,.41,0,.63,0,.56,0,.8,0,.51,0,.8,0,.62,0,1,0,.84,0,1.41a8.6,8.6,0,0,1-.17,1.84,2,2,0,0,1-.54,1.09,1.1,1.1,0,0,1-1,.26,3.79,3.79,0,0,1-1.41-.63,7.06,7.06,0,0,1-1.36-1.15,5.8,5.8,0,0,1-.94-1.46,7.84,7.84,0,0,1-.54-1.86,14.11,14.11,0,0,1-.18-2.39Zm1.06,4.3a1,1,0,0,0-.33-.16.16.16,0,0,0-.18.08.58.58,0,0,0-.08.31c0,.14,0,.31,0,.53a4.87,4.87,0,0,0,.61,2.45,5.74,5.74,0,0,0,1.94,2c.87.57,1.52.77,1.94.59s.63-.8.63-1.87c0-.19,0-.35,0-.48a1.39,1.39,0,0,0-.06-.33.78.78,0,0,0-.16-.24,1.18,1.18,0,0,0-.26-.21Z"/>
      <path class="cls-34" d="M78.15,438.21l.38.26c0,.87.19,1.43.56,1.67l4,2.67c.49.32.73,0,.73-.89l.4.27v4.94l-.4-.27a1.92,1.92,0,0,0-.73-1.74l-4-2.67c-.37-.25-.56.06-.56.94l-.38-.26Z"/>
    </g>
    <g>
      <rect class="cls-21" x="344.85" y="509.59" width="9.41" height="104.08" rx="2.62" transform="translate(699.12 1123.27) rotate(-180)"/>
      <path class="cls-35" d="M469,198.53a158.59,158.59,0,0,0-39.48,5c-3.7,1-7.36,2.05-10.95,3.26q-2.6.87-5.14,1.84c-2.12.79-4.23,1.63-6.31,2.52-1.25.53-2.48,1.07-3.7,1.64a158,158,0,0,0-18.74,10.14,158.68,158.68,0,0,0-40.16,36.36,157.2,157.2,0,0,0-33.34,90.92q-.12,3.13-.12,6.3a158.11,158.11,0,0,0,197.44,153q5.55-1.45,10.95-3.26c1.72-.58,3.44-1.19,5.13-1.83,2.13-.79,4.23-1.64,6.31-2.53,1.24-.53,2.48-1.07,3.71-1.63a158.07,158.07,0,0,0,92.23-137.44c.08-2.09.13-4.19.13-6.29A158,158,0,0,0,469,198.53ZM507.76,358a38.72,38.72,0,0,1-14.31,28.55,39.08,39.08,0,0,1-8.31,5.16h0l-.91.41c-.5.22-1,.43-1.54.62l-1.26.45c-.88.3-1.78.56-2.69.79a38.74,38.74,0,0,1-48.43-37.52c0-.52,0-1,0-1.54a38.82,38.82,0,0,1,14.31-28.55,36,36,0,0,1,3.72-2.67,37.76,37.76,0,0,1,4.6-2.49c.3-.14.59-.28.9-.41h0c.51-.21,1-.42,1.54-.61h0c.42-.16.83-.31,1.26-.45.88-.3,1.77-.57,2.68-.8a38.75,38.75,0,0,1,48.44,37.52C507.8,357,507.78,357.5,507.76,358Z"/>
      <path class="cls-36" d="M453.67,337.52a24.74,24.74,0,0,0-3.86,3.93l-11.29-8.82-94-73.38a159.86,159.86,0,0,1,25-25.44l75.1,92.58Z"/>
      <path class="cls-37" d="M462.94,332.84c-.56.15-1.13.31-1.69.5l-4.57-13.59-38.07-113c3.59-1.21,7.25-2.3,10.95-3.26L459.36,319h0Z"/>
      <path class="cls-38" d="M460.46,333.63c-.33.11-.65.25-1,.39l-5.62-13.2-46.7-109.71c2.08-.89,4.19-1.73,6.31-2.52L455.41,320.2h0Z"/>
      <path class="cls-39" d="M458.92,334.27a24.4,24.4,0,0,0-2.9,1.56l-7.66-12.12L384.72,222.9a158,158,0,0,1,18.74-10.15L453,321.23Z"/>
      <path class="cls-40" d="M449.81,341.45a24.34,24.34,0,0,0-5.15,14.05l-14.33-.57-119.1-4.75a157.23,157.23,0,0,1,33.33-90.93l94,73.38Z"/>
      <path class="cls-36" d="M593.53,453.7a157.91,157.91,0,0,1-25,25.45l-75.08-92.58-9-11.14a24.68,24.68,0,0,0,3.86-3.92l11.29,8.82Z"/>
      <path class="cls-37" d="M519.49,506.19c-3.6,1.22-7.25,2.3-10.95,3.27L478.73,394l-3.58-13.88c.57-.15,1.14-.32,1.69-.51l4.58,13.59Z"/>
      <path class="cls-38" d="M530.93,501.84c-2.08.88-4.17,1.73-6.31,2.52L482.68,392.75l-5.05-13.42c.34-.12.65-.25,1-.39l5.62,13.2Z"/>
      <path class="cls-39" d="M553.37,490.05a157.12,157.12,0,0,1-18.73,10.15L485.13,391.73l-5.95-13a22.58,22.58,0,0,0,2.9-1.58l7.66,12.13Z"/>
      <path class="cls-40" d="M626.87,362.77a157.14,157.14,0,0,1-33.34,90.93l-93.95-73.37-11.29-8.82a24.4,24.4,0,0,0,5.15-14.06l14.32.56Z"/>
      <path class="cls-41" d="M469.05,307.37a49.11,49.11,0,0,0-12.27,1.55h0c-1.15.3-2.28.63-3.4,1-.54.18-1.06.36-1.59.56h0c-.67.25-1.31.51-1.95.78h0l-1.14.52a46.67,46.67,0,0,0-5.82,3.16,47.65,47.65,0,0,0-4.72,3.38,49.62,49.62,0,0,0-7.76,7.91A48.94,48.94,0,0,0,420,354.51h0c0,.66,0,1.29,0,1.94A49.12,49.12,0,0,0,481.31,404h0c1.15-.3,2.28-.63,3.4-1h0c.53-.17,1.06-.36,1.59-.56s1.31-.51,2-.78l1.15-.52h0a48.13,48.13,0,0,0,5.82-3.16A47.52,47.52,0,0,0,500,394.6a49.05,49.05,0,0,0,18.13-36.17h0c0-.66,0-1.3,0-2A49.1,49.1,0,0,0,469.05,307.37Zm19.47,49.87a19.53,19.53,0,0,1-7.2,14.36,17.75,17.75,0,0,1-1.87,1.35,19.76,19.76,0,0,1-2.31,1.25l-.46.2-.78.31c-.21.09-.42.16-.64.23-.44.15-.89.28-1.34.4a19.51,19.51,0,0,1-24.35-18.87c0-.26,0-.52,0-.77h0a19.31,19.31,0,0,1,4.12-11.21,19.82,19.82,0,0,1,3.07-3.14,22,22,0,0,1,1.87-1.34,19.3,19.3,0,0,1,2.32-1.26l.45-.2.78-.31c.21-.08.42-.16.64-.22.44-.15.89-.28,1.34-.41a19.52,19.52,0,0,1,24.36,18.87C488.53,356.73,488.52,357,488.52,357.24Z"/>
      <circle class="cls-42" cx="469.05" cy="356.47" r="155.08"/>
      <path class="cls-43" d="M469.05,203.49a153,153,0,1,0,153,153A153,153,0,0,0,469.05,203.49ZM518.1,358.42h0A49.05,49.05,0,0,1,500,394.6a47.52,47.52,0,0,1-4.71,3.38,48.13,48.13,0,0,1-5.82,3.16h0l-1.15.52c-.65.27-1.3.54-2,.78s-1.06.39-1.59.56h0c-1.12.39-2.25.72-3.4,1h0A49.12,49.12,0,0,1,420,356.46c0-.65,0-1.28,0-1.94h0a48.94,48.94,0,0,1,10.37-28.26,49.62,49.62,0,0,1,7.76-7.91,47.65,47.65,0,0,1,4.72-3.38,46.67,46.67,0,0,1,5.82-3.16l1.14-.52h0c.64-.27,1.28-.53,1.95-.78h0c.53-.2,1.05-.38,1.59-.56,1.12-.39,2.25-.72,3.4-1h0a49.12,49.12,0,0,1,61.36,47.54C518.14,357.12,518.13,357.76,518.1,358.42Z"/>
      <g id="g1">
        <path id="path1" class="cls-44" d="M367,344.38v.08l.09.16.08.25.08.37.21.38.12.45.13.42.16.41.13.37.08.37.08.25.33.87.25.74.16.62.21.5.08.41.09.37,0,.21,0,.21V352l0,0,0-.12.08-.13.13-.2.16-.29.29-.33.29-.37.38-.5.45-.62.54-.66.66-.79.16-.16.21-.25.25-.37.37-.38.29-.41L374,346l.37-.42.29-.33.33-.37.21-.21.12-.16.05-.08h9.5l1.2.08,1.12.12,1,.25.95.33.83.42.74.49.62.58.54.58.33.66.21.74,0,.75-.12.78-.25.83-.42.75-.53.74-.71.66-.78.62-.87.54-.95.49-1,.46-1.12.29-1.12.25-1.15.12-1.24,0h-6.37l1.9-8.06h4.51l-1.28,5.54h1l.78,0,.79-.08.78-.13.67-.2.66-.33.62-.34.49-.45.42-.46.33-.57.25-.67.08-.57,0-.54-.17-.5-.33-.37-.37-.41-.54-.29-.58-.25-.66-.17-.74-.08-.87,0H378l-10.33,11.74-4.1-11.53v0l0-.09v0l-.08-.08h0l-.08.08v0l0,0v.09h0v0l.12.45.08.42.05.49,0,.5v.41l0,.42-.05.28-.24.83-.46.75-.54.74-.66.66-.78.62-.87.54-1,.49-1,.38-1.07.37-1.16.25-1.2.12-1.16,0h-6.4l1.94-8.06h4.51l-1.37,5.54h1.08l.78,0,.79-.08.7-.13.74-.2.67-.33.57-.34.5-.45.46-.46.28-.57.25-.67.09-.57-.05-.54-.2-.5-.25-.37-.41-.41-.5-.29-.62-.25-.66-.17-.75-.08-.82,0H349.2l.62-2.56H367"/>
        <path id="path2" class="cls-44" d="M367,362.94h-.82l-1.49-.08-.62-.09-.62-.12-.5-.08-.41-.17-.33-.16-.17-.17-.08-.16.08-.17.17-.12.33-.21.41-.12.5-.13.62-.08.62-.08.74-.05.75,0,.82,0,.83,0,.79,0,.7.05.7.08.54.08.54.13.37.12.33.21.17.12.08.17-.08.16-.17.17-.33.16-.37.17-.54.08-.54.12-.7.09-.7,0-.79,0Zm.83-4.22h-2l-2,0-1.86.09-1.82.08-1.78.08-1.65.17-1.61.12-1.49.17-1.36.16-1.29.21-1.15.25-1,.2-.91.21-.7.29-.58.25-.45.25-.25.28-.08.29.08.25.25.33.45.25.58.25.7.29.91.21,1,.2,1.15.25,1.29.21,1.36.16,1.49.17,1.61.12,1.65.17,1.78.08,1.82.08,1.86.08h2l2,.05,2-.05h1.94l1.86-.08,1.82-.08,1.78-.08,1.65-.17,1.61-.12,1.49-.17,1.41-.16,1.24-.21,1.2-.25,1-.2.91-.21.74-.29.54-.25.45-.25.25-.33.09-.25-.09-.29-.25-.28-.45-.25-.54-.25-.74-.29-.91-.21-1-.2-1.2-.25-1.24-.21-1.41-.16-1.49-.17-1.61-.12-1.65-.17-1.78-.08-1.82-.08-1.86-.09-1.94,0h-2"/>
        <path id="path3" class="cls-44" d="M389.59,364.3h-.54l-.21,1.62h-.25l.21-1.62h-.58l0-.2h1.37l0,.2"/>
        <path id="path4" class="cls-44" d="M391.49,365.92h-.25v-1.41l-.74,1.41-.29-1.41-.5,1.41h-.21l.62-1.82h.17l.29,1.2.66-1.2h.25v1.82"/>
        <path id="path5" class="cls-44" d="M352.92,370.63l1.49-3h1.4l-2.56,4.63h-.79l-2.52-4.63h1.36l1.62,3"/>
        <path id="path6" class="cls-44" d="M359,372.24h1.24v-4.63H359Z"/>
        <path id="path7" class="cls-44" d="M365.77,372.24h-1.9v-4.63h1.9l.67,0,.62.13.57.24.46.25.37.37.29.38.17.45,0,.46,0,.49-.17.42-.29.41-.41.29-.42.33-.57.21-.62.12-.67,0Zm-.37-3.84H366l.5.12.37.17.33.2.25.29.12.33,0,.42,0,.33-.08.29-.12.24-.29.25-.29.17-.37.12-.46.08-.58,0h-.2V368.4h.2"/>
        <path id="path8" class="cls-44" d="M373.67,368.4v1h2v.79h-2v1.24h2.15v.78h-3.43v-4.63h3.43v.79h-2.15"/>
        <path id="path9" class="cls-44" d="M382.35,372.24l.75,0,.62-.12.58-.21.45-.33.41-.33.29-.42.17-.41,0-.45,0-.46-.17-.45-.29-.33-.41-.38-.45-.29-.58-.24-.62-.13-.75,0-.66,0-.62.13-.58.24-.45.29-.42.38-.29.33-.16.45,0,.46,0,.45.16.41.29.42.42.33.45.33.58.21.62.12Zm0-3.8.5,0,.41.16.37.17.29.21.25.24.13.34,0,.28,0,.34-.13.24-.25.29-.29.29-.41.17-.37.12-.5,0-.41,0-.46-.12-.33-.17-.29-.29-.24-.29-.13-.24,0-.34,0-.28.13-.34.24-.24.29-.21.33-.17.46-.16.41,0"/>
      </g>
      <text class="cls-45" transform="translate(347.84 293.66)">ME, MY SHEL<tspan class="cls-46" x="152.44" y="0">F</tspan><tspan class="cls-47" x="164.42" y="0">, AND I</tspan></text>
      <g>
        <path class="cls-33" d="M367.94,458.3l2-1.87a5.53,5.53,0,0,0,.55-.56,1.52,1.52,0,0,0,.26-.41,1.11,1.11,0,0,0,.07-.37h0a.81.81,0,0,0-.11-.41.89.89,0,0,0-.3-.28.92.92,0,0,0-.44-.1,1,1,0,0,0-.51.12.88.88,0,0,0-.35.31,1,1,0,0,0-.13.46v0h-1.1v0a1.67,1.67,0,0,1,.27-.94,1.93,1.93,0,0,1,.74-.64,2.66,2.66,0,0,1,2.12,0,1.78,1.78,0,0,1,.71.58,1.54,1.54,0,0,1,.25.85h0a1.61,1.61,0,0,1-.12.63,2.37,2.37,0,0,1-.41.62,9.22,9.22,0,0,1-.77.77L369,458.53l.45-.79v.79l-.45-.36h3v.94h-4.1Z"/>
        <path class="cls-33" d="M373.74,458.85a2.24,2.24,0,0,1-.79-1,3.83,3.83,0,0,1-.28-1.55h0a3.87,3.87,0,0,1,.28-1.55,2.21,2.21,0,0,1,.79-1,2.28,2.28,0,0,1,2.46,0,2.21,2.21,0,0,1,.79,1,4,4,0,0,1,.28,1.55h0a4,4,0,0,1-.28,1.55,2.24,2.24,0,0,1-.79,1,2.34,2.34,0,0,1-2.46,0Zm1.83-.83a1.43,1.43,0,0,0,.37-.67,3.66,3.66,0,0,0,.13-1.06h0a3.58,3.58,0,0,0-.13-1,1.47,1.47,0,0,0-.37-.68.86.86,0,0,0-.6-.23.88.88,0,0,0-.6.23,1.58,1.58,0,0,0-.38.68,4,4,0,0,0-.12,1h0a4.07,4.07,0,0,0,.12,1.06,1.54,1.54,0,0,0,.38.67.85.85,0,0,0,.6.24A.83.83,0,0,0,375.57,458Z"/>
        <path class="cls-33" d="M379.36,454.55h0l-1.43,1v-1l1.45-1h1.18v5.64h-1.17Z"/>
        <path class="cls-33" d="M383.2,454.55h0l-1.43,1v-1l1.45-1h1.18v5.64H383.2Z"/>
        <path class="cls-33" d="M387.83,460.47h-1l1.41-7h1Z"/>
        <path class="cls-33" d="M392.37,458.85a2.25,2.25,0,0,1-.93-1,3.45,3.45,0,0,1-.33-1.56h0a3.42,3.42,0,0,1,.33-1.56,2.31,2.31,0,0,1,.93-1,2.82,2.82,0,0,1,1.42-.35,2.64,2.64,0,0,1,1.22.27,2.2,2.2,0,0,1,.86.73,2.06,2.06,0,0,1,.38,1.06v0H395.1v-.07a1.56,1.56,0,0,0-.24-.54,1.2,1.2,0,0,0-.44-.36,1.32,1.32,0,0,0-.62-.13,1.35,1.35,0,0,0-.78.23,1.55,1.55,0,0,0-.51.66,2.65,2.65,0,0,0-.19,1h0a2.67,2.67,0,0,0,.19,1,1.44,1.44,0,0,0,.51.66,1.3,1.3,0,0,0,.78.23,1.48,1.48,0,0,0,.61-.12,1.13,1.13,0,0,0,.45-.36,1.48,1.48,0,0,0,.25-.57v0h1.15v0a2.25,2.25,0,0,1-.38,1.06,2.3,2.3,0,0,1-.87.73,2.64,2.64,0,0,1-1.22.26A2.72,2.72,0,0,1,392.37,458.85Z"/>
        <path class="cls-33" d="M398.08,458.85a2.3,2.3,0,0,1-.94-1,3.38,3.38,0,0,1-.33-1.55h0a3.41,3.41,0,0,1,.33-1.55,2.35,2.35,0,0,1,.95-1,3.06,3.06,0,0,1,2.88,0,2.48,2.48,0,0,1,.95,1,3.41,3.41,0,0,1,.33,1.55h0a3.38,3.38,0,0,1-.33,1.55,2.48,2.48,0,0,1-.94,1,3.18,3.18,0,0,1-2.9,0Zm2.26-.88a1.54,1.54,0,0,0,.52-.67,2.57,2.57,0,0,0,.18-1h0a2.57,2.57,0,0,0-.18-1,1.56,1.56,0,0,0-.53-.67,1.42,1.42,0,0,0-.8-.23,1.4,1.4,0,0,0-.8.23,1.51,1.51,0,0,0-.53.66,2.65,2.65,0,0,0-.19,1h0a2.65,2.65,0,0,0,.19,1,1.57,1.57,0,0,0,.52.66,1.54,1.54,0,0,0,1.62,0Z"/>
        <path class="cls-33" d="M403,453.47h1.18v4.66h2.46v1H403Z"/>
        <path class="cls-33" d="M408.21,458.85a2.3,2.3,0,0,1-.94-1,3.38,3.38,0,0,1-.33-1.55h0a3.41,3.41,0,0,1,.33-1.55,2.39,2.39,0,0,1,.94-1,2.81,2.81,0,0,1,1.45-.36,2.75,2.75,0,0,1,1.44.36,2.39,2.39,0,0,1,.94,1,3.28,3.28,0,0,1,.34,1.55h0a3.25,3.25,0,0,1-.34,1.55,2.4,2.4,0,0,1-.93,1,3.18,3.18,0,0,1-2.9,0Zm2.25-.88a1.56,1.56,0,0,0,.53-.67,2.57,2.57,0,0,0,.18-1h0a2.4,2.4,0,0,0-.19-1,1.47,1.47,0,0,0-.52-.67,1.42,1.42,0,0,0-.8-.23,1.4,1.4,0,0,0-.8.23,1.51,1.51,0,0,0-.53.66,2.48,2.48,0,0,0-.19,1h0a2.48,2.48,0,0,0,.19,1,1.57,1.57,0,0,0,.52.66,1.38,1.38,0,0,0,.81.23A1.32,1.32,0,0,0,410.46,458Z"/>
        <path class="cls-33" d="M413.13,453.47h2.33a2.44,2.44,0,0,1,1.09.22,1.54,1.54,0,0,1,.69.62,1.82,1.82,0,0,1,.24,1h0a1.76,1.76,0,0,1-.28,1,1.49,1.49,0,0,1-.74.62l1.19,2.22h-1.34l-1.05-2h-.95v2h-1.18Zm2.2,2.7a1,1,0,0,0,.69-.24.81.81,0,0,0,.25-.64h0a.86.86,0,0,0-.26-.65,1,1,0,0,0-.69-.23h-1v1.77Z"/>
        <path class="cls-33" d="M420.38,460.47h-1l1.41-7h1Z"/>
        <path class="cls-33" d="M425.18,454.55h0l-1.43,1v-1l1.45-1h1.18v5.64h-1.17Z"/>
        <path class="cls-33" d="M427.61,458.3l2-1.87a4.62,4.62,0,0,0,.55-.56,1.52,1.52,0,0,0,.26-.41.9.9,0,0,0,.07-.37h0a.81.81,0,0,0-.11-.41.74.74,0,0,0-.3-.28.92.92,0,0,0-.44-.1,1,1,0,0,0-.51.12.79.79,0,0,0-.34.31.92.92,0,0,0-.14.46v0h-1.1v0a1.67,1.67,0,0,1,.27-.94,1.93,1.93,0,0,1,.74-.64,2.66,2.66,0,0,1,2.12,0,1.78,1.78,0,0,1,.71.58,1.47,1.47,0,0,1,.25.85h0a1.61,1.61,0,0,1-.12.63,2.14,2.14,0,0,1-.41.62,7.89,7.89,0,0,1-.77.77l-1.63,1.49.45-.79v.79l-.44-.36h3v.94h-4.1Z"/>
        <path class="cls-33" d="M433.84,454.55h0l-1.44,1v-1l1.46-1H435v5.64h-1.17Z"/>
        <path class="cls-33" d="M437.93,453.47h1.36l1.6,4h0l1.59-4h1.37v5.64h-1.05V455.3h-.55l1.18-1.67-2.18,5.48h-.75l-2.18-5.48,1.18,1.67H439v3.81h-1.05Z"/>
        <path class="cls-33" d="M444.82,453.47H446v5.64h-1.18Z"/>
        <path class="cls-33" d="M446.94,453.47h1l3.06,4.41-1-.75h.5v-3.66h1.17v5.64h-1l-3.07-4.44,1,.75h-.5v3.69h-1.17Z"/>
        <path class="cls-33" d="M453.54,459a1.77,1.77,0,0,1-.78-.57,1.57,1.57,0,0,1-.32-.89v-.06h1.11v0a.69.69,0,0,0,.19.38,1.08,1.08,0,0,0,.42.24,1.66,1.66,0,0,0,.57.09,1.53,1.53,0,0,0,.56-.09.76.76,0,0,0,.37-.25.54.54,0,0,0,.13-.37h0a.52.52,0,0,0-.23-.44,2,2,0,0,0-.74-.27l-.6-.12a2.47,2.47,0,0,1-1.25-.57,1.32,1.32,0,0,1-.43-1h0a1.63,1.63,0,0,1,.28-.9,1.85,1.85,0,0,1,.77-.59,2.59,2.59,0,0,1,1.11-.22,2.73,2.73,0,0,1,1.12.21,1.59,1.59,0,0,1,.74.57,1.62,1.62,0,0,1,.3.87v.07h-1.11v0a.73.73,0,0,0-.17-.38,1,1,0,0,0-.36-.24,1.36,1.36,0,0,0-.51-.09,1.31,1.31,0,0,0-.52.09.8.8,0,0,0-.34.24.54.54,0,0,0-.11.35h0a.5.5,0,0,0,.22.43,2,2,0,0,0,.71.26l.6.12a2.62,2.62,0,0,1,1.3.56,1.36,1.36,0,0,1,.41,1h0a1.6,1.6,0,0,1-.27.94,1.74,1.74,0,0,1-.78.62,3.67,3.67,0,0,1-2.39,0Z"/>
        <path class="cls-33" d="M457.75,459a.63.63,0,0,1,0-.9.61.61,0,0,1,.45-.18.64.64,0,0,1,.45.18.65.65,0,0,1,0,.9.64.64,0,0,1-.45.18A.61.61,0,0,1,457.75,459Z"/>
        <path class="cls-33" d="M461.29,460.47h-1l1.41-7h1Z"/>
        <path class="cls-33" d="M465.85,458.94a1.94,1.94,0,0,1-.82-.73,2.07,2.07,0,0,1-.29-1.1v-3.64h1.18V457a1.25,1.25,0,0,0,.31.87,1.15,1.15,0,0,0,.88.32,1.11,1.11,0,0,0,.87-.32,1.2,1.2,0,0,0,.31-.87v-3.54h1.18v3.64a2.07,2.07,0,0,1-.29,1.1,1.89,1.89,0,0,1-.82.73,2.71,2.71,0,0,1-1.25.26A2.78,2.78,0,0,1,465.85,458.94Z"/>
        <path class="cls-33" d="M471.3,459a1.74,1.74,0,0,1-.79-.57,1.57,1.57,0,0,1-.32-.89v-.06h1.11v0a.7.7,0,0,0,.2.38,1,1,0,0,0,.41.24,1.7,1.7,0,0,0,.57.09,1.62,1.62,0,0,0,.57-.09.69.69,0,0,0,.36-.25.54.54,0,0,0,.13-.37h0a.51.51,0,0,0-.22-.44,2,2,0,0,0-.75-.27l-.59-.12a2.47,2.47,0,0,1-1.26-.57,1.35,1.35,0,0,1-.42-1h0a1.48,1.48,0,0,1,.28-.9,1.82,1.82,0,0,1,.76-.59,2.59,2.59,0,0,1,1.11-.22,2.81,2.81,0,0,1,1.13.21,1.58,1.58,0,0,1,1,1.44v.07h-1.11v0a.72.72,0,0,0-.16-.38,1.08,1.08,0,0,0-.37-.24,1.33,1.33,0,0,0-.51-.09,1.35,1.35,0,0,0-.52.09.71.71,0,0,0-.33.24.55.55,0,0,0-.12.35h0a.51.51,0,0,0,.23.43,1.89,1.89,0,0,0,.71.26l.6.12a2.58,2.58,0,0,1,1.29.56,1.33,1.33,0,0,1,.42,1h0a1.54,1.54,0,0,1-.28.94,1.74,1.74,0,0,1-.78.62,3.64,3.64,0,0,1-2.38,0Z"/>
        <path class="cls-33" d="M477,453.47h1.18v5.64H477Zm.59,2.94H479a1.12,1.12,0,0,0,.79-.26.94.94,0,0,0,.28-.74h0a.94.94,0,0,0-.28-.74,1.12,1.12,0,0,0-.79-.25h-1.38v-.94h1.67a2.16,2.16,0,0,1,1,.24,1.74,1.74,0,0,1,.7.67,2.08,2.08,0,0,1,.24,1h0a2.07,2.07,0,0,1-.24,1,1.74,1.74,0,0,1-.7.67,2.16,2.16,0,0,1-1,.24h-1.67Z"/>
        <path class="cls-33" d="M483.07,458.85a2.3,2.3,0,0,1-.94-1,3.44,3.44,0,0,1-.33-1.57h0a3.42,3.42,0,0,1,.33-1.56,2.34,2.34,0,0,1,.93-1,3.11,3.11,0,0,1,2.63-.11,2.16,2.16,0,0,1,1.27,1.61v.06h-1.19v0a1.3,1.3,0,0,0-.47-.63,1.41,1.41,0,0,0-.81-.23,1.44,1.44,0,0,0-.79.22,1.41,1.41,0,0,0-.52.65,2.79,2.79,0,0,0-.17,1h0a2.69,2.69,0,0,0,.18,1,1.57,1.57,0,0,0,.53.67,1.39,1.39,0,0,0,.82.23,1.44,1.44,0,0,0,.67-.14,1.15,1.15,0,0,0,.47-.4,1.21,1.21,0,0,0,.18-.61V457h-1.29v-.88H487v.65a2.74,2.74,0,0,1-.3,1.32,2.07,2.07,0,0,1-.86.85,3.21,3.21,0,0,1-2.79-.06Z"/>
        <path class="cls-33" d="M489.92,460.47h-1l1.41-7h1Z"/>
        <path class="cls-33" d="M493.08,453.47h1.22l.89,4h0l1-4h1l1,4h0l.89-4h1.23l-1.5,5.64h-1.15l-1-3.78h0l-1,3.78h-1.15Z"/>
        <path class="cls-33" d="M501.1,453.47h1.18v5.64H501.1Z"/>
        <path class="cls-33" d="M503.22,453.47h2.15a3.08,3.08,0,0,1,1.45.32,2.22,2.22,0,0,1,.92.95,3.35,3.35,0,0,1,.32,1.52h0a3.45,3.45,0,0,1-.32,1.53,2.21,2.21,0,0,1-.92,1,3,3,0,0,1-1.45.34h-2.15Zm2,4.66a1.75,1.75,0,0,0,.89-.21,1.36,1.36,0,0,0,.55-.63,2.51,2.51,0,0,0,.19-1h0a2.43,2.43,0,0,0-.19-1,1.47,1.47,0,0,0-.56-.62,1.82,1.82,0,0,0-.88-.2h-.83v3.68Z"/>
        <path class="cls-33" d="M508.82,453.47h3.74v1H510v1.35h2.41v.93H510v1.41h2.56v1h-3.74Z"/>
        <path class="cls-33" d="M514.3,459a1.77,1.77,0,0,1-.78-.57,1.5,1.5,0,0,1-.32-.89v-.06h1.12v0a.78.78,0,0,0,.2.38,1,1,0,0,0,.41.24,1.72,1.72,0,0,0,.58.09,1.53,1.53,0,0,0,.56-.09.76.76,0,0,0,.37-.25.59.59,0,0,0,.13-.37h0a.52.52,0,0,0-.23-.44,2,2,0,0,0-.75-.27l-.59-.12a2.55,2.55,0,0,1-1.26-.57,1.35,1.35,0,0,1-.42-1h0a1.55,1.55,0,0,1,.28-.9,1.88,1.88,0,0,1,.76-.59,2.65,2.65,0,0,1,1.11-.22,2.78,2.78,0,0,1,1.13.21,1.64,1.64,0,0,1,.74.57,1.62,1.62,0,0,1,.29.87v.07h-1.12v0a.73.73,0,0,0-.17-.38,1,1,0,0,0-.36-.24,1.55,1.55,0,0,0-1,0,.83.83,0,0,0-.33.24.55.55,0,0,0-.12.35h0a.51.51,0,0,0,.23.43,2,2,0,0,0,.71.26l.6.12a2.67,2.67,0,0,1,1.3.56,1.36,1.36,0,0,1,.41,1h0a1.6,1.6,0,0,1-.27.94,1.74,1.74,0,0,1-.78.62,3.67,3.67,0,0,1-2.39,0Z"/>
        <path class="cls-33" d="M519.54,458.85a2.37,2.37,0,0,1-.93-1,3.45,3.45,0,0,1-.33-1.56h0a3.42,3.42,0,0,1,.33-1.56,2.43,2.43,0,0,1,.93-1,2.83,2.83,0,0,1,1.43-.35,2.7,2.7,0,0,1,1.22.27,2.24,2.24,0,0,1,.85.73,2.06,2.06,0,0,1,.38,1.06v0h-1.15l0-.07a1.26,1.26,0,0,0-.24-.54,1.2,1.2,0,0,0-.44-.36,1.31,1.31,0,0,0-.61-.13,1.39,1.39,0,0,0-.79.23,1.55,1.55,0,0,0-.51.66,2.66,2.66,0,0,0-.18,1h0a2.67,2.67,0,0,0,.18,1,1.44,1.44,0,0,0,.51.66,1.33,1.33,0,0,0,.79.23,1.43,1.43,0,0,0,.6-.12,1.13,1.13,0,0,0,.45-.36,1.48,1.48,0,0,0,.25-.57v0h1.15v0a2.25,2.25,0,0,1-.38,1.06,2.35,2.35,0,0,1-.86.73,2.7,2.7,0,0,1-1.22.26A2.73,2.73,0,0,1,519.54,458.85Z"/>
        <path class="cls-33" d="M524.16,453.47h2.33a2.39,2.39,0,0,1,1.08.22,1.54,1.54,0,0,1,.69.62,1.82,1.82,0,0,1,.24,1h0a1.84,1.84,0,0,1-.27,1,1.56,1.56,0,0,1-.75.62l1.19,2.22h-1.34l-1.05-2h-.94v2h-1.18Zm2.2,2.7a.92.92,0,0,0,.68-.24.81.81,0,0,0,.25-.64h0a.85.85,0,0,0-.25-.65,1.05,1.05,0,0,0-.7-.23h-1v1.77Z"/>
        <path class="cls-33" d="M529.28,453.47H533v1h-2.55v1.35h2.41v.93h-2.41v1.41H533v1h-3.73Z"/>
        <path class="cls-33" d="M533.87,453.47h3.73v1H535v1.35h2.42v.93H535v1.41h2.56v1h-3.73Z"/>
        <path class="cls-33" d="M538.45,453.47h1l3.06,4.41-1-.75h.49v-3.66h1.18v5.64h-1l-3.08-4.44,1,.75h-.49v3.69h-1.18Z"/>
        <path class="cls-33" d="M546.29,460.47h-1l1.41-7h1Z"/>
        <path class="cls-33" d="M549.75,453.47h1l3.07,4.41-1-.75h.49v-3.66h1.18v5.64h-1l-3.07-4.44,1,.75h-.49v3.69h-1.18Z"/>
        <path class="cls-33" d="M556.81,454.44h-1.63v-1h4.45v1H558v4.67h-1.18Z"/>
        <path class="cls-33" d="M561.17,459a1.77,1.77,0,0,1-.78-.57,1.57,1.57,0,0,1-.32-.89v-.06h1.12v0a.69.69,0,0,0,.19.38,1.11,1.11,0,0,0,.41.24,1.76,1.76,0,0,0,.58.09,1.53,1.53,0,0,0,.56-.09.76.76,0,0,0,.37-.25.59.59,0,0,0,.13-.37h0a.52.52,0,0,0-.23-.44,2,2,0,0,0-.74-.27l-.6-.12a2.47,2.47,0,0,1-1.25-.57,1.32,1.32,0,0,1-.43-1h0a1.55,1.55,0,0,1,.28-.9,1.88,1.88,0,0,1,.76-.59,2.65,2.65,0,0,1,1.11-.22,2.78,2.78,0,0,1,1.13.21,1.64,1.64,0,0,1,.74.57,1.54,1.54,0,0,1,.29.87v.07h-1.12v0a.73.73,0,0,0-.17-.38,1,1,0,0,0-.36-.24,1.55,1.55,0,0,0-1,0,.83.83,0,0,0-.33.24.54.54,0,0,0-.11.35h0a.5.5,0,0,0,.22.43,2,2,0,0,0,.71.26l.6.12a2.67,2.67,0,0,1,1.3.56,1.36,1.36,0,0,1,.41,1h0a1.6,1.6,0,0,1-.27.94,1.74,1.74,0,0,1-.78.62,3.67,3.67,0,0,1-2.39,0Z"/>
        <path class="cls-33" d="M566.41,458.85a2.37,2.37,0,0,1-.93-1,3.45,3.45,0,0,1-.33-1.56h0a3.42,3.42,0,0,1,.33-1.56,2.43,2.43,0,0,1,.93-1,2.83,2.83,0,0,1,1.43-.35,2.7,2.7,0,0,1,1.22.27,2.35,2.35,0,0,1,.86.73,2.14,2.14,0,0,1,.37,1.06v0h-1.15l0-.07a1.28,1.28,0,0,0-.67-.9,1.5,1.5,0,0,0-1.41.1,1.55,1.55,0,0,0-.51.66,2.66,2.66,0,0,0-.18,1h0a2.67,2.67,0,0,0,.18,1,1.44,1.44,0,0,0,.51.66,1.33,1.33,0,0,0,.79.23,1.43,1.43,0,0,0,.6-.12,1.13,1.13,0,0,0,.45-.36,1.48,1.48,0,0,0,.25-.57v0h1.15v0a2.15,2.15,0,0,1-.38,1.06,2.35,2.35,0,0,1-.86.73,2.7,2.7,0,0,1-1.22.26A2.73,2.73,0,0,1,566.41,458.85Z"/>
      </g>
      <g>
        <path class="cls-33" d="M543.38,339.67v33.6h48.9v-33.6Zm47.17,31.88H545.11V341.39h45.44Z"/>
        <path class="cls-33" d="M581.29,360.56c-.06.83.28,2.92-3.44,3-4.32-.1-4-3-4.09-4.09v-5.82c.14-2.57.27-4.46,4.3-4.52,4.18.06,3.81,3,3.88,3.88a1.17,1.17,0,0,0,1.08.64h2.37a1,1,0,0,0,.86-.86v-3.45a1.55,1.55,0,0,0-1.08-1.29,41.49,41.49,0,0,0-6.68-.43c-5.77.06-6.91.76-7.75,1.51s-2.26,1-2.15,6.89c-.11,6,.16,6.5,1.07,7.54,1.11,1.11,5.42,1.65,7.76,1.51A26.24,26.24,0,0,0,585.6,364a.8.8,0,0,0,.43-.86v-2.59c.08-1.52.89-2.43,1.94-2.37.47-.06.73-.33.65-.64v-.43a.48.48,0,0,0-.43-.65h-9.05a.58.58,0,0,0-.65.65v.43c0,.31.25.58.65.64C580.63,358.16,581.27,359,581.29,360.56Z"/>
        <path class="cls-33" d="M561.48,348.07H547.69a.72.72,0,0,0-.65.43v.65a.61.61,0,0,0,.65.43c2,0,2.95,1,3,2.58v8.62c-.07,1.59-1.11,2.53-3,2.58a.53.53,0,0,0-.65.43v.65c.07.17.26.32.44.22h11.63c.27.1.45-.05.43-.22v-.65a.37.37,0,0,0-.43-.43c-2.85-.09-3.72-1-3.67-2.58V358.2H561c2.19-.1,5.82-.24,5.82-5.61C566.86,348.57,564.44,348,561.48,348.07Zm-2.16,8.19h-3.88v-6.47h3.67c2.13,0,2.47,1.5,2.37,3C561.58,354.39,561.34,356.35,559.32,356.26Z"/>
      </g>
      <g>
        <rect class="cls-48" x="442.18" y="472.16" width="53.73" height="19.44" rx="2.08"/>
        <rect class="cls-48" x="442.18" y="469.42" width="53.73" height="24.94" rx="2.08"/>
        <rect class="cls-48" x="442.19" y="466.68" width="53.73" height="30.41" rx="2.7"/>
        <path class="cls-49" d="M444.89,497.09h-2.75a2.7,2.7,0,0,1-2.7-2.7v-25a2.7,2.7,0,0,1,2.7-2.7h2.75a2.7,2.7,0,0,0-2.7,2.7v25A2.7,2.7,0,0,0,444.89,497.09Z"/>
        <path class="cls-49" d="M498.66,469.38v25a2.7,2.7,0,0,1-2.7,2.7h-2.74a2.7,2.7,0,0,0,2.7-2.7v-25a2.7,2.7,0,0,0-2.7-2.7H496A2.7,2.7,0,0,1,498.66,469.38Z"/>
        <rect class="cls-48" x="442.19" y="466.68" width="53.73" height="30.41" rx="2.7"/>
        <text class="cls-50" transform="translate(444.58 480.48)">BOO<tspan class="cls-51" x="17.75" y="0">KS</tspan><tspan class="cls-52" x="28.53" y="0">HELF</tspan><tspan class="cls-53"><tspan x="3.72" y="8.5">STUDIOS</tspan></tspan></text>
      </g>
    </g>
  </g>
</svg>
