<svg id="Layer_1" data-name="Layer 1" xmlns="http://www.w3.org/2000/svg" viewBox="0 0 700 700">
  <defs>
    <style>
      .cls-1 {
        fill: #eaf7fd;
      }

      .cls-2 {
        fill: #e1edf1;
      }

      .cls-3 {
        fill: #d8e6ea;
      }

      .cls-4 {
        fill: #cbd5d8;
      }

      .cls-5 {
        fill: #e7ddee;
      }

      .cls-6 {
        fill: #f9cde0;
      }

      .cls-7 {
        fill: #fff2d0;
      }

      .cls-8 {
        fill: #dfefd9;
      }

      .cls-9 {
        fill: #cee0f3;
      }

      .cls-10 {
        fill: #d2eef8;
      }
    </style>
  </defs>
  <rect class="cls-1" x="175.87" y="180.12" width="412.73" height="412.73"/>
  <circle class="cls-2" cx="382.23" cy="386.48" r="201.87"/>
  <rect class="cls-3" x="143.14" y="180.12" width="32.72" height="412.74" transform="translate(319 772.98) rotate(180)"/>
  <polygon class="cls-1" points="173.14 592.86 70.41 470.23 75.94 56.47 173.14 180.12 173.14 592.86"/>
  <polygon class="cls-1" points="70.41 470.23 75.94 469.21 75.94 56.47 70.41 57.49 70.41 470.23"/>
  <path class="cls-4" d="M382.23,196.72a190.68,190.68,0,0,0-47.44,6q-6.68,1.74-13.16,3.92-3.11,1-6.17,2.2-3.82,1.42-7.58,3c-1.5.64-3,1.29-4.45,2a189.53,189.53,0,0,0-40.75,25.3,191.2,191.2,0,0,0-30,30.57,188.9,188.9,0,0,0-40,109.25q-.15,3.76-.15,7.56c0,104.81,85,189.78,189.77,189.78a190.82,190.82,0,0,0,47.45-6q6.68-1.74,13.16-3.92c2.07-.69,4.13-1.43,6.17-2.2,2.56-.95,5.08-2,7.58-3,1.49-.64,3-1.29,4.45-2A189.92,189.92,0,0,0,571.86,394.05q.15-3.76.15-7.56C572,281.69,487,196.72,382.23,196.72Zm46.52,191.62h0a46.58,46.58,0,0,1-17.19,34.3,46.65,46.65,0,0,1-10,6.2h0l-1.09.49c-.61.26-1.23.51-1.86.74s-1,.37-1.51.54c-1.06.36-2.14.68-3.23,1a46.58,46.58,0,0,1-58.19-45.09c0-.62,0-1.23,0-1.85a46.58,46.58,0,0,1,17.19-34.3,46.65,46.65,0,0,1,10-6.2l1.09-.49h0c.61-.26,1.22-.51,1.85-.74h0c.5-.19,1-.37,1.51-.54,1.06-.36,2.13-.68,3.22-1h0a46.58,46.58,0,0,1,58.19,45.08C428.79,387.11,428.77,387.72,428.75,388.34Z"/>
  <path class="cls-5" d="M363.76,363.71a29.6,29.6,0,0,0-4.64,4.72l-13.57-10.6L232.66,269.67a191.2,191.2,0,0,1,30-30.57l90.23,111.23Z"/>
  <path class="cls-6" d="M374.9,358.08c-.68.18-1.36.38-2,.61l-5.5-16.33L321.63,206.6q6.48-2.19,13.16-3.92l35.8,138.72h0Z"/>
  <path class="cls-7" d="M371.92,359c-.4.14-.79.3-1.18.47L364,343.64,307.88,211.83q3.75-1.61,7.58-3l50.39,134.1h0Z"/>
  <path class="cls-8" d="M370.06,359.8a29.09,29.09,0,0,0-3.48,1.88l-9.2-14.56L280.92,226a188.35,188.35,0,0,1,22.51-12.19L362.9,344.13Z"/>
  <path class="cls-9" d="M359.12,368.43a29.19,29.19,0,0,0-6.19,16.88l-17.21-.68-143.11-5.71a188.9,188.9,0,0,1,40-109.25l112.89,88.16Z"/>
  <path class="cls-5" d="M531.8,503.3a190,190,0,0,1-30,30.57L411.56,422.64l-10.85-13.38a29.6,29.6,0,0,0,4.64-4.72l13.57,10.6Z"/>
  <path class="cls-6" d="M442.84,566.37q-6.48,2.19-13.16,3.92L393.87,431.57l-4.3-16.68c.68-.18,1.36-.38,2-.61l5.5,16.33Z"/>
  <path class="cls-7" d="M456.59,561.14c-2.5,1.06-5,2.08-7.58,3l-50.4-134.1-6.06-16.13c.4-.14.78-.3,1.17-.47l6.75,15.86Z"/>
  <path class="cls-8" d="M483.55,547A188.42,188.42,0,0,1,461,559.17L401.56,428.84l-7.15-15.67a27.79,27.79,0,0,0,3.48-1.89l9.2,14.57Z"/>
  <path class="cls-9" d="M571.86,394A188.84,188.84,0,0,1,531.8,503.3L418.92,415.14l-13.57-10.6a29.22,29.22,0,0,0,6.19-16.89l17.21.68Z"/>
  <path class="cls-10" d="M382.23,327.5a59.18,59.18,0,0,0-14.74,1.86h0c-1.38.36-2.74.76-4.08,1.22-.65.22-1.28.44-1.92.68h0c-.8.3-1.57.61-2.34.94h0c-.47.2-.91.41-1.38.62a58.88,58.88,0,0,0-7,3.79,56.83,56.83,0,0,0-5.67,4.07,59.4,59.4,0,0,0-9.32,9.5,58.73,58.73,0,0,0-12.46,34c0,.79-.05,1.56-.05,2.34A59,59,0,0,0,397,443.62h0c1.39-.36,2.74-.76,4.09-1.22.64-.21,1.28-.44,1.91-.68.8-.29,1.58-.61,2.36-.94.47-.2.91-.41,1.38-.62h0a58.74,58.74,0,0,0,12.66-7.86,59,59,0,0,0,21.78-43.46h0c0-.79.05-1.56.05-2.35A59,59,0,0,0,382.23,327.5Zm-23.4,59c0-.31,0-.62,0-.93h0a23.21,23.21,0,0,1,5-13.47,23.92,23.92,0,0,1,3.69-3.77,25,25,0,0,1,2.25-1.61,22.75,22.75,0,0,1,2.79-1.51c.17-.09.35-.16.54-.24l.93-.38c.26-.09.51-.19.77-.26.53-.18,1.07-.34,1.61-.49a23.43,23.43,0,0,1,29.27,22.67c0,.31,0,.62,0,.93a23.31,23.31,0,0,1-4.95,13.48,24,24,0,0,1-3.7,3.77,21,21,0,0,1-2.25,1.62,24,24,0,0,1-2.78,1.5,5.67,5.67,0,0,1-.55.24c-.31.14-.61.26-.93.38s-.51.19-.77.27c-.53.18-1.07.34-1.61.48h0a23.41,23.41,0,0,1-29.25-22.67Z"/>
  <path class="cls-3" d="M588.6,180.12v16.6a16.6,16.6,0,0,1-16.6-16.6Z"/>
  <path class="cls-3" d="M588.6,592.86H572a16.6,16.6,0,0,1,16.6-16.6Z"/>
  <path class="cls-3" d="M175.87,592.85v-16.6a16.6,16.6,0,0,1,16.6,16.6Z"/>
  <path class="cls-3" d="M175.87,180.11h16.6a16.6,16.6,0,0,1-16.6,16.6Z"/>
  <circle class="cls-3" cx="382.23" cy="386.48" r="17.58"/>
</svg>
