<svg id="Layer_1" data-name="Layer 1" xmlns="http://www.w3.org/2000/svg" viewBox="0 0 700 700">
  <defs>
    <style>
      .cls-1 {
        fill: #181818;
      }

      .cls-2 {
        fill: #c1312f;
      }

      .cls-11, .cls-26, .cls-3, .cls-32, .cls-33, .cls-34, .cls-4 {
        fill: none;
      }

      .cls-3 {
        stroke: #bf9191;
      }

      .cls-11, .cls-26, .cls-27, .cls-3, .cls-32, .cls-34, .cls-4 {
        stroke-miterlimit: 10;
      }

      .cls-4 {
        stroke: #303030;
      }

      .cls-5 {
        fill: #ab2e2e;
      }

      .cls-6, .cls-7, .cls-8, .cls-9 {
        fill: #fff;
      }

      .cls-7 {
        font-size: 18.37px;
      }

      .cls-12, .cls-7 {
        font-family: IndustryInc-3D, Industry Inc;
      }

      .cls-8 {
        font-size: 12.58px;
      }

      .cls-16, .cls-8 {
        font-family: Hero;
      }

      .cls-9 {
        font-size: 8.75px;
      }

      .cls-28, .cls-9 {
        font-family: Baskerville-Bold, Baskerville;
        font-weight: 700;
      }

      .cls-10, .cls-12, .cls-27, .cls-28 {
        fill: #ddd;
      }

      .cls-11, .cls-26, .cls-27, .cls-32, .cls-33 {
        stroke: #ddd;
      }

      .cls-12 {
        font-size: 44.05px;
        letter-spacing: 0.2em;
      }

      .cls-13 {
        letter-spacing: 0.11em;
      }

      .cls-14 {
        letter-spacing: 0.19em;
      }

      .cls-15 {
        letter-spacing: 0.2em;
      }

      .cls-16 {
        font-size: 36px;
        fill: #b83b3b;
        letter-spacing: 0.1em;
      }

      .cls-17 {
        letter-spacing: 0.09em;
      }

      .cls-18 {
        letter-spacing: 0.13em;
      }

      .cls-19 {
        letter-spacing: 0.12em;
      }

      .cls-20 {
        letter-spacing: 0.08em;
      }

      .cls-21 {
        letter-spacing: 0.1em;
      }

      .cls-22 {
        letter-spacing: 0.13em;
      }

      .cls-23 {
        letter-spacing: 0.09em;
      }

      .cls-24 {
        letter-spacing: 0.08em;
      }

      .cls-25 {
        letter-spacing: 0.1em;
      }

      .cls-26, .cls-27 {
        stroke-width: 0.81px;
      }

      .cls-28 {
        font-size: 5.45px;
        letter-spacing: 0.05em;
      }

      .cls-29 {
        letter-spacing: 0.1em;
      }

      .cls-30 {
        letter-spacing: 0.05em;
      }

      .cls-31 {
        letter-spacing: 0.2em;
      }

      .cls-32, .cls-33, .cls-34 {
        stroke-width: 3px;
      }

      .cls-33 {
        stroke-linejoin: bevel;
      }

      .cls-34 {
        stroke: #b83b3b;
        stroke-linecap: square;
      }
    </style>
  </defs>
  <g>
    <g>
      <circle class="cls-1" cx="461.77" cy="350" r="204.84"/>
      <circle class="cls-2" cx="461.77" cy="350" r="67.77"/>
      <circle class="cls-3" cx="461.77" cy="350" r="65.18"/>
      <circle class="cls-4" cx="461.17" cy="349.4" r="89.9"/>
      <circle class="cls-4" cx="461.17" cy="349.4" r="91.83"/>
      <circle class="cls-4" cx="461.17" cy="349.4" r="93.08"/>
      <circle class="cls-4" cx="461.17" cy="349.4" r="94.33"/>
      <circle class="cls-4" cx="461.17" cy="349.4" r="96.68"/>
      <circle class="cls-4" cx="461.17" cy="349.4" r="98.75"/>
      <circle class="cls-4" cx="461.17" cy="349.4" r="100.1"/>
      <circle class="cls-4" cx="461.17" cy="349.4" r="101.44"/>
      <circle class="cls-4" cx="461.17" cy="349.4" r="106.74"/>
      <circle class="cls-4" cx="461.17" cy="349.4" r="109.02"/>
      <circle class="cls-4" cx="461.17" cy="349.4" r="110.51"/>
      <circle class="cls-4" cx="461.17" cy="349.4" r="111.99"/>
      <circle class="cls-4" cx="461.17" cy="349.4" r="114.79"/>
      <circle class="cls-4" cx="462.45" cy="352.62" r="146.33"/>
      <circle class="cls-4" cx="461.17" cy="349.4" r="117.25"/>
      <circle class="cls-4" cx="461.17" cy="349.4" r="116.03"/>
      <circle class="cls-4" cx="461.17" cy="349.4" r="118.85"/>
      <circle class="cls-4" cx="461.17" cy="349.4" r="120.44"/>
      <circle class="cls-4" cx="461.17" cy="349.4" r="113.1"/>
      <circle class="cls-4" cx="461.17" cy="349.4" r="120.3"/>
      <circle class="cls-4" cx="461.17" cy="349.4" r="119.02"/>
      <circle class="cls-4" cx="461.17" cy="349.4" r="121.94"/>
      <circle class="cls-4" cx="461.17" cy="349.4" r="123.57"/>
      <circle class="cls-4" cx="461.17" cy="349.4" r="128.92"/>
      <circle class="cls-4" cx="461.17" cy="349.4" r="130.67"/>
      <circle class="cls-4" cx="461.17" cy="349.4" r="132.46"/>
      <circle class="cls-4" cx="461.17" cy="349.4" r="134.23"/>
      <circle class="cls-4" cx="461.17" cy="349.4" r="137.58"/>
      <circle class="cls-4" cx="461.17" cy="349.4" r="136.13"/>
      <circle class="cls-4" cx="461.17" cy="349.4" r="140.53"/>
      <circle class="cls-4" cx="461.17" cy="349.4" r="139.07"/>
      <circle class="cls-4" cx="461.17" cy="349.4" r="142.45"/>
      <circle class="cls-4" cx="461.17" cy="349.4" r="144.35"/>
      <circle class="cls-4" cx="461.17" cy="349.4" r="130.67"/>
      <circle class="cls-4" cx="461.17" cy="349.4" r="144.19"/>
      <circle class="cls-4" cx="461.17" cy="349.4" r="142.66"/>
      <circle class="cls-4" cx="461.17" cy="349.4" r="146.16"/>
      <circle class="cls-4" cx="461.17" cy="349.4" r="148.11"/>
      <circle class="cls-4" cx="461.17" cy="348.88" r="155.53"/>
      <circle class="cls-4" cx="461.17" cy="348.88" r="158.87"/>
      <circle class="cls-4" cx="461.17" cy="348.88" r="157.17"/>
      <circle class="cls-4" cx="461.17" cy="348.88" r="161.04"/>
      <circle class="cls-4" cx="461.17" cy="348.88" r="163.19"/>
      <circle class="cls-4" cx="461.17" cy="348.88" r="160.04"/>
      <circle class="cls-4" cx="461.17" cy="348.88" r="162.23"/>
      <circle class="cls-4" cx="461.17" cy="348.88" r="164.4"/>
      <circle class="cls-4" cx="461.17" cy="348.88" r="167.27"/>
      <circle class="cls-4" cx="461.17" cy="348.88" r="168.91"/>
      <circle class="cls-4" cx="461.17" cy="348.88" r="170.85"/>
      <circle class="cls-4" cx="461.17" cy="348.88" r="172"/>
      <circle class="cls-4" cx="461.17" cy="348.88" r="173.19"/>
      <circle class="cls-4" cx="461.17" cy="348.88" r="175.5"/>
      <circle class="cls-4" cx="461.17" cy="348.88" r="176.98"/>
      <circle class="cls-4" cx="461.17" cy="348.88" r="184.66"/>
      <circle class="cls-4" cx="461.17" cy="348.88" r="188.62"/>
      <circle class="cls-4" cx="461.17" cy="348.88" r="191.2"/>
      <circle class="cls-4" cx="461.17" cy="348.88" r="193.75"/>
      <circle class="cls-4" cx="461.17" cy="348.88" r="198.59"/>
      <circle class="cls-4" cx="461.17" cy="348.88" r="200.01"/>
      <circle class="cls-4" cx="461.17" cy="348.88" r="195.67"/>
      <circle class="cls-4" cx="461.17" cy="348.88" r="183.34"/>
      <circle class="cls-4" cx="461.17" cy="348.88" r="187.27"/>
      <circle class="cls-4" cx="461.17" cy="348.88" r="189.83"/>
      <circle class="cls-4" cx="461.17" cy="348.88" r="192.37"/>
      <circle class="cls-4" cx="461.17" cy="348.88" r="197.17"/>
      <circle class="cls-4" cx="461.17" cy="348.88" r="186.09"/>
      <circle class="cls-3" cx="461.77" cy="350" r="62.94"/>
      <circle class="cls-5" cx="461.77" cy="350" r="14.59"/>
      <circle class="cls-6" cx="461.77" cy="350" r="4.63"/>
      <text class="cls-7" transform="matrix(0.24, -0.97, 0.97, 0.24, 416.86, 344.18)">T</text>
      <text class="cls-7" transform="translate(419.8 332.6) rotate(-59.38)">H</text>
      <text class="cls-7" transform="matrix(0.74, -0.68, 0.68, 0.74, 427.31, 320.59)">E</text>
      <text class="cls-7" transform="matrix(0.86, -0.52, 0.52, 0.86, 436.46, 312.75)"> </text>
      <text class="cls-7" transform="translate(441.47 309.46) rotate(-19.33)">S</text>
      <text class="cls-7" transform="translate(453.78 305.26) rotate(-1.81)">H</text>
      <text class="cls-7" transform="matrix(0.97, 0.25, -0.25, 0.97, 467.92, 305.11)">E</text>
      <text class="cls-7" transform="translate(479.77 308.47) rotate(29.94)">L</text>
      <text class="cls-7" transform="translate(488.31 313.22) rotate(43.29)">V</text>
      <text class="cls-7" transform="matrix(0.51, 0.86, -0.86, 0.51, 497.74, 322.47)">E</text>
      <text class="cls-7" transform="translate(503.82 333.05) rotate(75.36)">S</text>
      <text class="cls-8" transform="translate(405.81 361.05) rotate(74.81)">E</text>
      <text class="cls-8" transform="translate(408.49 370.43) rotate(64.66)">V</text>
      <text class="cls-8" transform="translate(413.05 379.66) rotate(54.58)">E</text>
      <text class="cls-8" transform="matrix(0.71, 0.7, -0.7, 0.71, 418.79, 387.49)">R</text>
      <text class="cls-8" transform="translate(426.03 394.43) rotate(34.94)">Y</text>
      <text class="cls-8" transform="translate(434.18 399.89) rotate(25.24)">T</text>
      <text class="cls-8" transform="translate(442.4 403.67) rotate(15.5)">H</text>
      <text class="cls-8" transform="translate(451.92 406.05) rotate(8.51)">I</text>
      <text class="cls-8" transform="translate(455.91 406.75) rotate(1.5)">N</text>
      <text class="cls-8" transform="matrix(0.99, -0.16, 0.16, 0.99, 466.34, 406.88)">G</text>
      <text class="cls-8" transform="translate(476.36 405.02) rotate(-16.57)"> </text>
      <text class="cls-8" transform="translate(480.44 403.77) rotate(-20.55)">I</text>
      <text class="cls-8" transform="translate(483.62 402.54) rotate(-23.45)">’</text>
      <text class="cls-8" transform="matrix(0.86, -0.5, 0.5, 0.86, 486.71, 401.32)">V</text>
      <text class="cls-8" transform="translate(495.51 395.97) rotate(-40.34)">E</text>
      <text class="cls-8" transform="translate(502.45 389.8) rotate(-47.35)"> </text>
      <text class="cls-8" transform="translate(505.74 386.35) rotate(-54.84)">G</text>
      <text class="cls-8" transform="translate(511.63 377.8) rotate(-65.54)">O</text>
      <text class="cls-8" transform="translate(515.8 368.22) rotate(-75.12)">T</text>
      <g>
        <path class="cls-6" d="M434.18,378.59a2,2,0,0,1-.15-.95,1.71,1.71,0,0,1,.35-.86l0,0,.55.5,0,0a1.06,1.06,0,0,0-.18.85,1.69,1.69,0,0,0,.55.89,1.74,1.74,0,0,0,.63.38,1.1,1.1,0,0,0,.62,0,1,1,0,0,0,.51-.31h0a1,1,0,0,0,.31-.9,1.58,1.58,0,0,0-.56-.93l-.57-.52.44-.48.55.5a1.48,1.48,0,0,0,.58.33,1,1,0,0,0,.58,0,1,1,0,0,0,.49-.3h0a1.18,1.18,0,0,0,.27-.5,1,1,0,0,0-.06-.53,1.55,1.55,0,0,0-.4-.52,1.63,1.63,0,0,0-.56-.35,1.16,1.16,0,0,0-.58-.05,1.08,1.08,0,0,0-.51.26l0,0-.55-.5,0,0a1.74,1.74,0,0,1,1.75-.39,2.21,2.21,0,0,1,.9.53,2.44,2.44,0,0,1,.63.85,1.61,1.61,0,0,1,.13.88,1.52,1.52,0,0,1-.39.78h0a1.36,1.36,0,0,1-.58.39,1.41,1.41,0,0,1-.68,0,1.92,1.92,0,0,1-.69-.25h0a1.76,1.76,0,0,1,.5,1.08,1.39,1.39,0,0,1-.41,1.07h0a1.58,1.58,0,0,1-.83.49,1.9,1.9,0,0,1-1,0,2.47,2.47,0,0,1-1-.57A2.84,2.84,0,0,1,434.18,378.59Z"/>
        <path class="cls-6" d="M438.91,382.5a1.88,1.88,0,0,1-.29-.92,1.6,1.6,0,0,1,.21-.9l0-.05.62.41,0,0a1,1,0,0,0,0,.86,1.65,1.65,0,0,0,.68.8,1.85,1.85,0,0,0,.68.28,1.17,1.17,0,0,0,.62-.07,1,1,0,0,0,.46-.38h0a1.06,1.06,0,0,0,.17-.94,1.62,1.62,0,0,0-.69-.83l-.65-.43.36-.55.62.42a1.66,1.66,0,0,0,.62.24,1.16,1.16,0,0,0,.59-.07,1,1,0,0,0,.43-.38h0a1.14,1.14,0,0,0,.19-.54.91.91,0,0,0-.14-.52,1.7,1.7,0,0,0-.47-.45,1.68,1.68,0,0,0-.61-.26,1.12,1.12,0,0,0-.58,0,1,1,0,0,0-.47.34l0,0-.62-.41,0,0a1.77,1.77,0,0,1,.76-.56,1.67,1.67,0,0,1,.92-.1,2.67,2.67,0,0,1,1.72,1.13,1.72,1.72,0,0,1,.26.85,1.53,1.53,0,0,1-.26.83h0a1.37,1.37,0,0,1-.51.48,1.45,1.45,0,0,1-.66.15,2.14,2.14,0,0,1-.73-.14h0a1.75,1.75,0,0,1,.67,1,1.45,1.45,0,0,1-.24,1.12h0a1.57,1.57,0,0,1-.74.61,1.84,1.84,0,0,1-1,.12,2.56,2.56,0,0,1-1.06-.42A2.81,2.81,0,0,1,438.91,382.5Z"/>
        <path class="cls-6" d="M448.72,381.89h0l-2,.43.3-.72,2-.46.7.28-2.38,5.74-.69-.29Z"/>
        <path class="cls-6" d="M449.2,389.39l-.69-.21,3.93-6.86.68.2Z"/>
        <path class="cls-6" d="M453.51,388.87a1.82,1.82,0,0,1-.63-.73,1.68,1.68,0,0,1-.16-.92v-.05l.73.13v.05a1.06,1.06,0,0,0,.3.81,1.64,1.64,0,0,0,.94.46,1.62,1.62,0,0,0,.73,0,1.19,1.19,0,0,0,.54-.3,1,1,0,0,0,.28-.54h0a1.1,1.1,0,0,0-.22-.93,1.58,1.58,0,0,0-1-.49l-.77-.14.12-.64.73.13a1.37,1.37,0,0,0,.67,0,1,1,0,0,0,.5-.3,1,1,0,0,0,.26-.51h0a1,1,0,0,0,0-.57.82.82,0,0,0-.33-.41,1.7,1.7,0,0,0-1.27-.23,1,1,0,0,0-.52.26,1.05,1.05,0,0,0-.3.5v0l-.73-.14v0a1.87,1.87,0,0,1,.47-.81,1.81,1.81,0,0,1,.81-.45,2.3,2.3,0,0,1,1,0,2.4,2.4,0,0,1,1,.39,1.52,1.52,0,0,1,.57.67,1.43,1.43,0,0,1,.09.87h0a1.31,1.31,0,0,1-.29.63,1.39,1.39,0,0,1-.54.41,2.1,2.1,0,0,1-.72.15v0a1.77,1.77,0,0,1,1,.64,1.41,1.41,0,0,1,.22,1.13h0a1.58,1.58,0,0,1-.44.86,1.89,1.89,0,0,1-.87.5,2.37,2.37,0,0,1-1.13,0A2.59,2.59,0,0,1,453.51,388.87Z"/>
        <path class="cls-6" d="M460.76,383.67l2.32-.07a2.19,2.19,0,0,1,1.05.2,1.59,1.59,0,0,1,.71.62,1.88,1.88,0,0,1,.28,1h0a1.9,1.9,0,0,1-.3,1.12,1.68,1.68,0,0,1-.9.68l1.52,2.54-.91,0-1.4-2.41h-.05l-1.43,0,.07,2.46-.77,0Zm2.35,3a1.27,1.27,0,0,0,.91-.33,1.18,1.18,0,0,0,.3-.89h0a1.1,1.1,0,0,0-.37-.86,1.35,1.35,0,0,0-.95-.28l-1.45,0,.08,2.38Z"/>
        <path class="cls-6" d="M466,383.41l.76-.14,1.13,6.1-.76.14Zm1,3.18,1.6-.3a1.41,1.41,0,0,0,1-.52,1.28,1.28,0,0,0,.19-1h0a1.29,1.29,0,0,0-.54-.88,1.44,1.44,0,0,0-1.07-.15l-1.6.3-.13-.68,1.8-.33a2.09,2.09,0,0,1,1.06.06,1.81,1.81,0,0,1,.81.55,2,2,0,0,1,.44,1h0a2,2,0,0,1-.07,1.06,1.83,1.83,0,0,1-.56.83,2.05,2.05,0,0,1-1,.43l-1.79.34Z"/>
        <path class="cls-6" d="M471,382.5l.84-.32,3.88,4.11h0l.14-5.65.83-.32,2.22,5.79-.67.26-1.72-4.48-.33.13.34-1.46-.17,6.53-.61.23-4.48-4.74,1.22.86-.33.12,1.72,4.48-.67.26Z"/>
        <path class="cls-6" d="M479.32,378.73l.64-.44,3.11,4.55,2.47-1.69.4.57-3.11,2.13Z"/>
        <path class="cls-6" d="M483.09,376.07l.57-.53,4.2,4.57-.57.52Zm2.52,2.16,1.2-1.1a1.39,1.39,0,0,0,.52-.95,1.24,1.24,0,0,0-.37-.95h0a1.28,1.28,0,0,0-.92-.46,1.48,1.48,0,0,0-1,.45l-1.2,1.1-.46-.51,1.34-1.23a2.17,2.17,0,0,1,.93-.52,2,2,0,0,1,1,0,2.17,2.17,0,0,1,.89.59h0a2.05,2.05,0,0,1,.52.94,1.85,1.85,0,0,1,0,1,2.11,2.11,0,0,1-.59.89l-1.34,1.23Z"/>
      </g>
      <text class="cls-9" transform="translate(440.74 347.98) rotate(-76.33)">B</text>
      <text class="cls-9" transform="translate(442.33 341.48) rotate(-56.4)">O</text>
      <text class="cls-9" transform="matrix(0.82, -0.57, 0.57, 0.82, 446.87, 334.89)">O</text>
      <text class="cls-9" transform="translate(453.51 330.51) rotate(-13.84)">K</text>
      <text class="cls-9" transform="translate(461.12 328.97) rotate(4.89)">S</text>
      <text class="cls-9" transform="matrix(0.91, 0.42, -0.42, 0.91, 467.19, 329.48)">H</text>
      <text class="cls-9" transform="matrix(0.71, 0.7, -0.7, 0.71, 474.33, 333.05)">E</text>
      <text class="cls-9" transform="translate(478.83 337.62) rotate(61.58)">L</text>
      <text class="cls-9" transform="translate(481.64 343.04) rotate(77.66)">F</text>
      <text class="cls-9" transform="translate(439.17 360.7) rotate(57.06)">R</text>
      <text class="cls-9" transform="translate(444.03 367.56) rotate(38.6)">E</text>
      <text class="cls-9" transform="translate(450.2 372.17) rotate(20.03)">C</text>
      <text class="cls-9" transform="translate(458.4 374.82) rotate(-0.66)">O</text>
      <text class="cls-9" transform="translate(467.72 374.28) rotate(-21.33)">R</text>
      <text class="cls-9" transform="matrix(0.75, -0.66, 0.66, 0.75, 475.59, 370.87)">D</text>
      <text class="cls-9" transform="translate(481.86 364.71) rotate(-59.47)">S</text>
    </g>
    <rect class="cls-1" x="33.4" y="135.82" width="428.37" height="428.37" rx="2.01"/>
    <g>
      <path class="cls-10" d="M185,153.87a20.63,20.63,0,0,0,3,.37c.25,0,.38-.08.38-.26s-.09-.2-.38-.21h-.46c-.21,0-.7,0-1-.09a1.9,1.9,0,0,1-1.37-.65,1.67,1.67,0,0,1-.31-1,1.8,1.8,0,0,1,.63-1.46,5.12,5.12,0,0,1,2.69-.77,12.78,12.78,0,0,1,2.84.1v1.85a16.11,16.11,0,0,0-2.17-.16l-.61,0c-.37,0-.52.1-.52.28s.12.23.3.23h1a3.73,3.73,0,0,1,1.39.21,1.64,1.64,0,0,1,.85,1.55,2,2,0,0,1-.84,1.67,3.47,3.47,0,0,1-2.4.37,15.69,15.69,0,0,1-3-.5Z"/>
      <path class="cls-10" d="M194.78,149.43v4.16a1.2,1.2,0,0,0,.08.58.52.52,0,0,0,.47.25.5.5,0,0,0,.47-.22,1.28,1.28,0,0,0,.08-.6v-4.24l2.78-.16v4.36c0,1.23-.14,1.73-.61,2.18a3.64,3.64,0,0,1-2.72.63,4.16,4.16,0,0,1-2.82-1c-.39-.44-.5-.87-.5-2v-3.78Z"/>
      <path class="cls-10" d="M199.69,156.48v-7.34c2-.12,3-.17,5.07-.27,1.32-.07,2.08.93,2.08,2.72a3.76,3.76,0,0,1-.85,2.63,2.68,2.68,0,0,1-2.2.71l-1.33,0v1.74Zm3.67-3.69c.52,0,.77-.29.77-.88s-.21-.76-.57-.75l-1.1,0v1.6Z"/>
      <path class="cls-10" d="M207.58,156.89v-8.16c2.47-.12,3.71-.17,6.18-.27v2.79l-3.41.05v.78l3.41,0v2.09l-3.41-.05v.71l3.41.07v2.28C211.29,157.06,210.05,157,207.58,156.89Z"/>
      <path class="cls-10" d="M218.66,157.34c-.53-1.16-.79-1.74-1.32-2.88v2.84l-2.78-.11v-8.76c2.08-.09,3.12-.12,5.2-.19a1.47,1.47,0,0,1,1.37.56,3.58,3.58,0,0,1,.58,2.07,3.47,3.47,0,0,1-.59,2.06,1.53,1.53,0,0,1-1.1.66c.75,1.52,1.12,2.3,1.86,3.86Zm-.48-4.77a.64.64,0,0,0,.53-.16,1.26,1.26,0,0,0,.25-.86c0-.61-.17-.86-.61-.85l-1,0v1.85Z"/>
      <path class="cls-10" d="M224.87,154.66a10.85,10.85,0,0,0,3,.49c.25,0,.38-.14.38-.43s-.09-.33-.38-.33h-.46a7.3,7.3,0,0,1-1-.12,1.72,1.72,0,0,1-1.36-1.09,4.51,4.51,0,0,1-.32-1.81,4.19,4.19,0,0,1,.64-2.5,3.37,3.37,0,0,1,2.69-1.06,8.68,8.68,0,0,1,2.85.42v2.86a11.41,11.41,0,0,0-2.18-.31h-.61c-.37,0-.52.14-.52.44s.12.38.3.38h1a2.67,2.67,0,0,1,1.4.36,3.09,3.09,0,0,1,.85,2.42,4,4,0,0,1-.85,2.64,2.65,2.65,0,0,1-2.4.79,8.8,8.8,0,0,1-3-.56Z"/>
      <path class="cls-10" d="M233,157.71V151.8H231.4v-3.87c2.41-.05,3.61-.07,6-.1v3.95H235.8v6Z"/>
      <path class="cls-10" d="M238,157.79v-9.95l6.19-.05V151h-3.41V152h3.41v2.41h-3.41v.84h3.41v2.63Z"/>
      <path class="cls-10" d="M249.05,157.84l-1.32-3.18v3.18H245V147.78h5.21a1.47,1.47,0,0,1,1.36.67,4.12,4.12,0,0,1,.59,2.26,4,4,0,0,1-.59,2.23,1.55,1.55,0,0,1-1.11.72l1.87,4.17Zm-.47-5.29a.6.6,0,0,0,.52-.18,1.44,1.44,0,0,0,.25-1c0-.68-.17-.95-.61-.95h-1v2.09Z"/>
      <path class="cls-10" d="M253,157.82v-10c2.47,0,3.71,0,6.19.06V151l-3.42,0V152h3.42v2.37h-3.42v.84l3.42,0v2.6C256.69,157.79,255.45,157.81,253,157.82Z"/>
      <path class="cls-10" d="M267.36,152.87a6.6,6.6,0,0,1-.93,3.82,3.38,3.38,0,0,1-2.8,1.27,3.21,3.21,0,0,1-2.8-1.18,6.81,6.81,0,0,1-.93-4,6.4,6.4,0,0,1,1-4.08,3.26,3.26,0,0,1,2.68-1.08C266.16,147.71,267.36,149.38,267.36,152.87Zm-4.66,0c0,1.54.31,2.3.93,2.29s.93-.78.93-2.28c0-1.25-.32-1.89-.93-1.9S262.7,151.61,262.7,152.85Z"/>
      <path class="cls-10" d="M268.24,157.59V148l5.07.14c1.33,0,2.09,1.23,2.09,3.26a4.82,4.82,0,0,1-.85,3,2.64,2.64,0,0,1-2.2.92l-1.34,0v2.14Zm3.67-4.8q.78,0,.78-1c0-.58-.21-.91-.58-.91l-1.1,0v2Z"/>
      <path class="cls-10" d="M280.3,157.21v-2.73l-1.4,0v2.76l-2.77.1v-9.1l2.77.1v3.15l1.4,0v-3.12l2.77.12v8.56Z"/>
      <path class="cls-10" d="M291.37,152.86a4.76,4.76,0,0,1-.92,3.12,3.87,3.87,0,0,1-2.8,1.14,3.37,3.37,0,0,1-2.8-.92,5.19,5.19,0,0,1-.92-3.38,4.82,4.82,0,0,1,1-3.48,3.44,3.44,0,0,1,2.68-.84C290.18,148.63,291.37,150,291.37,152.86Zm-4.65,0c0,1.3.31,1.93.93,1.92s.92-.66.92-1.91c0-1-.31-1.58-.92-1.59S286.72,151.8,286.72,152.84Z"/>
      <path class="cls-10" d="M296.71,156.41c-.75-1.25-1.13-1.89-1.88-3.22v3.33l-2.62.14V149l2.78.15c.62,1.27.92,1.9,1.54,3.11v-3l2.62.16v6.9Z"/>
      <path class="cls-10" d="M300.23,156.2v-6.78l2.77.18V156Z"/>
      <path class="cls-10" d="M310.19,155.44a13.48,13.48,0,0,1-2.36.37c-1.52.11-2.3,0-2.93-.51a3.22,3.22,0,0,1-1-2.54,3.09,3.09,0,0,1,1-2.44,3.59,3.59,0,0,1,2.52-.54,20.28,20.28,0,0,1,2.92.47c0,.84,0,1.27,0,2.11a12.54,12.54,0,0,0-2.07-.24c-1,0-1.44.23-1.44.9s.4.85,1.49.82a8.39,8.39,0,0,0,1.93-.27Z"/>
    </g>
    <line class="cls-11" x1="33.4" y1="171.61" x2="461.77" y2="171.61"/>
    <path class="cls-10" d="M314,144.63c4.29,5.38,4.29,11.78,0,17.17H181.18c-4.3-5.39-4.3-11.79,0-17.17H314m1.38-3H179.8c-6.52,7.11-6.36,16.23,0,23.17H315.37c6.51-7.11,6.36-16.23,0-23.17Z"/>
    <path class="cls-10" d="M175,141.63a37.68,37.68,0,0,0-2.43,5.81,18.88,18.88,0,0,0,0,11.55A38,38,0,0,0,175,164.8a13.14,13.14,0,0,1-4.59-4.88,13.79,13.79,0,0,1,0-13.41A13.3,13.3,0,0,1,175,141.63Z"/>
    <path class="cls-10" d="M170.14,141.63a38.69,38.69,0,0,0-2.43,5.81,20.18,20.18,0,0,0-.9,5.77,19.64,19.64,0,0,0,.91,5.78,38,38,0,0,0,2.42,5.81,13.14,13.14,0,0,1-4.59-4.88,13.79,13.79,0,0,1,0-13.41A13.3,13.3,0,0,1,170.14,141.63Z"/>
    <path class="cls-10" d="M165.31,141.63a38.69,38.69,0,0,0-2.43,5.81,20.18,20.18,0,0,0-.9,5.77,19.64,19.64,0,0,0,.91,5.78,39,39,0,0,0,2.42,5.81,13.14,13.14,0,0,1-4.59-4.88,13.75,13.75,0,0,1,0-13.41A13.19,13.19,0,0,1,165.31,141.63Z"/>
    <text class="cls-12" transform="translate(60.84 232.9)">THE SHE<tspan class="cls-13" x="239.77" y="0">L</tspan><tspan x="269.06" y="0">V</tspan><tspan class="cls-14" x="306.15" y="0">E</tspan><tspan class="cls-15" x="340.95" y="0">S</tspan></text>
    <text class="cls-16" transform="translate(53.24 289.54)">E<tspan class="cls-17" x="26.6" y="0">v</tspan><tspan x="49.79" y="0">e</tspan><tspan class="cls-18" x="75.67" y="0">r</tspan><tspan class="cls-19" x="92.52" y="0">y</tspan><tspan x="117" y="0">t</tspan><tspan class="cls-20" x="134.46" y="0">h</tspan><tspan class="cls-21" x="160.56" y="0">ing I</tspan><tspan class="cls-22" x="249.04" y="0">’</tspan><tspan class="cls-23" x="258.58" y="0">v</tspan><tspan class="cls-21" x="281.77" y="0">e G</tspan><tspan class="cls-24" x="350.06" y="0">o</tspan><tspan class="cls-25" x="374.83" y="0">t</tspan></text>
    <path class="cls-10" d="M320.2,164.8a38.61,38.61,0,0,0,2.42-5.81,19,19,0,0,0,0-11.55,39.68,39.68,0,0,0-2.42-5.81,13.3,13.3,0,0,1,4.59,4.88,13.82,13.82,0,0,1,0,13.41A13.19,13.19,0,0,1,320.2,164.8Z"/>
    <path class="cls-10" d="M325,164.8a38.61,38.61,0,0,0,2.42-5.81,19.57,19.57,0,0,0,.9-5.78,19.89,19.89,0,0,0-.9-5.77,39.68,39.68,0,0,0-2.42-5.81,13.19,13.19,0,0,1,4.58,4.88,13.79,13.79,0,0,1,0,13.41A13.19,13.19,0,0,1,325,164.8Z"/>
    <path class="cls-10" d="M329.85,164.8a37.68,37.68,0,0,0,2.43-5.81,19.57,19.57,0,0,0,.9-5.78,19.89,19.89,0,0,0-.9-5.77,38.69,38.69,0,0,0-2.43-5.81,13.14,13.14,0,0,1,4.59,4.88,13.79,13.79,0,0,1,0,13.41A13.14,13.14,0,0,1,329.85,164.8Z"/>
    <rect class="cls-26" x="42.02" y="145.74" width="41.32" height="14.95" rx="2.08"/>
    <rect class="cls-26" x="42.02" y="143.63" width="41.32" height="19.18" rx="2.08"/>
    <rect class="cls-26" x="42.02" y="141.52" width="41.32" height="23.39" rx="2.08"/>
    <path class="cls-27" d="M44.1,164.91H42a2.08,2.08,0,0,1-2.08-2.08V143.6A2.08,2.08,0,0,1,42,141.52H44.1A2.08,2.08,0,0,0,42,143.6v19.23A2.08,2.08,0,0,0,44.1,164.91Z"/>
    <path class="cls-27" d="M85.45,143.6v19.23a2.08,2.08,0,0,1-2.08,2.08H81.26a2.08,2.08,0,0,0,2.08-2.08V143.6a2.08,2.08,0,0,0-2.08-2.08h2.11A2.08,2.08,0,0,1,85.45,143.6Z"/>
    <rect class="cls-26" x="42.02" y="141.52" width="41.32" height="23.39" rx="2.08"/>
    <text class="cls-28" transform="translate(43.86 152.13)">BOO<tspan class="cls-29" x="13.65" y="0">KS</tspan><tspan class="cls-30" x="21.94" y="0">HELF</tspan><tspan class="cls-31"><tspan x="1.61" y="6.54">RECORDS</tspan></tspan></text>
    <g>
      <path class="cls-10" d="M93.26,149.36h1.43V155H93.26ZM94,154h1.56a1.1,1.1,0,0,0,.68-.18.63.63,0,0,0,.24-.53h0a.66.66,0,0,0-.11-.38.66.66,0,0,0-.32-.24,1.62,1.62,0,0,0-.53-.07H94v-.91h1.41a1,1,0,0,0,.66-.18.59.59,0,0,0,.22-.49h0a.55.55,0,0,0-.21-.46.85.85,0,0,0-.56-.17H94v-1h1.9a2.53,2.53,0,0,1,1,.17,1.46,1.46,0,0,1,.62.49,1.35,1.35,0,0,1,.21.76h0a1.14,1.14,0,0,1-.15.58,1.18,1.18,0,0,1-.4.43,1.32,1.32,0,0,1-.58.22v0a1.63,1.63,0,0,1,.7.2,1.5,1.5,0,0,1,.5.47,1.27,1.27,0,0,1,.18.67h0a1.51,1.51,0,0,1-.24.85,1.55,1.55,0,0,1-.69.56,2.54,2.54,0,0,1-1,.2H94Z"/>
      <path class="cls-10" d="M99.48,154.9a1.77,1.77,0,0,1-.81-.58,1.65,1.65,0,0,1-.33-.92v-.07h1.33v0a.55.55,0,0,0,.18.32,1,1,0,0,0,.37.21,1.48,1.48,0,0,0,.49.08,1.44,1.44,0,0,0,.49-.08.75.75,0,0,0,.32-.21.44.44,0,0,0,.11-.31h0a.43.43,0,0,0-.2-.37,2.34,2.34,0,0,0-.71-.23l-.58-.11a2.49,2.49,0,0,1-1.27-.56,1.4,1.4,0,0,1-.43-1.06h0a1.53,1.53,0,0,1,.29-1,1.91,1.91,0,0,1,.79-.62,2.81,2.81,0,0,1,1.15-.22,3.16,3.16,0,0,1,1.21.21,1.76,1.76,0,0,1,.76.59,1.66,1.66,0,0,1,.3.89V151h-1.33v0a.6.6,0,0,0-.15-.32.81.81,0,0,0-.32-.21,1.27,1.27,0,0,0-.46-.07,1.16,1.16,0,0,0-.44.07.67.67,0,0,0-.28.2.51.51,0,0,0-.1.29h0a.41.41,0,0,0,.21.36,2,2,0,0,0,.66.22l.58.11a2.62,2.62,0,0,1,1.32.56,1.32,1.32,0,0,1,.43,1.06h0a1.69,1.69,0,0,1-.28,1,1.87,1.87,0,0,1-.81.64,3.3,3.3,0,0,1-1.28.22A3.43,3.43,0,0,1,99.48,154.9Z"/>
      <path class="cls-10" d="M103.73,149.36h2.44a2.82,2.82,0,0,1,1.16.22,1.63,1.63,0,0,1,.73.64,1.92,1.92,0,0,1,.25,1h0a1.91,1.91,0,0,1-.26,1,1.52,1.52,0,0,1-.7.63l1.13,2.15h-1.62l-1-1.94h-.73V155h-1.44ZM106,152a.85.85,0,0,0,.61-.21.76.76,0,0,0,.23-.57h0a.75.75,0,0,0-.23-.57.89.89,0,0,0-.61-.21h-.84V152Z"/>
      <path class="cls-10" d="M110,154.75a2.31,2.31,0,0,1-.83-1,3.75,3.75,0,0,1-.29-1.56h0a3.75,3.75,0,0,1,.29-1.56,2.31,2.31,0,0,1,.83-1,2.35,2.35,0,0,1,1.29-.35,2.41,2.41,0,0,1,1.3.35,2.38,2.38,0,0,1,.83,1,3.91,3.91,0,0,1,.29,1.56h0a3.91,3.91,0,0,1-.29,1.56,2.38,2.38,0,0,1-.83,1,2.41,2.41,0,0,1-1.3.35A2.35,2.35,0,0,1,110,154.75Zm1.82-1a1.47,1.47,0,0,0,.33-.61,3.9,3.9,0,0,0,.11-1h0a3.9,3.9,0,0,0-.11-1,1.47,1.47,0,0,0-.33-.61.76.76,0,0,0-1,0,1.28,1.28,0,0,0-.33.61,3.48,3.48,0,0,0-.11,1h0a3.48,3.48,0,0,0,.11,1,1.28,1.28,0,0,0,.33.61.76.76,0,0,0,1,0Z"/>
      <path class="cls-10" d="M115.46,154.89a2,2,0,0,1-.79-.6,1.65,1.65,0,0,1-.34-.89v-.05h1.36v0a.63.63,0,0,0,.28.41,1.07,1.07,0,0,0,.65.17,1.3,1.3,0,0,0,.46-.08.8.8,0,0,0,.3-.24.6.6,0,0,0,.1-.35h0a.61.61,0,0,0-.25-.53,1.25,1.25,0,0,0-.73-.18h-.61v-1h.61a1.32,1.32,0,0,0,.47-.08.81.81,0,0,0,.31-.23.6.6,0,0,0,.1-.35h0a.62.62,0,0,0-.09-.34.61.61,0,0,0-.26-.21,1.08,1.08,0,0,0-.42-.08,1.14,1.14,0,0,0-.43.08.64.64,0,0,0-.29.21.65.65,0,0,0-.14.33v0h-1.3v0a1.65,1.65,0,0,1,.32-.88,1.8,1.8,0,0,1,.74-.58,2.67,2.67,0,0,1,1.1-.21,2.87,2.87,0,0,1,1.11.19,1.58,1.58,0,0,1,.74.52,1.27,1.27,0,0,1,.26.79h0a1.2,1.2,0,0,1-.16.61,1.39,1.39,0,0,1-.43.44,1.64,1.64,0,0,1-.58.23v0a1.68,1.68,0,0,1,1,.4,1.17,1.17,0,0,1,.38.9h0a1.49,1.49,0,0,1-.29.9,1.82,1.82,0,0,1-.8.6,3.3,3.3,0,0,1-1.23.21A3,3,0,0,1,115.46,154.89Z"/>
      <path class="cls-10" d="M121,150.62h0l-1.41.95v-1.23l1.44-1h1.43V155H121Z"/>
      <path class="cls-10" d="M126.31,154h-2.78v-1.17l.42-.7.44-.7.42-.7.43-.71c.15-.23.29-.46.43-.7h2v3.56h.72V154h-.72v1h-1.36Zm0-1.07v-2.62h0l-.32.52-.32.51-.32.52-.32.52-.31.51v0Z"/>
    </g>
    <g>
      <path class="cls-10" d="M353.43,150.18a1.91,1.91,0,0,1-.79-.6,1.7,1.7,0,0,1-.34-.89v-.05h1.37v.05a.59.59,0,0,0,.28.41,1.1,1.1,0,0,0,.64.17,1.08,1.08,0,0,0,.46-.09.73.73,0,0,0,.3-.24.57.57,0,0,0,.1-.34h0a.59.59,0,0,0-.25-.52,1.24,1.24,0,0,0-.72-.18h-.61v-1h.6a1.18,1.18,0,0,0,.48-.08.64.64,0,0,0,.3-.23.58.58,0,0,0,.11-.34h0a.54.54,0,0,0-.36-.55,1.06,1.06,0,0,0-.42-.07,1.18,1.18,0,0,0-.43.07.64.64,0,0,0-.29.22.61.61,0,0,0-.13.32v0h-1.3v-.05a1.64,1.64,0,0,1,.31-.88,1.8,1.8,0,0,1,.74-.58,2.7,2.7,0,0,1,1.1-.2,3.17,3.17,0,0,1,1.12.18,1.62,1.62,0,0,1,.73.52,1.29,1.29,0,0,1,.26.79h0a1.15,1.15,0,0,1-.16.62,1.33,1.33,0,0,1-.42.43,1.72,1.72,0,0,1-.58.23v0a1.72,1.72,0,0,1,1,.4,1.14,1.14,0,0,1,.38.9h0a1.44,1.44,0,0,1-.28.9,1.8,1.8,0,0,1-.81.6,3.22,3.22,0,0,1-1.23.22A3.05,3.05,0,0,1,353.43,150.18Z"/>
      <path class="cls-10" d="M358.63,150.18a1.91,1.91,0,0,1-.79-.6,1.62,1.62,0,0,1-.34-.89v-.05h1.37v.05a.6.6,0,0,0,.27.41,1.16,1.16,0,0,0,.65.17,1.08,1.08,0,0,0,.46-.09.73.73,0,0,0,.3-.24.57.57,0,0,0,.1-.34h0a.59.59,0,0,0-.25-.52,1.24,1.24,0,0,0-.72-.18h-.61v-1h.6a1.1,1.1,0,0,0,.47-.08.62.62,0,0,0,.31-.23.58.58,0,0,0,.11-.34h0a.57.57,0,0,0-.1-.34.55.55,0,0,0-.26-.21,1.06,1.06,0,0,0-.42-.07,1.18,1.18,0,0,0-.43.07.64.64,0,0,0-.29.22.61.61,0,0,0-.13.32v0h-1.3v-.05a1.64,1.64,0,0,1,.31-.88,1.8,1.8,0,0,1,.74-.58,2.7,2.7,0,0,1,1.1-.2,3.17,3.17,0,0,1,1.12.18,1.67,1.67,0,0,1,.73.52,1.29,1.29,0,0,1,.26.79h0a1.15,1.15,0,0,1-.16.62,1.44,1.44,0,0,1-.42.43,1.69,1.69,0,0,1-.59.23v0a1.72,1.72,0,0,1,1,.4,1.14,1.14,0,0,1,.38.9h0a1.44,1.44,0,0,1-.28.9,1.8,1.8,0,0,1-.81.6,3.22,3.22,0,0,1-1.23.22A3.05,3.05,0,0,1,358.63,150.18Z"/>
      <path class="cls-10" d="M363.36,145.48h0l-.75.45v-.8l.77-.47h.95v2.91h-.95Zm-.11,4.81,3.54-5.63h1l-3.54,5.63Zm3.45-.2a.9.9,0,0,1-.4-.68v0h.91v0a.27.27,0,0,0,.13.13.56.56,0,0,0,.28.05.55.55,0,0,0,.28-.06.2.2,0,0,0,.1-.17h0a.2.2,0,0,0-.11-.18.82.82,0,0,0-.35-.06h-.31v-.63h.32a.66.66,0,0,0,.31-.06.2.2,0,0,0,.11-.18h0a.18.18,0,0,0-.1-.16.46.46,0,0,0-.25-.06.49.49,0,0,0-.27.06.24.24,0,0,0-.12.16h-.85v0a.87.87,0,0,1,.36-.66,1.48,1.48,0,0,1,.88-.25,1.65,1.65,0,0,1,.89.22.65.65,0,0,1,.33.57h0a.55.55,0,0,1-.19.44.86.86,0,0,1-.44.21v0a1,1,0,0,1,.56.2.56.56,0,0,1,.2.44h0a.78.78,0,0,1-.35.67,1.78,1.78,0,0,1-1,.24A1.56,1.56,0,0,1,366.7,150.09Z"/>
      <path class="cls-10" d="M371.11,144.66h2.44a2.7,2.7,0,0,1,1.16.22,1.56,1.56,0,0,1,.73.63,2,2,0,0,1,.25,1h0a1.88,1.88,0,0,1-.26,1,1.57,1.57,0,0,1-.7.63l1.12,2.15h-1.61l-1-1.94h-.73v1.94h-1.43Zm2.28,2.65a.85.85,0,0,0,.61-.21.74.74,0,0,0,.22-.57h0A.74.74,0,0,0,374,146a.85.85,0,0,0-.61-.21h-.84v1.57Z"/>
      <path class="cls-10" d="M376.41,144.66h1.43v5.63h-1.43Zm.72,2.9h1.33a1,1,0,0,0,.71-.23.86.86,0,0,0,.26-.67h0a.84.84,0,0,0-.26-.66,1,1,0,0,0-.71-.23h-1.33v-1.1h1.68a2.34,2.34,0,0,1,1.09.24,1.8,1.8,0,0,1,.72.7,2.1,2.1,0,0,1,.26,1.05h0a2.1,2.1,0,0,1-.26,1.05,1.71,1.71,0,0,1-.72.69,2.34,2.34,0,0,1-1.09.25h-1.68Z"/>
      <path class="cls-10" d="M381.52,144.66h1.66l1.41,3.68h0l1.41-3.68h1.66v5.63h-1.26v-3.52h-.67l1.41-2L385,150.29h-.82L382,144.81l1.4,2h-.66v3.52h-1.26Z"/>
      <path class="cls-10" d="M390.08,144.66h1.44v2.21h2.24v-2.21h1.44v5.63h-1.44V148h-2.24v2.27h-1.44Z"/>
      <path class="cls-10" d="M396.05,144.66h1.43v5.63h-1.43Z"/>
      <path class="cls-10" d="M399.47,150.05a2.35,2.35,0,0,1-1-1,3.38,3.38,0,0,1-.34-1.58h0a3.39,3.39,0,0,1,.33-1.56,2.36,2.36,0,0,1,.95-1,3,3,0,0,1,1.47-.34,3,3,0,0,1,1.23.24,2.46,2.46,0,0,1,.89.68,2.08,2.08,0,0,1,.41,1v0h-1.41l0,0a.93.93,0,0,0-.4-.53,1.2,1.2,0,0,0-.7-.2,1.24,1.24,0,0,0-.69.2,1.2,1.2,0,0,0-.44.58,2.5,2.5,0,0,0-.16.93h0a2.44,2.44,0,0,0,.17,1,1.36,1.36,0,0,0,.47.6,1.22,1.22,0,0,0,.72.21,1.48,1.48,0,0,0,.57-.11,1,1,0,0,0,.39-.32.9.9,0,0,0,.17-.49v-.07H401v-1h2.5v.71a2.78,2.78,0,0,1-.3,1.33,2,2,0,0,1-.87.85,3,3,0,0,1-1.38.31A3.08,3.08,0,0,1,399.47,150.05Z"/>
      <path class="cls-10" d="M404.24,144.66h1.43v2.21h2.25v-2.21h1.43v5.63h-1.43V148h-2.25v2.27h-1.43Z"/>
      <path class="cls-10" d="M411.75,144.66h3.84v1.15h-2.4v1.28h2.18v1.1h-2.18v2.1h-1.44Z"/>
      <path class="cls-10" d="M416.23,144.66h1.43v5.63h-1.43Z"/>
      <path class="cls-10" d="M418.52,144.66h2.29a3,3,0,0,1,1.45.32,2.11,2.11,0,0,1,.93.94,3.3,3.3,0,0,1,.32,1.51h0a3.47,3.47,0,0,1-.32,1.54,2.32,2.32,0,0,1-.93,1,3,3,0,0,1-1.45.33h-2.29Zm2.1,4.48a1.55,1.55,0,0,0,.78-.19,1.13,1.13,0,0,0,.48-.57,2.31,2.31,0,0,0,.17-.93h0a2.14,2.14,0,0,0-.17-.89,1.2,1.2,0,0,0-.49-.55,1.47,1.47,0,0,0-.77-.19H420v3.33Z"/>
      <path class="cls-10" d="M424.21,144.66h3.86v1.15h-2.43v1.11h2.29V148h-2.29v1.14h2.43v1.15h-3.86Z"/>
      <path class="cls-10" d="M428.88,144.66h1.43v4.48h2.33v1.15h-3.76Z"/>
      <path class="cls-10" d="M433.3,144.66h1.43v5.63H433.3Z"/>
      <path class="cls-10" d="M436.9,145.81h-1.56v-1.15h4.54v1.15h-1.55v4.48H436.9Z"/>
      <path class="cls-10" d="M442.12,148.36l-1.94-3.7h1.52l1.12,2.34h0l1.11-2.34h1.54l-1.95,3.7v1.93h-1.43Z"/>
      <path class="cls-10" d="M352.25,154.26h1.44v4.48H356v1.15h-3.77Z"/>
      <path class="cls-10" d="M357.59,159.64a2.42,2.42,0,0,1-1-1,3.41,3.41,0,0,1-.34-1.55h0a3.38,3.38,0,0,1,.34-1.55,2.49,2.49,0,0,1,1-1,3.22,3.22,0,0,1,3,0,2.34,2.34,0,0,1,1,1,3.25,3.25,0,0,1,.34,1.55h0a3.28,3.28,0,0,1-.34,1.55,2.34,2.34,0,0,1-1,1,3.3,3.3,0,0,1-3,0Zm2.18-1a1.34,1.34,0,0,0,.46-.6,2.31,2.31,0,0,0,.16-.91h0a2.52,2.52,0,0,0-.16-.92,1.34,1.34,0,0,0-.46-.6,1.19,1.19,0,0,0-.71-.21,1.17,1.17,0,0,0-.69.21,1.34,1.34,0,0,0-.46.6,2.3,2.3,0,0,0-.16.92h0a2.36,2.36,0,0,0,.16.92,1.34,1.34,0,0,0,.46.6,1.17,1.17,0,0,0,.69.21A1.11,1.11,0,0,0,359.77,158.59Z"/>
      <path class="cls-10" d="M362.55,154.26h1.22l2.72,3.93-1-.68H366v-3.25h1.43v5.63h-1.2l-2.73-4,1,.69H364v3.28h-1.43Z"/>
      <path class="cls-10" d="M369.47,159.65a2.32,2.32,0,0,1-1-1,3.51,3.51,0,0,1-.34-1.58h0a3.46,3.46,0,0,1,.34-1.57,2.33,2.33,0,0,1,.95-1,3,3,0,0,1,1.46-.35,3,3,0,0,1,1.24.25,2.4,2.4,0,0,1,.88.68,2,2,0,0,1,.41,1v.05H372v0a1,1,0,0,0-.4-.53,1.23,1.23,0,0,0-.7-.2,1.19,1.19,0,0,0-.69.2,1.22,1.22,0,0,0-.45.58,2.52,2.52,0,0,0-.15.93h0a2.45,2.45,0,0,0,.16.95,1.38,1.38,0,0,0,.48.6,1.21,1.21,0,0,0,.71.21,1.41,1.41,0,0,0,.57-.11.93.93,0,0,0,.57-.81v-.07H371v-1h2.51v.71a2.67,2.67,0,0,1-.31,1.33,2,2,0,0,1-.87.85,2.93,2.93,0,0,1-1.38.3A3,3,0,0,1,369.47,159.65Z"/>
      <path class="cls-10" d="M374.32,157h2.55v1.19h-2.55Z"/>
      <path class="cls-10" d="M377.81,154.26h1.43v5.63h-1.43Zm.72,2.9h1.34a1,1,0,0,0,.71-.23.85.85,0,0,0,.25-.67h0a.87.87,0,0,0-.25-.67,1,1,0,0,0-.71-.22h-1.34v-1.1h1.68a2.38,2.38,0,0,1,1.1.24,1.8,1.8,0,0,1,.72.7,2.09,2.09,0,0,1,.25,1.05h0a2.09,2.09,0,0,1-.25,1.05,1.71,1.71,0,0,1-.72.69,2.38,2.38,0,0,1-1.1.24h-1.68Z"/>
      <path class="cls-10" d="M382.92,154.26h1.43v4.48h2.34v1.15h-3.77Z"/>
      <path class="cls-10" d="M388.93,154.26h1.32v1.22h-.46l-1.25,4.41H387Zm-.47,3.36h2.69l.32,1h-3.33Zm1.36-2.14v-1.22h.87l1.89,5.63h-1.5Z"/>
      <path class="cls-10" d="M393.93,158l-1.94-3.7h1.52l1.12,2.34h0l1.12-2.34h1.53l-1.95,3.7v1.93h-1.43Z"/>
      <path class="cls-10" d="M397.85,154.26h1.43v5.63h-1.43Z"/>
      <path class="cls-10" d="M400.13,154.26h1.22l2.73,3.93-1-.68h.59v-3.25h1.43v5.63h-1.2l-2.74-4,1,.69h-.59v3.28h-1.44Z"/>
      <path class="cls-10" d="M407.05,159.65a2.35,2.35,0,0,1-.95-1,3.38,3.38,0,0,1-.34-1.58h0a3.46,3.46,0,0,1,.33-1.57,2.39,2.39,0,0,1,1-1,3,3,0,0,1,1.47-.35,3,3,0,0,1,1.23.25,2.35,2.35,0,0,1,.89.68,2.08,2.08,0,0,1,.41,1v.05h-1.41l0,0a.9.9,0,0,0-.4-.53,1.2,1.2,0,0,0-.7-.2,1.24,1.24,0,0,0-.69.2,1.2,1.2,0,0,0-.44.58,2.5,2.5,0,0,0-.16.93h0a2.44,2.44,0,0,0,.17.95,1.36,1.36,0,0,0,.47.6,1.22,1.22,0,0,0,.72.21,1.48,1.48,0,0,0,.57-.11,1,1,0,0,0,.39-.32.9.9,0,0,0,.17-.49v-.07H408.6v-1h2.5v.71a2.78,2.78,0,0,1-.3,1.33,2,2,0,0,1-.87.85,3,3,0,0,1-1.38.3A3.08,3.08,0,0,1,407.05,159.65Z"/>
      <path class="cls-10" d="M413.37,154.26h2.44a2.7,2.7,0,0,1,1.16.22,1.56,1.56,0,0,1,.73.63,2,2,0,0,1,.25,1h0a1.88,1.88,0,0,1-.26,1,1.57,1.57,0,0,1-.7.63l1.12,2.15H416.5l-1-1.94h-.73v1.94h-1.43Zm2.28,2.65a.85.85,0,0,0,.61-.21.74.74,0,0,0,.22-.57h0a.74.74,0,0,0-.23-.57.85.85,0,0,0-.61-.21h-.84v1.57Z"/>
      <path class="cls-10" d="M418.67,154.26h3.86v1.15H420.1v1.11h2.28v1.08H420.1v1.14h2.43v1.15h-3.86Z"/>
      <path class="cls-10" d="M424.46,159.65a2.33,2.33,0,0,1-.94-1,3.35,3.35,0,0,1-.34-1.58h0a3.31,3.31,0,0,1,.34-1.57,2.3,2.3,0,0,1,1-1,2.91,2.91,0,0,1,1.45-.35,2.87,2.87,0,0,1,1.31.29,2.43,2.43,0,0,1,.89.79,2.32,2.32,0,0,1,.35,1.14v0h-1.38v-.05a1.45,1.45,0,0,0-.19-.53,1.2,1.2,0,0,0-.39-.35,1.27,1.27,0,0,0-.58-.13,1.09,1.09,0,0,0-.67.21,1.3,1.3,0,0,0-.45.59,2.59,2.59,0,0,0-.15.93h0a2.59,2.59,0,0,0,.15.93,1.4,1.4,0,0,0,.45.6,1.12,1.12,0,0,0,.68.21,1.09,1.09,0,0,0,.55-.13,1,1,0,0,0,.4-.35,1.3,1.3,0,0,0,.21-.54v0h1.37v0a2.1,2.1,0,0,1-.35,1.13,2.39,2.39,0,0,1-.9.79,2.83,2.83,0,0,1-1.3.28A3,3,0,0,1,424.46,159.65Z"/>
      <path class="cls-10" d="M430.29,159.64a2.46,2.46,0,0,1-1-1,3.28,3.28,0,0,1-.34-1.55h0a3.25,3.25,0,0,1,.34-1.55,2.42,2.42,0,0,1,1-1,2.91,2.91,0,0,1,1.47-.36,3,3,0,0,1,1.49.36,2.46,2.46,0,0,1,1,1,3.38,3.38,0,0,1,.34,1.55h0a3.41,3.41,0,0,1-.34,1.55,2.46,2.46,0,0,1-1,1,3.33,3.33,0,0,1-3,0Zm2.19-1a1.34,1.34,0,0,0,.46-.6,2.51,2.51,0,0,0,.16-.91h0a2.32,2.32,0,0,0-.17-.92,1.28,1.28,0,0,0-.46-.6,1.16,1.16,0,0,0-.7-.21,1.17,1.17,0,0,0-.69.21,1.34,1.34,0,0,0-.46.6,2.3,2.3,0,0,0-.16.92h0a2.36,2.36,0,0,0,.16.92,1.34,1.34,0,0,0,.46.6,1.15,1.15,0,0,0,.69.21A1.13,1.13,0,0,0,432.48,158.59Z"/>
      <path class="cls-10" d="M435.26,154.26h2.44a2.73,2.73,0,0,1,1.16.22,1.49,1.49,0,0,1,.72.63,1.93,1.93,0,0,1,.25,1h0a1.79,1.79,0,0,1-.26,1,1.47,1.47,0,0,1-.7.63l1.13,2.15h-1.62l-1-1.94h-.73v1.94h-1.43Zm2.28,2.65a.83.83,0,0,0,.6-.21.75.75,0,0,0,.23-.57h0a.78.78,0,0,0-.23-.57.87.87,0,0,0-.61-.21h-.84v1.57Z"/>
      <path class="cls-10" d="M440.55,154.26h2.3a3,3,0,0,1,1.45.32,2.09,2.09,0,0,1,.92.94,3.18,3.18,0,0,1,.32,1.51h0a3.33,3.33,0,0,1-.32,1.54,2.29,2.29,0,0,1-.92,1,3,3,0,0,1-1.45.33h-2.3Zm2.1,4.48a1.59,1.59,0,0,0,.79-.19,1.23,1.23,0,0,0,.48-.57,2.32,2.32,0,0,0,.16-.93h0a2.15,2.15,0,0,0-.16-.89,1.2,1.2,0,0,0-.49-.55,1.5,1.5,0,0,0-.78-.19H442v3.33Z"/>
    </g>
    <g>
      <path class="cls-10" d="M77.27,533.08h.88V538h2.62v.75h-3.5Z"/>
      <path class="cls-10" d="M82.32,538.45a2.35,2.35,0,0,1-.92-1,3.57,3.57,0,0,1-.32-1.55h0a3.54,3.54,0,0,1,.32-1.55,2.35,2.35,0,0,1,.92-1,2.69,2.69,0,0,1,1.41-.36,2.65,2.65,0,0,1,1.4.36,2.29,2.29,0,0,1,.91,1,3.33,3.33,0,0,1,.32,1.54h0a3.44,3.44,0,0,1-.32,1.55,2.27,2.27,0,0,1-.91,1,2.92,2.92,0,0,1-2.81,0Zm2.34-.68a1.7,1.7,0,0,0,.6-.74,2.81,2.81,0,0,0,.21-1.13h0a2.81,2.81,0,0,0-.21-1.13,1.73,1.73,0,0,0-.61-.74,1.66,1.66,0,0,0-2.46.74,2.75,2.75,0,0,0-.21,1.13h0a2.81,2.81,0,0,0,.21,1.13,1.72,1.72,0,0,0,2.47.74Z"/>
      <path class="cls-10" d="M88,538.62a1.83,1.83,0,0,1-.75-.55,1.54,1.54,0,0,1-.31-.86v-.05h.85v.05a.74.74,0,0,0,.22.44,1.09,1.09,0,0,0,.46.3,2.3,2.3,0,0,0,.67.1,1.8,1.8,0,0,0,.65-.11,1,1,0,0,0,.42-.3.73.73,0,0,0,.15-.46h0a.66.66,0,0,0-.24-.54,1.83,1.83,0,0,0-.81-.32l-.61-.13a2.61,2.61,0,0,1-1.24-.57,1.33,1.33,0,0,1-.4-1h0a1.43,1.43,0,0,1,.26-.85,1.83,1.83,0,0,1,.73-.57,2.51,2.51,0,0,1,1.06-.21,2.56,2.56,0,0,1,1,.2,1.74,1.74,0,0,1,.71.56,1.51,1.51,0,0,1,.29.83v.07h-.86v0a.92.92,0,0,0-.2-.46.94.94,0,0,0-.41-.28,1.55,1.55,0,0,0-.59-.1,1.66,1.66,0,0,0-.61.1.84.84,0,0,0-.39.29.64.64,0,0,0-.14.43h0a.63.63,0,0,0,.25.52,1.8,1.8,0,0,0,.77.31l.62.13a2.64,2.64,0,0,1,1.27.57,1.35,1.35,0,0,1,.39,1h0A1.48,1.48,0,0,1,91,538a1.61,1.61,0,0,1-.74.58,2.85,2.85,0,0,1-1.15.21A3.14,3.14,0,0,1,88,538.62Z"/>
      <path class="cls-10" d="M93.29,533.84H91.57v-.76H95.9v.76H94.17v4.87h-.88Z"/>
      <path class="cls-10" d="M99.62,533.84H97.9v-.76h4.32v.76H100.5v4.87h-.88Z"/>
      <path class="cls-10" d="M102.93,533.08h2.19a2.23,2.23,0,0,1,1,.21,1.51,1.51,0,0,1,.65.6,1.76,1.76,0,0,1,.23.91h0a1.79,1.79,0,0,1-.29,1,1.61,1.61,0,0,1-.8.6l1.26,2.29h-1L105,536.55h-1.2v2.16h-.88Zm2.11,2.75a1.13,1.13,0,0,0,.78-.26,1,1,0,0,0,.27-.75h0a.92.92,0,0,0-.29-.73,1.11,1.11,0,0,0-.79-.27h-1.2v2Z"/>
      <path class="cls-10" d="M109.48,533.08h.71V534h-.25l-1.59,4.7h-.92Zm-.8,3.41h2.54l.26.7h-3.06ZM110,534v-.93h.47l2,5.63h-.92Z"/>
      <path class="cls-10" d="M113.92,538.45a2.36,2.36,0,0,1-.91-1,3.51,3.51,0,0,1-.32-1.55h0a3.54,3.54,0,0,1,.32-1.55,2.39,2.39,0,0,1,.91-1,2.8,2.8,0,0,1,2.51-.12,2.3,2.3,0,0,1,.82.66,2.1,2.1,0,0,1,.41,1v0h-.87l0-.08a1.54,1.54,0,0,0-.29-.57,1.28,1.28,0,0,0-.5-.36,1.57,1.57,0,0,0-.67-.13,1.6,1.6,0,0,0-.91.26,1.7,1.7,0,0,0-.6.74,2.81,2.81,0,0,0-.21,1.13h0a2.86,2.86,0,0,0,.21,1.14,1.7,1.7,0,0,0,.6.74,1.62,1.62,0,0,0,.91.26,1.6,1.6,0,0,0,.67-.13,1.28,1.28,0,0,0,.5-.37,1.55,1.55,0,0,0,.31-.6v0h.87v0a2.18,2.18,0,0,1-.41,1,2.1,2.1,0,0,1-.82.65,2.56,2.56,0,0,1-1.12.24A2.59,2.59,0,0,1,113.92,538.45Z"/>
      <path class="cls-10" d="M118.46,533.08h.88v5.63h-.88Zm.82,2.69h.08l2.27-2.69h1l-2.17,2.54h-.11l-1.11,1.28Zm.54.26.62-.6,2.42,3.28h-1.09Z"/>
      <path class="cls-10" d="M126.07,538.45a2.35,2.35,0,0,1-.92-1,3.57,3.57,0,0,1-.32-1.55h0a3.54,3.54,0,0,1,.32-1.55,2.35,2.35,0,0,1,.92-1,2.69,2.69,0,0,1,1.41-.36,2.65,2.65,0,0,1,1.4.36,2.29,2.29,0,0,1,.91,1,3.33,3.33,0,0,1,.32,1.54h0a3.44,3.44,0,0,1-.32,1.55,2.27,2.27,0,0,1-.91,1,2.92,2.92,0,0,1-2.81,0Zm2.34-.68a1.7,1.7,0,0,0,.6-.74,2.81,2.81,0,0,0,.21-1.13h0a2.81,2.81,0,0,0-.21-1.13,1.73,1.73,0,0,0-.61-.74,1.66,1.66,0,0,0-2.46.74,2.75,2.75,0,0,0-.21,1.13h0a2.81,2.81,0,0,0,.21,1.13,1.72,1.72,0,0,0,2.47.74Z"/>
      <path class="cls-10" d="M131,533.08h3.52v.76h-2.65v1.78h2.43v.74h-2.43v2.35H131Z"/>
      <path class="cls-10" d="M136.85,533.08h.87v5.63h-.87Z"/>
      <path class="cls-10" d="M140.16,533.84h-1.73v-.76h4.33v.76H141v4.87h-.88Z"/>
      <path class="cls-10" d="M146.72,533.08h.71V534h-.25l-1.59,4.7h-.92Zm-.8,3.41h2.55l.25.7h-3.06ZM147.2,534v-.93h.47l2.05,5.63h-.93Z"/>
      <path class="cls-10" d="M150.34,533.08h.87V538h2.63v.75h-3.5Z"/>
      <path class="cls-10" d="M154.59,533.08h.87V538h2.63v.75h-3.5Z"/>
      <path class="cls-10" d="M160.41,536h2.51v.77h-2.51Z"/>
      <path class="cls-10" d="M165.54,533.08h1l1.82,4.49h0l1.82-4.49h1v5.63h-.8v-4.15H170l.92-1.33-2.24,5.48h-.65l-2.24-5.48.92,1.33h-.4v4.15h-.8Z"/>
      <path class="cls-10" d="M173.84,536.41l-2-3.33h1l1.44,2.48h0l1.44-2.48h1l-2,3.33v2.3h-.88Z"/>
      <path class="cls-10" d="M178.6,533.08h.91l1.05,4.41h0l1.19-4.41h.83l1.19,4.41h0l1-4.41h.92l-1.52,5.63h-.85l-1.21-4.24h0L181,538.71h-.84Z"/>
      <path class="cls-10" d="M187.57,533.08h.72V534H188l-1.59,4.7h-.93Zm-.8,3.41h2.55l.25.7h-3Zm1.29-2.48v-.93h.46l2,5.63h-.92Z"/>
      <path class="cls-10" d="M192,536.41l-2-3.33h1l1.44,2.48h0l1.44-2.48h1l-2,3.33v2.3H192Z"/>
      <path class="cls-10" d="M198.16,538.45a2.33,2.33,0,0,1-.91-1,3.57,3.57,0,0,1-.32-1.55h0a3.54,3.54,0,0,1,.32-1.55,2.35,2.35,0,0,1,.92-1,2.63,2.63,0,0,1,1.4-.36,2.69,2.69,0,0,1,1.41.36,2.35,2.35,0,0,1,.91,1,3.47,3.47,0,0,1,.32,1.54h0a3.57,3.57,0,0,1-.32,1.55,2.33,2.33,0,0,1-.91,1,2.94,2.94,0,0,1-2.82,0Zm2.34-.68a1.72,1.72,0,0,0,.61-.74,2.81,2.81,0,0,0,.21-1.13h0a2.65,2.65,0,0,0-.22-1.13,1.65,1.65,0,0,0-.6-.74,1.66,1.66,0,0,0-2.46.74,2.74,2.74,0,0,0-.22,1.13h0A2.81,2.81,0,0,0,198,537a1.6,1.6,0,0,0,.61.74,1.78,1.78,0,0,0,1.85,0Z"/>
      <path class="cls-10" d="M203.05,533.08h3.52v.76h-2.65v1.78h2.42v.74h-2.42v2.35h-.87Z"/>
      <path class="cls-10" d="M209,533.08h2.19a2.19,2.19,0,0,1,1,.21,1.51,1.51,0,0,1,.65.6,1.67,1.67,0,0,1,.23.91h0a1.71,1.71,0,0,1-.29,1,1.57,1.57,0,0,1-.8.6l1.26,2.29h-1L211,536.55h-1.2v2.16H209Zm2.1,2.75a1.1,1.1,0,0,0,.78-.26,1,1,0,0,0,.28-.75h0a1,1,0,0,0-.29-.73,1.14,1.14,0,0,0-.8-.27h-1.2v2Z"/>
      <path class="cls-10" d="M213.86,533.08h3.58v.76h-2.71v1.64h2.56v.73h-2.56V538h2.71v.75h-3.58Z"/>
      <path class="cls-10" d="M218.34,533.08h1l1.83,4.49h0l1.82-4.49h1v5.63h-.8v-4.15h-.4l.91-1.33-2.24,5.48h-.65l-2.23-5.48.91,1.33h-.4v4.15h-.8Z"/>
      <path class="cls-10" d="M225.08,533.08h3.58v.76H226v1.64h2.56v.73H226V538h2.71v.75h-3.58Z"/>
      <path class="cls-10" d="M229.56,533.08h1l1.83,4.49h0l1.82-4.49h1v5.63h-.8v-4.15h-.4l.91-1.33-2.24,5.48h-.65l-2.23-5.48.91,1.33h-.4v4.15h-.8Z"/>
      <path class="cls-10" d="M236.3,533.08h.87v5.63h-.87Zm.43,4.92h1.65a1.53,1.53,0,0,0,.9-.23.84.84,0,0,0,.31-.69h0a.83.83,0,0,0-.57-.81,2,2,0,0,0-.7-.1h-1.59v-.68h1.42a1.49,1.49,0,0,0,.88-.23.75.75,0,0,0,.3-.64h0a.71.71,0,0,0-.26-.6,1.13,1.13,0,0,0-.73-.21h-1.61v-.71h1.82a2.11,2.11,0,0,1,.87.17,1.31,1.31,0,0,1,.79,1.24h0a1.25,1.25,0,0,1-.14.56,1.21,1.21,0,0,1-.37.44,1.18,1.18,0,0,1-.54.23h0a1.57,1.57,0,0,1,.7.23,1.25,1.25,0,0,1,.46.48,1.33,1.33,0,0,1,.16.67h0a1.5,1.5,0,0,1-.23.86,1.43,1.43,0,0,1-.66.54,2.49,2.49,0,0,1-1,.19h-1.83Z"/>
      <path class="cls-10" d="M241.23,533.08h3.58v.76h-2.7v1.64h2.56v.73h-2.56V538h2.7v.75h-3.58Z"/>
      <path class="cls-10" d="M245.72,533.08h2.19a2.19,2.19,0,0,1,1,.21,1.51,1.51,0,0,1,.65.6,1.67,1.67,0,0,1,.23.91h0a1.79,1.79,0,0,1-.29,1,1.57,1.57,0,0,1-.8.6l1.26,2.29h-1l-1.15-2.16h-1.2v2.16h-.87Zm2.1,2.75a1.1,1.1,0,0,0,.78-.26,1,1,0,0,0,.28-.75h0a1,1,0,0,0-.29-.73,1.14,1.14,0,0,0-.8-.27h-1.2v2Z"/>
      <path class="cls-10" d="M250.63,533.08h.87v5.63h-.87Z"/>
      <path class="cls-10" d="M252.54,533.08h.81l3.47,5-.92-.82h.37v-4.16h.88v5.63h-.81l-3.47-5,.92.81h-.38v4.17h-.87Z"/>
      <path class="cls-10" d="M259.21,538.45a2.41,2.41,0,0,1-.91-1,3.47,3.47,0,0,1-.32-1.57h0a3.33,3.33,0,0,1,.32-1.54,2.24,2.24,0,0,1,.91-1,2.87,2.87,0,0,1,2.54-.12,2.16,2.16,0,0,1,.8.63,2.29,2.29,0,0,1,.43.92l0,.06h-.91v0a1.55,1.55,0,0,0-.55-.76,1.57,1.57,0,0,0-.93-.27,1.66,1.66,0,0,0-.93.25,1.69,1.69,0,0,0-.59.72,2.78,2.78,0,0,0-.21,1.13h0a2.93,2.93,0,0,0,.21,1.16,1.73,1.73,0,0,0,.61.74,1.65,1.65,0,0,0,.92.26,1.73,1.73,0,0,0,.81-.18,1.4,1.4,0,0,0,.55-.5,1.42,1.42,0,0,0,.2-.75v-.09h-1.48v-.72H263v.58a2.79,2.79,0,0,1-.29,1.31,2.06,2.06,0,0,1-.84.84,2.74,2.74,0,0,1-1.3.29A2.63,2.63,0,0,1,259.21,538.45Z"/>
      <path class="cls-10" d="M265.47,536H268v.77h-2.51Z"/>
      <path class="cls-10" d="M270.59,533.08h3.58v.76h-2.7v1.64H274v.73h-2.55V538h2.7v.75h-3.58Z"/>
      <path class="cls-10" d="M274.65,533.08h1l1.53,4.66h0l1.54-4.66h.95l-2,5.63h-1Z"/>
      <path class="cls-10" d="M280.26,533.08h3.58v.76h-2.71v1.64h2.56v.73h-2.56V538h2.71v.75h-3.58Z"/>
      <path class="cls-10" d="M284.74,533.08h2.19a2.23,2.23,0,0,1,1,.21,1.57,1.57,0,0,1,.65.6,1.76,1.76,0,0,1,.23.91h0a1.72,1.72,0,0,1-.3,1,1.59,1.59,0,0,1-.79.6l1.26,2.29h-1l-1.15-2.16h-1.21v2.16h-.87Zm2.1,2.75a1.14,1.14,0,0,0,.79-.26,1,1,0,0,0,.27-.75h0a.92.92,0,0,0-.29-.73,1.11,1.11,0,0,0-.79-.27h-1.21v2Z"/>
      <path class="cls-10" d="M291,536.41l-2-3.33h1l1.44,2.48h0l1.43-2.48h1l-2,3.33v2.3H291Z"/>
      <path class="cls-10" d="M295.9,533.84h-1.73v-.76h4.33v.76h-1.73v4.87h-.87Z"/>
      <path class="cls-10" d="M299.21,533.08h.87v2.38H303v-2.38h.88v5.63H303v-2.49h-2.89v2.49h-.87Z"/>
      <path class="cls-10" d="M304.89,533.08h.88v5.63h-.88Z"/>
      <path class="cls-10" d="M306.81,533.08h.8l3.47,5-.92-.82h.38v-4.16h.87v5.63h-.81l-3.47-5,.93.81h-.38v4.17h-.87Z"/>
      <path class="cls-10" d="M313.47,538.45a2.48,2.48,0,0,1-.91-1,3.6,3.6,0,0,1-.32-1.57h0a3.47,3.47,0,0,1,.32-1.54,2.3,2.3,0,0,1,.91-1,2.87,2.87,0,0,1,2.54-.12,2.08,2.08,0,0,1,.8.63,2.29,2.29,0,0,1,.43.92l0,.06h-.9l0,0a1.47,1.47,0,0,0-1.48-1,1.63,1.63,0,0,0-.92.25,1.64,1.64,0,0,0-.6.72,2.78,2.78,0,0,0-.21,1.13h0a2.76,2.76,0,0,0,.22,1.16,1.65,1.65,0,0,0,.6.74,1.66,1.66,0,0,0,.93.26,1.71,1.71,0,0,0,.8-.18,1.34,1.34,0,0,0,.55-.5,1.42,1.42,0,0,0,.2-.75v-.09H315v-.72h2.35v.58a2.79,2.79,0,0,1-.29,1.31,2,2,0,0,1-.83.84,2.81,2.81,0,0,1-1.31.29A2.65,2.65,0,0,1,313.47,538.45Z"/>
      <path class="cls-10" d="M319.77,533.08h.88v5.63h-.88Z"/>
      <path class="cls-10" d="M321.8,533.08h.85l-.58,2h-.59Z"/>
      <path class="cls-10" d="M323.06,533.08H324l1.54,4.66h0l1.53-4.66h1l-2,5.63h-1Z"/>
      <path class="cls-10" d="M328.66,533.08h3.58v.76h-2.7v1.64h2.56v.73h-2.56V538h2.7v.75h-3.58Z"/>
      <path class="cls-10" d="M335.79,538.45a2.48,2.48,0,0,1-.91-1,3.6,3.6,0,0,1-.32-1.57h0a3.47,3.47,0,0,1,.32-1.54,2.3,2.3,0,0,1,.91-1,2.87,2.87,0,0,1,2.54-.12,2.08,2.08,0,0,1,.8.63,2.29,2.29,0,0,1,.43.92l0,.06h-.9l0,0a1.47,1.47,0,0,0-1.48-1,1.63,1.63,0,0,0-.92.25,1.64,1.64,0,0,0-.6.72,2.78,2.78,0,0,0-.21,1.13h0a2.76,2.76,0,0,0,.22,1.16,1.65,1.65,0,0,0,.6.74,1.66,1.66,0,0,0,.93.26,1.71,1.71,0,0,0,.8-.18,1.34,1.34,0,0,0,.55-.5,1.42,1.42,0,0,0,.2-.75v-.09h-1.48v-.72h2.35v.58a2.79,2.79,0,0,1-.29,1.31,2,2,0,0,1-.83.84,2.81,2.81,0,0,1-1.31.29A2.65,2.65,0,0,1,335.79,538.45Z"/>
      <path class="cls-10" d="M341.5,538.45a2.33,2.33,0,0,1-.91-1,3.57,3.57,0,0,1-.32-1.55h0a3.54,3.54,0,0,1,.32-1.55,2.35,2.35,0,0,1,.92-1,2.63,2.63,0,0,1,1.4-.36,2.69,2.69,0,0,1,1.41.36,2.35,2.35,0,0,1,.91,1,3.47,3.47,0,0,1,.32,1.54h0a3.57,3.57,0,0,1-.32,1.55,2.33,2.33,0,0,1-.91,1,2.94,2.94,0,0,1-2.82,0Zm2.34-.68a1.72,1.72,0,0,0,.61-.74,2.81,2.81,0,0,0,.21-1.13h0a2.65,2.65,0,0,0-.22-1.13,1.65,1.65,0,0,0-.6-.74,1.66,1.66,0,0,0-2.46.74,2.74,2.74,0,0,0-.22,1.13h0a2.81,2.81,0,0,0,.22,1.13,1.65,1.65,0,0,0,.6.74,1.71,1.71,0,0,0,.93.26A1.66,1.66,0,0,0,343.84,537.77Z"/>
      <path class="cls-10" d="M347.45,533.84h-1.73v-.76h4.33v.76h-1.73v4.87h-.87Z"/>
      <path class="cls-10" d="M352.33,536h2.51v.77h-2.51Z"/>
      <path class="cls-10" d="M358.85,533.84h-1.72v-.76h4.32v.76h-1.72v4.87h-.88Z"/>
      <path class="cls-10" d="M362.17,533.08H363v2.38h2.89v-2.38h.88v5.63h-.88v-2.49H363v2.49h-.87Z"/>
      <path class="cls-10" d="M367.85,533.08h3.58v.76h-2.71v1.64h2.56v.73h-2.56V538h2.71v.75h-3.58Z"/>
      <path class="cls-10" d="M375,538.45a2.36,2.36,0,0,1-.91-1,3.51,3.51,0,0,1-.32-1.55h0a3.54,3.54,0,0,1,.32-1.55,2.39,2.39,0,0,1,.91-1,2.8,2.8,0,0,1,2.51-.12,2.3,2.3,0,0,1,.82.66,2.1,2.1,0,0,1,.41,1v0h-.88l0-.08a1.54,1.54,0,0,0-.29-.57,1.22,1.22,0,0,0-.5-.36,1.57,1.57,0,0,0-.67-.13,1.6,1.6,0,0,0-.91.26,1.7,1.7,0,0,0-.6.74,2.81,2.81,0,0,0-.21,1.13h0a2.86,2.86,0,0,0,.21,1.14,1.7,1.7,0,0,0,.6.74,1.62,1.62,0,0,0,.91.26,1.6,1.6,0,0,0,.67-.13,1.28,1.28,0,0,0,.5-.37,1.55,1.55,0,0,0,.31-.6v0h.87v0a2.18,2.18,0,0,1-.41,1,2.1,2.1,0,0,1-.82.65,2.56,2.56,0,0,1-1.12.24A2.62,2.62,0,0,1,375,538.45Z"/>
      <path class="cls-10" d="M380.54,538.45a2.33,2.33,0,0,1-.91-1,3.57,3.57,0,0,1-.32-1.55h0a3.54,3.54,0,0,1,.32-1.55,2.35,2.35,0,0,1,.92-1A2.63,2.63,0,0,1,382,533a2.69,2.69,0,0,1,1.41.36,2.35,2.35,0,0,1,.91,1,3.47,3.47,0,0,1,.32,1.54h0a3.57,3.57,0,0,1-.32,1.55,2.33,2.33,0,0,1-.91,1,2.94,2.94,0,0,1-2.82,0Zm2.34-.68a1.79,1.79,0,0,0,.61-.74,2.81,2.81,0,0,0,.21-1.13h0a2.81,2.81,0,0,0-.22-1.13,1.65,1.65,0,0,0-.6-.74,1.78,1.78,0,0,0-1.85,0,1.6,1.6,0,0,0-.61.74,2.74,2.74,0,0,0-.22,1.13h0a2.81,2.81,0,0,0,.22,1.13,1.65,1.65,0,0,0,.6.74,1.79,1.79,0,0,0,1.86,0Z"/>
      <path class="cls-10" d="M385.43,533.08h.87V538h2.63v.75h-3.5Z"/>
      <path class="cls-10" d="M389.68,533.08h.87V538h2.63v.75h-3.5Z"/>
      <path class="cls-10" d="M393.93,533.08h3.57v.76h-2.7v1.64h2.56v.73H394.8V538h2.7v.75h-3.57Z"/>
      <path class="cls-10" d="M399.43,538.45a2.36,2.36,0,0,1-.91-1,3.51,3.51,0,0,1-.32-1.55h0a3.54,3.54,0,0,1,.32-1.55,2.39,2.39,0,0,1,.91-1,2.8,2.8,0,0,1,2.51-.12,2.22,2.22,0,0,1,.82.66,2,2,0,0,1,.41,1v0h-.87l0-.08a1.54,1.54,0,0,0-.29-.57,1.25,1.25,0,0,0-.49-.36,1.65,1.65,0,0,0-.68-.13,1.62,1.62,0,0,0-.91.26,1.7,1.7,0,0,0-.6.74,2.81,2.81,0,0,0-.21,1.13h0a2.86,2.86,0,0,0,.21,1.14,1.7,1.7,0,0,0,.6.74,1.62,1.62,0,0,0,.91.26,1.6,1.6,0,0,0,.67-.13,1.28,1.28,0,0,0,.5-.37,1.55,1.55,0,0,0,.31-.6v0h.87v0a2.07,2.07,0,0,1-.41,1,2,2,0,0,1-.82.65,2.56,2.56,0,0,1-1.12.24A2.62,2.62,0,0,1,399.43,538.45Z"/>
      <path class="cls-10" d="M405.13,533.84h-1.72v-.76h4.32v.76H406v4.87h-.88Z"/>
      <path class="cls-10" d="M409.14,538.45a2.35,2.35,0,0,1-.92-1,3.57,3.57,0,0,1-.32-1.55h0a3.41,3.41,0,0,1,.33-1.55,2.33,2.33,0,0,1,.91-1,2.69,2.69,0,0,1,1.41-.36,2.65,2.65,0,0,1,1.4.36,2.29,2.29,0,0,1,.91,1,3.33,3.33,0,0,1,.32,1.54h0a3.44,3.44,0,0,1-.32,1.55,2.27,2.27,0,0,1-.91,1,2.92,2.92,0,0,1-2.81,0Zm2.34-.68a1.7,1.7,0,0,0,.6-.74,2.81,2.81,0,0,0,.21-1.13h0a2.81,2.81,0,0,0-.21-1.13,1.73,1.73,0,0,0-.61-.74,1.78,1.78,0,0,0-1.85,0,1.73,1.73,0,0,0-.61.74,2.75,2.75,0,0,0-.21,1.13h0A2.81,2.81,0,0,0,409,537a1.73,1.73,0,0,0,.61.74,1.79,1.79,0,0,0,1.86,0Z"/>
      <path class="cls-10" d="M414,533.08h2.19a2.23,2.23,0,0,1,1,.21,1.51,1.51,0,0,1,.65.6,1.76,1.76,0,0,1,.23.91h0a1.79,1.79,0,0,1-.29,1,1.66,1.66,0,0,1-.8.6l1.26,2.29h-1l-1.15-2.16h-1.2v2.16H414Zm2.11,2.75a1.13,1.13,0,0,0,.78-.26,1,1,0,0,0,.27-.75h0a.92.92,0,0,0-.29-.73,1.11,1.11,0,0,0-.79-.27h-1.2v2Z"/>
      <path class="cls-10" d="M111.19,543.44h-1.72v-.76h4.32v.76h-1.72v4.87h-.88Z"/>
      <path class="cls-10" d="M114.5,542.68h.88v2.38h2.89v-2.38h.88v5.63h-.88v-2.49h-2.89v2.49h-.88Z"/>
      <path class="cls-10" d="M120.18,542.68h3.58v.76h-2.7v1.64h2.56v.73h-2.56v1.75h2.7v.75h-3.58Z"/>
      <path class="cls-10" d="M126.28,542.68h1l1.83,4.49h0l1.83-4.49h1v5.63h-.8v-4.15h-.4l.91-1.33-2.24,5.48h-.64l-2.24-5.48.91,1.33h-.4v4.15h-.8Z"/>
      <path class="cls-10" d="M134.65,542.68h.71v.93h-.24l-1.6,4.7h-.92Zm-.8,3.41h2.55l.25.7H133.6Zm1.29-2.48v-.93h.46l2.05,5.63h-.92Z"/>
      <path class="cls-10" d="M138.27,542.68h.81l3.47,5-.93-.82H142v-4.16h.87v5.63h-.81l-3.47-5,.93.81h-.38v4.17h-.87Z"/>
      <path class="cls-10" d="M146.23,548.65a4.91,4.91,0,0,1-.37-1.16,6.72,6.72,0,0,1,0-2.63,5.07,5.07,0,0,1,.37-1.16,4.53,4.53,0,0,1,.63-1h.75a2.71,2.71,0,0,0-.4.64,6.16,6.16,0,0,0-.32.86,7.9,7.9,0,0,0-.21,1,7,7,0,0,0-.07,1,6.82,6.82,0,0,0,.07,1,7.2,7.2,0,0,0,.21,1,5.86,5.86,0,0,0,.32.87,2.94,2.94,0,0,0,.4.64h-.75A4.38,4.38,0,0,1,146.23,548.65Z"/>
      <path class="cls-10" d="M147.93,542.68h.91l1,4.41h0l1.19-4.41h.83l1.19,4.41h0l1-4.41h.92l-1.52,5.63h-.85l-1.21-4.24h0l-1.21,4.24h-.84Z"/>
      <path class="cls-10" d="M155.79,542.68h.87v2.38h2.9v-2.38h.87v5.63h-.87v-2.49h-2.9v2.49h-.87Z"/>
      <path class="cls-10" d="M162.5,548.05a2.33,2.33,0,0,1-.91-1,3.57,3.57,0,0,1-.32-1.55h0a3.54,3.54,0,0,1,.32-1.55,2.35,2.35,0,0,1,.92-1,2.63,2.63,0,0,1,1.4-.36,2.69,2.69,0,0,1,1.41.36,2.35,2.35,0,0,1,.91,1,3.47,3.47,0,0,1,.32,1.54h0a3.5,3.5,0,0,1-.32,1.54,2.3,2.3,0,0,1-.91,1,2.94,2.94,0,0,1-2.82,0Zm2.34-.68a1.72,1.72,0,0,0,.61-.74,2.81,2.81,0,0,0,.21-1.13h0a2.65,2.65,0,0,0-.22-1.13,1.65,1.65,0,0,0-.6-.74,1.66,1.66,0,0,0-2.46.74,2.74,2.74,0,0,0-.22,1.13h0a2.81,2.81,0,0,0,.22,1.13,1.65,1.65,0,0,0,.6.74,1.71,1.71,0,0,0,.93.26A1.66,1.66,0,0,0,164.84,547.37Z"/>
      <path class="cls-10" d="M169,542.68h.88v2.38h2.89v-2.38h.88v5.63h-.88v-2.49h-2.89v2.49H169Z"/>
      <path class="cls-10" d="M176.32,542.68H177v.93h-.24l-1.6,4.7h-.92Zm-.8,3.41h2.55l.25.7h-3Zm1.29-2.48v-.93h.46l2,5.63h-.92Z"/>
      <path class="cls-10" d="M180.71,548.22a1.71,1.71,0,0,1-.75-.55,1.47,1.47,0,0,1-.31-.86v0h.86v0a.8.8,0,0,0,.22.44,1.07,1.07,0,0,0,.47.29,1.9,1.9,0,0,0,.66.11,1.8,1.8,0,0,0,.65-.11.93.93,0,0,0,.43-.3.73.73,0,0,0,.15-.46h0a.64.64,0,0,0-.25-.54,1.84,1.84,0,0,0-.8-.32l-.62-.13a2.52,2.52,0,0,1-1.23-.57,1.33,1.33,0,0,1-.41-1h0a1.5,1.5,0,0,1,.27-.84,1.79,1.79,0,0,1,.72-.57,2.54,2.54,0,0,1,1.06-.21,2.61,2.61,0,0,1,1,.2,1.81,1.81,0,0,1,.71.56,1.6,1.6,0,0,1,.29.83v.07H183v0a.9.9,0,0,0-.19-.46,1.07,1.07,0,0,0-.41-.28,1.55,1.55,0,0,0-.59-.1,1.59,1.59,0,0,0-.61.1.92.92,0,0,0-.4.29.69.69,0,0,0-.14.43h0a.63.63,0,0,0,.25.52,1.91,1.91,0,0,0,.78.31l.61.13a2.59,2.59,0,0,1,1.27.57,1.32,1.32,0,0,1,.4,1h0a1.55,1.55,0,0,1-.26.89,1.61,1.61,0,0,1-.74.58,2.88,2.88,0,0,1-1.15.21A3.14,3.14,0,0,1,180.71,548.22Z"/>
      <path class="cls-10" d="M186.37,542.68H190v.76h-2.71v1.64h2.56v.73h-2.56v1.75H190v.75h-3.58Z"/>
      <path class="cls-10" d="M190.43,542.68h.95l1.53,4.66h0l1.54-4.66h.94l-2,5.63h-1Z"/>
      <path class="cls-10" d="M196,542.68h3.57v.76h-2.7v1.64h2.56v.73h-2.56v1.75h2.7v.75H196Z"/>
      <path class="cls-10" d="M200.52,542.68h2.19a2.19,2.19,0,0,1,1,.21,1.51,1.51,0,0,1,.65.6,1.67,1.67,0,0,1,.23.91h0a1.74,1.74,0,0,1-.29,1,1.57,1.57,0,0,1-.8.6l1.26,2.29h-1l-1.15-2.16h-1.2v2.16h-.87Zm2.1,2.75a1.1,1.1,0,0,0,.78-.26,1,1,0,0,0,.28-.75h0a1,1,0,0,0-.29-.73,1.12,1.12,0,0,0-.8-.27h-1.2v2Z"/>
      <path class="cls-10" d="M206.79,546l-2-3.33h1l1.44,2.48h0l1.44-2.48h1l-2,3.33v2.3h-.88Z"/>
      <path class="cls-10" d="M211.67,543.44H210v-.76h4.32v.76h-1.72v4.87h-.88Z"/>
      <path class="cls-10" d="M215,542.68h.88v2.38h2.89v-2.38h.88v5.63h-.88v-2.49h-2.89v2.49H215Z"/>
      <path class="cls-10" d="M220.67,542.68h.87v5.63h-.87Z"/>
      <path class="cls-10" d="M222.58,542.68h.81l3.47,5-.93-.82h.38v-4.16h.87v5.63h-.8l-3.47-5,.92.81h-.38v4.17h-.87Z"/>
      <path class="cls-10" d="M229.25,548.05a2.38,2.38,0,0,1-.91-1,3.42,3.42,0,0,1-.32-1.56h0a3.33,3.33,0,0,1,.32-1.54,2.24,2.24,0,0,1,.91-1,2.59,2.59,0,0,1,1.39-.36,2.63,2.63,0,0,1,1.15.24,2.16,2.16,0,0,1,.8.63,2.32,2.32,0,0,1,.43.91l0,.07h-.91v0a1.51,1.51,0,0,0-.56-.76,1.54,1.54,0,0,0-.92-.27,1.66,1.66,0,0,0-.93.25,1.62,1.62,0,0,0-.59.72,2.78,2.78,0,0,0-.21,1.13h0a2.88,2.88,0,0,0,.21,1.15,1.7,1.7,0,0,0,.61.75,1.65,1.65,0,0,0,.92.26,1.73,1.73,0,0,0,.81-.18,1.4,1.4,0,0,0,.55-.5,1.42,1.42,0,0,0,.2-.75v-.09h-1.48v-.72h2.34V546a2.81,2.81,0,0,1-.28,1.31,2.06,2.06,0,0,1-.84.84,2.74,2.74,0,0,1-1.3.29A2.63,2.63,0,0,1,229.25,548.05Z"/>
      <path class="cls-10" d="M233.56,549.68a3.37,3.37,0,0,0,.4-.64,5.88,5.88,0,0,0,.31-.87,6.46,6.46,0,0,0,.22-1,6.82,6.82,0,0,0,.07-1,7,7,0,0,0-.07-1,6.46,6.46,0,0,0-.22-1,6.17,6.17,0,0,0-.31-.86,3.08,3.08,0,0,0-.4-.64h.75a4.53,4.53,0,0,1,.63,1,5.07,5.07,0,0,1,.37,1.16,7.27,7.27,0,0,1,0,2.63,4.91,4.91,0,0,1-.37,1.16,4.38,4.38,0,0,1-.63,1Z"/>
      <path class="cls-10" d="M238.26,545.64h2.51v.77h-2.51Z"/>
      <path class="cls-10" d="M243.38,542.68h2.19a2.2,2.2,0,0,1,1,.21,1.51,1.51,0,0,1,.65.6,1.76,1.76,0,0,1,.23.91h0a1.81,1.81,0,0,1-.29,1,1.61,1.61,0,0,1-.8.6l1.26,2.29h-1l-1.15-2.16h-1.2v2.16h-.88Zm2.11,2.75a1.13,1.13,0,0,0,.78-.26,1,1,0,0,0,.28-.75h0a1,1,0,0,0-.29-.73,1.14,1.14,0,0,0-.8-.27h-1.2v2Z"/>
      <path class="cls-10" d="M248.3,542.68h3.58v.76h-2.71v1.64h2.56v.73h-2.56v1.75h2.71v.75H248.3Z"/>
      <path class="cls-10" d="M252.78,542.68h.87v4.88h2.63v.75h-3.5Z"/>
      <path class="cls-10" d="M257,542.68h.87v5.63H257Z"/>
      <path class="cls-10" d="M260.57,542.68h.72v.93H261l-1.59,4.7h-.93Zm-.8,3.41h2.55l.25.7h-3.05Zm1.29-2.48v-.93h.46l2.05,5.63h-.92Z"/>
      <path class="cls-10" d="M264.19,542.68h.88v5.63h-.88Zm.44,4.92h1.65a1.41,1.41,0,0,0,.89-.24.78.78,0,0,0,.31-.68h0a.79.79,0,0,0-.57-.81,2,2,0,0,0-.69-.1h-1.59v-.68H266a1.46,1.46,0,0,0,.88-.23.74.74,0,0,0,.31-.65h0a.74.74,0,0,0-.26-.6,1.16,1.16,0,0,0-.74-.21h-1.6v-.71h1.81a2.16,2.16,0,0,1,.88.17,1.4,1.4,0,0,1,.58.49,1.42,1.42,0,0,1,.2.75h0a1.24,1.24,0,0,1-.13.56,1.46,1.46,0,0,1-.38.44,1.15,1.15,0,0,1-.53.23h0a1.61,1.61,0,0,1,.7.23,1.25,1.25,0,0,1,.46.48,1.33,1.33,0,0,1,.16.67h0a1.41,1.41,0,0,1-.9,1.4,2.46,2.46,0,0,1-1,.19h-1.82Z"/>
      <path class="cls-10" d="M269.13,542.68H270v4.88h2.63v.75h-3.5Z"/>
      <path class="cls-10" d="M273.38,542.68H277v.76h-2.71v1.64h2.56v.73h-2.56v1.75H277v.75h-3.58Z"/>
      <path class="cls-10" d="M277.82,547.44h.85l-.57,2h-.6Z"/>
      <path class="cls-10" d="M282.48,542.68h.72v.93H283l-1.59,4.7h-.93Zm-.8,3.41h2.55l.25.7h-3.05Zm1.29-2.48v-.93h.46l2.05,5.63h-.92Z"/>
      <path class="cls-10" d="M286.1,542.68H287v4.88h2.63v.75H286.1Z"/>
      <path class="cls-10" d="M289.57,542.68h.91l1,4.41h0l1.18-4.41h.84l1.18,4.41h0l1.05-4.41h.91l-1.51,5.63h-.85l-1.21-4.24h0l-1.21,4.24h-.84Z"/>
      <path class="cls-10" d="M298.54,542.68h.71v.93H299l-1.6,4.7h-.92Zm-.8,3.41h2.55l.25.7h-3.05Zm1.29-2.48v-.93h.46l2.05,5.63h-.92Z"/>
      <path class="cls-10" d="M303,546l-2-3.33h1l1.45,2.48h0l1.44-2.48h1l-2,3.33v2.3H303Z"/>
      <path class="cls-10" d="M307,548.22a1.71,1.71,0,0,1-.75-.55,1.55,1.55,0,0,1-.32-.86v0h.86v0a.8.8,0,0,0,.22.44,1,1,0,0,0,.47.29,1.9,1.9,0,0,0,.66.11,1.8,1.8,0,0,0,.65-.11.93.93,0,0,0,.43-.3.73.73,0,0,0,.15-.46h0a.64.64,0,0,0-.25-.54,1.84,1.84,0,0,0-.8-.32l-.62-.13a2.52,2.52,0,0,1-1.23-.57,1.33,1.33,0,0,1-.41-1h0a1.43,1.43,0,0,1,.27-.84,1.73,1.73,0,0,1,.72-.57,2.54,2.54,0,0,1,1.06-.21,2.61,2.61,0,0,1,1,.2,1.89,1.89,0,0,1,.71.56,1.6,1.6,0,0,1,.29.83v.07h-.85v0a.9.9,0,0,0-.19-.46,1,1,0,0,0-.42-.28,1.52,1.52,0,0,0-.59-.1,1.57,1.57,0,0,0-.6.1.87.87,0,0,0-.4.29.69.69,0,0,0-.14.43h0a.63.63,0,0,0,.25.52,1.91,1.91,0,0,0,.78.31l.61.13a2.59,2.59,0,0,1,1.27.57,1.32,1.32,0,0,1,.4,1h0a1.55,1.55,0,0,1-.26.89,1.61,1.61,0,0,1-.74.58,2.91,2.91,0,0,1-1.15.21A3.06,3.06,0,0,1,307,548.22Z"/>
      <path class="cls-10" d="M312.61,545.64h2.52v.77h-2.52Z"/>
      <path class="cls-10" d="M318.18,548.21a1.44,1.44,0,0,1-.58-.54,1.74,1.74,0,0,1-.23-.8v0h.86v0a1.27,1.27,0,0,0,.12.39.81.81,0,0,0,.28.27.83.83,0,0,0,.43.11.87.87,0,0,0,.67-.26,1.07,1.07,0,0,0,.22-.74v-4h.88v4a1.79,1.79,0,0,1-.46,1.3,1.75,1.75,0,0,1-1.3.47A1.89,1.89,0,0,1,318.18,548.21Z"/>
      <path class="cls-10" d="M323,548.15a1.92,1.92,0,0,1-.79-.73,2.15,2.15,0,0,1-.28-1.09v-3.65h.88v3.58a1.34,1.34,0,0,0,.37,1,1.4,1.4,0,0,0,2.44-1v-3.58h.88v3.65a2.06,2.06,0,0,1-.28,1.09,1.9,1.9,0,0,1-.78.73,3,3,0,0,1-2.44,0Z"/>
      <path class="cls-10" d="M328.3,548.22a1.71,1.71,0,0,1-.75-.55,1.55,1.55,0,0,1-.32-.86v0h.86v0a.8.8,0,0,0,.22.44,1,1,0,0,0,.47.29,1.9,1.9,0,0,0,.66.11,1.8,1.8,0,0,0,.65-.11.93.93,0,0,0,.43-.3.73.73,0,0,0,.15-.46h0a.64.64,0,0,0-.25-.54,1.84,1.84,0,0,0-.8-.32l-.62-.13a2.52,2.52,0,0,1-1.23-.57,1.33,1.33,0,0,1-.41-1h0a1.5,1.5,0,0,1,.27-.84,1.73,1.73,0,0,1,.72-.57,2.54,2.54,0,0,1,1.06-.21,2.61,2.61,0,0,1,1,.2,1.81,1.81,0,0,1,.71.56,1.6,1.6,0,0,1,.29.83v.07h-.85v0a.9.9,0,0,0-.19-.46,1,1,0,0,0-.42-.28,1.47,1.47,0,0,0-.58-.1,1.59,1.59,0,0,0-.61.1.87.87,0,0,0-.4.29.69.69,0,0,0-.14.43h0a.63.63,0,0,0,.25.52,1.91,1.91,0,0,0,.78.31l.61.13a2.59,2.59,0,0,1,1.27.57,1.32,1.32,0,0,1,.4,1h0a1.55,1.55,0,0,1-.26.89,1.61,1.61,0,0,1-.74.58,2.88,2.88,0,0,1-1.15.21A3.1,3.1,0,0,1,328.3,548.22Z"/>
      <path class="cls-10" d="M333.58,543.44h-1.72v-.76h4.32v.76h-1.72v4.87h-.88Z"/>
      <path class="cls-10" d="M338.51,542.68h.87v2.38h2.89v-2.38h.88v5.63h-.88v-2.49h-2.89v2.49h-.87Z"/>
      <path class="cls-10" d="M345.22,548.05a2.33,2.33,0,0,1-.91-1,3.57,3.57,0,0,1-.32-1.55h0a3.54,3.54,0,0,1,.32-1.55,2.35,2.35,0,0,1,.92-1,2.63,2.63,0,0,1,1.4-.36,2.69,2.69,0,0,1,1.41.36,2.35,2.35,0,0,1,.91,1,3.47,3.47,0,0,1,.32,1.54h0A3.5,3.5,0,0,1,349,547a2.3,2.3,0,0,1-.91,1,2.94,2.94,0,0,1-2.82,0Zm2.34-.68a1.7,1.7,0,0,0,.6-.74,2.65,2.65,0,0,0,.22-1.13h0a2.81,2.81,0,0,0-.22-1.13,1.65,1.65,0,0,0-.6-.74,1.78,1.78,0,0,0-1.85,0,1.6,1.6,0,0,0-.61.74,2.74,2.74,0,0,0-.22,1.13h0a2.81,2.81,0,0,0,.22,1.13,1.65,1.65,0,0,0,.6.74,1.79,1.79,0,0,0,1.86,0Z"/>
      <path class="cls-10" d="M349.56,542.68h.92l1,4.41h0l1.19-4.41h.83l1.19,4.41h0l1.05-4.41h.91l-1.52,5.63h-.84l-1.21-4.24h0l-1.21,4.24h-.85Z"/>
      <path class="cls-10" d="M359,542.68h.88v5.63H359Z"/>
      <path class="cls-10" d="M362.57,542.68h.88v4.88h2.63v.75h-3.51Z"/>
      <path class="cls-10" d="M366.82,542.68h.88v5.63h-.88Z"/>
      <path class="cls-10" d="M368.74,542.68h.87v5.63h-.87Zm.82,2.69h.08l2.27-2.69h1l-2.18,2.54h-.11l-1.1,1.28Zm.53.26.63-.6,2.41,3.28h-1.08Z"/>
      <path class="cls-10" d="M373.69,542.68h3.58v.76h-2.7v1.64h2.56v.73h-2.56v1.75h2.7v.75h-3.58Z"/>
      <path class="cls-10" d="M379.79,542.68h.88v5.63h-.88Z"/>
      <path class="cls-10" d="M383.1,543.44h-1.72v-.76h4.32v.76H384v4.87h-.88Z"/>
      <path class="cls-10" d="M143.6,552.28h.81l3.47,5-.93-.82h.38v-4.16h.87v5.63h-.8l-3.47-5,.92.81h-.38v4.17h-.87Z"/>
      <path class="cls-10" d="M150.27,557.65a2.27,2.27,0,0,1-.91-1,3.41,3.41,0,0,1-.32-1.55h0a3.41,3.41,0,0,1,.32-1.55,2.33,2.33,0,0,1,.91-1,2.69,2.69,0,0,1,1.41-.36,2.63,2.63,0,0,1,1.4.36,2.37,2.37,0,0,1,.92,1,3.47,3.47,0,0,1,.32,1.54h0a3.54,3.54,0,0,1-.32,1.55,2.35,2.35,0,0,1-.92,1,2.63,2.63,0,0,1-1.4.36A2.69,2.69,0,0,1,150.27,557.65Zm2.34-.68a1.7,1.7,0,0,0,.6-.74,2.81,2.81,0,0,0,.21-1.13h0a2.81,2.81,0,0,0-.21-1.13,1.6,1.6,0,0,0-.61-.74,1.65,1.65,0,0,0-2.45.74,2.62,2.62,0,0,0-.22,1.13h0a2.65,2.65,0,0,0,.22,1.13,1.65,1.65,0,0,0,.6.74,1.79,1.79,0,0,0,1.86,0Z"/>
      <path class="cls-10" d="M156.21,553h-1.72v-.76h4.32V553h-1.72v4.87h-.88Z"/>
      <path class="cls-10" d="M159.52,552.28h.88v2.38h2.89v-2.38h.88v5.63h-.88v-2.49H160.4v2.49h-.88Z"/>
      <path class="cls-10" d="M165.21,552.28h.87v5.63h-.87Z"/>
      <path class="cls-10" d="M167.12,552.28h.81l3.47,5-.93-.82h.38v-4.16h.87v5.63h-.81l-3.46-5,.92.81H168v4.17h-.87Z"/>
      <path class="cls-10" d="M173.79,557.65a2.41,2.41,0,0,1-.91-1,3.47,3.47,0,0,1-.32-1.57h0a3.33,3.33,0,0,1,.32-1.54,2.24,2.24,0,0,1,.91-1,2.59,2.59,0,0,1,1.39-.36,2.55,2.55,0,0,1,1.14.24,2.12,2.12,0,0,1,.81.63,2.29,2.29,0,0,1,.43.92V554h-.9v0a1.51,1.51,0,0,0-.56-.76,1.54,1.54,0,0,0-.92-.27,1.66,1.66,0,0,0-.93.25,1.56,1.56,0,0,0-.59.72,2.78,2.78,0,0,0-.21,1.13h0a2.93,2.93,0,0,0,.21,1.16,1.66,1.66,0,0,0,.61.74,1.63,1.63,0,0,0,.92.26,1.73,1.73,0,0,0,.81-.18,1.47,1.47,0,0,0,.55-.5,1.52,1.52,0,0,0,.2-.75v-.09h-1.48V555h2.34v.58a2.67,2.67,0,0,1-.29,1.31,2,2,0,0,1-.83.84,2.79,2.79,0,0,1-1.31.29A2.62,2.62,0,0,1,173.79,557.65Z"/>
      <path class="cls-10" d="M180.09,552.28h3.57V553H181v1.64h2.56v.73H181v1.75h2.7v.75h-3.57Z"/>
      <path class="cls-10" d="M186.3,554.77l-.21.69v-.39l-1.85-2.79h1l1.39,2.18h.4l-.58.33,1.61-2.51h1l-1.91,2.81v.4l-.21-.69,2.09,3.11h-1l-1.41-2.14h-.4l.58-.32-1.62,2.46h-1Z"/>
      <path class="cls-10" d="M191.19,553h-1.72v-.76h4.32V553h-1.72v4.87h-.88Z"/>
      <path class="cls-10" d="M194.5,552.28h2.19a2.23,2.23,0,0,1,1,.21,1.51,1.51,0,0,1,.65.6,1.76,1.76,0,0,1,.23.91h0a1.79,1.79,0,0,1-.29,1,1.61,1.61,0,0,1-.8.6l1.26,2.29h-1l-1.15-2.16h-1.2v2.16h-.88Zm2.11,2.75a1.13,1.13,0,0,0,.78-.26,1,1,0,0,0,.27-.75h0a.92.92,0,0,0-.29-.73,1.11,1.11,0,0,0-.79-.27h-1.2v2Z"/>
      <path class="cls-10" d="M201.05,552.28h.71v.93h-.25l-1.59,4.7H199Zm-.8,3.41h2.54l.26.7H200Zm1.28-2.48v-.93H202l2,5.63h-.92Z"/>
      <path class="cls-10" d="M206.24,555.24h2.51V556h-2.51Z"/>
      <path class="cls-10" d="M211.36,552.28h1l1.82,4.49h0l1.83-4.49h1v5.63h-.8v-4.15h-.4l.91-1.33-2.23,5.48h-.65l-2.24-5.48.92,1.33h-.41v4.15h-.8Z"/>
      <path class="cls-10" d="M218.1,552.28H219v5.63h-.88Z"/>
      <path class="cls-10" d="M220.83,557.82a1.71,1.71,0,0,1-.75-.55,1.47,1.47,0,0,1-.31-.86v0h.86v0a.73.73,0,0,0,.21.44,1.19,1.19,0,0,0,.47.3,2.18,2.18,0,0,0,.66.1,1.86,1.86,0,0,0,.66-.11,1,1,0,0,0,.42-.3.73.73,0,0,0,.15-.46h0a.66.66,0,0,0-.24-.54,1.94,1.94,0,0,0-.81-.32l-.61-.13a2.52,2.52,0,0,1-1.24-.57,1.33,1.33,0,0,1-.4-1h0a1.45,1.45,0,0,1,.26-.85,1.79,1.79,0,0,1,.72-.57,2.54,2.54,0,0,1,1.06-.21,2.61,2.61,0,0,1,1,.2,1.81,1.81,0,0,1,.71.56,1.6,1.6,0,0,1,.29.83v.07h-.85v-.05a.9.9,0,0,0-.19-.46,1,1,0,0,0-.41-.28,1.55,1.55,0,0,0-.59-.1,1.59,1.59,0,0,0-.61.1.92.92,0,0,0-.4.29.69.69,0,0,0-.14.43h0a.64.64,0,0,0,.25.52,1.91,1.91,0,0,0,.78.31l.61.14a2.47,2.47,0,0,1,1.27.56,1.32,1.32,0,0,1,.4,1h0a1.55,1.55,0,0,1-.26.89,1.61,1.61,0,0,1-.74.58,2.88,2.88,0,0,1-1.15.21A2.93,2.93,0,0,1,220.83,557.82Z"/>
      <path class="cls-10" d="M224.87,552.28h3.58V553h-2.7v1.64h2.56v.73h-2.56v1.75h2.7v.75h-3.58Z"/>
      <path class="cls-10" d="M231,552.28h3.58V553h-2.71v1.64h2.56v.73h-2.56v1.75h2.71v.75H231Z"/>
      <path class="cls-10" d="M235.45,552.28h.81l3.47,5-.93-.82h.38v-4.16h.87v5.63h-.81l-3.47-5,.93.81h-.38v4.17h-.87Z"/>
      <path class="cls-10" d="M242.7,552.28h.88v5.63h-.88Zm.44,3h1.45a1.23,1.23,0,0,0,.88-.29,1.07,1.07,0,0,0,.31-.82h0a1.06,1.06,0,0,0-.31-.82,1.23,1.23,0,0,0-.88-.29h-1.45v-.74h1.67a2,2,0,0,1,1,.23,1.72,1.72,0,0,1,.66.65,1.91,1.91,0,0,1,.24,1h0a1.91,1.91,0,0,1-.24,1,1.74,1.74,0,0,1-.66.66,2,2,0,0,1-1,.23h-1.67Z"/>
      <path class="cls-10" d="M247.44,552.28h.88v4.88H251v.75h-3.51Z"/>
      <path class="cls-10" d="M253.32,552.28H254v.93h-.25l-1.59,4.7h-.93Zm-.8,3.41h2.55l.25.7h-3Zm1.29-2.48v-.93h.46l2,5.63h-.92Z"/>
      <path class="cls-10" d="M257.77,557.65a2.3,2.3,0,0,1-.91-1,3.51,3.51,0,0,1-.32-1.55h0a3.54,3.54,0,0,1,.32-1.55,2.33,2.33,0,0,1,.91-1,2.58,2.58,0,0,1,1.38-.36,2.52,2.52,0,0,1,1.12.24,2.25,2.25,0,0,1,.83.66,2.2,2.2,0,0,1,.41,1v0h-.87l0-.08a1.54,1.54,0,0,0-.29-.57,1.28,1.28,0,0,0-.5-.36,1.77,1.77,0,0,0-1.59.13,1.75,1.75,0,0,0-.59.74,2.81,2.81,0,0,0-.21,1.13h0a2.86,2.86,0,0,0,.21,1.14,1.7,1.7,0,0,0,.6.74,1.59,1.59,0,0,0,.9.26,1.57,1.57,0,0,0,.67-.13,1.15,1.15,0,0,0,.5-.37,1.43,1.43,0,0,0,.31-.6l0,0h.87v0a2.29,2.29,0,0,1-.41,1,2.1,2.1,0,0,1-.82.65,2.8,2.8,0,0,1-2.51-.12Z"/>
      <path class="cls-10" d="M262.31,552.28h3.58V553h-2.71v1.64h2.56v.73h-2.56v1.75h2.71v.75h-3.58Z"/>
      <path class="cls-10" d="M268.36,555.24h2.52V556h-2.52Z"/>
      <path class="cls-10" d="M273.49,552.28h1l1.82,4.49h0l1.82-4.49h1v5.63h-.8v-4.15H278l.92-1.33-2.24,5.48H276l-2.23-5.48.91,1.33h-.4v4.15h-.8Z"/>
      <path class="cls-10" d="M281.79,555.61l-2-3.33h1l1.44,2.48h0l1.43-2.48h1l-2,3.33v2.3h-.88Z"/>
      <path class="cls-10" d="M286.9,552.28h3.52V553h-2.65v1.78h2.43v.74h-2.43v2.35h-.87Z"/>
      <path class="cls-10" d="M292.42,552.28h.71v.93h-.24l-1.6,4.7h-.92Zm-.8,3.41h2.55l.25.7h-3.05Zm1.29-2.48v-.93h.46l2.05,5.63h-.92Z"/>
      <path class="cls-10" d="M295,552.28h.94l1.54,4.66h0l1.53-4.66H300l-2,5.63h-1Z"/>
      <path class="cls-10" d="M301.58,557.65a2.35,2.35,0,0,1-.92-1,3.54,3.54,0,0,1-.32-1.55h0a3.41,3.41,0,0,1,.33-1.55,2.33,2.33,0,0,1,.91-1,2.69,2.69,0,0,1,1.41-.36,2.63,2.63,0,0,1,1.4.36,2.37,2.37,0,0,1,.92,1,3.47,3.47,0,0,1,.32,1.54h0a3.54,3.54,0,0,1-.32,1.55,2.35,2.35,0,0,1-.92,1,2.92,2.92,0,0,1-2.81,0Zm2.34-.68a1.7,1.7,0,0,0,.6-.74,2.81,2.81,0,0,0,.21-1.13h0a2.81,2.81,0,0,0-.21-1.13,1.71,1.71,0,0,0-2.46-.74,1.73,1.73,0,0,0-.61.74,2.78,2.78,0,0,0-.21,1.13h0a2.81,2.81,0,0,0,.21,1.13,1.73,1.73,0,0,0,.61.74,1.79,1.79,0,0,0,1.86,0Z"/>
      <path class="cls-10" d="M306.46,552.28h2.19a2.2,2.2,0,0,1,1,.21,1.51,1.51,0,0,1,.65.6,1.76,1.76,0,0,1,.23.91h0a1.79,1.79,0,0,1-.29,1,1.61,1.61,0,0,1-.8.6l1.26,2.29h-1l-1.15-2.16h-1.2v2.16h-.88Zm2.11,2.75a1.13,1.13,0,0,0,.78-.26,1,1,0,0,0,.28-.75h0a.93.93,0,0,0-.3-.73,1.1,1.1,0,0,0-.79-.27h-1.2v2Z"/>
      <path class="cls-10" d="M311.38,552.28h.87v5.63h-.87Z"/>
      <path class="cls-10" d="M314.68,553H313v-.76h4.33V553h-1.73v4.87h-.88Z"/>
      <path class="cls-10" d="M318,552.28h3.57V553h-2.7v1.64h2.56v.73h-2.56v1.75h2.7v.75H318Z"/>
      <path class="cls-10" d="M325.49,553h-1.72v-.76h4.32V553h-1.72v4.87h-.88Z"/>
      <path class="cls-10" d="M328.8,552.28h.88v2.38h2.89v-2.38h.88v5.63h-.88v-2.49h-2.89v2.49h-.88Z"/>
      <path class="cls-10" d="M334.48,552.28h.88v5.63h-.88Z"/>
      <path class="cls-10" d="M336.4,552.28h.81l3.47,5-.93-.82h.38v-4.16H341v5.63h-.81l-3.47-5,.93.81h-.38v4.17h-.87Z"/>
      <path class="cls-10" d="M343.07,557.65a2.43,2.43,0,0,1-.92-1,3.6,3.6,0,0,1-.32-1.57h0a3.47,3.47,0,0,1,.32-1.54,2.36,2.36,0,0,1,.91-1,2.64,2.64,0,0,1,1.39-.36,2.6,2.6,0,0,1,1.15.24,2.12,2.12,0,0,1,.81.63,2.29,2.29,0,0,1,.43.92V554H346l0,0a1.49,1.49,0,0,0-.55-.76,1.55,1.55,0,0,0-.93-.27,1.57,1.57,0,0,0-1.52,1,3,3,0,0,0-.2,1.13h0a2.93,2.93,0,0,0,.21,1.16,1.65,1.65,0,0,0,.6.74,1.66,1.66,0,0,0,.93.26,1.79,1.79,0,0,0,.81-.18,1.37,1.37,0,0,0,.54-.5,1.42,1.42,0,0,0,.2-.75v-.09h-1.47V555h2.34v.58a2.79,2.79,0,0,1-.29,1.31,2,2,0,0,1-.83.84,2.79,2.79,0,0,1-1.31.29A2.59,2.59,0,0,1,343.07,557.65Z"/>
      <path class="cls-10" d="M348.56,557.82a1.71,1.71,0,0,1-.75-.55,1.47,1.47,0,0,1-.31-.86v0h.86v0a.73.73,0,0,0,.21.44,1.19,1.19,0,0,0,.47.3,2.18,2.18,0,0,0,.66.1,1.86,1.86,0,0,0,.66-.11,1,1,0,0,0,.42-.3.73.73,0,0,0,.15-.46h0a.66.66,0,0,0-.24-.54,1.94,1.94,0,0,0-.81-.32l-.61-.13a2.52,2.52,0,0,1-1.24-.57,1.33,1.33,0,0,1-.4-1h0a1.45,1.45,0,0,1,.26-.85,1.87,1.87,0,0,1,.72-.57,2.54,2.54,0,0,1,1.06-.21,2.61,2.61,0,0,1,1,.2,1.81,1.81,0,0,1,.71.56,1.6,1.6,0,0,1,.29.83v.07h-.86v-.05a.9.9,0,0,0-.19-.46,1,1,0,0,0-.41-.28,1.55,1.55,0,0,0-.59-.1,1.59,1.59,0,0,0-.61.1.92.92,0,0,0-.4.29.69.69,0,0,0-.14.43h0a.64.64,0,0,0,.25.52,1.91,1.91,0,0,0,.78.31l.61.14a2.47,2.47,0,0,1,1.27.56,1.32,1.32,0,0,1,.4,1h0a1.55,1.55,0,0,1-.26.89,1.61,1.61,0,0,1-.74.58,2.88,2.88,0,0,1-1.15.21A2.93,2.93,0,0,1,348.56,557.82Z"/>
    </g>
    <g>
      <polygon class="cls-32" points="284.18 482.77 284.18 343.12 203.5 343.12 203.5 482.77 243.78 482.77 284.18 482.77 284.18 482.77"/>
      <polyline class="cls-33" points="203.51 438.2 243.78 438.2 284.06 438.2 284.06 413.13 284.06 388.07 243.78 388.07 203.51 388.07"/>
      <polyline class="cls-34" points="264.65 378.6 270.15 378.6 270.15 354.98"/>
      <polyline class="cls-34" points="240.87 424.94 246.37 424.94 246.37 401.32"/>
      <polyline class="cls-34" points="220.49 424.94 225.99 424.94 225.99 401.32"/>
      <polyline class="cls-34" points="240.87 473.79 246.37 473.79 246.37 450.17"/>
      <polyline class="cls-34" points="262.38 473.79 267.88 473.79 267.88 450.17"/>
      <polyline class="cls-34" points="218.39 473.79 223.89 473.79 223.89 450.17"/>
    </g>
  </g>
</svg>
