<svg id="Layer_1" data-name="Layer 1" xmlns="http://www.w3.org/2000/svg" viewBox="0 0 700 700">
  <defs>
    <style>
      .cls-1, .cls-15, .cls-16, .cls-9 {
        fill: #333;
      }

      .cls-2 {
        fill: #444545;
      }

      .cls-3 {
        fill: #b93b3b;
      }

      .cls-4 {
        fill: #ddd;
      }

      .cls-5 {
        fill: #fff0c1;
      }

      .cls-6 {
        fill: #555;
      }

      .cls-7 {
        fill: #ababab;
      }

      .cls-8 {
        fill: #fff;
      }

      .cls-9 {
        font-size: 21px;
      }

      .cls-15, .cls-16, .cls-9 {
        font-family: Noteworthy-Bold, Noteworthy;
        font-weight: 700;
      }

      .cls-10 {
        letter-spacing: -0.03em;
      }

      .cls-11 {
        letter-spacing: -0.11em;
      }

      .cls-12 {
        letter-spacing: 0.04em;
      }

      .cls-13 {
        letter-spacing: -0.09em;
      }

      .cls-14 {
        letter-spacing: -0.06em;
      }

      .cls-15 {
        font-size: 10.31px;
      }

      .cls-16 {
        font-size: 11.95px;
      }
    </style>
  </defs>
  <g>
    <rect class="cls-1" x="97.9" y="190.08" width="504.19" height="319.84" rx="16.16"/>
    <path class="cls-2" d="M114.07,190.08h16.16a0,0,0,0,1,0,0V509.92a0,0,0,0,1,0,0H114.07A16.16,16.16,0,0,1,97.9,493.76V206.24a16.16,16.16,0,0,1,16.16-16.16Z"/>
    <path class="cls-2" d="M585.93,190.08H602.1a0,0,0,0,1,0,0V509.92a0,0,0,0,1,0,0H585.93a16.16,16.16,0,0,1-16.16-16.16V206.24a16.16,16.16,0,0,1,16.16-16.16Z" transform="translate(1171.87 700) rotate(-180)"/>
    <rect class="cls-3" x="130.23" y="216.78" width="439.54" height="200.51" rx="11.99"/>
    <path class="cls-4" d="M142.22,216.78H557.78a12,12,0,0,1,12,12v61.57a0,0,0,0,1,0,0H130.23a0,0,0,0,1,0,0V228.77a12,12,0,0,1,12-12Z"/>
    <rect class="cls-5" x="130.23" y="278.37" width="439.54" height="11.97"/>
    <path class="cls-4" d="M130.23,380.24H569.77a0,0,0,0,1,0,0V405.3a12,12,0,0,1-12,12H142.22a12,12,0,0,1-12-12V380.24a0,0,0,0,1,0,0Z"/>
    <path class="cls-5" d="M130.23,405.3H569.77a0,0,0,0,1,0,0v0a12,12,0,0,1-12,12H142.22a12,12,0,0,1-12-12v0A0,0,0,0,1,130.23,405.3Z"/>
    <rect class="cls-1" x="200.89" y="290.34" width="298.23" height="89.9" rx="6.59"/>
    <rect class="cls-6" x="292.06" y="307.32" width="115.88" height="55.94" rx="3.24"/>
    <path class="cls-6" d="M499.5,432.23h-299a5,5,0,0,0-4.94,4.29l-10.43,67.54a5,5,0,0,0,4.94,5.86H509.93a5,5,0,0,0,4.94-5.86l-10.43-67.54A5,5,0,0,0,499.5,432.23Z"/>
    <g>
      <circle class="cls-7" cx="113.66" cy="206.24" r="8.17"/>
      <path class="cls-6" d="M113.66,199.57a6.68,6.68,0,1,1-6.67,6.67,6.67,6.67,0,0,1,6.67-6.67m0-3a9.68,9.68,0,1,0,9.67,9.67,9.67,9.67,0,0,0-9.67-9.67Z"/>
    </g>
    <circle class="cls-8" cx="245.79" cy="335.73" r="25.8"/>
    <circle class="cls-8" cx="223.49" cy="493.94" r="11.34"/>
    <circle class="cls-8" cx="476.51" cy="493.94" r="11.34"/>
    <circle class="cls-8" cx="454.21" cy="335.73" r="25.8"/>
    <g>
      <path class="cls-7" d="M586.34,214.42a8.18,8.18,0,1,1,8.17-8.18A8.18,8.18,0,0,1,586.34,214.42Z"/>
      <path class="cls-6" d="M586.34,199.57a6.68,6.68,0,1,1-6.67,6.67,6.67,6.67,0,0,1,6.67-6.67m0-3a9.68,9.68,0,1,0,9.67,9.67,9.67,9.67,0,0,0-9.67-9.67Z"/>
    </g>
    <g>
      <path class="cls-7" d="M113.66,502.11a8.17,8.17,0,1,1,8.17-8.17A8.18,8.18,0,0,1,113.66,502.11Z"/>
      <path class="cls-6" d="M113.66,487.27a6.67,6.67,0,1,1-6.67,6.67,6.67,6.67,0,0,1,6.67-6.67m0-3a9.67,9.67,0,1,0,9.67,9.67,9.67,9.67,0,0,0-9.67-9.67Z"/>
    </g>
    <g>
      <path class="cls-7" d="M586.34,502.11a8.17,8.17,0,1,1,8.17-8.17A8.18,8.18,0,0,1,586.34,502.11Z"/>
      <path class="cls-6" d="M586.34,487.27a6.67,6.67,0,1,1-6.67,6.67,6.67,6.67,0,0,1,6.67-6.67m0-3a9.67,9.67,0,1,0,9.67,9.67,9.67,9.67,0,0,0-9.67-9.67Z"/>
    </g>
    <g>
      <circle class="cls-7" cx="350" cy="448.39" r="5.84"/>
      <path class="cls-2" d="M350,443.55a4.84,4.84,0,1,1-4.84,4.83,4.84,4.84,0,0,1,4.84-4.83m0-2a6.84,6.84,0,1,0,6.84,6.83,6.83,6.83,0,0,0-6.84-6.83Z"/>
    </g>
    <rect class="cls-8" x="270.79" y="473.14" width="18.93" height="18.93" rx="3.24"/>
    <rect class="cls-8" x="410.28" y="473.14" width="18.93" height="18.93" rx="3.24"/>
    <text class="cls-9" transform="translate(155.73 258.87)"><tspan class="cls-10">T</tspan><tspan x="13.1" y="0">HE SHE</tspan><tspan class="cls-11" x="92.19" y="0">L</tspan><tspan class="cls-12" x="102.03" y="0">V</tspan><tspan class="cls-13" x="117.34" y="0">E</tspan><tspan x="129.57" y="0">S - E</tspan><tspan class="cls-12" x="174.48" y="0">V</tspan><tspan class="cls-14" x="189.78" y="0">E</tspan><tspan x="202.65" y="0">RY</tspan><tspan class="cls-10" x="233.41" y="0">T</tspan><tspan x="246.51" y="0">HING I’</tspan><tspan class="cls-12" x="311.29" y="0">V</tspan><tspan x="326.6" y="0">E G</tspan><tspan class="cls-14" x="359.57" y="0">O</tspan><tspan x="374.82" y="0">T</tspan></text>
    <g>
      <path class="cls-1" d="M479.33,401.52a5.67,5.67,0,0,1-2.31-2.1,6,6,0,0,1-.81-3.15V385.78h2.9V396a3.75,3.75,0,0,0,1,2.7,3.71,3.71,0,0,0,2.79,1,3.46,3.46,0,0,0,3.76-3.72V385.78h2.89v10.49a6,6,0,0,1-.81,3.14,5.51,5.51,0,0,1-2.29,2.11,8.78,8.78,0,0,1-7.1,0Z"/>
      <path class="cls-1" d="M495.41,401.25a6.84,6.84,0,0,1-2.64-2.91,10,10,0,0,1-.93-4.46h0a10,10,0,0,1,.93-4.46,6.85,6.85,0,0,1,2.64-2.89,7.71,7.71,0,0,1,4-1,7.56,7.56,0,0,1,3.35.72,6.39,6.39,0,0,1,2.4,2,6.06,6.06,0,0,1,1.15,2.92v.11h-2.84l-.06-.21a4.09,4.09,0,0,0-.77-1.61,3.51,3.51,0,0,0-1.36-1,4.47,4.47,0,0,0-1.88-.37,4.26,4.26,0,0,0-2.45.71,4.65,4.65,0,0,0-1.62,2,7.76,7.76,0,0,0-.58,3.12h0a7.82,7.82,0,0,0,.58,3.12,4.62,4.62,0,0,0,1.62,2,4.23,4.23,0,0,0,2.45.72,4.52,4.52,0,0,0,1.85-.36,3.76,3.76,0,0,0,1.38-1.06,4.49,4.49,0,0,0,.82-1.7l0-.11h2.84l0,.12a6.13,6.13,0,0,1-1.13,2.92,6.34,6.34,0,0,1-2.42,2,7.56,7.56,0,0,1-3.35.72A7.71,7.71,0,0,1,495.41,401.25Z"/>
      <path class="cls-1" d="M513.17,385.78h2.9V402h-2.9Z"/>
      <path class="cls-1" d="M518.92,385.78h2.9V402h-2.9Z"/>
      <path class="cls-1" d="M524.63,394.17h7.25v2.47h-7.25Z"/>
      <path class="cls-1" d="M538.26,401.79a5.83,5.83,0,0,1-2.09-1.49,7.13,7.13,0,0,1-1.42-2.54,11.81,11.81,0,0,1-.51-3.68v0a12,12,0,0,1,.79-4.59,6.4,6.4,0,0,1,2.27-3,6.1,6.1,0,0,1,3.54-1,6.72,6.72,0,0,1,2.71.53,5.45,5.45,0,0,1,2,1.48,4.72,4.72,0,0,1,1,2.17l0,.12h-2.87l0-.1a2.71,2.71,0,0,0-.61-1,2.79,2.79,0,0,0-1-.64,3.51,3.51,0,0,0-1.3-.23,3,3,0,0,0-2.12.76,4.57,4.57,0,0,0-1.23,2,10.44,10.44,0,0,0-.46,2.8c0,.1,0,.19,0,.29V394l.5,2.69a3.14,3.14,0,0,0,1.6,2.77,3.16,3.16,0,0,0,1.64.43,3.22,3.22,0,0,0,2.81-1.56,3,3,0,0,0,.43-1.59v0a3.14,3.14,0,0,0-.41-1.63,3,3,0,0,0-1.14-1.12,3.34,3.34,0,0,0-1.66-.4,3.51,3.51,0,0,0-1.66.39,3.12,3.12,0,0,0-1.17,1.11,3,3,0,0,0-.44,1.61h-.68V394h.25a3.71,3.71,0,0,1,.95-1.33,4.74,4.74,0,0,1,1.52-.93,5.43,5.43,0,0,1,2-.35,5.37,5.37,0,0,1,2.75.69,4.92,4.92,0,0,1,1.88,1.88,5.41,5.41,0,0,1,.68,2.72v0a5.34,5.34,0,0,1-3,4.89,6.47,6.47,0,0,1-3.12.73A6.56,6.56,0,0,1,538.26,401.79Z"/>
      <path class="cls-1" d="M551.9,401.25a6.49,6.49,0,0,1-2.19-2.91,11.78,11.78,0,0,1-.76-4.45v0a11.74,11.74,0,0,1,.76-4.45,6.4,6.4,0,0,1,2.19-2.9,6.21,6.21,0,0,1,6.82,0,6.35,6.35,0,0,1,2.2,2.9,11.74,11.74,0,0,1,.76,4.45v0a11.78,11.78,0,0,1-.76,4.45,6.44,6.44,0,0,1-2.2,2.91,6.21,6.21,0,0,1-6.82,0Zm5.28-2.07a4.51,4.51,0,0,0,1.18-2.07,11.23,11.23,0,0,0,.4-3.22v0a11.28,11.28,0,0,0-.4-3.22,4.43,4.43,0,0,0-1.18-2,2.65,2.65,0,0,0-1.86-.72,2.62,2.62,0,0,0-1.87.72,4.43,4.43,0,0,0-1.18,2,11.28,11.28,0,0,0-.4,3.22v0a11.23,11.23,0,0,0,.4,3.22,4.51,4.51,0,0,0,1.18,2.07,2.62,2.62,0,0,0,1.87.72A2.65,2.65,0,0,0,557.18,399.18Z"/>
    </g>
    <g>
      <path class="cls-1" d="M417.45,407.36h1.17l4.25,6.11-1.23-1h.55v-5.09h1.29v7.26h-1.16l-4.25-6.13,1.23,1h-.56v5.11h-1.29Z"/>
      <path class="cls-1" d="M426.13,414.29a3.08,3.08,0,0,1-1.2-1.3,4.47,4.47,0,0,1-.42-2h0a4.39,4.39,0,0,1,.43-2,3.06,3.06,0,0,1,1.19-1.3,3.5,3.5,0,0,1,1.83-.46,3.46,3.46,0,0,1,1.83.46A3,3,0,0,1,431,409a4.39,4.39,0,0,1,.42,2h0a4.47,4.47,0,0,1-.42,2,3.06,3.06,0,0,1-1.19,1.3,3.95,3.95,0,0,1-3.66,0Zm3-1a2.11,2.11,0,0,0,.73-.92,3.48,3.48,0,0,0,.26-1.39h0a3.53,3.53,0,0,0-.26-1.4,2.16,2.16,0,0,0-.74-.91,2,2,0,0,0-1.13-.32,2,2,0,0,0-1.12.32,2.09,2.09,0,0,0-.74.91,3.33,3.33,0,0,0-.26,1.4h0a3.37,3.37,0,0,0,.26,1.4,2.08,2.08,0,0,0,.73.91,2.17,2.17,0,0,0,2.27,0Z"/>
      <path class="cls-1" d="M432.44,407.36h2.89a3,3,0,0,1,1.34.27,2,2,0,0,1,.86.78,2.34,2.34,0,0,1,.3,1.21h0a2.25,2.25,0,0,1-.37,1.29,2,2,0,0,1-1,.78l1.59,2.92h-1.48l-1.43-2.72h-1.41v2.72h-1.29Zm2.76,3.51a1.33,1.33,0,0,0,1-.32,1.19,1.19,0,0,0,.34-.91h0a1.19,1.19,0,0,0-.35-.9,1.4,1.4,0,0,0-1-.33h-1.44v2.47Z"/>
      <path class="cls-1" d="M438.88,407.36h1.5l2.22,5.55h0l2.22-5.55h1.5v7.26h-1.17v-5.17h-.59l1.32-1.89-2.86,7.06h-.88l-2.86-7.06,1.32,1.89h-.59v5.17h-1.17Z"/>
      <path class="cls-1" d="M449.73,407.36h1.1v1.29h-.38l-1.95,6h-1.36Zm-.93,4.38h3.32l.35,1h-4Zm1.67-3.09v-1.29h.72l2.59,7.26h-1.35Z"/>
      <path class="cls-1" d="M454.56,407.36h1.3v6.17h3.29v1.09h-4.59Z"/>
      <path class="cls-1" d="M462.16,407.36h1.29v7.26h-1.29Zm.64,3.81h1.83a1.54,1.54,0,0,0,1.09-.36,1.31,1.31,0,0,0,.39-1h0a1.32,1.32,0,0,0-.39-1,1.54,1.54,0,0,0-1.09-.36H462.8v-1.05H465a2.67,2.67,0,0,1,1.29.3,2.16,2.16,0,0,1,.87.85,2.49,2.49,0,0,1,.31,1.27h0a2.49,2.49,0,0,1-.31,1.27,2.16,2.16,0,0,1-.87.85,2.57,2.57,0,0,1-1.29.31H462.8Z"/>
      <path class="cls-1" d="M469.74,414.29a3.08,3.08,0,0,1-1.2-1.3,4.47,4.47,0,0,1-.42-2h0a4.26,4.26,0,0,1,.43-2,3.06,3.06,0,0,1,1.19-1.3,3.87,3.87,0,0,1,3.66,0,3.06,3.06,0,0,1,1.19,1.3,4.39,4.39,0,0,1,.42,2h0a4.47,4.47,0,0,1-.42,2,3.06,3.06,0,0,1-1.19,1.3,3.95,3.95,0,0,1-3.66,0Zm3-1a2.06,2.06,0,0,0,.74-.92,3.49,3.49,0,0,0,.25-1.39h0a3.54,3.54,0,0,0-.25-1.4,2.16,2.16,0,0,0-.74-.91,2,2,0,0,0-1.13-.32,2,2,0,0,0-1.12.32,2,2,0,0,0-.74.91,3.33,3.33,0,0,0-.26,1.4h0a3.37,3.37,0,0,0,.26,1.4,1.92,1.92,0,0,0,1.86,1.23A2,2,0,0,0,472.7,413.3Z"/>
      <path class="cls-1" d="M477.14,414.49a2.24,2.24,0,0,1-1-.72,2,2,0,0,1-.4-1.11v-.08H477v.06a1.07,1.07,0,0,0,.27.54,1.49,1.49,0,0,0,.57.35,2.55,2.55,0,0,0,.81.12,2.3,2.3,0,0,0,.79-.12,1.21,1.21,0,0,0,.52-.36.89.89,0,0,0,.18-.55h0a.78.78,0,0,0-.3-.65,2.58,2.58,0,0,0-1-.39l-.78-.16a3.31,3.31,0,0,1-1.6-.72,1.73,1.73,0,0,1-.54-1.32h0a1.93,1.93,0,0,1,.35-1.12,2.28,2.28,0,0,1,1-.75,3.38,3.38,0,0,1,1.39-.27,3.5,3.5,0,0,1,1.38.26,2.22,2.22,0,0,1,.93.73,2,2,0,0,1,.38,1.09v.08h-1.23v-.06a1,1,0,0,0-.24-.54,1.29,1.29,0,0,0-.5-.35,2,2,0,0,0-.72-.12,1.85,1.85,0,0,0-.74.13,1,1,0,0,0-.47.34.79.79,0,0,0-.17.51h0a.74.74,0,0,0,.31.62,2.18,2.18,0,0,0,1,.37l.78.17a3.33,3.33,0,0,1,1.66.72,1.75,1.75,0,0,1,.52,1.33h0a2.07,2.07,0,0,1-.34,1.17,2.24,2.24,0,0,1-1,.77,3.86,3.86,0,0,1-1.52.27A3.81,3.81,0,0,1,477.14,414.49Z"/>
      <path class="cls-1" d="M482.41,407.36h1.29v7.26h-1.29Z"/>
      <path class="cls-1" d="M486.76,408.45h-2.18v-1.09h5.64v1.09h-2.17v6.17h-1.29Z"/>
      <path class="cls-1" d="M491.11,407.36h1.3v7.26h-1.3Z"/>
      <path class="cls-1" d="M495.05,414.29a3.12,3.12,0,0,1-1.19-1.3,4.47,4.47,0,0,1-.42-2h0a4.39,4.39,0,0,1,.42-2,3,3,0,0,1,1.2-1.3,3.85,3.85,0,0,1,3.65,0,3,3,0,0,1,1.2,1.3,4.39,4.39,0,0,1,.42,2h0a4.47,4.47,0,0,1-.42,2,3.12,3.12,0,0,1-1.19,1.3,4,4,0,0,1-3.67,0Zm3-1a2,2,0,0,0,.73-.92A3.48,3.48,0,0,0,499,411h0a3.53,3.53,0,0,0-.26-1.4,2.09,2.09,0,0,0-.74-.91,2,2,0,0,0-1.12-.32,2,2,0,0,0-1.13.32,2.09,2.09,0,0,0-.74.91,3.5,3.5,0,0,0-.26,1.4h0a3.53,3.53,0,0,0,.26,1.4,2,2,0,0,0,.74.91,2,2,0,0,0,1.13.32A2,2,0,0,0,498,413.3Z"/>
      <path class="cls-1" d="M501.36,407.36h1.17l4.25,6.11-1.23-1h.55v-5.09h1.28v7.26h-1.15L502,408.49l1.23,1h-.55v5.11h-1.29Z"/>
      <path class="cls-1" d="M510.72,411.12H514v1.1h-3.25Z"/>
      <path class="cls-1" d="M519,408.59h0l-1.87,1.29v-1.19l1.89-1.33h1.29v7.26H519Z"/>
      <path class="cls-1" d="M522,413.73l2.57-2.5a8.85,8.85,0,0,0,.72-.77,2.35,2.35,0,0,0,.34-.55,1.54,1.54,0,0,0,.09-.52h0a1.08,1.08,0,0,0-.15-.57,1,1,0,0,0-.42-.39,1.26,1.26,0,0,0-.62-.15,1.46,1.46,0,0,0-.71.17,1.23,1.23,0,0,0-.49.44,1.13,1.13,0,0,0-.18.63v0h-1.22v0a2.09,2.09,0,0,1,.34-1.18,2.45,2.45,0,0,1,.93-.81,3,3,0,0,1,1.32-.29,2.9,2.9,0,0,1,1.28.27,2.15,2.15,0,0,1,.88.74,1.87,1.87,0,0,1,.31,1.07h0a2.15,2.15,0,0,1-.15.8,3.21,3.21,0,0,1-.52.81,13,13,0,0,1-1,1.05l-2.06,2,.47-.86V414l-.47-.39h3.85v1.06H522Z"/>
      <path class="cls-1" d="M529.29,414.29a2.83,2.83,0,0,1-1-1.3,5.3,5.3,0,0,1-.35-2h0a5.3,5.3,0,0,1,.35-2,2.75,2.75,0,0,1,1-1.29,2.76,2.76,0,0,1,3.05,0,2.84,2.84,0,0,1,1,1.29,5.3,5.3,0,0,1,.34,2h0a5.3,5.3,0,0,1-.34,2,2.92,2.92,0,0,1-1,1.3,2.81,2.81,0,0,1-3.05,0Zm2.36-.93a2,2,0,0,0,.53-.93,5.05,5.05,0,0,0,.18-1.44h0a5.05,5.05,0,0,0-.18-1.44,2,2,0,0,0-.53-.92,1.25,1.25,0,0,0-1.67,0,2,2,0,0,0-.53.92,5.05,5.05,0,0,0-.18,1.44h0a5.05,5.05,0,0,0,.18,1.44,2,2,0,0,0,.53.93,1.25,1.25,0,0,0,1.67,0Z"/>
      <path class="cls-1" d="M534.62,409.28h1.24v3.18a1.34,1.34,0,0,0,.27.9,1,1,0,0,0,.8.31,1.15,1.15,0,0,0,.64-.16,1.11,1.11,0,0,0,.41-.45,1.62,1.62,0,0,0,.13-.68v-3.1h1.26v3.84a.69.69,0,0,0,.11.47.39.39,0,0,0,.33.13H540a.25.25,0,0,0,.13,0v1l-.26.06a2,2,0,0,1-.35,0,1.49,1.49,0,0,1-.84-.21,1.08,1.08,0,0,1-.43-.68l0-.08h0a1.58,1.58,0,0,1-.53.72,1.3,1.3,0,0,1-.79.25,1.21,1.21,0,0,1-.58-.13,1,1,0,0,1-.38-.35h0v2.14h-1.25Z"/>
      <path class="cls-1" d="M541.76,414.52a1.83,1.83,0,0,1-.77-.58,1.75,1.75,0,0,1-.34-.87V413h1.23v.05a.89.89,0,0,0,.33.54,1.33,1.33,0,0,0,.74.19,1.64,1.64,0,0,0,.53-.08.71.71,0,0,0,.33-.22.52.52,0,0,0,.12-.34h0a.49.49,0,0,0-.16-.38,1.38,1.38,0,0,0-.58-.25l-.88-.19a2.29,2.29,0,0,1-1.15-.54,1.32,1.32,0,0,1-.39-1h0a1.42,1.42,0,0,1,.27-.86,1.83,1.83,0,0,1,.75-.57,2.76,2.76,0,0,1,1.12-.21,2.83,2.83,0,0,1,1.14.22,1.82,1.82,0,0,1,.73.6,1.53,1.53,0,0,1,.28.83v.06h-1.16v0a.78.78,0,0,0-.29-.53,1.05,1.05,0,0,0-.69-.21,1.38,1.38,0,0,0-.48.08.62.62,0,0,0-.31.23.5.5,0,0,0-.11.34h0a.54.54,0,0,0,.17.39,1.5,1.5,0,0,0,.59.25l.88.19a2.65,2.65,0,0,1,1.19.53,1.26,1.26,0,0,1,.35.93h0a1.46,1.46,0,0,1-.29.89,1.76,1.76,0,0,1-.79.58,3,3,0,0,1-1.16.21A3.11,3.11,0,0,1,541.76,414.52Z"/>
      <path class="cls-1" d="M548.19,407.36h4.7v1.09h-3.4v2h3.21v1h-3.21v2.08h3.4v1.09h-4.7Z"/>
      <path class="cls-1" d="M555.38,414.29a3.12,3.12,0,0,1-1.19-1.3,4.47,4.47,0,0,1-.42-2h0a4.39,4.39,0,0,1,.42-2,3,3,0,0,1,1.2-1.3,3.46,3.46,0,0,1,1.83-.46,3.5,3.5,0,0,1,1.83.46,3.06,3.06,0,0,1,1.19,1.3,4.39,4.39,0,0,1,.42,2h0a4.47,4.47,0,0,1-.42,2,3.12,3.12,0,0,1-1.19,1.3,3.55,3.55,0,0,1-1.83.45A3.61,3.61,0,0,1,555.38,414.29Zm3-1a2,2,0,0,0,.73-.92,3.48,3.48,0,0,0,.26-1.39h0a3.53,3.53,0,0,0-.26-1.4,2.16,2.16,0,0,0-.74-.91,2.12,2.12,0,0,0-2.24,0,2.09,2.09,0,0,0-.74.91,3.33,3.33,0,0,0-.27,1.4h0a3.53,3.53,0,0,0,.26,1.4,2.1,2.1,0,0,0,.74.91,2.16,2.16,0,0,0,2.26,0Zm-1.46-1h1.29l2.19,3.07h-1.28Z"/>
    </g>
    <g>
      <path class="cls-1" d="M456.24,280.74h1.16l4.25,6.11-1.23-1H461v-5.1h1.29V288H461.1l-4.25-6.13,1.23,1h-.56V288h-1.28Z"/>
      <path class="cls-1" d="M463.54,280.74h2.9a3.08,3.08,0,0,1,1.34.28,2,2,0,0,1,.86.78,2.34,2.34,0,0,1,.3,1.21h0a2.32,2.32,0,0,1-.37,1.29,2,2,0,0,1-1,.78l1.58,2.92h-1.48l-1.43-2.72h-1.4V288h-1.3Zm2.77,3.52a1.37,1.37,0,0,0,1-.32,1.23,1.23,0,0,0,.34-.91h0a1.16,1.16,0,0,0-.36-.9,1.37,1.37,0,0,0-1-.33h-1.44v2.47Z"/>
      <path class="cls-1" d="M472.44,279.86H475v.94h-1.37V288H475v.93h-2.57Z"/>
      <path class="cls-1" d="M489.72,288.89V288h1.36V280.8h-1.36v-.94h2.56v9Z"/>
      <path class="cls-1" d="M508.43,280.74h1.3V288h-1.3Z"/>
      <path class="cls-1" d="M511,280.74h1.16l4.25,6.11-1.23-1h.55v-5.1H517V288h-1.16l-4.25-6.13,1.23,1h-.56V288H511Z"/>
      <path class="cls-1" d="M519,287.79a1.43,1.43,0,0,1-.35-1V282a1.23,1.23,0,0,1,1.39-1.37h4.75A1.23,1.23,0,0,1,526.2,282v4.77a1.23,1.23,0,0,1-1.38,1.38h-4.75A1.44,1.44,0,0,1,519,287.79Zm5.71-.63a.43.43,0,0,0,.48-.5v-4.57a.5.5,0,0,0-.12-.37.53.53,0,0,0-.36-.13h-4.59a.49.49,0,0,0-.36.13.46.46,0,0,0-.13.37v4.57a.44.44,0,0,0,.49.5Z"/>
      <path class="cls-1" d="M535.42,287.67a3,3,0,0,1-1.2-1.3,4.39,4.39,0,0,1-.42-2h0a4.44,4.44,0,0,1,.43-2,3,3,0,0,1,1.19-1.29,3.5,3.5,0,0,1,1.83-.46,3.46,3.46,0,0,1,1.83.46,3,3,0,0,1,1.19,1.29,4.44,4.44,0,0,1,.42,2h0a4.39,4.39,0,0,1-.42,2,3,3,0,0,1-1.19,1.3,3.87,3.87,0,0,1-3.66,0Zm3-1a2.08,2.08,0,0,0,.73-.91,3.48,3.48,0,0,0,.26-1.39h0a3.53,3.53,0,0,0-.26-1.4,2.1,2.1,0,0,0-.74-.91,2,2,0,0,0-1.13-.32,2,2,0,0,0-1.12.32,2,2,0,0,0-.74.91,3.33,3.33,0,0,0-.26,1.4h0a3.32,3.32,0,0,0,.26,1.39,2.11,2.11,0,0,0,.73.92,2,2,0,0,0,1.13.32A2,2,0,0,0,538.39,286.68Z"/>
      <path class="cls-1" d="M543.12,287.8a2.49,2.49,0,0,1-1-.95,2.69,2.69,0,0,1-.36-1.41v-4.7H543v4.6a1.57,1.57,0,0,0,1.7,1.67,1.61,1.61,0,0,0,1.24-.46,1.64,1.64,0,0,0,.44-1.21v-4.6h1.3v4.7a2.69,2.69,0,0,1-.37,1.41,2.47,2.47,0,0,1-1,.95,4,4,0,0,1-3.19,0Z"/>
      <path class="cls-1" d="M550.75,281.84h-2.17v-1.1h5.64v1.1h-2.17V288h-1.3Z"/>
      <path class="cls-1" d="M555.82,287.79a1.43,1.43,0,0,1-.35-1V282a1.23,1.23,0,0,1,1.38-1.37h4.76A1.23,1.23,0,0,1,563,282v4.77a1.23,1.23,0,0,1-1.38,1.38h-4.76A1.43,1.43,0,0,1,555.82,287.79Zm5.7-.63a.44.44,0,0,0,.49-.5v-4.57a.46.46,0,0,0-.13-.37.49.49,0,0,0-.36-.13h-4.59a.53.53,0,0,0-.36.13.5.5,0,0,0-.12.37v4.57a.43.43,0,0,0,.48.5Z"/>
    </g>
    <text class="cls-15" transform="translate(479.65 289.01)">B</text>
    <text class="cls-15" transform="translate(519.51 287.02)">x</text>
    <text class="cls-16" transform="translate(556.03 287.49)">x</text>
    <path class="cls-4" d="M161.82,320.07h6.24v7.39h-2.15l-11.15,34.07H147Zm-5.34,25h19l2,5.72h-23Zm9.57-17.64v-7.39h4.11L185,361.53H177.2Z"/>
  </g>
</svg>
