<svg id="Layer_1" data-name="Layer 1" xmlns="http://www.w3.org/2000/svg" viewBox="0 0 700 700">
  <defs>
    <style>
      .cls-1 {
        fill: #7b1315;
      }

      .cls-2 {
        fill: #eaddd3;
      }

      .cls-3 {
        fill: #9f1d20;
      }

      .cls-4 {
        fill: #8f1b21;
      }

      .cls-5 {
        font-size: 63px;
        font-family: Athelas-Bold, Athelas;
        font-weight: 700;
      }

      .cls-10, .cls-5, .cls-6 {
        fill: #cdaa2c;
      }

      .cls-6 {
        font-size: 31.28px;
        font-family: Athelas-Italic, Athelas;
        font-style: italic;
      }

      .cls-7 {
        letter-spacing: -0.02em;
      }

      .cls-8 {
        letter-spacing: -0.02em;
      }

      .cls-9 {
        letter-spacing: -0.01em;
      }
    </style>
  </defs>
  <rect class="cls-1" x="165.27" y="84.38" width="340" height="500" rx="10.5"/>
  <polygon class="cls-2" points="526.01 115.62 519.92 593.89 179.92 593.89 179.92 96.89 505.21 97.72 526.01 115.62"/>
  <path class="cls-3" d="M536.51,126.12v479a10.5,10.5,0,0,1-10.5,10.5H207a10.44,10.44,0,0,1-7.5-3.16l-.06-.05a10.48,10.48,0,0,1-2.94-7.29v-479a10.5,10.5,0,0,1,10.5-10.5H526A10.5,10.5,0,0,1,536.51,126.12Z"/>
  <path class="cls-4" d="M214.68,118.89v489.6a7.13,7.13,0,0,1-7.13,7.13H207a10.44,10.44,0,0,1-7.5-3.16l-.06-.05-7.12-6.32-22.1-19.62a11,11,0,0,1-5-9.19l-1.78-481.9A11,11,0,0,1,180,85.87a6.86,6.86,0,0,1,1,.72l12,10.34,19.23,16.56A7.14,7.14,0,0,1,214.68,118.89Z"/>
  <text class="cls-5" transform="translate(243.98 214.62)">Treasure <tspan x="45.14" y="75.6">Island</tspan></text>
  <text class="cls-6" transform="translate(247.45 370.16) scale(0.9 1)"><tspan class="cls-7">R</tspan><tspan x="18.08" y="0">obert Louis </tspan><tspan class="cls-8" x="157.24" y="0">S</tspan><tspan x="172.88" y="0">te</tspan><tspan class="cls-9" x="194.25" y="0">v</tspan><tspan x="208.67" y="0">en</tspan><tspan class="cls-9" x="236.69" y="0">s</tspan><tspan x="247.36" y="0">on</tspan></text>
  <path class="cls-10" d="M496.31,323.94a28.45,28.45,0,0,0,4.4-.83,24.79,24.79,0,0,0,4.2-1.45,8.44,8.44,0,0,0,.94-.52,1.69,1.69,0,0,0,.64-.64c.17-.28-.57-.72-1.22-.92a22.52,22.52,0,0,0-4.31-.84,168.92,168.92,0,0,0-17.88-.7c-12,0-23.93.35-35.89.76s-23.93.93-35.9,1.53-23.93,1.13-35.89,1.79-24,1.14-35.94,1.58-24,.77-36,.86-24,.1-36-.4a172.9,172.9,0,0,1-18-1.6,24.55,24.55,0,0,1-4.45-1.11,5,5,0,0,1-1.09-.58,1.39,1.39,0,0,1-.25-.24.91.91,0,0,1-.22-.31,1,1,0,0,1,0-.85,2.31,2.31,0,0,1,.95-.92,6.35,6.35,0,0,1,1.05-.51,25.18,25.18,0,0,1,4.38-1.2,30.48,30.48,0,0,1,4.47-.54,29.84,29.84,0,0,0-4.41.84,24.23,24.23,0,0,0-4.2,1.45,7,7,0,0,0-.93.52,1.62,1.62,0,0,0-.64.64c-.17.28.57.72,1.21.92a23.48,23.48,0,0,0,4.31.84,171.74,171.74,0,0,0,17.88.69c6,0,12-.07,17.95-.22s12-.31,18-.54c12-.46,23.93-.92,35.89-1.53s23.93-1.13,35.89-1.78,24-1.14,35.95-1.58,24-.76,36-.86,24-.1,36,.4a172.47,172.47,0,0,1,18,1.6,24.14,24.14,0,0,1,4.45,1.11,4.79,4.79,0,0,1,1.09.58,1.34,1.34,0,0,1,.26.23,1.13,1.13,0,0,1,.22.32,1,1,0,0,1,0,.85,2.26,2.26,0,0,1-.94.91,7.87,7.87,0,0,1-1,.52,24.29,24.29,0,0,1-4.38,1.19A28.12,28.12,0,0,1,496.31,323.94Z"/>
</svg>
