<svg id="Layer_1" data-name="Layer 1" xmlns="http://www.w3.org/2000/svg" viewBox="0 0 700 700">
  <defs>
    <style>
      .cls-1, .cls-17, .cls-18 {
        fill: #ddd;
      }

      .cls-2 {
        fill: #181818;
      }

      .cls-3 {
        fill: #ec6332;
      }

      .cls-10, .cls-11, .cls-12, .cls-13, .cls-15, .cls-16, .cls-4, .cls-5, .cls-6, .cls-7, .cls-8, .cls-9 {
        fill: none;
      }

      .cls-10, .cls-11, .cls-12, .cls-13, .cls-4, .cls-5, .cls-6, .cls-7, .cls-8, .cls-9 {
        stroke: #303030;
      }

      .cls-10, .cls-11, .cls-12, .cls-13, .cls-15, .cls-16, .cls-17, .cls-4, .cls-5, .cls-6, .cls-7, .cls-8, .cls-9 {
        stroke-miterlimit: 10;
      }

      .cls-4 {
        stroke-width: 0.89px;
      }

      .cls-5 {
        stroke-width: 0.87px;
      }

      .cls-6 {
        stroke-width: 0.83px;
      }

      .cls-7 {
        stroke-width: 0.86px;
      }

      .cls-8 {
        stroke-width: 0.87px;
      }

      .cls-9 {
        stroke-width: 0.89px;
      }

      .cls-10 {
        stroke-width: 0.87px;
      }

      .cls-11 {
        stroke-width: 0.87px;
      }

      .cls-12 {
        stroke-width: 0.87px;
      }

      .cls-13 {
        stroke-width: 0.85px;
      }

      .cls-14 {
        fill: #b34729;
      }

      .cls-15, .cls-16, .cls-17 {
        stroke: #ddd;
      }

      .cls-15 {
        stroke-width: 1.37px;
      }

      .cls-16, .cls-17 {
        stroke-width: 1.07px;
      }

      .cls-18 {
        font-size: 7.2px;
        font-family: Baskerville-Bold, Baskerville;
        font-weight: 700;
        letter-spacing: 0.05em;
      }

      .cls-19 {
        letter-spacing: 0.1em;
      }

      .cls-20 {
        letter-spacing: 0.2em;
      }
    </style>
  </defs>
  <g>
    <path class="cls-1" d="M494.81,135.82H73.89a5.43,5.43,0,0,0-5.43,5.43V562.18a2,2,0,0,0,2,2H494.81a2,2,0,0,0,2-2V137.83A2,2,0,0,0,494.81,135.82ZM282.64,442.73A92.71,92.71,0,0,1,190,352.34c0-.77,0-1.55,0-2.33a92.77,92.77,0,0,1,110.55-91c2.43.47,4.82,1,7.17,1.7.4.1.8.22,1.2.34s.8.23,1.2.36l1.26.4c.53.17,1.06.34,1.58.53l1.14.4,1,.35,1.1.42,1,.38c.36.14.72.29,1.07.45s.64.25.95.39l1.12.49c.34.15.69.3,1,.47s1,.44,1.46.68,1.07.52,1.6.78l1.35.7c.45.23.9.47,1.34.72l.88.49c.5.27,1,.55,1.47.84s.81.47,1.22.72l1.26.78c.41.25.82.51,1.22.78s.85.55,1.27.83.79.53,1.18.81.79.54,1.17.83.8.57,1.19.87.76.56,1.14.86l1,.81c.45.35.9.71,1.34,1.08s.9.74,1.35,1.13.82.7,1.23,1.07a.44.44,0,0,1,.11.09c.16.13.31.27.46.41l.58.52.13.12,1.29,1.2c.32.31.64.61,1,.93s.65.63,1,1,.64.64.94,1,.82.85,1.21,1.28.75.8,1.11,1.21l1.11,1.25,1.07,1.27a92.67,92.67,0,0,1,14.19,23.26h0c.68,1.59,1.31,3.19,1.88,4.82s1.1,3.19,1.58,4.81A92.67,92.67,0,0,1,375.36,350c0,.78,0,1.56,0,2.33a92.24,92.24,0,0,1-3.79,24.11q-.72,2.43-1.58,4.8c-.57,1.63-1.2,3.24-1.87,4.82a92.78,92.78,0,0,1-13.83,22.83c-.35.43-.71.85-1.06,1.27l-1.1,1.26c-.36.41-.72.82-1.1,1.22s-.8.87-1.2,1.29l-.93,1c-.32.33-.64.65-1,1s-.63.63-.95.93-.85.82-1.28,1.2a.55.55,0,0,1-.14.13q-.51.5-1,.93a.94.94,0,0,1-.1.1l-1.23,1.08-.54.47-.81.67-.94.78h0l-1.05.83c-.37.3-.74.59-1.12.87l-1.19.89c-.38.29-.77.57-1.16.83s-.78.56-1.17.83l-1.25.85-1.21.79c-.41.27-.83.53-1.26.79s-.81.51-1.22.74-1,.59-1.46.86c-.29.17-.57.34-.86.49-.44.26-.89.5-1.34.74s-.9.48-1.35.71-1.05.55-1.58.8-1,.48-1.45.71l-1,.47-1.11.51-.94.4-1.07.46-1,.39-1.1.44-1,.35c-.37.15-.75.29-1.13.42s-1,.37-1.57.54-.84.29-1.27.42l-1.18.38-1.2.35c-2.68.79-5.42,1.46-8.2,2A92.69,92.69,0,0,1,282.64,442.73Z"/>
    <path class="cls-2" d="M496.82,177.29A178.08,178.08,0,1,0,631.53,350,178.14,178.14,0,0,0,496.82,177.29ZM413.91,351.18c0-.39,0-.78,0-1.17a39.61,39.61,0,1,1,79.22,0c0,.39,0,.78,0,1.17l0,.87q-.06,1-.15,2-.21,2-.6,3.93c-.2,1-.43,1.9-.69,2.83a0,0,0,0,0,0,0c-.26.9-.54,1.78-.85,2.65a.69.69,0,0,0-.05.13c-.2.55-.41,1.08-.63,1.61-.15.36-.31.72-.47,1.07l-.4.87c-.14.29-.29.58-.43.86l-.45.85a38.72,38.72,0,0,1-2.06,3.39c-.34.48-.68,1-1,1.43-.19.25-.38.51-.58.76a39.6,39.6,0,0,1-6.19,6.29c-.4.33-.82.66-1.24,1a39.62,39.62,0,0,1-4,2.64l-.83.47q-1.54.84-3.15,1.53l-.72.31-1.1.43-.75.27c-.3.1-.59.21-.89.3l-.9.28c-.27.09-.55.17-.83.24-.65.18-1.31.34-2,.49l-.87.18c-.55.11-1.11.21-1.67.29l-.81.12-.35,0-1,.11a40.22,40.22,0,0,1-7.81,0l-1-.11-.35,0-.81-.12a39.42,39.42,0,0,1-12.85-4.32l-.84-.47a40.91,40.91,0,0,1-4-2.64c-.49-.37-1-.75-1.44-1.13a39.78,39.78,0,0,1-4.78-4.67l-.61-.72-.6-.74c-.2-.25-.39-.51-.58-.76s-.38-.51-.56-.77-.37-.52-.54-.78-.36-.54-.53-.81-.34-.53-.5-.8-.33-.55-.49-.82-.42-.75-.63-1.14-.48-.93-.71-1.41c-.14-.28-.28-.57-.41-.87-.4-.88-.76-1.77-1.09-2.68a35.68,35.68,0,0,1-1.16-3.72c-.16-.63-.31-1.27-.44-1.92a37.24,37.24,0,0,1-.58-3.71c0-.32-.07-.65-.09-1s0-.65-.07-1S413.92,351.57,413.91,351.18Z"/>
    <path class="cls-3" d="M493.05,352.34c0,.58-.08,1.15-.14,1.72a36.5,36.5,0,0,1-.6,3.93c-.2,1-.43,1.9-.69,2.83a0,0,0,0,0,0,0c-.25.9-.53,1.78-.85,2.65a.69.69,0,0,0-.05.13c-.2.55-.41,1.08-.63,1.61-.15.36-.31.72-.47,1.07s-.26.58-.4.87-.29.58-.43.86l-.45.85a38.72,38.72,0,0,1-2.06,3.39c-.33.49-.67,1-1,1.43-.19.25-.38.51-.58.76a39.6,39.6,0,0,1-6.19,6.29c-.4.33-.82.66-1.24,1a39.62,39.62,0,0,1-4,2.64l-.83.47q-1.54.84-3.15,1.53l-.72.31-1.1.43-.75.27c-.3.1-.59.21-.89.3l-.9.28c-.27.09-.55.17-.83.24-.65.18-1.31.34-2,.49l-.87.18c-.55.11-1.11.21-1.67.29l-.81.12-.35,0-1,.11a40.22,40.22,0,0,1-7.81,0l-1-.11-.35,0-.81-.12a39.42,39.42,0,0,1-12.85-4.32l-.84-.47a40.91,40.91,0,0,1-4-2.64c-.49-.36-1-.74-1.44-1.13a39.78,39.78,0,0,1-4.78-4.67l-.61-.72-.6-.74c-.2-.25-.39-.51-.58-.76s-.38-.51-.56-.77-.37-.52-.54-.78-.36-.54-.53-.81-.34-.53-.5-.8-.33-.55-.49-.82-.42-.75-.63-1.14-.49-.93-.71-1.41c-.14-.28-.28-.57-.41-.87-.4-.88-.76-1.77-1.09-2.68a35.68,35.68,0,0,1-1.16-3.72c-.16-.63-.31-1.27-.44-1.92a37.24,37.24,0,0,1-.58-3.71c0-.32-.07-.65-.09-1s0-.65-.07-1H360.82a92.71,92.71,0,0,0,185.37,0Z"/>
    <path class="cls-4" d="M572.73,297.16l-.1-.22a131.34,131.34,0,0,0-46.91-54.05c-2.23-1.47-4.51-2.86-6.82-4.19a129,129,0,0,0-22.08-10,130.9,130.9,0,0,0-167.6,84.76c-.07.24-.14.48-.22.73q-1.06,3.46-1.93,7a.36.36,0,0,0,0,.1,131.62,131.62,0,0,0,2.79,71.81,128.88,128.88,0,0,0,12.79,27.57,131.23,131.23,0,0,0,31.15,34.84l.15.11A130.68,130.68,0,0,0,552.06,439l.15-.17a130.31,130.31,0,0,0,31.09-66,.45.45,0,0,1,0-.11,131.19,131.19,0,0,0-10.58-75.63Zm-158.82,54c0-.39,0-.78,0-1.17a39.61,39.61,0,1,1,79.22,0c0,.39,0,.78,0,1.17l0,.87q-.06,1-.15,2-.21,2-.6,3.93c-.2,1-.43,1.9-.69,2.83a0,0,0,0,0,0,0c-.26.9-.54,1.78-.85,2.65a.69.69,0,0,0-.05.13c-.2.55-.41,1.08-.63,1.61-.15.36-.31.72-.47,1.07l-.4.87c-.14.29-.29.58-.43.86l-.45.85a38.72,38.72,0,0,1-2.06,3.39c-.34.48-.68,1-1,1.43-.19.25-.38.51-.58.76a39.6,39.6,0,0,1-6.19,6.29c-.4.33-.82.66-1.24,1a39.62,39.62,0,0,1-4,2.64l-.83.47q-1.54.84-3.15,1.53l-.72.31-1.1.43-.75.27c-.3.1-.59.21-.89.3l-.9.28c-.27.09-.55.17-.83.24-.65.18-1.31.34-2,.49l-.87.18c-.55.11-1.11.21-1.67.29l-.81.12-.35,0-1,.11a40.22,40.22,0,0,1-7.81,0l-1-.11-.35,0-.81-.12a39.42,39.42,0,0,1-12.85-4.32l-.84-.47a40.91,40.91,0,0,1-4-2.64c-.49-.37-1-.75-1.44-1.13a39.78,39.78,0,0,1-4.78-4.67l-.61-.72-.6-.74c-.2-.25-.39-.51-.58-.76s-.38-.51-.56-.77-.37-.52-.54-.78-.36-.54-.53-.81-.34-.53-.5-.8-.33-.55-.49-.82-.42-.75-.63-1.14-.48-.93-.71-1.41c-.14-.28-.28-.57-.41-.87-.4-.88-.76-1.77-1.09-2.68a35.68,35.68,0,0,1-1.16-3.72c-.16-.63-.31-1.27-.44-1.92a37.24,37.24,0,0,1-.58-3.71c0-.32-.07-.65-.09-1s0-.65-.07-1S413.92,351.57,413.91,351.18Z"/>
    <path class="cls-4" d="M496.82,242.88a115.27,115.27,0,1,0,71.39,106.59A114.72,114.72,0,0,0,496.82,242.88ZM492.31,358c-.2,1-.43,1.9-.69,2.83a0,0,0,0,0,0,0c-.26.9-.54,1.78-.85,2.65a.69.69,0,0,0-.05.13c-.2.55-.41,1.08-.63,1.61-.15.36-.31.72-.47,1.07l-.4.87c-.14.29-.29.58-.43.86l-.45.85a38.72,38.72,0,0,1-2.06,3.39c-.34.48-.68,1-1,1.43-.19.25-.38.51-.58.76a39.6,39.6,0,0,1-6.19,6.29c-.4.33-.82.66-1.24,1a39.62,39.62,0,0,1-4,2.64l-.83.47q-1.54.84-3.15,1.53l-.72.31-1.1.43-.75.27c-.3.1-.59.21-.89.3l-.9.28c-.27.09-.55.17-.83.24-.65.18-1.31.34-2,.49l-.87.18c-.55.11-1.11.21-1.67.29l-.81.12-.35,0-1,.11a40.22,40.22,0,0,1-7.81,0l-1-.11-.35,0-.81-.12a39.42,39.42,0,0,1-12.85-4.32l-.84-.47a40.91,40.91,0,0,1-4-2.64c-.49-.37-1-.75-1.44-1.13a39.78,39.78,0,0,1-4.78-4.67l-.61-.72-.6-.74c-.2-.25-.39-.51-.58-.76s-.38-.51-.56-.77-.37-.52-.54-.78-.36-.54-.53-.81-.34-.53-.5-.8-.33-.55-.49-.82-.42-.75-.63-1.14-.48-.93-.71-1.41c-.14-.28-.28-.57-.41-.87-.4-.88-.76-1.77-1.09-2.68a35.68,35.68,0,0,1-1.16-3.72c-.16-.63-.31-1.27-.44-1.92a37.24,37.24,0,0,1-.58-3.71c0-.32-.07-.65-.09-1s0-.65-.07-1,0-.77,0-1.16,0-.78,0-1.17a39.61,39.61,0,1,1,79.22,0c0,.39,0,.78,0,1.17l0,.87q-.06,1-.15,2Q492.7,356.05,492.31,358Z"/>
    <path class="cls-4" d="M496.82,241.19a116.84,116.84,0,1,0,73,108.28A116.32,116.32,0,0,0,496.82,241.19ZM492.31,358c-.2,1-.43,1.9-.69,2.83a0,0,0,0,0,0,0c-.26.9-.54,1.78-.85,2.65a.69.69,0,0,0-.05.13c-.2.55-.41,1.08-.63,1.61-.15.36-.31.72-.47,1.07l-.4.87c-.14.29-.29.58-.43.86l-.45.85a38.72,38.72,0,0,1-2.06,3.39c-.34.48-.68,1-1,1.43-.19.25-.38.51-.58.76a39.6,39.6,0,0,1-6.19,6.29c-.4.33-.82.66-1.24,1a39.62,39.62,0,0,1-4,2.64l-.83.47q-1.54.84-3.15,1.53l-.72.31-1.1.43-.75.27c-.3.1-.59.21-.89.3l-.9.28c-.27.09-.55.17-.83.24-.65.18-1.31.34-2,.49l-.87.18c-.55.11-1.11.21-1.67.29l-.81.12-.35,0-1,.11a40.22,40.22,0,0,1-7.81,0l-1-.11-.35,0-.81-.12a39.42,39.42,0,0,1-12.85-4.32l-.84-.47a40.91,40.91,0,0,1-4-2.64c-.49-.37-1-.75-1.44-1.13a39.78,39.78,0,0,1-4.78-4.67l-.61-.72-.6-.74c-.2-.25-.39-.51-.58-.76s-.38-.51-.56-.77-.37-.52-.54-.78-.36-.54-.53-.81-.34-.53-.5-.8-.33-.55-.49-.82-.42-.75-.63-1.14-.48-.93-.71-1.41c-.14-.28-.28-.57-.41-.87-.4-.88-.76-1.77-1.09-2.68a35.68,35.68,0,0,1-1.16-3.72c-.16-.63-.31-1.27-.44-1.92a37.24,37.24,0,0,1-.58-3.71c0-.32-.07-.65-.09-1s0-.65-.07-1,0-.77,0-1.16,0-.78,0-1.17a39.61,39.61,0,1,1,79.22,0c0,.39,0,.78,0,1.17l0,.87q-.06,1-.15,2Q492.7,356.05,492.31,358Z"/>
    <path class="cls-4" d="M496.82,239.46a118.44,118.44,0,1,0,74.55,110A117.94,117.94,0,0,0,496.82,239.46ZM492.31,358c-.2,1-.43,1.9-.69,2.83a0,0,0,0,0,0,0c-.26.9-.54,1.78-.85,2.65a.69.69,0,0,0-.05.13c-.2.55-.41,1.08-.63,1.61-.15.36-.31.72-.47,1.07l-.4.87c-.14.29-.29.58-.43.86l-.45.85a38.72,38.72,0,0,1-2.06,3.39c-.34.48-.68,1-1,1.43-.19.25-.38.51-.58.76a39.6,39.6,0,0,1-6.19,6.29c-.4.33-.82.66-1.24,1a39.62,39.62,0,0,1-4,2.64l-.83.47q-1.54.84-3.15,1.53l-.72.31-1.1.43-.75.27c-.3.1-.59.21-.89.3l-.9.28c-.27.09-.55.17-.83.24-.65.18-1.31.34-2,.49l-.87.18c-.55.11-1.11.21-1.67.29l-.81.12-.35,0-1,.11a40.22,40.22,0,0,1-7.81,0l-1-.11-.35,0-.81-.12a39.42,39.42,0,0,1-12.85-4.32l-.84-.47a40.91,40.91,0,0,1-4-2.64c-.49-.37-1-.75-1.44-1.13a39.78,39.78,0,0,1-4.78-4.67l-.61-.72-.6-.74c-.2-.25-.39-.51-.58-.76s-.38-.51-.56-.77-.37-.52-.54-.78-.36-.54-.53-.81-.34-.53-.5-.8-.33-.55-.49-.82-.42-.75-.63-1.14-.48-.93-.71-1.41c-.14-.28-.28-.57-.41-.87-.4-.88-.76-1.77-1.09-2.68a35.68,35.68,0,0,1-1.16-3.72c-.16-.63-.31-1.27-.44-1.92a37.24,37.24,0,0,1-.58-3.71c0-.32-.07-.65-.09-1s0-.65-.07-1,0-.77,0-1.16,0-.78,0-1.17a39.61,39.61,0,1,1,79.22,0c0,.39,0,.78,0,1.17l0,.87q-.06,1-.15,2Q492.7,356.05,492.31,358Z"/>
    <path class="cls-4" d="M496.82,237.75A120,120,0,1,0,573,349.47,119.73,119.73,0,0,0,496.82,237.75ZM492.31,358c-.2,1-.43,1.9-.69,2.83a0,0,0,0,0,0,0c-.26.9-.54,1.78-.85,2.65a.69.69,0,0,0-.05.13c-.2.55-.41,1.08-.63,1.61-.15.36-.31.72-.47,1.07l-.4.87c-.14.29-.29.58-.43.86l-.45.85a38.72,38.72,0,0,1-2.06,3.39c-.34.48-.68,1-1,1.43-.19.25-.38.51-.58.76a39.6,39.6,0,0,1-6.19,6.29c-.4.33-.82.66-1.24,1a39.62,39.62,0,0,1-4,2.64l-.83.47q-1.54.84-3.15,1.53l-.72.31-1.1.43-.75.27c-.3.1-.59.21-.89.3l-.9.28c-.27.09-.55.17-.83.24-.65.18-1.31.34-2,.49l-.87.18c-.55.11-1.11.21-1.67.29l-.81.12-.35,0-1,.11a40.22,40.22,0,0,1-7.81,0l-1-.11-.35,0-.81-.12a39.42,39.42,0,0,1-12.85-4.32l-.84-.47a40.91,40.91,0,0,1-4-2.64c-.49-.37-1-.75-1.44-1.13a39.78,39.78,0,0,1-4.78-4.67l-.61-.72-.6-.74c-.2-.25-.39-.51-.58-.76s-.38-.51-.56-.77-.37-.52-.54-.78-.36-.54-.53-.81-.34-.53-.5-.8-.33-.55-.49-.82-.42-.75-.63-1.14-.48-.93-.71-1.41c-.14-.28-.28-.57-.41-.87-.4-.88-.76-1.77-1.09-2.68a35.68,35.68,0,0,1-1.16-3.72c-.16-.63-.31-1.27-.44-1.92a37.24,37.24,0,0,1-.58-3.71c0-.32-.07-.65-.09-1s0-.65-.07-1,0-.77,0-1.16,0-.78,0-1.17a39.61,39.61,0,1,1,79.22,0c0,.39,0,.78,0,1.17l0,.87q-.06,1-.15,2Q492.7,356.05,492.31,358Z"/>
    <path class="cls-4" d="M496.82,234.54A123,123,0,1,0,576,349.47,122.56,122.56,0,0,0,496.82,234.54ZM492.31,358c-.2,1-.43,1.9-.69,2.83a0,0,0,0,0,0,0c-.26.9-.54,1.78-.85,2.65a.69.69,0,0,0-.05.13c-.2.55-.41,1.08-.63,1.61-.15.36-.31.72-.47,1.07l-.4.87c-.14.29-.29.58-.43.86l-.45.85a38.72,38.72,0,0,1-2.06,3.39c-.34.48-.68,1-1,1.43-.19.25-.38.51-.58.76a39.6,39.6,0,0,1-6.19,6.29c-.4.33-.82.66-1.24,1a39.62,39.62,0,0,1-4,2.64l-.83.47q-1.54.84-3.15,1.53l-.72.31-1.1.43-.75.27c-.3.1-.59.21-.89.3l-.9.28c-.27.09-.55.17-.83.24-.65.18-1.31.34-2,.49l-.87.18c-.55.11-1.11.21-1.67.29l-.81.12-.35,0-1,.11a40.22,40.22,0,0,1-7.81,0l-1-.11-.35,0-.81-.12a39.42,39.42,0,0,1-12.85-4.32l-.84-.47a40.91,40.91,0,0,1-4-2.64c-.49-.37-1-.75-1.44-1.13a39.78,39.78,0,0,1-4.78-4.67l-.61-.72-.6-.74c-.2-.25-.39-.51-.58-.76s-.38-.51-.56-.77-.37-.52-.54-.78-.36-.54-.53-.81-.34-.53-.5-.8-.33-.55-.49-.82-.42-.75-.63-1.14-.48-.93-.71-1.41c-.14-.28-.28-.57-.41-.87-.4-.88-.76-1.77-1.09-2.68a35.68,35.68,0,0,1-1.16-3.72c-.16-.63-.31-1.27-.44-1.92a37.24,37.24,0,0,1-.58-3.71c0-.32-.07-.65-.09-1s0-.65-.07-1,0-.77,0-1.16,0-.78,0-1.17a39.61,39.61,0,1,1,79.22,0c0,.39,0,.78,0,1.17l0,.87q-.06,1-.15,2Q492.7,356.05,492.31,358Z"/>
    <path class="cls-4" d="M496.82,235.94a121.71,121.71,0,1,0,77.84,113.53A121.25,121.25,0,0,0,496.82,235.94ZM492.31,358c-.2,1-.43,1.9-.69,2.83a0,0,0,0,0,0,0c-.26.9-.54,1.78-.85,2.65a.69.69,0,0,0-.05.13c-.2.55-.41,1.08-.63,1.61-.15.36-.31.72-.47,1.07l-.4.87c-.14.29-.29.58-.43.86l-.45.85a38.72,38.72,0,0,1-2.06,3.39c-.34.48-.68,1-1,1.43-.19.25-.38.51-.58.76a39.6,39.6,0,0,1-6.19,6.29c-.4.33-.82.66-1.24,1a39.62,39.62,0,0,1-4,2.64l-.83.47q-1.54.84-3.15,1.53l-.72.31-1.1.43-.75.27c-.3.1-.59.21-.89.3l-.9.28c-.27.09-.55.17-.83.24-.65.18-1.31.34-2,.49l-.87.18c-.55.11-1.11.21-1.67.29l-.81.12-.35,0-1,.11a40.22,40.22,0,0,1-7.81,0l-1-.11-.35,0-.81-.12a39.42,39.42,0,0,1-12.85-4.32l-.84-.47a40.91,40.91,0,0,1-4-2.64c-.49-.37-1-.75-1.44-1.13a39.78,39.78,0,0,1-4.78-4.67l-.61-.72-.6-.74c-.2-.25-.39-.51-.58-.76s-.38-.51-.56-.77-.37-.52-.54-.78-.36-.54-.53-.81-.34-.53-.5-.8-.33-.55-.49-.82-.42-.75-.63-1.14-.48-.93-.71-1.41c-.14-.28-.28-.57-.41-.87-.4-.88-.76-1.77-1.09-2.68a35.68,35.68,0,0,1-1.16-3.72c-.16-.63-.31-1.27-.44-1.92a37.24,37.24,0,0,1-.58-3.71c0-.32-.07-.65-.09-1s0-.65-.07-1,0-.77,0-1.16,0-.78,0-1.17a39.61,39.61,0,1,1,79.22,0c0,.39,0,.78,0,1.17l0,.87q-.06,1-.15,2Q492.7,356.05,492.31,358Z"/>
    <path class="cls-4" d="M496.82,231.73a125.65,125.65,0,1,0,81.77,117.74A125.34,125.34,0,0,0,496.82,231.73ZM492.31,358c-.2,1-.43,1.9-.69,2.83a0,0,0,0,0,0,0c-.26.9-.54,1.78-.85,2.65a.69.69,0,0,0-.05.13c-.2.55-.41,1.08-.63,1.61-.15.36-.31.72-.47,1.07l-.4.87c-.14.29-.29.58-.43.86l-.45.85a38.72,38.72,0,0,1-2.06,3.39c-.34.48-.68,1-1,1.43-.19.25-.38.51-.58.76a39.6,39.6,0,0,1-6.19,6.29c-.4.33-.82.66-1.24,1a39.62,39.62,0,0,1-4,2.64l-.83.47q-1.54.84-3.15,1.53l-.72.31-1.1.43-.75.27c-.3.1-.59.21-.89.3l-.9.28c-.27.09-.55.17-.83.24-.65.18-1.31.34-2,.49l-.87.18c-.55.11-1.11.21-1.67.29l-.81.12-.35,0-1,.11a40.22,40.22,0,0,1-7.81,0l-1-.11-.35,0-.81-.12a39.42,39.42,0,0,1-12.85-4.32l-.84-.47a40.91,40.91,0,0,1-4-2.64c-.49-.37-1-.75-1.44-1.13a39.78,39.78,0,0,1-4.78-4.67l-.61-.72-.6-.74c-.2-.25-.39-.51-.58-.76s-.38-.51-.56-.77-.37-.52-.54-.78-.36-.54-.53-.81-.34-.53-.5-.8-.33-.55-.49-.82-.42-.75-.63-1.14-.48-.93-.71-1.41c-.14-.28-.28-.57-.41-.87-.4-.88-.76-1.77-1.09-2.68a35.68,35.68,0,0,1-1.16-3.72c-.16-.63-.31-1.27-.44-1.92a37.24,37.24,0,0,1-.58-3.71c0-.32-.07-.65-.09-1s0-.65-.07-1,0-.77,0-1.16,0-.78,0-1.17a39.61,39.61,0,1,1,79.22,0c0,.39,0,.78,0,1.17l0,.87q-.06,1-.15,2Q492.7,356.05,492.31,358Z"/>
    <path class="cls-4" d="M496.82,233.12a124.35,124.35,0,1,0,80.46,116.35A124,124,0,0,0,496.82,233.12ZM492.31,358c-.2,1-.43,1.9-.69,2.83a0,0,0,0,0,0,0c-.26.9-.54,1.78-.85,2.65a.69.69,0,0,0-.05.13c-.2.55-.41,1.08-.63,1.61-.15.36-.31.72-.47,1.07l-.4.87c-.14.29-.29.58-.43.86l-.45.85a38.72,38.72,0,0,1-2.06,3.39c-.34.48-.68,1-1,1.43-.19.25-.38.51-.58.76a39.6,39.6,0,0,1-6.19,6.29c-.4.33-.82.66-1.24,1a39.62,39.62,0,0,1-4,2.64l-.83.47q-1.54.84-3.15,1.53l-.72.31-1.1.43-.75.27c-.3.1-.59.21-.89.3l-.9.28c-.27.09-.55.17-.83.24-.65.18-1.31.34-2,.49l-.87.18c-.55.11-1.11.21-1.67.29l-.81.12-.35,0-1,.11a40.22,40.22,0,0,1-7.81,0l-1-.11-.35,0-.81-.12a39.42,39.42,0,0,1-12.85-4.32l-.84-.47a40.91,40.91,0,0,1-4-2.64c-.49-.37-1-.75-1.44-1.13a39.78,39.78,0,0,1-4.78-4.67l-.61-.72-.6-.74c-.2-.25-.39-.51-.58-.76s-.38-.51-.56-.77-.37-.52-.54-.78-.36-.54-.53-.81-.34-.53-.5-.8-.33-.55-.49-.82-.42-.75-.63-1.14-.48-.93-.71-1.41c-.14-.28-.28-.57-.41-.87-.4-.88-.76-1.77-1.09-2.68a35.68,35.68,0,0,1-1.16-3.72c-.16-.63-.31-1.27-.44-1.92a37.24,37.24,0,0,1-.58-3.71c0-.32-.07-.65-.09-1s0-.65-.07-1,0-.77,0-1.16,0-.78,0-1.17a39.61,39.61,0,1,1,79.22,0c0,.39,0,.78,0,1.17l0,.87q-.06,1-.15,2Q492.7,356.05,492.31,358Z"/>
    <path class="cls-4" d="M496.82,229.9a127.37,127.37,0,1,0,83.49,119.57A127,127,0,0,0,496.82,229.9ZM492.31,358c-.2,1-.43,1.9-.69,2.83a0,0,0,0,0,0,0c-.26.9-.54,1.78-.85,2.65a.69.69,0,0,0-.05.13c-.2.55-.41,1.08-.63,1.61-.15.36-.31.72-.47,1.07l-.4.87c-.14.29-.29.58-.43.86l-.45.85a38.72,38.72,0,0,1-2.06,3.39c-.34.48-.68,1-1,1.43-.19.25-.38.51-.58.76a39.6,39.6,0,0,1-6.19,6.29c-.4.33-.82.66-1.24,1a39.62,39.62,0,0,1-4,2.64l-.83.47q-1.54.84-3.15,1.53l-.72.31-1.1.43-.75.27c-.3.1-.59.21-.89.3l-.9.28c-.27.09-.55.17-.83.24-.65.18-1.31.34-2,.49l-.87.18c-.55.11-1.11.21-1.67.29l-.81.12-.35,0-1,.11a40.22,40.22,0,0,1-7.81,0l-1-.11-.35,0-.81-.12a39.42,39.42,0,0,1-12.85-4.32l-.84-.47a40.91,40.91,0,0,1-4-2.64c-.49-.37-1-.75-1.44-1.13a39.78,39.78,0,0,1-4.78-4.67l-.61-.72-.6-.74c-.2-.25-.39-.51-.58-.76s-.38-.51-.56-.77-.37-.52-.54-.78-.36-.54-.53-.81-.34-.53-.5-.8-.33-.55-.49-.82-.42-.75-.63-1.14-.48-.93-.71-1.41c-.14-.28-.28-.57-.41-.87-.4-.88-.76-1.77-1.09-2.68a35.68,35.68,0,0,1-1.16-3.72c-.16-.63-.31-1.27-.44-1.92a37.24,37.24,0,0,1-.58-3.71c0-.32-.07-.65-.09-1s0-.65-.07-1,0-.77,0-1.16,0-.78,0-1.17a39.61,39.61,0,1,1,79.22,0c0,.39,0,.78,0,1.17l0,.87q-.06,1-.15,2Q492.7,356.05,492.31,358Z"/>
    <path class="cls-4" d="M525.72,242.89a129.06,129.06,0,0,0-198.65,78.34.36.36,0,0,0,0,.1,129,129,0,1,0,198.67-78.44ZM492.31,358c-.2,1-.43,1.9-.69,2.83a0,0,0,0,0,0,0c-.26.9-.54,1.78-.85,2.65a.69.69,0,0,0-.05.13c-.2.55-.41,1.08-.63,1.61-.15.36-.31.72-.47,1.07l-.4.87c-.14.29-.29.58-.43.86l-.45.85a38.72,38.72,0,0,1-2.06,3.39c-.34.48-.68,1-1,1.43-.19.25-.38.51-.58.76a39.6,39.6,0,0,1-6.19,6.29c-.4.33-.82.66-1.24,1a39.62,39.62,0,0,1-4,2.64l-.83.47q-1.54.84-3.15,1.53l-.72.31-1.1.43-.75.27c-.3.1-.59.21-.89.3l-.9.28c-.27.09-.55.17-.83.24-.65.18-1.31.34-2,.49l-.87.18c-.55.11-1.11.21-1.67.29l-.81.12-.35,0-1,.11a40.22,40.22,0,0,1-7.81,0l-1-.11-.35,0-.81-.12a39.42,39.42,0,0,1-12.85-4.32l-.84-.47a40.91,40.91,0,0,1-4-2.64c-.49-.37-1-.75-1.44-1.13a39.78,39.78,0,0,1-4.78-4.67l-.61-.72-.6-.74c-.2-.25-.39-.51-.58-.76s-.38-.51-.56-.77-.37-.52-.54-.78-.36-.54-.53-.81-.34-.53-.5-.8-.33-.55-.49-.82-.42-.75-.63-1.14-.48-.93-.71-1.41c-.14-.28-.28-.57-.41-.87-.4-.88-.76-1.77-1.09-2.68a35.68,35.68,0,0,1-1.16-3.72c-.16-.63-.31-1.27-.44-1.92a37.24,37.24,0,0,1-.58-3.71c0-.32-.07-.65-.09-1s0-.65-.07-1,0-.77,0-1.16,0-.78,0-1.17a39.61,39.61,0,1,1,79.22,0c0,.39,0,.78,0,1.17l0,.87q-.06,1-.15,2Q492.7,356.05,492.31,358Z"/>
    <path class="cls-4" d="M496.82,241.19a116.84,116.84,0,1,0,73,108.28A116.32,116.32,0,0,0,496.82,241.19ZM492.31,358c-.2,1-.43,1.9-.69,2.83a0,0,0,0,0,0,0c-.26.9-.54,1.78-.85,2.65a.69.69,0,0,0-.05.13c-.2.55-.41,1.08-.63,1.61-.15.36-.31.72-.47,1.07l-.4.87c-.14.29-.29.58-.43.86l-.45.85a38.72,38.72,0,0,1-2.06,3.39c-.34.48-.68,1-1,1.43-.19.25-.38.51-.58.76a39.6,39.6,0,0,1-6.19,6.29c-.4.33-.82.66-1.24,1a39.62,39.62,0,0,1-4,2.64l-.83.47q-1.54.84-3.15,1.53l-.72.31-1.1.43-.75.27c-.3.1-.59.21-.89.3l-.9.28c-.27.09-.55.17-.83.24-.65.18-1.31.34-2,.49l-.87.18c-.55.11-1.11.21-1.67.29l-.81.12-.35,0-1,.11a40.22,40.22,0,0,1-7.81,0l-1-.11-.35,0-.81-.12a39.42,39.42,0,0,1-12.85-4.32l-.84-.47a40.91,40.91,0,0,1-4-2.64c-.49-.37-1-.75-1.44-1.13a39.78,39.78,0,0,1-4.78-4.67l-.61-.72-.6-.74c-.2-.25-.39-.51-.58-.76s-.38-.51-.56-.77-.37-.52-.54-.78-.36-.54-.53-.81-.34-.53-.5-.8-.33-.55-.49-.82-.42-.75-.63-1.14-.48-.93-.71-1.41c-.14-.28-.28-.57-.41-.87-.4-.88-.76-1.77-1.09-2.68a35.68,35.68,0,0,1-1.16-3.72c-.16-.63-.31-1.27-.44-1.92a37.24,37.24,0,0,1-.58-3.71c0-.32-.07-.65-.09-1s0-.65-.07-1,0-.77,0-1.16,0-.78,0-1.17a39.61,39.61,0,1,1,79.22,0c0,.39,0,.78,0,1.17l0,.87q-.06,1-.15,2Q492.7,356.05,492.31,358Z"/>
    <path class="cls-4" d="M518.9,238.7a128.91,128.91,0,0,0-189.68,74.76c-.07.24-.14.48-.22.73A128.89,128.89,0,1,0,518.9,238.7ZM492.31,358c-.2,1-.43,1.9-.69,2.83a0,0,0,0,0,0,0c-.26.9-.54,1.78-.85,2.65a.69.69,0,0,0-.05.13c-.2.55-.41,1.08-.63,1.61-.15.36-.31.72-.47,1.07l-.4.87c-.14.29-.29.58-.43.86l-.45.85a38.72,38.72,0,0,1-2.06,3.39c-.34.48-.68,1-1,1.43-.19.25-.38.51-.58.76a39.6,39.6,0,0,1-6.19,6.29c-.4.33-.82.66-1.24,1a39.62,39.62,0,0,1-4,2.64l-.83.47q-1.54.84-3.15,1.53l-.72.31-1.1.43-.75.27c-.3.1-.59.21-.89.3l-.9.28c-.27.09-.55.17-.83.24-.65.18-1.31.34-2,.49l-.87.18c-.55.11-1.11.21-1.67.29l-.81.12-.35,0-1,.11a40.22,40.22,0,0,1-7.81,0l-1-.11-.35,0-.81-.12a39.42,39.42,0,0,1-12.85-4.32l-.84-.47a40.91,40.91,0,0,1-4-2.64c-.49-.37-1-.75-1.44-1.13a39.78,39.78,0,0,1-4.78-4.67l-.61-.72-.6-.74c-.2-.25-.39-.51-.58-.76s-.38-.51-.56-.77-.37-.52-.54-.78-.36-.54-.53-.81-.34-.53-.5-.8-.33-.55-.49-.82-.42-.75-.63-1.14-.48-.93-.71-1.41c-.14-.28-.28-.57-.41-.87-.4-.88-.76-1.77-1.09-2.68a35.68,35.68,0,0,1-1.16-3.72c-.16-.63-.31-1.27-.44-1.92a37.24,37.24,0,0,1-.58-3.71c0-.32-.07-.65-.09-1s0-.65-.07-1,0-.77,0-1.16,0-.78,0-1.17a39.61,39.61,0,1,1,79.22,0c0,.39,0,.78,0,1.17l0,.87q-.06,1-.15,2Q492.7,356.05,492.31,358Z"/>
    <path class="cls-4" d="M496.82,229.7a127.56,127.56,0,1,0,83.67,119.77A127.11,127.11,0,0,0,496.82,229.7ZM492.31,358c-.2,1-.43,1.9-.69,2.83a0,0,0,0,0,0,0c-.26.9-.54,1.78-.85,2.65a.69.69,0,0,0-.05.13c-.2.55-.41,1.08-.63,1.61-.15.36-.31.72-.47,1.07l-.4.87c-.14.29-.29.58-.43.86l-.45.85a38.72,38.72,0,0,1-2.06,3.39c-.34.48-.68,1-1,1.43-.19.25-.38.51-.58.76a39.6,39.6,0,0,1-6.19,6.29c-.4.33-.82.66-1.24,1a39.62,39.62,0,0,1-4,2.64l-.83.47q-1.54.84-3.15,1.53l-.72.31-1.1.43-.75.27c-.3.1-.59.21-.89.3l-.9.28c-.27.09-.55.17-.83.24-.65.18-1.31.34-2,.49l-.87.18c-.55.11-1.11.21-1.67.29l-.81.12-.35,0-1,.11a40.22,40.22,0,0,1-7.81,0l-1-.11-.35,0-.81-.12a39.42,39.42,0,0,1-12.85-4.32l-.84-.47a40.91,40.91,0,0,1-4-2.64c-.49-.37-1-.75-1.44-1.13a39.78,39.78,0,0,1-4.78-4.67l-.61-.72-.6-.74c-.2-.25-.39-.51-.58-.76s-.38-.51-.56-.77-.37-.52-.54-.78-.36-.54-.53-.81-.34-.53-.5-.8-.33-.55-.49-.82-.42-.75-.63-1.14-.48-.93-.71-1.41c-.14-.28-.28-.57-.41-.87-.4-.88-.76-1.77-1.09-2.68a35.68,35.68,0,0,1-1.16-3.72c-.16-.63-.31-1.27-.44-1.92a37.24,37.24,0,0,1-.58-3.71c0-.32-.07-.65-.09-1s0-.65-.07-1,0-.77,0-1.16,0-.78,0-1.17a39.61,39.61,0,1,1,79.22,0c0,.39,0,.78,0,1.17l0,.87q-.06,1-.15,2Q492.7,356.05,492.31,358Z"/>
    <path class="cls-4" d="M572.73,297.16l-.1-.22a122.21,122.21,0,1,0,.1.22ZM492.31,358c-.2,1-.43,1.9-.69,2.83a0,0,0,0,0,0,0c-.26.9-.54,1.78-.85,2.65a.69.69,0,0,0-.05.13c-.2.55-.41,1.08-.63,1.61-.15.36-.31.72-.47,1.07l-.4.87c-.14.29-.29.58-.43.86l-.45.85a38.72,38.72,0,0,1-2.06,3.39c-.34.48-.68,1-1,1.43-.19.25-.38.51-.58.76a39.6,39.6,0,0,1-6.19,6.29c-.4.33-.82.66-1.24,1a39.62,39.62,0,0,1-4,2.64l-.83.47q-1.54.84-3.15,1.53l-.72.31-1.1.43-.75.27c-.3.1-.59.21-.89.3l-.9.28c-.27.09-.55.17-.83.24-.65.18-1.31.34-2,.49l-.87.18c-.55.11-1.11.21-1.67.29l-.81.12-.35,0-1,.11a40.22,40.22,0,0,1-7.81,0l-1-.11-.35,0-.81-.12a39.42,39.42,0,0,1-12.85-4.32l-.84-.47a40.91,40.91,0,0,1-4-2.64c-.49-.37-1-.75-1.44-1.13a39.78,39.78,0,0,1-4.78-4.67l-.61-.72-.6-.74c-.2-.25-.39-.51-.58-.76s-.38-.51-.56-.77-.37-.52-.54-.78-.36-.54-.53-.81-.34-.53-.5-.8-.33-.55-.49-.82-.42-.75-.63-1.14-.48-.93-.71-1.41c-.14-.28-.28-.57-.41-.87-.4-.88-.76-1.77-1.09-2.68a35.68,35.68,0,0,1-1.16-3.72c-.16-.63-.31-1.27-.44-1.92a37.24,37.24,0,0,1-.58-3.71c0-.32-.07-.65-.09-1s0-.65-.07-1,0-.77,0-1.16,0-.78,0-1.17a39.61,39.61,0,1,1,79.22,0c0,.39,0,.78,0,1.17l0,.87q-.06,1-.15,2Q492.7,356.05,492.31,358Z"/>
    <path class="cls-4" d="M496.82,224.52a132.4,132.4,0,0,0-123,231l.15.11A132.38,132.38,0,0,0,583.3,372.9a.45.45,0,0,1,0-.11,132.57,132.57,0,0,0-86.49-148.27ZM492.31,358c-.2,1-.43,1.9-.69,2.83a0,0,0,0,0,0,0c-.26.9-.54,1.78-.85,2.65a.69.69,0,0,0-.05.13c-.2.55-.41,1.08-.63,1.61-.15.36-.31.72-.47,1.07l-.4.87c-.14.29-.29.58-.43.86l-.45.85a38.72,38.72,0,0,1-2.06,3.39c-.34.48-.68,1-1,1.43-.19.25-.38.51-.58.76a39.6,39.6,0,0,1-6.19,6.29c-.4.33-.82.66-1.24,1a39.62,39.62,0,0,1-4,2.64l-.83.47q-1.54.84-3.15,1.53l-.72.31-1.1.43-.75.27c-.3.1-.59.21-.89.3l-.9.28c-.27.09-.55.17-.83.24-.65.18-1.31.34-2,.49l-.87.18c-.55.11-1.11.21-1.67.29l-.81.12-.35,0-1,.11a40.22,40.22,0,0,1-7.81,0l-1-.11-.35,0-.81-.12a39.42,39.42,0,0,1-12.85-4.32l-.84-.47a40.91,40.91,0,0,1-4-2.64c-.49-.37-1-.75-1.44-1.13a39.78,39.78,0,0,1-4.78-4.67l-.61-.72-.6-.74c-.2-.25-.39-.51-.58-.76s-.38-.51-.56-.77-.37-.52-.54-.78-.36-.54-.53-.81-.34-.53-.5-.8-.33-.55-.49-.82-.42-.75-.63-1.14-.48-.93-.71-1.41c-.14-.28-.28-.57-.41-.87-.4-.88-.76-1.77-1.09-2.68a35.68,35.68,0,0,1-1.16-3.72c-.16-.63-.31-1.27-.44-1.92a37.24,37.24,0,0,1-.58-3.71c0-.32-.07-.65-.09-1s0-.65-.07-1,0-.77,0-1.16,0-.78,0-1.17a39.61,39.61,0,1,1,79.22,0c0,.39,0,.78,0,1.17l0,.87q-.06,1-.15,2Q492.7,356.05,492.31,358Z"/>
    <path class="cls-5" d="M496.82,221.12A135.23,135.23,0,1,0,588.16,349,135,135,0,0,0,496.82,221.12ZM413.91,351.18c0-.39,0-.78,0-1.17a39.61,39.61,0,1,1,79.22,0c0,.39,0,.78,0,1.17l0,.87q-.06,1-.15,2-.21,2-.6,3.93c-.2,1-.43,1.9-.69,2.83a0,0,0,0,0,0,0c-.26.9-.54,1.78-.85,2.65a.69.69,0,0,0-.05.13c-.2.55-.41,1.08-.63,1.61-.15.36-.31.72-.47,1.07l-.4.87c-.14.29-.29.58-.43.86l-.45.85a38.72,38.72,0,0,1-2.06,3.39c-.34.48-.68,1-1,1.43-.19.25-.38.51-.58.76a39.6,39.6,0,0,1-6.19,6.29c-.4.33-.82.66-1.24,1a39.62,39.62,0,0,1-4,2.64l-.83.47q-1.54.84-3.15,1.53l-.72.31-1.1.43-.75.27c-.3.1-.59.21-.89.3l-.9.28c-.27.09-.55.17-.83.24-.65.18-1.31.34-2,.49l-.87.18c-.55.11-1.11.21-1.67.29l-.81.12-.35,0-1,.11a40.22,40.22,0,0,1-7.81,0l-1-.11-.35,0-.81-.12a39.42,39.42,0,0,1-12.85-4.32l-.84-.47a40.91,40.91,0,0,1-4-2.64c-.49-.37-1-.75-1.44-1.13a39.78,39.78,0,0,1-4.78-4.67l-.61-.72-.6-.74c-.2-.25-.39-.51-.58-.76s-.38-.51-.56-.77-.37-.52-.54-.78-.36-.54-.53-.81-.34-.53-.5-.8-.33-.55-.49-.82-.42-.75-.63-1.14-.48-.93-.71-1.41c-.14-.28-.28-.57-.41-.87-.4-.88-.76-1.77-1.09-2.68a35.68,35.68,0,0,1-1.16-3.72c-.16-.63-.31-1.27-.44-1.92a37.24,37.24,0,0,1-.58-3.71c0-.32-.07-.65-.09-1s0-.65-.07-1S413.92,351.57,413.91,351.18Z"/>
    <path class="cls-5" d="M496.82,218.06a138.13,138.13,0,1,0,94.23,131A138.11,138.11,0,0,0,496.82,218.06ZM413.91,351.18c0-.39,0-.78,0-1.17a39.61,39.61,0,1,1,79.22,0c0,.39,0,.78,0,1.17l0,.87q-.06,1-.15,2-.21,2-.6,3.93c-.2,1-.43,1.9-.69,2.83a0,0,0,0,0,0,0c-.26.9-.54,1.78-.85,2.65a.69.69,0,0,0-.05.13c-.2.55-.41,1.08-.63,1.61-.15.36-.31.72-.47,1.07l-.4.87c-.14.29-.29.58-.43.86l-.45.85a38.72,38.72,0,0,1-2.06,3.39c-.34.48-.68,1-1,1.43-.19.25-.38.51-.58.76a39.6,39.6,0,0,1-6.19,6.29c-.4.33-.82.66-1.24,1a39.62,39.62,0,0,1-4,2.64l-.83.47q-1.54.84-3.15,1.53l-.72.31-1.1.43-.75.27c-.3.1-.59.21-.89.3l-.9.28c-.27.09-.55.17-.83.24-.65.18-1.31.34-2,.49l-.87.18c-.55.11-1.11.21-1.67.29l-.81.12-.35,0-1,.11a40.22,40.22,0,0,1-7.81,0l-1-.11-.35,0-.81-.12a39.42,39.42,0,0,1-12.85-4.32l-.84-.47a40.91,40.91,0,0,1-4-2.64c-.49-.37-1-.75-1.44-1.13a39.78,39.78,0,0,1-4.78-4.67l-.61-.72-.6-.74c-.2-.25-.39-.51-.58-.76s-.38-.51-.56-.77-.37-.52-.54-.78-.36-.54-.53-.81-.34-.53-.5-.8-.33-.55-.49-.82-.42-.75-.63-1.14-.48-.93-.71-1.41c-.14-.28-.28-.57-.41-.87-.4-.88-.76-1.77-1.09-2.68a35.68,35.68,0,0,1-1.16-3.72c-.16-.63-.31-1.27-.44-1.92a37.24,37.24,0,0,1-.58-3.71c0-.32-.07-.65-.09-1s0-.65-.07-1S413.92,351.57,413.91,351.18Z"/>
    <path class="cls-5" d="M496.82,219.63A136.64,136.64,0,1,0,589.58,349,136.4,136.4,0,0,0,496.82,219.63ZM413.91,351.18c0-.39,0-.78,0-1.17a39.61,39.61,0,1,1,79.22,0c0,.39,0,.78,0,1.17l0,.87q-.06,1-.15,2-.21,2-.6,3.93c-.2,1-.43,1.9-.69,2.83a0,0,0,0,0,0,0c-.26.9-.54,1.78-.85,2.65a.69.69,0,0,0-.05.13c-.2.55-.41,1.08-.63,1.61-.15.36-.31.72-.47,1.07l-.4.87c-.14.29-.29.58-.43.86l-.45.85a38.72,38.72,0,0,1-2.06,3.39c-.34.48-.68,1-1,1.43-.19.25-.38.51-.58.76a39.6,39.6,0,0,1-6.19,6.29c-.4.33-.82.66-1.24,1a39.62,39.62,0,0,1-4,2.64l-.83.47q-1.54.84-3.15,1.53l-.72.31-1.1.43-.75.27c-.3.1-.59.21-.89.3l-.9.28c-.27.09-.55.17-.83.24-.65.18-1.31.34-2,.49l-.87.18c-.55.11-1.11.21-1.67.29l-.81.12-.35,0-1,.11a40.22,40.22,0,0,1-7.81,0l-1-.11-.35,0-.81-.12a39.42,39.42,0,0,1-12.85-4.32l-.84-.47a40.91,40.91,0,0,1-4-2.64c-.49-.37-1-.75-1.44-1.13a39.78,39.78,0,0,1-4.78-4.67l-.61-.72-.6-.74c-.2-.25-.39-.51-.58-.76s-.38-.51-.56-.77-.37-.52-.54-.78-.36-.54-.53-.81-.34-.53-.5-.8-.33-.55-.49-.82-.42-.75-.63-1.14-.48-.93-.71-1.41c-.14-.28-.28-.57-.41-.87-.4-.88-.76-1.77-1.09-2.68a35.68,35.68,0,0,1-1.16-3.72c-.16-.63-.31-1.27-.44-1.92a37.24,37.24,0,0,1-.58-3.71c0-.32-.07-.65-.09-1s0-.65-.07-1S413.92,351.57,413.91,351.18Z"/>
    <path class="cls-6" d="M496.82,222.52A133.89,133.89,0,0,0,340.87,422.16h0A133.78,133.78,0,0,0,552.06,439l.15-.17a133.88,133.88,0,0,0-55.39-216.33ZM492.31,358c-.2,1-.43,1.9-.69,2.83a0,0,0,0,0,0,0c-.26.9-.54,1.78-.85,2.65a.69.69,0,0,0-.05.13c-.2.55-.41,1.08-.63,1.61-.15.36-.31.72-.47,1.07l-.4.87c-.14.29-.29.58-.43.86l-.45.85a38.72,38.72,0,0,1-2.06,3.39c-.34.48-.68,1-1,1.43-.19.25-.38.51-.58.76a39.6,39.6,0,0,1-6.19,6.29c-.4.33-.82.66-1.24,1a39.62,39.62,0,0,1-4,2.64l-.83.47q-1.54.84-3.15,1.53l-.72.31-1.1.43-.75.27c-.3.1-.59.21-.89.3l-.9.28c-.27.09-.55.17-.83.24-.65.18-1.31.34-2,.49l-.87.18c-.55.11-1.11.21-1.67.29l-.81.12-.35,0-1,.11a40.22,40.22,0,0,1-7.81,0l-1-.11-.35,0-.81-.12a39.42,39.42,0,0,1-12.85-4.32l-.84-.47a40.91,40.91,0,0,1-4-2.64c-.49-.37-1-.75-1.44-1.13a39.78,39.78,0,0,1-4.78-4.67l-.61-.72-.6-.74c-.2-.25-.39-.51-.58-.76s-.38-.51-.56-.77-.37-.52-.54-.78-.36-.54-.53-.81-.34-.53-.5-.8-.33-.55-.49-.82-.42-.75-.63-1.14-.48-.93-.71-1.41c-.14-.28-.28-.57-.41-.87-.4-.88-.76-1.77-1.09-2.68a35.68,35.68,0,0,1-1.16-3.72c-.16-.63-.31-1.27-.44-1.92a37.24,37.24,0,0,1-.58-3.71c0-.32-.07-.65-.09-1s0-.65-.07-1,0-.77,0-1.16,0-.78,0-1.17a39.61,39.61,0,1,1,79.22,0c0,.39,0,.78,0,1.17l0,.87q-.06,1-.15,2Q492.7,356.05,492.31,358Z"/>
    <path class="cls-7" d="M496.82,215.05a141,141,0,1,0,97.1,134A140.8,140.8,0,0,0,496.82,215.05ZM413.91,351.18c0-.39,0-.78,0-1.17a39.61,39.61,0,1,1,79.22,0c0,.39,0,.78,0,1.17l0,.87q-.06,1-.15,2-.21,2-.6,3.93c-.2,1-.43,1.9-.69,2.83a0,0,0,0,0,0,0c-.26.9-.54,1.78-.85,2.65a.69.69,0,0,0-.05.13c-.2.55-.41,1.08-.63,1.61-.15.36-.31.72-.47,1.07l-.4.87c-.14.29-.29.58-.43.86l-.45.85a38.72,38.72,0,0,1-2.06,3.39c-.34.48-.68,1-1,1.43-.19.25-.38.51-.58.76a39.6,39.6,0,0,1-6.19,6.29c-.4.33-.82.66-1.24,1a39.62,39.62,0,0,1-4,2.64l-.83.47q-1.54.84-3.15,1.53l-.72.31-1.1.43-.75.27c-.3.1-.59.21-.89.3l-.9.28c-.27.09-.55.17-.83.24-.65.18-1.31.34-2,.49l-.87.18c-.55.11-1.11.21-1.67.29l-.81.12-.35,0-1,.11a40.22,40.22,0,0,1-7.81,0l-1-.11-.35,0-.81-.12a39.42,39.42,0,0,1-12.85-4.32l-.84-.47a40.91,40.91,0,0,1-4-2.64c-.49-.37-1-.75-1.44-1.13a39.78,39.78,0,0,1-4.78-4.67l-.61-.72-.6-.74c-.2-.25-.39-.51-.58-.76s-.38-.51-.56-.77-.37-.52-.54-.78-.36-.54-.53-.81-.34-.53-.5-.8-.33-.55-.49-.82-.42-.75-.63-1.14-.48-.93-.71-1.41c-.14-.28-.28-.57-.41-.87-.4-.88-.76-1.77-1.09-2.68a35.68,35.68,0,0,1-1.16-3.72c-.16-.63-.31-1.27-.44-1.92a37.24,37.24,0,0,1-.58-3.71c0-.32-.07-.65-.09-1s0-.65-.07-1S413.92,351.57,413.91,351.18Z"/>
    <path class="cls-8" d="M496.82,216.56A139.55,139.55,0,1,0,592.48,349,139.3,139.3,0,0,0,496.82,216.56ZM413.91,351.18c0-.39,0-.78,0-1.17a39.61,39.61,0,1,1,79.22,0c0,.39,0,.78,0,1.17l0,.87q-.06,1-.15,2-.21,2-.6,3.93c-.2,1-.43,1.9-.69,2.83a0,0,0,0,0,0,0c-.26.9-.54,1.78-.85,2.65a.69.69,0,0,0-.05.13c-.2.55-.41,1.08-.63,1.61-.15.36-.31.72-.47,1.07l-.4.87c-.14.29-.29.58-.43.86l-.45.85a38.72,38.72,0,0,1-2.06,3.39c-.34.48-.68,1-1,1.43-.19.25-.38.51-.58.76a39.6,39.6,0,0,1-6.19,6.29c-.4.33-.82.66-1.24,1a39.62,39.62,0,0,1-4,2.64l-.83.47q-1.54.84-3.15,1.53l-.72.31-1.1.43-.75.27c-.3.1-.59.21-.89.3l-.9.28c-.27.09-.55.17-.83.24-.65.18-1.31.34-2,.49l-.87.18c-.55.11-1.11.21-1.67.29l-.81.12-.35,0-1,.11a40.22,40.22,0,0,1-7.81,0l-1-.11-.35,0-.81-.12a39.42,39.42,0,0,1-12.85-4.32l-.84-.47a40.91,40.91,0,0,1-4-2.64c-.49-.37-1-.75-1.44-1.13a39.78,39.78,0,0,1-4.78-4.67l-.61-.72-.6-.74c-.2-.25-.39-.51-.58-.76s-.38-.51-.56-.77-.37-.52-.54-.78-.36-.54-.53-.81-.34-.53-.5-.8-.33-.55-.49-.82-.42-.75-.63-1.14-.48-.93-.71-1.41c-.14-.28-.28-.57-.41-.87-.4-.88-.76-1.77-1.09-2.68a35.68,35.68,0,0,1-1.16-3.72c-.16-.63-.31-1.27-.44-1.92a37.24,37.24,0,0,1-.58-3.71c0-.32-.07-.65-.09-1s0-.65-.07-1S413.92,351.57,413.91,351.18Z"/>
    <path class="cls-9" d="M496.82,211.94A143.94,143.94,0,1,0,596.88,349,143.36,143.36,0,0,0,496.82,211.94ZM413.91,351.18c0-.39,0-.78,0-1.17a39.61,39.61,0,1,1,79.22,0c0,.39,0,.78,0,1.17l0,.87q-.06,1-.15,2-.21,2-.6,3.93c-.2,1-.43,1.9-.69,2.83a0,0,0,0,0,0,0c-.26.9-.54,1.78-.85,2.65a.69.69,0,0,0-.05.13c-.2.55-.41,1.08-.63,1.61-.15.36-.31.72-.47,1.07l-.4.87c-.14.29-.29.58-.43.86l-.45.85a38.72,38.72,0,0,1-2.06,3.39c-.34.48-.68,1-1,1.43-.19.25-.38.51-.58.76a39.6,39.6,0,0,1-6.19,6.29c-.4.33-.82.66-1.24,1a39.62,39.62,0,0,1-4,2.64l-.83.47q-1.54.84-3.15,1.53l-.72.31-1.1.43-.75.27c-.3.1-.59.21-.89.3l-.9.28c-.27.09-.55.17-.83.24-.65.18-1.31.34-2,.49l-.87.18c-.55.11-1.11.21-1.67.29l-.81.12-.35,0-1,.11a40.22,40.22,0,0,1-7.81,0l-1-.11-.35,0-.81-.12a39.42,39.42,0,0,1-12.85-4.32l-.84-.47a40.91,40.91,0,0,1-4-2.64c-.49-.37-1-.75-1.44-1.13a39.78,39.78,0,0,1-4.78-4.67l-.61-.72-.6-.74c-.2-.25-.39-.51-.58-.76s-.38-.51-.56-.77-.37-.52-.54-.78-.36-.54-.53-.81-.34-.53-.5-.8-.33-.55-.49-.82-.42-.75-.63-1.14-.48-.93-.71-1.41c-.14-.28-.28-.57-.41-.87-.4-.88-.76-1.77-1.09-2.68a35.68,35.68,0,0,1-1.16-3.72c-.16-.63-.31-1.27-.44-1.92a37.24,37.24,0,0,1-.58-3.71c0-.32-.07-.65-.09-1s0-.65-.07-1S413.92,351.57,413.91,351.18Z"/>
    <path class="cls-10" d="M496.82,213.46A142.5,142.5,0,1,0,595.43,349,142.38,142.38,0,0,0,496.82,213.46ZM413.91,351.18c0-.39,0-.78,0-1.17a39.61,39.61,0,1,1,79.22,0c0,.39,0,.78,0,1.17l0,.87q-.06,1-.15,2-.21,2-.6,3.93c-.2,1-.43,1.9-.69,2.83a0,0,0,0,0,0,0c-.26.9-.54,1.78-.85,2.65a.69.69,0,0,0-.05.13c-.2.55-.41,1.08-.63,1.61-.15.36-.31.72-.47,1.07l-.4.87c-.14.29-.29.58-.43.86l-.45.85a38.72,38.72,0,0,1-2.06,3.39c-.34.48-.68,1-1,1.43-.19.25-.38.51-.58.76a39.6,39.6,0,0,1-6.19,6.29c-.4.33-.82.66-1.24,1a39.62,39.62,0,0,1-4,2.64l-.83.47q-1.54.84-3.15,1.53l-.72.31-1.1.43-.75.27c-.3.1-.59.21-.89.3l-.9.28c-.27.09-.55.17-.83.24-.65.18-1.31.34-2,.49l-.87.18c-.55.11-1.11.21-1.67.29l-.81.12-.35,0-1,.11a40.22,40.22,0,0,1-7.81,0l-1-.11-.35,0-.81-.12a39.42,39.42,0,0,1-12.85-4.32l-.84-.47a40.91,40.91,0,0,1-4-2.64c-.49-.37-1-.75-1.44-1.13a39.78,39.78,0,0,1-4.78-4.67l-.61-.72-.6-.74c-.2-.25-.39-.51-.58-.76s-.38-.51-.56-.77-.37-.52-.54-.78-.36-.54-.53-.81-.34-.53-.5-.8-.33-.55-.49-.82-.42-.75-.63-1.14-.48-.93-.71-1.41c-.14-.28-.28-.57-.41-.87-.4-.88-.76-1.77-1.09-2.68a35.68,35.68,0,0,1-1.16-3.72c-.16-.63-.31-1.27-.44-1.92a37.24,37.24,0,0,1-.58-3.71c0-.32-.07-.65-.09-1s0-.65-.07-1S413.92,351.57,413.91,351.18Z"/>
    <path class="cls-5" d="M496.82,210.39A145.42,145.42,0,1,0,598.36,349,145.27,145.27,0,0,0,496.82,210.39ZM413.91,351.18c0-.39,0-.78,0-1.17a39.61,39.61,0,1,1,79.22,0c0,.39,0,.78,0,1.17l0,.87q-.06,1-.15,2-.21,2-.6,3.93c-.2,1-.43,1.9-.69,2.83a0,0,0,0,0,0,0c-.26.9-.54,1.78-.85,2.65a.69.69,0,0,0-.05.13c-.2.55-.41,1.08-.63,1.61-.15.36-.31.72-.47,1.07l-.4.87c-.14.29-.29.58-.43.86l-.45.85a38.72,38.72,0,0,1-2.06,3.39c-.34.48-.68,1-1,1.43-.19.25-.38.51-.58.76a39.6,39.6,0,0,1-6.19,6.29c-.4.33-.82.66-1.24,1a39.62,39.62,0,0,1-4,2.64l-.83.47q-1.54.84-3.15,1.53l-.72.31-1.1.43-.75.27c-.3.1-.59.21-.89.3l-.9.28c-.27.09-.55.17-.83.24-.65.18-1.31.34-2,.49l-.87.18c-.55.11-1.11.21-1.67.29l-.81.12-.35,0-1,.11a40.22,40.22,0,0,1-7.81,0l-1-.11-.35,0-.81-.12a39.42,39.42,0,0,1-12.85-4.32l-.84-.47a40.91,40.91,0,0,1-4-2.64c-.49-.37-1-.75-1.44-1.13a39.78,39.78,0,0,1-4.78-4.67l-.61-.72-.6-.74c-.2-.25-.39-.51-.58-.76s-.38-.51-.56-.77-.37-.52-.54-.78-.36-.54-.53-.81-.34-.53-.5-.8-.33-.55-.49-.82-.42-.75-.63-1.14-.48-.93-.71-1.41c-.14-.28-.28-.57-.41-.87-.4-.88-.76-1.77-1.09-2.68a35.68,35.68,0,0,1-1.16-3.72c-.16-.63-.31-1.27-.44-1.92a37.24,37.24,0,0,1-.58-3.71c0-.32-.07-.65-.09-1s0-.65-.07-1S413.92,351.57,413.91,351.18Z"/>
    <path class="cls-5" d="M496.82,208.89A146.85,146.85,0,1,0,599.78,349,146.55,146.55,0,0,0,496.82,208.89ZM413.91,351.18c0-.39,0-.78,0-1.17a39.61,39.61,0,1,1,79.22,0c0,.39,0,.78,0,1.17l0,.87q-.06,1-.15,2-.21,2-.6,3.93c-.2,1-.43,1.9-.69,2.83a0,0,0,0,0,0,0c-.26.9-.54,1.78-.85,2.65a.69.69,0,0,0-.05.13c-.2.55-.41,1.08-.63,1.61-.15.36-.31.72-.47,1.07l-.4.87c-.14.29-.29.58-.43.86l-.45.85a38.72,38.72,0,0,1-2.06,3.39c-.34.48-.68,1-1,1.43-.19.25-.38.51-.58.76a39.6,39.6,0,0,1-6.19,6.29c-.4.33-.82.66-1.24,1a39.62,39.62,0,0,1-4,2.64l-.83.47q-1.54.84-3.15,1.53l-.72.31-1.1.43-.75.27c-.3.1-.59.21-.89.3l-.9.28c-.27.09-.55.17-.83.24-.65.18-1.31.34-2,.49l-.87.18c-.55.11-1.11.21-1.67.29l-.81.12-.35,0-1,.11a40.22,40.22,0,0,1-7.81,0l-1-.11-.35,0-.81-.12a39.42,39.42,0,0,1-12.85-4.32l-.84-.47a40.91,40.91,0,0,1-4-2.64c-.49-.37-1-.75-1.44-1.13a39.78,39.78,0,0,1-4.78-4.67l-.61-.72-.6-.74c-.2-.25-.39-.51-.58-.76s-.38-.51-.56-.77-.37-.52-.54-.78-.36-.54-.53-.81-.34-.53-.5-.8-.33-.55-.49-.82-.42-.75-.63-1.14-.48-.93-.71-1.41c-.14-.28-.28-.57-.41-.87-.4-.88-.76-1.77-1.09-2.68a35.68,35.68,0,0,1-1.16-3.72c-.16-.63-.31-1.27-.44-1.92a37.24,37.24,0,0,1-.58-3.71c0-.32-.07-.65-.09-1s0-.65-.07-1S413.92,351.57,413.91,351.18Z"/>
    <path class="cls-5" d="M496.82,207.13A148.54,148.54,0,1,0,601.47,349,148.22,148.22,0,0,0,496.82,207.13ZM413.91,351.18c0-.39,0-.78,0-1.17a39.61,39.61,0,1,1,79.22,0c0,.39,0,.78,0,1.17l0,.87q-.06,1-.15,2-.21,2-.6,3.93c-.2,1-.43,1.9-.69,2.83a0,0,0,0,0,0,0c-.26.9-.54,1.78-.85,2.65a.69.69,0,0,0-.05.13c-.2.55-.41,1.08-.63,1.61-.15.36-.31.72-.47,1.07l-.4.87c-.14.29-.29.58-.43.86l-.45.85a38.72,38.72,0,0,1-2.06,3.39c-.34.48-.68,1-1,1.43-.19.25-.38.51-.58.76a39.6,39.6,0,0,1-6.19,6.29c-.4.33-.82.66-1.24,1a39.62,39.62,0,0,1-4,2.64l-.83.47q-1.54.84-3.15,1.53l-.72.31-1.1.43-.75.27c-.3.1-.59.21-.89.3l-.9.28c-.27.09-.55.17-.83.24-.65.18-1.31.34-2,.49l-.87.18c-.55.11-1.11.21-1.67.29l-.81.12-.35,0-1,.11a40.22,40.22,0,0,1-7.81,0l-1-.11-.35,0-.81-.12a39.42,39.42,0,0,1-12.85-4.32l-.84-.47a40.91,40.91,0,0,1-4-2.64c-.49-.37-1-.75-1.44-1.13a39.78,39.78,0,0,1-4.78-4.67l-.61-.72-.6-.74c-.2-.25-.39-.51-.58-.76s-.38-.51-.56-.77-.37-.52-.54-.78-.36-.54-.53-.81-.34-.53-.5-.8-.33-.55-.49-.82-.42-.75-.63-1.14-.48-.93-.71-1.41c-.14-.28-.28-.57-.41-.87-.4-.88-.76-1.77-1.09-2.68a35.68,35.68,0,0,1-1.16-3.72c-.16-.63-.31-1.27-.44-1.92a37.24,37.24,0,0,1-.58-3.71c0-.32-.07-.65-.09-1s0-.65-.07-1S413.92,351.57,413.91,351.18Z"/>
    <path class="cls-5" d="M496.82,206.08A149.53,149.53,0,1,0,602.47,349,149.28,149.28,0,0,0,496.82,206.08Zm-82.91,145.1c0-.39,0-.78,0-1.17a39.61,39.61,0,1,1,79.22,0c0,.39,0,.78,0,1.17l0,.87q-.06,1-.15,2-.21,2-.6,3.93c-.2,1-.43,1.9-.69,2.83a0,0,0,0,0,0,0c-.26.9-.54,1.78-.85,2.65a.69.69,0,0,0-.05.13c-.2.55-.41,1.08-.63,1.61-.15.36-.31.72-.47,1.07l-.4.87c-.14.29-.29.58-.43.86l-.45.85a38.72,38.72,0,0,1-2.06,3.39c-.34.48-.68,1-1,1.43-.19.25-.38.51-.58.76a39.6,39.6,0,0,1-6.19,6.29c-.4.33-.82.66-1.24,1a39.62,39.62,0,0,1-4,2.64l-.83.47q-1.54.84-3.15,1.53l-.72.31-1.1.43-.75.27c-.3.1-.59.21-.89.3l-.9.28c-.27.09-.55.17-.83.24-.65.18-1.31.34-2,.49l-.87.18c-.55.11-1.11.21-1.67.29l-.81.12-.35,0-1,.11a40.22,40.22,0,0,1-7.81,0l-1-.11-.35,0-.81-.12a39.42,39.42,0,0,1-12.85-4.32l-.84-.47a40.91,40.91,0,0,1-4-2.64c-.49-.37-1-.75-1.44-1.13a39.78,39.78,0,0,1-4.78-4.67l-.61-.72-.6-.74c-.2-.25-.39-.51-.58-.76s-.38-.51-.56-.77-.37-.52-.54-.78-.36-.54-.53-.81-.34-.53-.5-.8-.33-.55-.49-.82-.42-.75-.63-1.14-.48-.93-.71-1.41c-.14-.28-.28-.57-.41-.87-.4-.88-.76-1.77-1.09-2.68a35.68,35.68,0,0,1-1.16-3.72c-.16-.63-.31-1.27-.44-1.92a37.24,37.24,0,0,1-.58-3.71c0-.32-.07-.65-.09-1s0-.65-.07-1S413.92,351.57,413.91,351.18Z"/>
    <path class="cls-11" d="M496.82,204.49A151.06,151.06,0,1,0,604,349,150.65,150.65,0,0,0,496.82,204.49ZM413.91,351.18c0-.39,0-.78,0-1.17a39.61,39.61,0,1,1,79.22,0c0,.39,0,.78,0,1.17l0,.87q-.06,1-.15,2-.21,2-.6,3.93c-.2,1-.43,1.9-.69,2.83a0,0,0,0,0,0,0c-.26.9-.54,1.78-.85,2.65a.69.69,0,0,0-.05.13c-.2.55-.41,1.08-.63,1.61-.15.36-.31.72-.47,1.07l-.4.87c-.14.29-.29.58-.43.86l-.45.85a38.72,38.72,0,0,1-2.06,3.39c-.34.48-.68,1-1,1.43-.19.25-.38.51-.58.76a39.6,39.6,0,0,1-6.19,6.29c-.4.33-.82.66-1.24,1a39.62,39.62,0,0,1-4,2.64l-.83.47q-1.54.84-3.15,1.53l-.72.31-1.1.43-.75.27c-.3.1-.59.21-.89.3l-.9.28c-.27.09-.55.17-.83.24-.65.18-1.31.34-2,.49l-.87.18c-.55.11-1.11.21-1.67.29l-.81.12-.35,0-1,.11a40.22,40.22,0,0,1-7.81,0l-1-.11-.35,0-.81-.12a39.42,39.42,0,0,1-12.85-4.32l-.84-.47a40.91,40.91,0,0,1-4-2.64c-.49-.37-1-.75-1.44-1.13a39.78,39.78,0,0,1-4.78-4.67l-.61-.72-.6-.74c-.2-.25-.39-.51-.58-.76s-.38-.51-.56-.77-.37-.52-.54-.78-.36-.54-.53-.81-.34-.53-.5-.8-.33-.55-.49-.82-.42-.75-.63-1.14-.48-.93-.71-1.41c-.14-.28-.28-.57-.41-.87-.4-.88-.76-1.77-1.09-2.68a35.68,35.68,0,0,1-1.16-3.72c-.16-.63-.31-1.27-.44-1.92a37.24,37.24,0,0,1-.58-3.71c0-.32-.07-.65-.09-1s0-.65-.07-1S413.92,351.57,413.91,351.18Z"/>
    <path class="cls-5" d="M496.82,202.9A152.59,152.59,0,1,0,605.51,349,152.42,152.42,0,0,0,496.82,202.9ZM413.91,351.18c0-.39,0-.78,0-1.17a39.61,39.61,0,1,1,79.22,0c0,.39,0,.78,0,1.17l0,.87q-.06,1-.15,2-.21,2-.6,3.93c-.2,1-.43,1.9-.69,2.83a0,0,0,0,0,0,0c-.26.9-.54,1.78-.85,2.65a.69.69,0,0,0-.05.13c-.2.55-.41,1.08-.63,1.61-.15.36-.31.72-.47,1.07l-.4.87c-.14.29-.29.58-.43.86l-.45.85a38.72,38.72,0,0,1-2.06,3.39c-.34.48-.68,1-1,1.43-.19.25-.38.51-.58.76a39.6,39.6,0,0,1-6.19,6.29c-.4.33-.82.66-1.24,1a39.62,39.62,0,0,1-4,2.64l-.83.47q-1.54.84-3.15,1.53l-.72.31-1.1.43-.75.27c-.3.1-.59.21-.89.3l-.9.28c-.27.09-.55.17-.83.24-.65.18-1.31.34-2,.49l-.87.18c-.55.11-1.11.21-1.67.29l-.81.12-.35,0-1,.11a40.22,40.22,0,0,1-7.81,0l-1-.11-.35,0-.81-.12a39.42,39.42,0,0,1-12.85-4.32l-.84-.47a40.91,40.91,0,0,1-4-2.64c-.49-.37-1-.75-1.44-1.13a39.78,39.78,0,0,1-4.78-4.67l-.61-.72-.6-.74c-.2-.25-.39-.51-.58-.76s-.38-.51-.56-.77-.37-.52-.54-.78-.36-.54-.53-.81-.34-.53-.5-.8-.33-.55-.49-.82-.42-.75-.63-1.14-.48-.93-.71-1.41c-.14-.28-.28-.57-.41-.87-.4-.88-.76-1.77-1.09-2.68a35.68,35.68,0,0,1-1.16-3.72c-.16-.63-.31-1.27-.44-1.92a37.24,37.24,0,0,1-.58-3.71c0-.32-.07-.65-.09-1s0-.65-.07-1S413.92,351.57,413.91,351.18Z"/>
    <path class="cls-12" d="M496.82,201.05A154.36,154.36,0,1,0,607.27,349,154.6,154.6,0,0,0,496.82,201.05ZM413.91,351.18c0-.39,0-.78,0-1.17a39.61,39.61,0,1,1,79.22,0c0,.39,0,.78,0,1.17l0,.87q-.06,1-.15,2-.21,2-.6,3.93c-.2,1-.43,1.9-.69,2.83a0,0,0,0,0,0,0c-.26.9-.54,1.78-.85,2.65a.69.69,0,0,0-.05.13c-.2.55-.41,1.08-.63,1.61-.15.36-.31.72-.47,1.07l-.4.87c-.14.29-.29.58-.43.86l-.45.85a38.72,38.72,0,0,1-2.06,3.39c-.34.48-.68,1-1,1.43-.19.25-.38.51-.58.76a39.6,39.6,0,0,1-6.19,6.29c-.4.33-.82.66-1.24,1a39.62,39.62,0,0,1-4,2.64l-.83.47q-1.54.84-3.15,1.53l-.72.31-1.1.43-.75.27c-.3.1-.59.21-.89.3l-.9.28c-.27.09-.55.17-.83.24-.65.18-1.31.34-2,.49l-.87.18c-.55.11-1.11.21-1.67.29l-.81.12-.35,0-1,.11a40.22,40.22,0,0,1-7.81,0l-1-.11-.35,0-.81-.12a39.42,39.42,0,0,1-12.85-4.32l-.84-.47a40.91,40.91,0,0,1-4-2.64c-.49-.37-1-.75-1.44-1.13a39.78,39.78,0,0,1-4.78-4.67l-.61-.72-.6-.74c-.2-.25-.39-.51-.58-.76s-.38-.51-.56-.77-.37-.52-.54-.78-.36-.54-.53-.81-.34-.53-.5-.8-.33-.55-.49-.82-.42-.75-.63-1.14-.48-.93-.71-1.41c-.14-.28-.28-.57-.41-.87-.4-.88-.76-1.77-1.09-2.68a35.68,35.68,0,0,1-1.16-3.72c-.16-.63-.31-1.27-.44-1.92a37.24,37.24,0,0,1-.58-3.71c0-.32-.07-.65-.09-1s0-.65-.07-1S413.92,351.57,413.91,351.18Z"/>
    <path class="cls-13" d="M496.82,198.24A157,157,0,1,0,610,349,156.57,156.57,0,0,0,496.82,198.24ZM413.91,351.18c0-.39,0-.78,0-1.17a39.61,39.61,0,1,1,79.22,0c0,.39,0,.78,0,1.17l0,.87q-.06,1-.15,2-.21,2-.6,3.93c-.2,1-.43,1.9-.69,2.83a0,0,0,0,0,0,0c-.26.9-.54,1.78-.85,2.65a.69.69,0,0,0-.05.13c-.2.55-.41,1.08-.63,1.61-.15.36-.31.72-.47,1.07l-.4.87c-.14.29-.29.58-.43.86l-.45.85a38.72,38.72,0,0,1-2.06,3.39c-.34.48-.68,1-1,1.43-.19.25-.38.51-.58.76a39.6,39.6,0,0,1-6.19,6.29c-.4.33-.82.66-1.24,1a39.62,39.62,0,0,1-4,2.64l-.83.47q-1.54.84-3.15,1.53l-.72.31-1.1.43-.75.27c-.3.1-.59.21-.89.3l-.9.28c-.27.09-.55.17-.83.24-.65.18-1.31.34-2,.49l-.87.18c-.55.11-1.11.21-1.67.29l-.81.12-.35,0-1,.11a40.22,40.22,0,0,1-7.81,0l-1-.11-.35,0-.81-.12a39.42,39.42,0,0,1-12.85-4.32l-.84-.47a40.91,40.91,0,0,1-4-2.64c-.49-.37-1-.75-1.44-1.13a39.78,39.78,0,0,1-4.78-4.67l-.61-.72-.6-.74c-.2-.25-.39-.51-.58-.76s-.38-.51-.56-.77-.37-.52-.54-.78-.36-.54-.53-.81-.34-.53-.5-.8-.33-.55-.49-.82-.42-.75-.63-1.14-.48-.93-.71-1.41c-.14-.28-.28-.57-.41-.87-.4-.88-.76-1.77-1.09-2.68a35.68,35.68,0,0,1-1.16-3.72c-.16-.63-.31-1.27-.44-1.92a37.24,37.24,0,0,1-.58-3.71c0-.32-.07-.65-.09-1s0-.65-.07-1S413.92,351.57,413.91,351.18Z"/>
    <path class="cls-13" d="M496.82,194.72A160.43,160.43,0,1,0,613.35,349,160.43,160.43,0,0,0,496.82,194.72ZM413.91,351.18c0-.39,0-.78,0-1.17a39.61,39.61,0,1,1,79.22,0c0,.39,0,.78,0,1.17l0,.87q-.06,1-.15,2-.21,2-.6,3.93c-.2,1-.43,1.9-.69,2.83a0,0,0,0,0,0,0c-.26.9-.54,1.78-.85,2.65a.69.69,0,0,0-.05.13c-.2.55-.41,1.08-.63,1.61-.15.36-.31.72-.47,1.07l-.4.87c-.14.29-.29.58-.43.86l-.45.85a38.72,38.72,0,0,1-2.06,3.39c-.34.48-.68,1-1,1.43-.19.25-.38.51-.58.76a39.6,39.6,0,0,1-6.19,6.29c-.4.33-.82.66-1.24,1a39.62,39.62,0,0,1-4,2.64l-.83.47q-1.54.84-3.15,1.53l-.72.31-1.1.43-.75.27c-.3.1-.59.21-.89.3l-.9.28c-.27.09-.55.17-.83.24-.65.18-1.31.34-2,.49l-.87.18c-.55.11-1.11.21-1.67.29l-.81.12-.35,0-1,.11a40.22,40.22,0,0,1-7.81,0l-1-.11-.35,0-.81-.12a39.42,39.42,0,0,1-12.85-4.32l-.84-.47a40.91,40.91,0,0,1-4-2.64c-.49-.37-1-.75-1.44-1.13a39.78,39.78,0,0,1-4.78-4.67l-.61-.72-.6-.74c-.2-.25-.39-.51-.58-.76s-.38-.51-.56-.77-.37-.52-.54-.78-.36-.54-.53-.81-.34-.53-.5-.8-.33-.55-.49-.82-.42-.75-.63-1.14-.48-.93-.71-1.41c-.14-.28-.28-.57-.41-.87-.4-.88-.76-1.77-1.09-2.68a35.68,35.68,0,0,1-1.16-3.72c-.16-.63-.31-1.27-.44-1.92a37.24,37.24,0,0,1-.58-3.71c0-.32-.07-.65-.09-1s0-.65-.07-1S413.92,351.57,413.91,351.18Z"/>
    <path class="cls-13" d="M496.82,192.45A162.61,162.61,0,1,0,615.55,349,162.46,162.46,0,0,0,496.82,192.45ZM413.91,351.18c0-.39,0-.78,0-1.17a39.61,39.61,0,1,1,79.22,0c0,.39,0,.78,0,1.17l0,.87q-.06,1-.15,2-.21,2-.6,3.93c-.2,1-.43,1.9-.69,2.83a0,0,0,0,0,0,0c-.26.9-.54,1.78-.85,2.65a.69.69,0,0,0-.05.13c-.2.55-.41,1.08-.63,1.61-.15.36-.31.72-.47,1.07l-.4.87c-.14.29-.29.58-.43.86l-.45.85a38.72,38.72,0,0,1-2.06,3.39c-.34.48-.68,1-1,1.43-.19.25-.38.51-.58.76a39.6,39.6,0,0,1-6.19,6.29c-.4.33-.82.66-1.24,1a39.62,39.62,0,0,1-4,2.64l-.83.47q-1.54.84-3.15,1.53l-.72.31-1.1.43-.75.27c-.3.1-.59.21-.89.3l-.9.28c-.27.09-.55.17-.83.24-.65.18-1.31.34-2,.49l-.87.18c-.55.11-1.11.21-1.67.29l-.81.12-.35,0-1,.11a40.22,40.22,0,0,1-7.81,0l-1-.11-.35,0-.81-.12a39.42,39.42,0,0,1-12.85-4.32l-.84-.47a40.91,40.91,0,0,1-4-2.64c-.49-.37-1-.75-1.44-1.13a39.78,39.78,0,0,1-4.78-4.67l-.61-.72-.6-.74c-.2-.25-.39-.51-.58-.76s-.38-.51-.56-.77-.37-.52-.54-.78-.36-.54-.53-.81-.34-.53-.5-.8-.33-.55-.49-.82-.42-.75-.63-1.14-.48-.93-.71-1.41c-.14-.28-.28-.57-.41-.87-.4-.88-.76-1.77-1.09-2.68a35.68,35.68,0,0,1-1.16-3.72c-.16-.63-.31-1.27-.44-1.92a37.24,37.24,0,0,1-.58-3.71c0-.32-.07-.65-.09-1s0-.65-.07-1S413.92,351.57,413.91,351.18Z"/>
    <path class="cls-13" d="M496.82,190.2A164.79,164.79,0,1,0,617.72,349,164.55,164.55,0,0,0,496.82,190.2Zm-82.91,161c0-.39,0-.78,0-1.17a39.61,39.61,0,1,1,79.22,0c0,.39,0,.78,0,1.17l0,.87q-.06,1-.15,2-.21,2-.6,3.93c-.2,1-.43,1.9-.69,2.83a0,0,0,0,0,0,0c-.26.9-.54,1.78-.85,2.65a.69.69,0,0,0-.05.13c-.2.55-.41,1.08-.63,1.61-.15.36-.31.72-.47,1.07l-.4.87c-.14.29-.29.58-.43.86l-.45.85a38.72,38.72,0,0,1-2.06,3.39c-.34.48-.68,1-1,1.43-.19.25-.38.51-.58.76a39.6,39.6,0,0,1-6.19,6.29c-.4.33-.82.66-1.24,1a39.62,39.62,0,0,1-4,2.64l-.83.47q-1.54.84-3.15,1.53l-.72.31-1.1.43-.75.27c-.3.1-.59.21-.89.3l-.9.28c-.27.09-.55.17-.83.24-.65.18-1.31.34-2,.49l-.87.18c-.55.11-1.11.21-1.67.29l-.81.12-.35,0-1,.11a40.22,40.22,0,0,1-7.81,0l-1-.11-.35,0-.81-.12a39.42,39.42,0,0,1-12.85-4.32l-.84-.47a40.91,40.91,0,0,1-4-2.64c-.49-.37-1-.75-1.44-1.13a39.78,39.78,0,0,1-4.78-4.67l-.61-.72-.6-.74c-.2-.25-.39-.51-.58-.76s-.38-.51-.56-.77-.37-.52-.54-.78-.36-.54-.53-.81-.34-.53-.5-.8-.33-.55-.49-.82-.42-.75-.63-1.14-.48-.93-.71-1.41c-.14-.28-.28-.57-.41-.87-.4-.88-.76-1.77-1.09-2.68a35.68,35.68,0,0,1-1.16-3.72c-.16-.63-.31-1.27-.44-1.92a37.24,37.24,0,0,1-.58-3.71c0-.32-.07-.65-.09-1s0-.65-.07-1S413.92,351.57,413.91,351.18Z"/>
    <path class="cls-13" d="M496.82,185.93a168.9,168.9,0,1,0,125,163.1A168.95,168.95,0,0,0,496.82,185.93ZM413.91,351.18c0-.39,0-.78,0-1.17a39.61,39.61,0,1,1,79.22,0c0,.39,0,.78,0,1.17l0,.87q-.06,1-.15,2-.21,2-.6,3.93c-.2,1-.43,1.9-.69,2.83a0,0,0,0,0,0,0c-.26.9-.54,1.78-.85,2.65a.69.69,0,0,0-.05.13c-.2.55-.41,1.08-.63,1.61-.15.36-.31.72-.47,1.07l-.4.87c-.14.29-.29.58-.43.86l-.45.85a38.72,38.72,0,0,1-2.06,3.39c-.34.48-.68,1-1,1.43-.19.25-.38.51-.58.76a39.6,39.6,0,0,1-6.19,6.29c-.4.33-.82.66-1.24,1a39.62,39.62,0,0,1-4,2.64l-.83.47q-1.54.84-3.15,1.53l-.72.31-1.1.43-.75.27c-.3.1-.59.21-.89.3l-.9.28c-.27.09-.55.17-.83.24-.65.18-1.31.34-2,.49l-.87.18c-.55.11-1.11.21-1.67.29l-.81.12-.35,0-1,.11a40.22,40.22,0,0,1-7.81,0l-1-.11-.35,0-.81-.12a39.42,39.42,0,0,1-12.85-4.32l-.84-.47a40.91,40.91,0,0,1-4-2.64c-.49-.37-1-.75-1.44-1.13a39.78,39.78,0,0,1-4.78-4.67l-.61-.72-.6-.74c-.2-.25-.39-.51-.58-.76s-.38-.51-.56-.77-.37-.52-.54-.78-.36-.54-.53-.81-.34-.53-.5-.8-.33-.55-.49-.82-.42-.75-.63-1.14-.48-.93-.71-1.41c-.14-.28-.28-.57-.41-.87-.4-.88-.76-1.77-1.09-2.68a35.68,35.68,0,0,1-1.16-3.72c-.16-.63-.31-1.27-.44-1.92a37.24,37.24,0,0,1-.58-3.71c0-.32-.07-.65-.09-1s0-.65-.07-1S413.92,351.57,413.91,351.18Z"/>
    <path class="cls-13" d="M496.82,184.68A170.11,170.11,0,1,0,623,349,170.23,170.23,0,0,0,496.82,184.68Zm-82.91,166.5c0-.39,0-.78,0-1.17a39.61,39.61,0,1,1,79.22,0c0,.39,0,.78,0,1.17l0,.87q-.06,1-.15,2-.21,2-.6,3.93c-.2,1-.43,1.9-.69,2.83a0,0,0,0,0,0,0c-.26.9-.54,1.78-.85,2.65a.69.69,0,0,0-.05.13c-.2.55-.41,1.08-.63,1.61-.15.36-.31.72-.47,1.07l-.4.87c-.14.29-.29.58-.43.86l-.45.85a38.72,38.72,0,0,1-2.06,3.39c-.34.48-.68,1-1,1.43-.19.25-.38.51-.58.76a39.6,39.6,0,0,1-6.19,6.29c-.4.33-.82.66-1.24,1a39.62,39.62,0,0,1-4,2.64l-.83.47q-1.54.84-3.15,1.53l-.72.31-1.1.43-.75.27c-.3.1-.59.21-.89.3l-.9.28c-.27.09-.55.17-.83.24-.65.18-1.31.34-2,.49l-.87.18c-.55.11-1.11.21-1.67.29l-.81.12-.35,0-1,.11a40.22,40.22,0,0,1-7.81,0l-1-.11-.35,0-.81-.12a39.42,39.42,0,0,1-12.85-4.32l-.84-.47a40.91,40.91,0,0,1-4-2.64c-.49-.37-1-.75-1.44-1.13a39.78,39.78,0,0,1-4.78-4.67l-.61-.72-.6-.74c-.2-.25-.39-.51-.58-.76s-.38-.51-.56-.77-.37-.52-.54-.78-.36-.54-.53-.81-.34-.53-.5-.8-.33-.55-.49-.82-.42-.75-.63-1.14-.48-.93-.71-1.41c-.14-.28-.28-.57-.41-.87-.4-.88-.76-1.77-1.09-2.68a35.68,35.68,0,0,1-1.16-3.72c-.16-.63-.31-1.27-.44-1.92a37.24,37.24,0,0,1-.58-3.71c0-.32-.07-.65-.09-1s0-.65-.07-1S413.92,351.57,413.91,351.18Z"/>
    <path class="cls-13" d="M496.82,188.51A166.42,166.42,0,1,0,619.35,349,166.28,166.28,0,0,0,496.82,188.51ZM413.91,351.18c0-.39,0-.78,0-1.17a39.61,39.61,0,1,1,79.22,0c0,.39,0,.78,0,1.17l0,.87q-.06,1-.15,2-.21,2-.6,3.93c-.2,1-.43,1.9-.69,2.83a0,0,0,0,0,0,0c-.26.9-.54,1.78-.85,2.65a.69.69,0,0,0-.05.13c-.2.55-.41,1.08-.63,1.61-.15.36-.31.72-.47,1.07l-.4.87c-.14.29-.29.58-.43.86l-.45.85a38.72,38.72,0,0,1-2.06,3.39c-.34.48-.68,1-1,1.43-.19.25-.38.51-.58.76a39.6,39.6,0,0,1-6.19,6.29c-.4.33-.82.66-1.24,1a39.62,39.62,0,0,1-4,2.64l-.83.47q-1.54.84-3.15,1.53l-.72.31-1.1.43-.75.27c-.3.1-.59.21-.89.3l-.9.28c-.27.09-.55.17-.83.24-.65.18-1.31.34-2,.49l-.87.18c-.55.11-1.11.21-1.67.29l-.81.12-.35,0-1,.11a40.22,40.22,0,0,1-7.81,0l-1-.11-.35,0-.81-.12a39.42,39.42,0,0,1-12.85-4.32l-.84-.47a40.91,40.91,0,0,1-4-2.64c-.49-.37-1-.75-1.44-1.13a39.78,39.78,0,0,1-4.78-4.67l-.61-.72-.6-.74c-.2-.25-.39-.51-.58-.76s-.38-.51-.56-.77-.37-.52-.54-.78-.36-.54-.53-.81-.34-.53-.5-.8-.33-.55-.49-.82-.42-.75-.63-1.14-.48-.93-.71-1.41c-.14-.28-.28-.57-.41-.87-.4-.88-.76-1.77-1.09-2.68a35.68,35.68,0,0,1-1.16-3.72c-.16-.63-.31-1.27-.44-1.92a37.24,37.24,0,0,1-.58-3.71c0-.32-.07-.65-.09-1s0-.65-.07-1S413.92,351.57,413.91,351.18Z"/>
    <path class="cls-13" d="M496.82,199.39A155.95,155.95,0,1,0,608.87,349,155.76,155.76,0,0,0,496.82,199.39ZM413.91,351.18c0-.39,0-.78,0-1.17a39.61,39.61,0,1,1,79.22,0c0,.39,0,.78,0,1.17l0,.87q-.06,1-.15,2-.21,2-.6,3.93c-.2,1-.43,1.9-.69,2.83a0,0,0,0,0,0,0c-.26.9-.54,1.78-.85,2.65a.69.69,0,0,0-.05.13c-.2.55-.41,1.08-.63,1.61-.15.36-.31.72-.47,1.07l-.4.87c-.14.29-.29.58-.43.86l-.45.85a38.72,38.72,0,0,1-2.06,3.39c-.34.48-.68,1-1,1.43-.19.25-.38.51-.58.76a39.6,39.6,0,0,1-6.19,6.29c-.4.33-.82.66-1.24,1a39.62,39.62,0,0,1-4,2.64l-.83.47q-1.54.84-3.15,1.53l-.72.31-1.1.43-.75.27c-.3.1-.59.21-.89.3l-.9.28c-.27.09-.55.17-.83.24-.65.18-1.31.34-2,.49l-.87.18c-.55.11-1.11.21-1.67.29l-.81.12-.35,0-1,.11a40.22,40.22,0,0,1-7.81,0l-1-.11-.35,0-.81-.12a39.42,39.42,0,0,1-12.85-4.32l-.84-.47a40.91,40.91,0,0,1-4-2.64c-.49-.37-1-.75-1.44-1.13a39.78,39.78,0,0,1-4.78-4.67l-.61-.72-.6-.74c-.2-.25-.39-.51-.58-.76s-.38-.51-.56-.77-.37-.52-.54-.78-.36-.54-.53-.81-.34-.53-.5-.8-.33-.55-.49-.82-.42-.75-.63-1.14-.48-.93-.71-1.41c-.14-.28-.28-.57-.41-.87-.4-.88-.76-1.77-1.09-2.68a35.68,35.68,0,0,1-1.16-3.72c-.16-.63-.31-1.27-.44-1.92a37.24,37.24,0,0,1-.58-3.71c0-.32-.07-.65-.09-1s0-.65-.07-1S413.92,351.57,413.91,351.18Z"/>
    <path class="cls-13" d="M496.82,195.91A159.29,159.29,0,1,0,612.21,349,159.25,159.25,0,0,0,496.82,195.91ZM413.91,351.18c0-.39,0-.78,0-1.17a39.61,39.61,0,1,1,79.22,0c0,.39,0,.78,0,1.17l0,.87q-.06,1-.15,2-.21,2-.6,3.93c-.2,1-.43,1.9-.69,2.83a0,0,0,0,0,0,0c-.26.9-.54,1.78-.85,2.65a.69.69,0,0,0-.05.13c-.2.55-.41,1.08-.63,1.61-.15.36-.31.72-.47,1.07l-.4.87c-.14.29-.29.58-.43.86l-.45.85a38.72,38.72,0,0,1-2.06,3.39c-.34.48-.68,1-1,1.43-.19.25-.38.51-.58.76a39.6,39.6,0,0,1-6.19,6.29c-.4.33-.82.66-1.24,1a39.62,39.62,0,0,1-4,2.64l-.83.47q-1.54.84-3.15,1.53l-.72.31-1.1.43-.75.27c-.3.1-.59.21-.89.3l-.9.28c-.27.09-.55.17-.83.24-.65.18-1.31.34-2,.49l-.87.18c-.55.11-1.11.21-1.67.29l-.81.12-.35,0-1,.11a40.22,40.22,0,0,1-7.81,0l-1-.11-.35,0-.81-.12a39.42,39.42,0,0,1-12.85-4.32l-.84-.47a40.91,40.91,0,0,1-4-2.64c-.49-.37-1-.75-1.44-1.13a39.78,39.78,0,0,1-4.78-4.67l-.61-.72-.6-.74c-.2-.25-.39-.51-.58-.76s-.38-.51-.56-.77-.37-.52-.54-.78-.36-.54-.53-.81-.34-.53-.5-.8-.33-.55-.49-.82-.42-.75-.63-1.14-.48-.93-.71-1.41c-.14-.28-.28-.57-.41-.87-.4-.88-.76-1.77-1.09-2.68a35.68,35.68,0,0,1-1.16-3.72c-.16-.63-.31-1.27-.44-1.92a37.24,37.24,0,0,1-.58-3.71c0-.32-.07-.65-.09-1s0-.65-.07-1S413.92,351.57,413.91,351.18Z"/>
    <path class="cls-13" d="M496.82,193.65A161.46,161.46,0,1,0,614.39,349,161.69,161.69,0,0,0,496.82,193.65ZM413.91,351.18c0-.39,0-.78,0-1.17a39.61,39.61,0,1,1,79.22,0c0,.39,0,.78,0,1.17l0,.87q-.06,1-.15,2-.21,2-.6,3.93c-.2,1-.43,1.9-.69,2.83a0,0,0,0,0,0,0c-.26.9-.54,1.78-.85,2.65a.69.69,0,0,0-.05.13c-.2.55-.41,1.08-.63,1.61-.15.36-.31.72-.47,1.07l-.4.87c-.14.29-.29.58-.43.86l-.45.85a38.72,38.72,0,0,1-2.06,3.39c-.34.48-.68,1-1,1.43-.19.25-.38.51-.58.76a39.6,39.6,0,0,1-6.19,6.29c-.4.33-.82.66-1.24,1a39.62,39.62,0,0,1-4,2.64l-.83.47q-1.54.84-3.15,1.53l-.72.31-1.1.43-.75.27c-.3.1-.59.21-.89.3l-.9.28c-.27.09-.55.17-.83.24-.65.18-1.31.34-2,.49l-.87.18c-.55.11-1.11.21-1.67.29l-.81.12-.35,0-1,.11a40.22,40.22,0,0,1-7.81,0l-1-.11-.35,0-.81-.12a39.42,39.42,0,0,1-12.85-4.32l-.84-.47a40.91,40.91,0,0,1-4-2.64c-.49-.37-1-.75-1.44-1.13a39.78,39.78,0,0,1-4.78-4.67l-.61-.72-.6-.74c-.2-.25-.39-.51-.58-.76s-.38-.51-.56-.77-.37-.52-.54-.78-.36-.54-.53-.81-.34-.53-.5-.8-.33-.55-.49-.82-.42-.75-.63-1.14-.48-.93-.71-1.41c-.14-.28-.28-.57-.41-.87-.4-.88-.76-1.77-1.09-2.68a35.68,35.68,0,0,1-1.16-3.72c-.16-.63-.31-1.27-.44-1.92a37.24,37.24,0,0,1-.58-3.71c0-.32-.07-.65-.09-1s0-.65-.07-1S413.92,351.57,413.91,351.18Z"/>
    <path class="cls-13" d="M496.82,191.42A163.61,163.61,0,1,0,616.54,349,163.35,163.35,0,0,0,496.82,191.42ZM413.91,351.18c0-.39,0-.78,0-1.17a39.61,39.61,0,1,1,79.22,0c0,.39,0,.78,0,1.17l0,.87q-.06,1-.15,2-.21,2-.6,3.93c-.2,1-.43,1.9-.69,2.83a0,0,0,0,0,0,0c-.26.9-.54,1.78-.85,2.65a.69.69,0,0,0-.05.13c-.2.55-.41,1.08-.63,1.61-.15.36-.31.72-.47,1.07l-.4.87c-.14.29-.29.58-.43.86l-.45.85a38.72,38.72,0,0,1-2.06,3.39c-.34.48-.68,1-1,1.43-.19.25-.38.51-.58.76a39.6,39.6,0,0,1-6.19,6.29c-.4.33-.82.66-1.24,1a39.62,39.62,0,0,1-4,2.64l-.83.47q-1.54.84-3.15,1.53l-.72.31-1.1.43-.75.27c-.3.1-.59.21-.89.3l-.9.28c-.27.09-.55.17-.83.24-.65.18-1.31.34-2,.49l-.87.18c-.55.11-1.11.21-1.67.29l-.81.12-.35,0-1,.11a40.22,40.22,0,0,1-7.81,0l-1-.11-.35,0-.81-.12a39.42,39.42,0,0,1-12.85-4.32l-.84-.47a40.91,40.91,0,0,1-4-2.64c-.49-.37-1-.75-1.44-1.13a39.78,39.78,0,0,1-4.78-4.67l-.61-.72-.6-.74c-.2-.25-.39-.51-.58-.76s-.38-.51-.56-.77-.37-.52-.54-.78-.36-.54-.53-.81-.34-.53-.5-.8-.33-.55-.49-.82-.42-.75-.63-1.14-.48-.93-.71-1.41c-.14-.28-.28-.57-.41-.87-.4-.88-.76-1.77-1.09-2.68a35.68,35.68,0,0,1-1.16-3.72c-.16-.63-.31-1.27-.44-1.92a37.24,37.24,0,0,1-.58-3.71c0-.32-.07-.65-.09-1s0-.65-.07-1S413.92,351.57,413.91,351.18Z"/>
    <path class="cls-13" d="M496.82,187.18A167.7,167.7,0,1,0,620.63,349,167.57,167.57,0,0,0,496.82,187.18Zm-82.91,164c0-.39,0-.78,0-1.17a39.61,39.61,0,1,1,79.22,0c0,.39,0,.78,0,1.17l0,.87q-.06,1-.15,2-.21,2-.6,3.93c-.2,1-.43,1.9-.69,2.83a0,0,0,0,0,0,0c-.26.9-.54,1.78-.85,2.65a.69.69,0,0,0-.05.13c-.2.55-.41,1.08-.63,1.61-.15.36-.31.72-.47,1.07l-.4.87c-.14.29-.29.58-.43.86l-.45.85a38.72,38.72,0,0,1-2.06,3.39c-.34.48-.68,1-1,1.43-.19.25-.38.51-.58.76a39.6,39.6,0,0,1-6.19,6.29c-.4.33-.82.66-1.24,1a39.62,39.62,0,0,1-4,2.64l-.83.47q-1.54.84-3.15,1.53l-.72.31-1.1.43-.75.27c-.3.1-.59.21-.89.3l-.9.28c-.27.09-.55.17-.83.24-.65.18-1.31.34-2,.49l-.87.18c-.55.11-1.11.21-1.67.29l-.81.12-.35,0-1,.11a40.22,40.22,0,0,1-7.81,0l-1-.11-.35,0-.81-.12a39.42,39.42,0,0,1-12.85-4.32l-.84-.47a40.91,40.91,0,0,1-4-2.64c-.49-.37-1-.75-1.44-1.13a39.78,39.78,0,0,1-4.78-4.67l-.61-.72-.6-.74c-.2-.25-.39-.51-.58-.76s-.38-.51-.56-.77-.37-.52-.54-.78-.36-.54-.53-.81-.34-.53-.5-.8-.33-.55-.49-.82-.42-.75-.63-1.14-.48-.93-.71-1.41c-.14-.28-.28-.57-.41-.87-.4-.88-.76-1.77-1.09-2.68a35.68,35.68,0,0,1-1.16-3.72c-.16-.63-.31-1.27-.44-1.92a37.24,37.24,0,0,1-.58-3.71c0-.32-.07-.65-.09-1s0-.65-.07-1S413.92,351.57,413.91,351.18Z"/>
    <path class="cls-14" d="M546.23,350c0,.78,0,1.57,0,2.34H493.05c0-.77.07-1.56.07-2.34a39.62,39.62,0,0,0-79.23,0c0,.78,0,1.57.07,2.34H360.83c0-.77,0-1.56,0-2.34a92.72,92.72,0,0,1,185.44,0Z"/>
    <path class="cls-13" d="M496.82,197A158.27,158.27,0,1,0,611.2,349,158.51,158.51,0,0,0,496.82,197ZM413.91,351.18c0-.39,0-.78,0-1.17a39.61,39.61,0,1,1,79.22,0c0,.39,0,.78,0,1.17l0,.87q-.06,1-.15,2-.21,2-.6,3.93c-.2,1-.43,1.9-.69,2.83a0,0,0,0,0,0,0c-.26.9-.54,1.78-.85,2.65a.69.69,0,0,0-.05.13c-.2.55-.41,1.08-.63,1.61-.15.36-.31.72-.47,1.07l-.4.87c-.14.29-.29.58-.43.86l-.45.85a38.72,38.72,0,0,1-2.06,3.39c-.34.48-.68,1-1,1.43-.19.25-.38.51-.58.76a39.6,39.6,0,0,1-6.19,6.29c-.4.33-.82.66-1.24,1a39.62,39.62,0,0,1-4,2.64l-.83.47q-1.54.84-3.15,1.53l-.72.31-1.1.43-.75.27c-.3.1-.59.21-.89.3l-.9.28c-.27.09-.55.17-.83.24-.65.18-1.31.34-2,.49l-.87.18c-.55.11-1.11.21-1.67.29l-.81.12-.35,0-1,.11a40.22,40.22,0,0,1-7.81,0l-1-.11-.35,0-.81-.12a39.42,39.42,0,0,1-12.85-4.32l-.84-.47a40.91,40.91,0,0,1-4-2.64c-.49-.37-1-.75-1.44-1.13a39.78,39.78,0,0,1-4.78-4.67l-.61-.72-.6-.74c-.2-.25-.39-.51-.58-.76s-.38-.51-.56-.77-.37-.52-.54-.78-.36-.54-.53-.81-.34-.53-.5-.8-.33-.55-.49-.82-.42-.75-.63-1.14-.48-.93-.71-1.41c-.14-.28-.28-.57-.41-.87-.4-.88-.76-1.77-1.09-2.68a35.68,35.68,0,0,1-1.16-3.72c-.16-.63-.31-1.27-.44-1.92a37.24,37.24,0,0,1-.58-3.71c0-.32-.07-.65-.09-1s0-.65-.07-1S413.92,351.57,413.91,351.18Z"/>
    <path class="cls-15" d="M496.82,275.57A86.08,86.08,0,0,0,367.39,350c0,.78,0,1.56,0,2.33a86.12,86.12,0,0,0,172.17,0c0-.77,0-1.55,0-2.33A86.06,86.06,0,0,0,496.82,275.57ZM492.31,358c-.2,1-.43,1.9-.69,2.83a0,0,0,0,0,0,0c-.26.9-.54,1.78-.85,2.65a.69.69,0,0,0-.05.13c-.2.55-.41,1.08-.63,1.61-.15.36-.31.72-.47,1.07l-.4.87c-.14.29-.29.58-.43.86l-.45.85a38.72,38.72,0,0,1-2.06,3.39c-.34.48-.68,1-1,1.43-.19.25-.38.51-.58.76a39.6,39.6,0,0,1-6.19,6.29c-.4.33-.82.66-1.24,1a39.62,39.62,0,0,1-4,2.64l-.83.47q-1.54.84-3.15,1.53l-.72.31-1.1.43-.75.27c-.3.1-.59.21-.89.3l-.9.28c-.27.09-.55.17-.83.24-.65.18-1.31.34-2,.49l-.87.18c-.55.11-1.11.21-1.67.29l-.81.12-.35,0-1,.11a40.22,40.22,0,0,1-7.81,0l-1-.11-.35,0-.81-.12a39.42,39.42,0,0,1-12.85-4.32l-.84-.47a40.91,40.91,0,0,1-4-2.64c-.49-.37-1-.75-1.44-1.13a39.78,39.78,0,0,1-4.78-4.67l-.61-.72-.6-.74c-.2-.25-.39-.51-.58-.76s-.38-.51-.56-.77-.37-.52-.54-.78-.36-.54-.53-.81-.34-.53-.5-.8-.33-.55-.49-.82-.42-.75-.63-1.14-.48-.93-.71-1.41c-.14-.28-.28-.57-.41-.87-.4-.88-.76-1.77-1.09-2.68a35.68,35.68,0,0,1-1.16-3.72c-.16-.63-.31-1.27-.44-1.92a37.24,37.24,0,0,1-.58-3.71c0-.32-.07-.65-.09-1s0-.65-.07-1,0-.77,0-1.16,0-.78,0-1.17a39.61,39.61,0,1,1,79.22,0c0,.39,0,.78,0,1.17l0,.87q-.06,1-.15,2Q492.7,356.05,492.31,358Z"/>
    <g>
      <path class="cls-1" d="M400.77,393.93h2v7.84h4.14v1.63h-6.12Z"/>
      <path class="cls-1" d="M408.06,393.93h6.27v1.64H410v2.27h4v1.55h-4v2.38h4.29v1.63h-6.27Z"/>
      <path class="cls-1" d="M418,395.57h-2.75v-1.64h7.47v1.64H420v7.83h-2Z"/>
      <path class="cls-1" d="M424,393.93h1.81l-1,3.63h-1.33Z"/>
      <path class="cls-1" d="M428.38,403.23a3,3,0,0,1-1.32-1,2.58,2.58,0,0,1-.53-1.49v-.11h1.87v.07a1.27,1.27,0,0,0,.33.64,2,2,0,0,0,.69.41,3,3,0,0,0,1,.15,2.71,2.71,0,0,0,.95-.15,1.39,1.39,0,0,0,.61-.42,1,1,0,0,0,.22-.63h0a.88.88,0,0,0-.38-.75,3.43,3.43,0,0,0-1.26-.45l-1-.2a4.19,4.19,0,0,1-2.11-.95,2.27,2.27,0,0,1-.71-1.74h0a2.51,2.51,0,0,1,.47-1.51,3,3,0,0,1,1.28-1,4.54,4.54,0,0,1,1.86-.36,4.73,4.73,0,0,1,1.89.34,2.83,2.83,0,0,1,1.24,1,2.66,2.66,0,0,1,.5,1.45v.12h-1.87v-.08a1.13,1.13,0,0,0-.28-.64,1.51,1.51,0,0,0-.6-.4,2.33,2.33,0,0,0-.87-.15,2.26,2.26,0,0,0-.87.15,1.19,1.19,0,0,0-.56.4,1,1,0,0,0-.2.59h0a.88.88,0,0,0,.38.73,3.34,3.34,0,0,0,1.2.43l1,.2a4.47,4.47,0,0,1,2.18.94,2.27,2.27,0,0,1,.69,1.75h0a2.77,2.77,0,0,1-.45,1.58,3,3,0,0,1-1.31,1,6,6,0,0,1-4,0Z"/>
      <path class="cls-1" d="M439.86,403a4,4,0,0,1-1.59-1.69,5.74,5.74,0,0,1-.56-2.61h0a5.58,5.58,0,0,1,.57-2.61,4,4,0,0,1,1.58-1.69,4.83,4.83,0,0,1,2.43-.59,4.7,4.7,0,0,1,2.42.6,4,4,0,0,1,1.58,1.68,5.71,5.71,0,0,1,.56,2.61h0a5.67,5.67,0,0,1-.56,2.6,4,4,0,0,1-1.57,1.69,4.71,4.71,0,0,1-2.43.6A4.81,4.81,0,0,1,439.86,403Zm3.78-1.48a2.61,2.61,0,0,0,.88-1.12,4.41,4.41,0,0,0,.3-1.7h0a4.25,4.25,0,0,0-.31-1.71,2.46,2.46,0,0,0-.88-1.11,2.51,2.51,0,0,0-2.69,0,2.54,2.54,0,0,0-.89,1.11,4.42,4.42,0,0,0-.31,1.71h0a4.41,4.41,0,0,0,.31,1.7,2.45,2.45,0,0,0,.89,1.12,2.53,2.53,0,0,0,2.7,0Z"/>
      <path class="cls-1" d="M448.12,393.93H452a4,4,0,0,1,1.82.37,2.61,2.61,0,0,1,1.16,1,3.09,3.09,0,0,1,.41,1.62v0a3,3,0,0,1-.47,1.66,2.48,2.48,0,0,1-1.25,1l2,3.73h-2.25L451.69,400H450.1v3.43h-2Zm3.7,4.53a1.62,1.62,0,0,0,1.15-.39,1.41,1.41,0,0,0,.42-1.09h0a1.39,1.39,0,0,0-.44-1.08,1.62,1.62,0,0,0-1.16-.4H450.1v3Z"/>
      <path class="cls-1" d="M458.55,403a3.89,3.89,0,0,1-1.57-1.69,5.84,5.84,0,0,1-.56-2.64h0A5.68,5.68,0,0,1,457,396a4,4,0,0,1,1.57-1.67,4.74,4.74,0,0,1,2.4-.58,4.57,4.57,0,0,1,2,.41,3.83,3.83,0,0,1,1.42,1.1,3.58,3.58,0,0,1,.71,1.59l0,.1h-2l0-.07a2.09,2.09,0,0,0-.78-1.07,2.36,2.36,0,0,0-3.55,1.07,4.45,4.45,0,0,0-.3,1.72h0a4.42,4.42,0,0,0,.31,1.75,2.52,2.52,0,0,0,.89,1.12,2.4,2.4,0,0,0,1.37.39,2.54,2.54,0,0,0,1.13-.24,1.89,1.89,0,0,0,.78-.67,1.83,1.83,0,0,0,.31-1v-.13h-2.16v-1.49h4.09v1.09a4.55,4.55,0,0,1-.5,2.22,3.35,3.35,0,0,1-1.44,1.42,4.64,4.64,0,0,1-2.25.5A4.84,4.84,0,0,1,458.55,403Z"/>
      <path class="cls-1" d="M468.92,393.93h1.75v1.84h-.6l-2.37,7.63h-2.08Zm-1,5.69h4.42l.48,1.48H467.4Zm2.23-3.85v-1.84h1.15l3.29,9.47h-2.08Z"/>
      <path class="cls-1" d="M475.53,393.93h1.73l5.14,7.41-1.66-1.25h.83v-6.16h2v9.47h-1.72L476.67,396l1.66,1.26h-.83v6.19h-2Z"/>
      <path class="cls-1" d="M485.12,393.93h2v9.47h-2Z"/>
      <path class="cls-1" d="M488.47,402.11l4.82-6.5v0h-4.71v-1.64h7.07v1.3l-4.8,6.49v0h4.93v1.63h-7.31Z"/>
      <path class="cls-1" d="M497.15,393.93h6.27v1.64h-4.29v2.27h4.05v1.55h-4.05v2.38h4.29v1.63h-6.27Z"/>
      <path class="cls-1" d="M505.4,403.18a1,1,0,0,1-.31-.73,1,1,0,0,1,.31-.74,1.13,1.13,0,0,1,1.51,0,1,1,0,0,1,.31.74,1,1,0,0,1-.31.73,1.1,1.1,0,0,1-1.51,0Zm-.23-9.25h2l-.16,6.29h-1.65Z"/>
    </g>
    <g>
      <path class="cls-1" d="M424.16,417.1h-2.05v-1.23h5.6v1.23h-2.06V423h-1.49Z"/>
      <path class="cls-1" d="M428.53,415.87H430v2.88h3.2v-2.88h1.49V423h-1.49v-3H430v3h-1.48Z"/>
      <path class="cls-1" d="M435.88,415.87h4.7v1.23h-3.22v1.7h3V420h-3v1.78h3.22V423h-4.7Z"/>
      <path class="cls-1" d="M444.77,422.84a2.22,2.22,0,0,1-1-.71,2,2,0,0,1-.4-1.12v-.08h1.41V421a.85.85,0,0,0,.24.47,1.41,1.41,0,0,0,.52.31,2.11,2.11,0,0,0,.73.11,1.93,1.93,0,0,0,.71-.11,1,1,0,0,0,.46-.31.75.75,0,0,0,.16-.48h0a.67.67,0,0,0-.28-.57,2.76,2.76,0,0,0-.95-.33l-.74-.16a3,3,0,0,1-1.58-.71,1.69,1.69,0,0,1-.54-1.3h0a1.9,1.9,0,0,1,.36-1.13,2.31,2.31,0,0,1,.95-.75,3.88,3.88,0,0,1,2.82,0,2.13,2.13,0,0,1,.93.72,1.93,1.93,0,0,1,.37,1.09v.09h-1.4v-.06a1,1,0,0,0-.21-.48,1.15,1.15,0,0,0-.46-.3,1.64,1.64,0,0,0-.65-.11,1.61,1.61,0,0,0-.65.11.85.85,0,0,0-.42.3.71.71,0,0,0-.15.44h0a.64.64,0,0,0,.29.54,2.3,2.3,0,0,0,.89.33l.76.15a3.35,3.35,0,0,1,1.63.7,1.7,1.7,0,0,1,.52,1.32h0a2.05,2.05,0,0,1-.34,1.19,2.22,2.22,0,0,1-1,.77,4.46,4.46,0,0,1-3,0Z"/>
      <path class="cls-1" d="M450,415.87h1.49v2.88h3.2v-2.88h1.48V423h-1.48v-3h-3.2v3H450Z"/>
      <path class="cls-1" d="M457.35,415.87h4.71v1.23h-3.22v1.7h3V420h-3v1.78h3.22V423h-4.71Z"/>
      <path class="cls-1" d="M463.13,415.87h1.49v5.87h3.1V423h-4.59Z"/>
      <path class="cls-1" d="M467.56,415.87h1.64l1.62,5.58h0l1.62-5.58h1.65l-2.38,7.1h-1.81Z"/>
      <path class="cls-1" d="M474.84,415.87h4.7v1.23h-3.21v1.7h3V420h-3v1.78h3.21V423h-4.7Z"/>
      <path class="cls-1" d="M481.74,422.84a2.22,2.22,0,0,1-1-.71,2,2,0,0,1-.4-1.12v-.08h1.4V421a.81.81,0,0,0,.25.47,1.27,1.27,0,0,0,.52.31,2,2,0,0,0,.72.11,1.93,1.93,0,0,0,.71-.11,1,1,0,0,0,.46-.31.75.75,0,0,0,.16-.48h0a.67.67,0,0,0-.28-.57,2.69,2.69,0,0,0-.94-.33l-.75-.16a3,3,0,0,1-1.58-.71,1.69,1.69,0,0,1-.54-1.3h0a2,2,0,0,1,.36-1.13,2.28,2.28,0,0,1,1-.75,3.38,3.38,0,0,1,1.39-.27,3.43,3.43,0,0,1,1.42.26,2.22,2.22,0,0,1,.94.72,2,2,0,0,1,.36,1.09v.09h-1.4v-.06a1,1,0,0,0-.21-.48,1.15,1.15,0,0,0-.46-.3,2,2,0,0,0-1.3,0,1,1,0,0,0-.42.3.71.71,0,0,0-.15.44h0a.64.64,0,0,0,.29.54,2.3,2.3,0,0,0,.89.33l.76.15a3.35,3.35,0,0,1,1.63.7,1.7,1.7,0,0,1,.52,1.32h0a2.05,2.05,0,0,1-.34,1.19,2.24,2.24,0,0,1-1,.77,4,4,0,0,1-1.54.27A3.9,3.9,0,0,1,481.74,422.84Z"/>
    </g>
    <g>
      <path class="cls-1" d="M506.75,341.15h-2.37v-.64l.4-.63.4-.63c.14-.21.27-.42.4-.63L506,338c.13-.21.26-.42.4-.63h1.06v3.17h.66v.62h-.66v.94h-.7Zm0-.61v-2.6h0l-.33.52-.33.51-.34.52-.33.52-.34.51v0Z"/>
      <path class="cls-1" d="M509.52,342a1.56,1.56,0,0,1-.59-.48,1.44,1.44,0,0,1-.25-.69v0h.7v0a.77.77,0,0,0,.17.38.93.93,0,0,0,.34.28,1.2,1.2,0,0,0,.47.1,1.12,1.12,0,0,0,.53-.13.87.87,0,0,0,.35-.36,1,1,0,0,0,.13-.51h0a1,1,0,0,0-.13-.51.84.84,0,0,0-.35-.35,1,1,0,0,0-.52-.13,1.35,1.35,0,0,0-.41.06,1.12,1.12,0,0,0-.33.2l-.12.12a.78.78,0,0,0-.1.15h-.65l.24-2.73h2.82V338h-2.23l-.14,1.5h0a1.1,1.1,0,0,1,.45-.37,1.39,1.39,0,0,1,.63-.13,1.61,1.61,0,0,1,.8.2,1.53,1.53,0,0,1,.55.55,1.57,1.57,0,0,1,.2.81h0a1.61,1.61,0,0,1-.22.85,1.52,1.52,0,0,1-.61.57,1.9,1.9,0,0,1-.9.21A1.86,1.86,0,0,1,509.52,342Z"/>
      <path class="cls-1" d="M514.12,337.36H516a1.83,1.83,0,0,1,.84.18,1.21,1.21,0,0,1,.55.5,1.54,1.54,0,0,1,.19.77h0a1.41,1.41,0,0,1-.25.84,1.21,1.21,0,0,1-.67.5l1.06,1.93h-.85l-1-1.81h-1v1.81h-.73Zm1.76,2.31a.92.92,0,0,0,.66-.22.85.85,0,0,0,.23-.63h0a.8.8,0,0,0-.24-.62,1,1,0,0,0-.67-.22h-1v1.69Z"/>
      <path class="cls-1" d="M518.25,342a.43.43,0,0,1,0-.62.43.43,0,0,1,.31-.12.41.41,0,0,1,.3.12.43.43,0,0,1,0,.62.41.41,0,0,1-.3.12A.43.43,0,0,1,518.25,342Z"/>
      <path class="cls-1" d="M519.75,337.36h.73v4.73h-.73Zm.36,2.5h1.22a1,1,0,0,0,.74-.25.9.9,0,0,0,.26-.69h0a.94.94,0,0,0-.26-.7,1.08,1.08,0,0,0-.74-.24h-1.22v-.62h1.4a1.68,1.68,0,0,1,.82.19,1.39,1.39,0,0,1,.55.55,1.62,1.62,0,0,1,.2.81h0a1.65,1.65,0,0,1-.2.81,1.39,1.39,0,0,1-.55.55,1.68,1.68,0,0,1-.82.19h-1.4Z"/>
      <path class="cls-1" d="M523.29,342a.46.46,0,1,1,.31.12A.45.45,0,0,1,523.29,342Z"/>
      <path class="cls-1" d="M524.79,337.36h.85l1.53,3.77h0l1.53-3.77h.85v4.73h-.67V338.6h-.34l.77-1.11-1.88,4.6h-.54l-1.88-4.6.77,1.11h-.34v3.49h-.67Z"/>
      <path class="cls-1" d="M530.46,342a.43.43,0,0,1,0-.62.41.41,0,0,1,.3-.12.43.43,0,0,1,.31.12.46.46,0,0,1,0,.62.43.43,0,0,1-.31.12A.41.41,0,0,1,530.46,342Z"/>
      <path class="cls-1" d="M509.53,350.07a1.53,1.53,0,0,1-.64-.46,1.33,1.33,0,0,1-.26-.72v-.05h.72v0a.75.75,0,0,0,.18.38.84.84,0,0,0,.4.24,1.55,1.55,0,0,0,.55.09,1.47,1.47,0,0,0,.55-.09.8.8,0,0,0,.36-.25.65.65,0,0,0,.12-.39h0a.53.53,0,0,0-.2-.45,1.45,1.45,0,0,0-.68-.27l-.51-.11a2.1,2.1,0,0,1-1-.48,1.1,1.1,0,0,1-.34-.85h0A1.24,1.24,0,0,1,509,346a1.56,1.56,0,0,1,.61-.48,2.24,2.24,0,0,1,.89-.17,2.14,2.14,0,0,1,.87.17,1.37,1.37,0,0,1,.59.46,1.32,1.32,0,0,1,.25.7v.06h-.72v-.05a.86.86,0,0,0-.16-.38,1,1,0,0,0-.35-.24,1.48,1.48,0,0,0-.49-.08,1.29,1.29,0,0,0-.51.09.66.66,0,0,0-.34.24.56.56,0,0,0-.12.36h0a.54.54,0,0,0,.21.44,1.59,1.59,0,0,0,.66.26l.51.11a2.18,2.18,0,0,1,1.07.47,1.15,1.15,0,0,1,.33.87h0a1.25,1.25,0,0,1-.22.75,1.4,1.4,0,0,1-.62.49,2.55,2.55,0,0,1-1,.17A2.36,2.36,0,0,1,509.53,350.07Z"/>
      <path class="cls-1" d="M512.92,345.42h.73v4.73h-.73Z"/>
      <path class="cls-1" d="M514.53,345.42h1.66a2.41,2.41,0,0,1,1.21.28,1.86,1.86,0,0,1,.77.8,2.87,2.87,0,0,1,.26,1.27h0a2.81,2.81,0,0,1-.26,1.28,1.88,1.88,0,0,1-.77.81,2.38,2.38,0,0,1-1.21.28h-1.66Zm1.59,4.09a1.6,1.6,0,0,0,.85-.2,1.2,1.2,0,0,0,.53-.58,2.27,2.27,0,0,0,.18-1h0a2.19,2.19,0,0,0-.18-.94,1.32,1.32,0,0,0-.53-.59,1.7,1.7,0,0,0-.85-.2h-.86v3.46Z"/>
      <path class="cls-1" d="M519.14,345.42h3v.63h-2.27v1.38H522v.62h-2.15v1.46h2.27v.64h-3Z"/>
      <path class="cls-1" d="M525.38,346.15h0l-1.24.85v-.7l1.25-.88h.72v4.73h-.72Z"/>
    </g>
    <g>
      <path class="cls-1" d="M376.21,345.09H377v4.73h-.74Zm.37,4.13H378a1.26,1.26,0,0,0,.75-.2.68.68,0,0,0,.26-.57h0a.7.7,0,0,0-.12-.42.7.7,0,0,0-.36-.26,1.66,1.66,0,0,0-.59-.09h-1.33v-.57h1.19a1.21,1.21,0,0,0,.74-.19.61.61,0,0,0,.25-.54h0a.59.59,0,0,0-.22-.5.92.92,0,0,0-.61-.17h-1.35v-.6h1.52a1.84,1.84,0,0,1,.74.14,1.1,1.1,0,0,1,.48.42,1.05,1.05,0,0,1,.18.62h0a1,1,0,0,1-.12.47,1,1,0,0,1-.31.37.91.91,0,0,1-.45.19h0a1.58,1.58,0,0,1,.59.19,1.15,1.15,0,0,1,.38.41,1.13,1.13,0,0,1,.14.56h0a1.29,1.29,0,0,1-.2.72,1.25,1.25,0,0,1-.55.46,2.08,2.08,0,0,1-.87.16h-1.53Z"/>
      <path class="cls-1" d="M381,349.74a1.56,1.56,0,0,1-.63-.46,1.33,1.33,0,0,1-.26-.72v-.05h.72v0a.68.68,0,0,0,.18.38.93.93,0,0,0,.4.24,1.55,1.55,0,0,0,.55.09,1.51,1.51,0,0,0,.55-.09.86.86,0,0,0,.36-.25.65.65,0,0,0,.12-.39h0a.56.56,0,0,0-.2-.45,1.45,1.45,0,0,0-.68-.27l-.51-.11a2.1,2.1,0,0,1-1-.48,1.1,1.1,0,0,1-.34-.85h0a1.15,1.15,0,0,1,.22-.71,1.4,1.4,0,0,1,.61-.48A2.24,2.24,0,0,1,382,345a2,2,0,0,1,.87.17,1.37,1.37,0,0,1,.59.46,1.32,1.32,0,0,1,.25.7v.06H383v0a.73.73,0,0,0-.17-.38.87.87,0,0,0-.34-.24,1.5,1.5,0,0,0-.5-.08,1.6,1.6,0,0,0-.51.08.76.76,0,0,0-.33.25.56.56,0,0,0-.12.36h0a.55.55,0,0,0,.21.44,1.73,1.73,0,0,0,.66.26l.51.11a2.18,2.18,0,0,1,1.07.47,1.14,1.14,0,0,1,.33.86h0a1.25,1.25,0,0,1-.22.75,1.4,1.4,0,0,1-.62.49,2.55,2.55,0,0,1-1,.17A2.66,2.66,0,0,1,381,349.74Z"/>
      <path class="cls-1" d="M384.44,345.09h1.84a1.92,1.92,0,0,1,.83.17,1.29,1.29,0,0,1,.55.51,1.44,1.44,0,0,1,.19.77h0a1.51,1.51,0,0,1-.24.85,1.33,1.33,0,0,1-.68.5l1.06,1.93h-.85l-1-1.81h-1v1.81h-.73Zm1.76,2.31a1,1,0,0,0,.66-.22.85.85,0,0,0,.23-.63h0a.79.79,0,0,0-.24-.61,1,1,0,0,0-.67-.23h-1v1.7Z"/>
      <path class="cls-1" d="M389.69,345.82h0l-1.23.85V346l1.24-.88h.73v4.73h-.72Z"/>
      <path class="cls-1" d="M392.42,349.72a1.56,1.56,0,0,1-.59-.48,1.44,1.44,0,0,1-.25-.7v0h.7v0a.77.77,0,0,0,.17.38.82.82,0,0,0,.34.27,1,1,0,0,0,.47.1,1.12,1.12,0,0,0,.53-.12,1,1,0,0,0,.36-.36,1.08,1.08,0,0,0,.12-.52h0a.94.94,0,0,0-.13-.51.84.84,0,0,0-.35-.35,1,1,0,0,0-.52-.13,1.35,1.35,0,0,0-.41.06,1.09,1.09,0,0,0-.33.19l-.12.13a.56.56,0,0,0-.1.15h-.65l.24-2.73h2.82v.62h-2.23l-.14,1.49h0a1,1,0,0,1,.44-.36,1.39,1.39,0,0,1,.63-.13,1.51,1.51,0,0,1,.8.2,1.45,1.45,0,0,1,.55.55,1.55,1.55,0,0,1,.2.81h0a1.53,1.53,0,0,1-.83,1.42,2,2,0,0,1-1.74,0Z"/>
      <path class="cls-1" d="M398,345.14a1.72,1.72,0,0,1,.6.42,2,2,0,0,1,.41.73,3.21,3.21,0,0,1,.16,1.09h0a3.59,3.59,0,0,1-.23,1.35,1.86,1.86,0,0,1-.65.86,1.71,1.71,0,0,1-1,.3,1.87,1.87,0,0,1-.76-.15,1.56,1.56,0,0,1-.56-.42,1.51,1.51,0,0,1-.31-.62v0h.74v0a.89.89,0,0,0,.19.31.79.79,0,0,0,.3.2,1,1,0,0,0,.4.07.92.92,0,0,0,.66-.24,1.42,1.42,0,0,0,.38-.62,3.3,3.3,0,0,0,.13-.86.2.2,0,0,0,0-.07v-.08l-.15-.78a1,1,0,0,0-.13-.51,1,1,0,0,0-.36-.36,1,1,0,0,0-.51-.13,1,1,0,0,0-.51.13,1,1,0,0,0-.36.35,1,1,0,0,0-.13.5h0a.91.91,0,0,0,.13.5.84.84,0,0,0,.35.35,1.07,1.07,0,0,0,.51.13,1.11,1.11,0,0,0,.52-.13,1,1,0,0,0,.36-.34.93.93,0,0,0,.13-.5h.2v.8h-.07a1.28,1.28,0,0,1-.28.39,1.48,1.48,0,0,1-.44.27,1.59,1.59,0,0,1-.59.1,1.61,1.61,0,0,1-.8-.2,1.48,1.48,0,0,1-.56-.55,1.64,1.64,0,0,1-.2-.8h0a1.56,1.56,0,0,1,.84-1.41,1.86,1.86,0,0,1,.89-.21A1.82,1.82,0,0,1,398,345.14Z"/>
      <path class="cls-1" d="M399.76,349.31l1.67-1.67a4.85,4.85,0,0,0,.48-.53,1.29,1.29,0,0,0,.23-.37,1,1,0,0,0,.06-.35h0a.72.72,0,0,0-.1-.4.78.78,0,0,0-.29-.28,1,1,0,0,0-.43-.1,1,1,0,0,0-.49.12.93.93,0,0,0-.34.31.77.77,0,0,0-.12.43v0h-.69v0a1.4,1.4,0,0,1,.21-.76,1.43,1.43,0,0,1,.6-.51,1.75,1.75,0,0,1,.83-.19,1.86,1.86,0,0,1,.81.17,1.43,1.43,0,0,1,.55.48,1.24,1.24,0,0,1,.2.69h0a1.25,1.25,0,0,1-.1.51,2.25,2.25,0,0,1-.34.54c-.16.19-.38.43-.66.71l-1.33,1.3.25-.47v.47l-.25-.21H403v.62h-3.24Z"/>
    </g>
    <g>
      <path class="cls-1" d="M425,410.7a4.49,4.49,0,0,1-.31-1,6.54,6.54,0,0,1-.1-1.11,6.76,6.76,0,0,1,.1-1.12,4.66,4.66,0,0,1,.31-1,3.86,3.86,0,0,1,.52-.87h.38a2.62,2.62,0,0,0-.35.57,4,4,0,0,0-.27.74,5.84,5.84,0,0,0-.18.83,6.18,6.18,0,0,0-.06.85,6,6,0,0,0,.06.84,5.3,5.3,0,0,0,.18.83,3.79,3.79,0,0,0,.27.74,2.48,2.48,0,0,0,.35.58h-.38A3.4,3.4,0,0,1,425,410.7Z"/>
      <path class="cls-1" d="M426.5,405.6h1.7a1.86,1.86,0,0,1,.81.17,1.26,1.26,0,0,1,.53.49,1.39,1.39,0,0,1,.19.75h0a1.41,1.41,0,0,1-.27.87,1.32,1.32,0,0,1-.76.48l1.17,2.05h-.53l-1.11-2H427v2h-.45Zm1.66,2.43a1.17,1.17,0,0,0,.82-.26,1,1,0,0,0,.29-.75h0a1,1,0,0,0-.3-.75,1.2,1.2,0,0,0-.83-.26H427v2Z"/>
      <path class="cls-1" d="M430.52,410.36a.29.29,0,0,1-.09-.22.31.31,0,0,1,.09-.22.34.34,0,0,1,.44,0,.31.31,0,0,1,.09.22.31.31,0,0,1-.53.22Z"/>
      <path class="cls-1" d="M432.86,405.6h.52l1.79,4.24h0L437,405.6h.52v4.81h-.42v-4h-.22l.51-.75-2,4.71H435l-2-4.71.51.75h-.22v4h-.42Z"/>
      <path class="cls-1" d="M438.66,410.34a1,1,0,0,1-.41-.36,1,1,0,0,1-.14-.53h0a.86.86,0,0,1,.32-.7,1.6,1.6,0,0,1,.92-.29l1.3-.09v.34l-1.24.09a1.07,1.07,0,0,0-.63.2.53.53,0,0,0-.23.45h0a.56.56,0,0,0,.23.46.84.84,0,0,0,.56.18,1.28,1.28,0,0,0,.56-.13,1.1,1.1,0,0,0,.39-.35,1,1,0,0,0,.14-.5v-1a.76.76,0,0,0-.22-.59.86.86,0,0,0-.64-.22,1,1,0,0,0-.61.17.75.75,0,0,0-.3.47v0h-.42v0a1.11,1.11,0,0,1,.2-.53,1.19,1.19,0,0,1,.46-.36,1.59,1.59,0,0,1,.68-.13,1.63,1.63,0,0,1,.69.14,1,1,0,0,1,.44.4,1.13,1.13,0,0,1,.16.61v2.38h-.44v-.64h0a1.07,1.07,0,0,1-.27.37,1.2,1.2,0,0,1-.41.24,1.28,1.28,0,0,1-.48.09A1.26,1.26,0,0,1,438.66,410.34Z"/>
      <path class="cls-1" d="M441.72,411.57h-.11v-.37h.15a.82.82,0,0,0,.47-.12.92.92,0,0,0,.28-.43l.08-.23-1.3-3.49h.47l1.09,3.15-.11-.12h.16l-.11.12,1.09-3.15h.47L443,410.69a2.56,2.56,0,0,1-.26.5,1,1,0,0,1-.35.29,1.24,1.24,0,0,1-.5.1Z"/>
      <path class="cls-1" d="M445.24,410.25a1.39,1.39,0,0,1-.55-.62,2.25,2.25,0,0,1-.19-.94h0a2.33,2.33,0,0,1,.19-.95,1.52,1.52,0,0,1,.54-.63,1.45,1.45,0,0,1,.81-.22,1.47,1.47,0,0,1,.8.21,1.5,1.5,0,0,1,.53.61,2.14,2.14,0,0,1,.18.91v.17h-2.83v-.35h2.62l-.22.32v-.17a1.74,1.74,0,0,0-.14-.72,1,1,0,0,0-.38-.44,1,1,0,0,0-.56-.15,1,1,0,0,0-.56.16,1,1,0,0,0-.39.44,1.58,1.58,0,0,0-.14.71v.17a1.6,1.6,0,0,0,.14.72.93.93,0,0,0,.4.45,1.08,1.08,0,0,0,.6.16,1.25,1.25,0,0,0,.45-.08.91.91,0,0,0,.34-.22,1.09,1.09,0,0,0,.19-.33v0h.43v0a1.05,1.05,0,0,1-.17.41,1.55,1.55,0,0,1-.3.33,1.56,1.56,0,0,1-.43.21,1.72,1.72,0,0,1-.52.07A1.5,1.5,0,0,1,445.24,410.25Z"/>
      <path class="cls-1" d="M448.14,406.94h.44v.63h0a1.07,1.07,0,0,1,.32-.51.84.84,0,0,1,.54-.18h.16l.11,0v.43l-.13,0h-.2a.75.75,0,0,0-.43.12.83.83,0,0,0-.28.33,1.36,1.36,0,0,0-.1.51v2.15h-.44Z"/>
      <path class="cls-1" d="M450.68,410.34a1.23,1.23,0,0,1-.47-.36,1.14,1.14,0,0,1-.2-.54v0h.44v0a.72.72,0,0,0,.29.48,1,1,0,0,0,.62.18,1.53,1.53,0,0,0,.46-.07.62.62,0,0,0,.3-.22.5.5,0,0,0,.1-.31h0a.45.45,0,0,0-.14-.36,1,1,0,0,0-.49-.21l-.52-.13a1.6,1.6,0,0,1-.73-.34.75.75,0,0,1-.24-.58h0a.91.91,0,0,1,.16-.51,1.09,1.09,0,0,1,.44-.34,1.64,1.64,0,0,1,1.28,0,1.2,1.2,0,0,1,.44.36,1,1,0,0,1,.18.54v0h-.42v0a.7.7,0,0,0-.26-.49.89.89,0,0,0-.58-.18,1.08,1.08,0,0,0-.42.08.64.64,0,0,0-.27.21.48.48,0,0,0-.1.31h0a.45.45,0,0,0,.15.35,1.23,1.23,0,0,0,.5.22l.52.12a1.55,1.55,0,0,1,.73.34.78.78,0,0,1,.22.58h0a.81.81,0,0,1-.17.52,1,1,0,0,1-.46.35,1.62,1.62,0,0,1-.68.13A1.59,1.59,0,0,1,450.68,410.34Z"/>
      <path class="cls-1" d="M453.38,409.78h.46l-.43,1.56h-.32Z"/>
      <path class="cls-1" d="M455.56,410.08l2.89-4.06h-2.79v-.41H459v.33L456.14,410h2.92v.41h-3.5Z"/>
      <path class="cls-1" d="M459.85,410.36a.29.29,0,0,1-.09-.22.31.31,0,0,1,.09-.22.34.34,0,0,1,.44,0,.3.3,0,0,1,.08.22.29.29,0,0,1-.08.22.31.31,0,0,1-.44,0Z"/>
      <path class="cls-1" d="M462.19,405.6h.52l1.78,4.24h0l1.79-4.24h.52v4.81h-.42v-4h-.22l.51-.75-2,4.71h-.39l-2-4.71.51.75h-.22v4h-.42Z"/>
      <path class="cls-1" d="M468,410.34a.9.9,0,0,1-.41-.36.93.93,0,0,1-.14-.53h0a.84.84,0,0,1,.32-.7,1.6,1.6,0,0,1,.92-.29l1.3-.09v.34l-1.25.09a1.12,1.12,0,0,0-.63.2.55.55,0,0,0-.22.45h0a.58.58,0,0,0,.22.46.88.88,0,0,0,.57.18,1.21,1.21,0,0,0,.55-.13,1,1,0,0,0,.4-.35,1,1,0,0,0,.14-.5v-1a.73.73,0,0,0-.23-.59.85.85,0,0,0-.63-.22,1,1,0,0,0-.61.17.75.75,0,0,0-.3.47v0h-.43v0a1.11,1.11,0,0,1,.2-.53,1.19,1.19,0,0,1,.46-.36,1.78,1.78,0,0,1,1.36,0,1,1,0,0,1,.45.4,1.13,1.13,0,0,1,.16.61v2.38h-.44v-.64h0a1.07,1.07,0,0,1-.27.37,1.2,1.2,0,0,1-.41.24,1.28,1.28,0,0,1-.48.09A1.26,1.26,0,0,1,468,410.34Z"/>
      <path class="cls-1" d="M471.05,411.57h-.12v-.37h.16a.76.76,0,0,0,.46-.12.85.85,0,0,0,.29-.43l.08-.23-1.31-3.49h.48l1.09,3.15-.11-.12h.16l-.12.12,1.1-3.15h.46l-1.39,3.75a1.8,1.8,0,0,1-.26.5.85.85,0,0,1-.34.29,1.27,1.27,0,0,1-.5.1Z"/>
      <path class="cls-1" d="M474.57,410.25a1.39,1.39,0,0,1-.55-.62,2.1,2.1,0,0,1-.19-.94h0a2.18,2.18,0,0,1,.19-.95,1.52,1.52,0,0,1,.54-.63,1.45,1.45,0,0,1,.81-.22,1.47,1.47,0,0,1,.8.21,1.5,1.5,0,0,1,.53.61,2.14,2.14,0,0,1,.18.91v.17h-2.83v-.35h2.62l-.23.32v-.17a1.75,1.75,0,0,0-.13-.72,1.1,1.1,0,0,0-.38-.44,1.07,1.07,0,0,0-.56-.15,1,1,0,0,0-.95.6,1.58,1.58,0,0,0-.15.71v.17a1.59,1.59,0,0,0,.15.72,1,1,0,0,0,.39.45,1.13,1.13,0,0,0,.61.16,1.25,1.25,0,0,0,.45-.08.87.87,0,0,0,.33-.22.79.79,0,0,0,.19-.33v0h.44v0a1.23,1.23,0,0,1-.17.41,1.31,1.31,0,0,1-.73.54,1.77,1.77,0,0,1-.52.07A1.5,1.5,0,0,1,474.57,410.25Z"/>
      <path class="cls-1" d="M477.47,406.94h.44v.63h0a1,1,0,0,1,.32-.51.8.8,0,0,1,.54-.18h.16l.11,0v.43l-.13,0h-.2a.75.75,0,0,0-.43.12.83.83,0,0,0-.28.33,1.19,1.19,0,0,0-.1.51v2.15h-.44Z"/>
      <path class="cls-1" d="M480,410.34a1.23,1.23,0,0,1-.47-.36,1.27,1.27,0,0,1-.21-.54v0h.44v0a.72.72,0,0,0,.29.48,1,1,0,0,0,.62.18,1.53,1.53,0,0,0,.46-.07.62.62,0,0,0,.3-.22.5.5,0,0,0,.1-.31h0a.45.45,0,0,0-.14-.36,1,1,0,0,0-.49-.21l-.52-.13a1.6,1.6,0,0,1-.73-.34.75.75,0,0,1-.24-.58h0a.91.91,0,0,1,.16-.51A1.09,1.09,0,0,1,480,407a1.64,1.64,0,0,1,1.28,0,1.2,1.2,0,0,1,.44.36,1,1,0,0,1,.18.54v0h-.42v0a.7.7,0,0,0-.26-.49.89.89,0,0,0-.58-.18,1.08,1.08,0,0,0-.42.08.58.58,0,0,0-.27.21.48.48,0,0,0-.1.31h0a.45.45,0,0,0,.15.35,1.23,1.23,0,0,0,.5.22l.52.12a1.55,1.55,0,0,1,.73.34.78.78,0,0,1,.22.58h0a.81.81,0,0,1-.17.52,1.09,1.09,0,0,1-.46.35,1.62,1.62,0,0,1-.68.13A1.59,1.59,0,0,1,480,410.34Z"/>
      <path class="cls-1" d="M482.36,411.58a2.86,2.86,0,0,0,.34-.58,4.56,4.56,0,0,0,.28-.74,7.17,7.17,0,0,0,.17-.83,6,6,0,0,0,.06-.84,6.18,6.18,0,0,0-.06-.85,7.63,7.63,0,0,0-.17-.83,5,5,0,0,0-.28-.74,3.07,3.07,0,0,0-.34-.57h.38a4.26,4.26,0,0,1,.52.87,5.28,5.28,0,0,1,.3,1,6.76,6.76,0,0,1,.1,1.12,6.54,6.54,0,0,1-.1,1.11,5.38,5.38,0,0,1-.3,1,4.26,4.26,0,0,1-.52.87Z"/>
    </g>
    <g>
      <rect class="cls-16" x="426.82" y="279.27" width="54.62" height="19.76" rx="2.75"/>
      <rect class="cls-16" x="426.82" y="276.48" width="54.62" height="25.35" rx="2.75"/>
      <path class="cls-16" d="M429.57,273.7h49.12a2.74,2.74,0,0,1,2.74,2.74v25.42a2.74,2.74,0,0,1-2.74,2.74H429.57a2.74,2.74,0,0,1-2.74-2.74V276.44A2.75,2.75,0,0,1,429.57,273.7Z"/>
      <path class="cls-17" d="M429.57,304.61h-2.79a2.75,2.75,0,0,1-2.75-2.75V276.44a2.75,2.75,0,0,1,2.75-2.74h2.79a2.75,2.75,0,0,0-2.75,2.74v25.42A2.75,2.75,0,0,0,429.57,304.61Z"/>
      <path class="cls-17" d="M484.23,276.44v25.42a2.75,2.75,0,0,1-2.75,2.75h-2.79a2.75,2.75,0,0,0,2.75-2.75V276.44a2.75,2.75,0,0,0-2.75-2.74h2.79A2.75,2.75,0,0,1,484.23,276.44Z"/>
      <path class="cls-16" d="M429.57,273.7h49.12a2.74,2.74,0,0,1,2.74,2.74v25.42a2.74,2.74,0,0,1-2.74,2.74H429.57a2.74,2.74,0,0,1-2.74-2.74V276.44A2.75,2.75,0,0,1,429.57,273.7Z"/>
      <text class="cls-18" transform="translate(429.26 287.72)">BOO<tspan class="cls-19" x="18.04" y="0">KS</tspan><tspan x="29" y="0">HELF</tspan><tspan class="cls-20"><tspan x="2.13" y="8.64">RECORDS</tspan></tspan></text>
    </g>
    <path class="cls-15" d="M496.82,272a89.15,89.15,0,0,0-132.5,78c0,.78,0,1.56,0,2.33a89.18,89.18,0,0,0,178.3,0c0-.77,0-1.55,0-2.33A89.16,89.16,0,0,0,496.82,272ZM448.64,389.32l-.35,0-.81-.12a39.42,39.42,0,0,1-12.85-4.32l-.84-.47a40.91,40.91,0,0,1-4-2.64c-.49-.37-1-.75-1.44-1.13a39.78,39.78,0,0,1-4.78-4.67l-.61-.72-.6-.74c-.2-.25-.39-.51-.58-.76s-.38-.51-.56-.77-.37-.52-.54-.78-.36-.54-.53-.81-.34-.53-.5-.8-.33-.55-.49-.82-.42-.75-.63-1.14-.48-.93-.71-1.41c-.14-.28-.28-.57-.41-.87-.4-.88-.76-1.77-1.09-2.68a35.68,35.68,0,0,1-1.16-3.72c-.16-.63-.31-1.27-.44-1.92a37.24,37.24,0,0,1-.58-3.71c0-.32-.07-.65-.09-1s0-.65-.07-1,0-.77,0-1.16,0-.78,0-1.17a39.61,39.61,0,1,1,79.22,0c0,.39,0,.78,0,1.17l0,.87q-.06,1-.15,2-.21,2-.6,3.93c-.2,1-.43,1.9-.69,2.83a0,0,0,0,0,0,0c-.26.9-.54,1.78-.85,2.65a.69.69,0,0,0-.05.13c-.2.55-.41,1.08-.63,1.61-.15.36-.31.72-.47,1.07l-.4.87c-.14.29-.29.58-.43.86l-.45.85a38.72,38.72,0,0,1-2.06,3.39c-.34.48-.68,1-1,1.43-.19.25-.38.51-.58.76a39.6,39.6,0,0,1-6.19,6.29c-.4.33-.82.66-1.24,1a39.62,39.62,0,0,1-4,2.64l-.83.47q-1.54.84-3.15,1.53l-.72.31-1.1.43-.75.27c-.3.1-.59.21-.89.3l-.9.28c-.27.09-.55.17-.83.24-.65.18-1.31.34-2,.49l-.87.18c-.55.11-1.11.21-1.67.29l-.81.12-.35,0-1,.11a40.22,40.22,0,0,1-7.81,0Z"/>
  </g>
</svg>
