<svg id="Layer_1" data-name="Layer 1" xmlns="http://www.w3.org/2000/svg" viewBox="0 0 700 700">
  <defs>
    <style>
      .cls-1 {
        fill: #636b6f;
      }

      .cls-2 {
        fill: #515556;
      }

      .cls-3 {
        fill: #0a95d3;
      }

      .cls-4 {
        fill: #0376aa;
      }

      .cls-5 {
        fill: #127dbc;
      }

      .cls-6 {
        fill: #086a8f;
      }

      .cls-7 {
        fill: #c1c9d5;
      }

      .cls-8 {
        fill: #e7ddee;
      }

      .cls-9 {
        fill: #f9cde0;
      }

      .cls-10 {
        fill: #fff2d0;
      }

      .cls-11 {
        fill: #dfefd9;
      }

      .cls-12 {
        fill: #cee0f3;
      }

      .cls-13 {
        fill: none;
        stroke: #bcc3c4;
        stroke-miterlimit: 10;
        stroke-width: 3px;
      }
    </style>
  </defs>
  <g>
    <path class="cls-1" d="M262.51,638.22V162.88H628a7.51,7.51,0,0,1,7.5,7.5V630.72a7.51,7.51,0,0,1-7.5,7.5Z"/>
    <path class="cls-2" d="M628,165.38a5,5,0,0,1,5,5V630.72a5,5,0,0,1-5,5H265V165.38H628m0-5H260V640.72H628a10,10,0,0,0,10-10V170.38a10,10,0,0,0-10-10Z"/>
  </g>
  <g>
    <path class="cls-3" d="M262.51,638.22v-420h373V630.72a7.51,7.51,0,0,1-7.5,7.5Z"/>
    <path class="cls-4" d="M633,220.75v410a5,5,0,0,1-5,5H265v-415H633m5-5H260v425H628a10,10,0,0,0,10-10v-415Z"/>
  </g>
  <g>
    <path class="cls-5" d="M262.51,217.93V162.88H628a7.51,7.51,0,0,1,7.5,7.5v47.55Z"/>
    <path class="cls-4" d="M628,165.38a5,5,0,0,1,5,5v45.05H265V165.38H628m0-5H260v60.05H638V170.38a10,10,0,0,0-10-10Z"/>
  </g>
  <path class="cls-6" d="M240,160.38V640.72L66.81,535.63A11.11,11.11,0,0,1,62,527.06V70c0-6.8,3.37-10.73,8.26-10.73a13.59,13.59,0,0,1,6.88,2.19l5.65,3.43,1.5.91Z"/>
  <path class="cls-4" d="M84.25,59.28V70H62c0-6.8,3.37-10.73,8.26-10.73Z"/>
  <path class="cls-4" d="M86.81,527.06v8.57h-20A11.11,11.11,0,0,1,62,527.06Z"/>
  <polygon class="cls-6" points="260.01 160.38 260.01 640.72 240.01 640.72 240.01 151.88 254.01 160.38 260.01 160.38"/>
  <g>
    <path class="cls-5" d="M83.78,524.94l0,0a8.72,8.72,0,0,1-3.64-6.42L78.46,70c0-5.17,2.15-8.25,5.76-8.25a11.22,11.22,0,0,1,5.59,1.83l147.7,89.67V627.55Z"/>
    <path class="cls-4" d="M84.22,64.29h0a9,9,0,0,1,4.29,1.46L235,154.7V622.88L85.22,522.9l-.1-.07-.11-.06a6.35,6.35,0,0,1-2.42-4.3L81,70c0-2.15.42-5.75,3.26-5.75m0-5C79.32,59.29,76,63.22,76,70l1.63,448.45a11.11,11.11,0,0,0,4.85,8.57L240,632.23V151.88L91.1,61.47a13.63,13.63,0,0,0-6.88-2.18Z"/>
  </g>
  <circle class="cls-5" cx="449.02" cy="428.23" r="168.01"/>
  <path class="cls-7" d="M449,270.29a158.59,158.59,0,0,0-39.48,5q-5.57,1.46-11,3.26-2.59.87-5.14,1.83c-2.12.8-4.23,1.64-6.31,2.53-1.25.53-2.48,1.07-3.7,1.64A158.06,158.06,0,0,0,291.2,421.94q-.12,3.13-.12,6.3a158.1,158.1,0,0,0,197.43,153q5.57-1.46,11-3.26,2.58-.87,5.13-1.83c2.13-.79,4.23-1.64,6.31-2.53,1.24-.53,2.48-1.07,3.7-1.64a158,158,0,0,0,33.91-21.05,157.92,157.92,0,0,0,58.33-116.38q.12-3.13.12-6.29A158,158,0,0,0,449,270.29Zm38.72,159.49a38.72,38.72,0,0,1-14.31,28.55,39.08,39.08,0,0,1-8.31,5.16h0l-.91.41c-.5.22-1,.42-1.55.62l-1.25.45c-.88.3-1.78.56-2.69.79a38.74,38.74,0,0,1-48.43-37.52c0-.52,0-1,0-1.54a38.56,38.56,0,0,1,8.18-22.31,39.32,39.32,0,0,1,6.13-6.24,36,36,0,0,1,3.72-2.67,37.63,37.63,0,0,1,4.59-2.49l.91-.41h0c.51-.22,1-.42,1.54-.61h0c.41-.16.83-.31,1.25-.45.89-.3,1.78-.57,2.68-.8h0a38.74,38.74,0,0,1,48.43,37.52C487.77,428.75,487.76,429.26,487.74,429.78Z"/>
  <path class="cls-8" d="M433.65,409.28a24.38,24.38,0,0,0-3.87,3.93l-11.29-8.82-94-73.38a159.09,159.09,0,0,1,25-25.44l75.1,92.58Z"/>
  <path class="cls-9" d="M442.92,404.6c-.57.15-1.13.31-1.69.5l-4.58-13.59-38.07-113q5.4-1.81,10.95-3.26l29.8,115.45h0Z"/>
  <path class="cls-10" d="M440.44,405.39a10.52,10.52,0,0,0-1,.39l-5.62-13.2-46.7-109.71q3.12-1.33,6.31-2.52L435.39,392h0Z"/>
  <path class="cls-11" d="M438.89,406a25.2,25.2,0,0,0-2.9,1.56l-7.65-12.12L364.7,294.66a157.12,157.12,0,0,1,18.73-10.15L432.93,393Z"/>
  <path class="cls-12" d="M429.78,413.21a24.34,24.34,0,0,0-5.15,14.05l-14.32-.57L291.2,421.94A157.23,157.23,0,0,1,324.53,331l94,73.38Z"/>
  <path class="cls-8" d="M573.5,525.46a157.79,157.79,0,0,1-25,25.44l-75.09-92.57-9-11.14a24.33,24.33,0,0,0,3.86-3.93l11.3,8.83Z"/>
  <path class="cls-9" d="M499.46,578c-3.59,1.22-7.25,2.3-10.95,3.27l-29.8-115.46-3.58-13.88c.56-.15,1.13-.32,1.69-.51L461.39,465Z"/>
  <path class="cls-10" d="M510.91,573.6c-2.08.88-4.18,1.73-6.31,2.52l-42-111.61-5-13.42c.33-.12.65-.25,1-.39l5.62,13.2Z"/>
  <path class="cls-11" d="M533.35,561.81A158,158,0,0,1,514.61,572l-49.5-108.47-5.95-13a23.75,23.75,0,0,0,2.89-1.58L469.71,461Z"/>
  <path class="cls-12" d="M606.85,434.53a157.15,157.15,0,0,1-33.35,90.93l-93.94-73.37-11.3-8.83a24.21,24.21,0,0,0,5.15-14.05l14.33.56Z"/>
  <g>
    <path class="cls-3" d="M449,474.84a46.65,46.65,0,0,1-46.59-46.61c0-.6,0-1.18,0-1.78v-.16a46.11,46.11,0,0,1,9.84-26.73,46.77,46.77,0,0,1,7.37-7.52,46.19,46.19,0,0,1,4.09-3l.39-.24a44.91,44.91,0,0,1,5.51-3l.89-.41.21-.08c.61-.26,1.21-.5,1.85-.74s1-.36,1.52-.53c.95-.33,1.92-.63,3-.91l.24-.06a46.62,46.62,0,0,1,58.24,45.12c0,.59,0,1.16,0,1.74v.14a46.32,46.32,0,0,1-9.83,26.81,46.44,46.44,0,0,1-11.85,10.71,44.84,44.84,0,0,1-5.37,2.93l-.82.37-.45.19c-.61.26-1.2.51-1.82.73s-1,.38-1.49.53c-1,.35-2,.64-3.06.93l-.23.06A47,47,0,0,1,449,474.84Zm-7-67.45-.78.27c-.35.13-.61.23-.87.35l-.12.05-.48.21a20.74,20.74,0,0,0-2.54,1.39c-.64.41-1.3.88-2.07,1.48a22.26,22.26,0,0,0-3.5,3.57,21.67,21.67,0,0,0-4.64,12.65v.88a22,22,0,0,0,22,22,22.36,22.36,0,0,0,5.17-.61h0l.32-.09c.51-.13,1-.28,1.51-.45.22-.07.48-.16.75-.27s.56-.21.83-.33l.12-.05c.17-.08.33-.14.48-.22a21.19,21.19,0,0,0,2.54-1.38,19.88,19.88,0,0,0,2.11-1.52,22.66,22.66,0,0,0,3.46-3.52A21.84,21.84,0,0,0,471,429.11l0-.87a22,22,0,0,0-22-22,22.46,22.46,0,0,0-5.5.68C443,407.1,442.52,407.23,442.06,407.39Z"/>
    <path class="cls-4" d="M449,384.14a44.15,44.15,0,0,1,44.1,44.09c0,.58,0,1.15,0,1.73V430h0a43.83,43.83,0,0,1-9.3,25.33,44.25,44.25,0,0,1-11.23,10.15,42.27,42.27,0,0,1-5,2.73l-.14.06-.53.24-.05,0-.56.24c-.54.24-1.12.48-1.67.68l-.05,0-.06,0c-.47.18-.9.33-1.29.46l-.08,0-.07,0c-.8.28-1.65.54-2.57.79l-.44.11a44.09,44.09,0,0,1-55.11-42.71c0-.58,0-1.13,0-1.71v-.08h0a43.78,43.78,0,0,1,9.32-25.34,44.67,44.67,0,0,1,7-7.11,42.2,42.2,0,0,1,3.62-2.65l.62-.39a43.61,43.61,0,0,1,5.17-2.81l.62-.28.16-.07.29-.13c.67-.28,1.22-.5,1.74-.69s1-.35,1.45-.51H435c.76-.27,1.57-.52,2.46-.76l.55-.14a43.92,43.92,0,0,1,11-1.39M441.32,405a9.63,9.63,0,0,0-1,.34c-.3.11-.61.23-.91.36h0l0,0-.09,0-.5.22a25.13,25.13,0,0,0-2.84,1.55,24.2,24.2,0,0,0-2.29,1.64l0,0,0,0a24.64,24.64,0,0,0-3.85,3.93,24.26,24.26,0,0,0-5.18,14.11v.2c0,.09,0,.18,0,.28v.49A24.5,24.5,0,0,0,449,452.72a25,25,0,0,0,5.46-.61h.07l.63-.17c.62-.17,1.13-.32,1.62-.48.28-.09.58-.2.92-.33s.59-.23.88-.36h.06l.09,0,.51-.23a22.56,22.56,0,0,0,2.82-1.53,23,23,0,0,0,2.36-1.69,25.52,25.52,0,0,0,3.88-3.95,24.29,24.29,0,0,0,5.17-14.1v-.48c0-.17,0-.33,0-.49a24.55,24.55,0,0,0-30.61-23.72l-.07,0-.07,0c-.44.13-.93.27-1.44.44m7.7-25.86a49.09,49.09,0,0,0-12.26,1.55h0c-1.15.3-2.27.63-3.39,1-.54.18-1.06.36-1.6.56s-1.31.51-1.95.78h0l-1.15.52a48.58,48.58,0,0,0-5.81,3.15h0a48.07,48.07,0,0,0-4.71,3.39,49.62,49.62,0,0,0-7.76,7.91A48.87,48.87,0,0,0,400,426.28h0c0,.66,0,1.29,0,1.94a49.12,49.12,0,0,0,61.36,47.56h0c1.16-.3,2.28-.63,3.4-1,.54-.17,1.07-.36,1.59-.56s1.31-.51,2-.79h0c.39-.16.76-.34,1.15-.51h0a48.13,48.13,0,0,0,5.82-3.16,48.72,48.72,0,0,0,4.71-3.38,49.05,49.05,0,0,0,18.13-36.17h0c0-.66,0-1.3,0-2A49.11,49.11,0,0,0,449,379.14Zm0,68.58a19.48,19.48,0,0,1-19.47-19.48c0-.26,0-.52,0-.77h0a19.6,19.6,0,0,1,7.19-14.35,22,22,0,0,1,1.87-1.34,19.3,19.3,0,0,1,2.32-1.26l.45-.2.78-.31c.21-.08.42-.16.64-.22.44-.15.89-.28,1.34-.41a19.52,19.52,0,0,1,24.36,18.87c0,.26,0,.52,0,.77a19.41,19.41,0,0,1-4.12,11.22,19.9,19.9,0,0,1-3.08,3.14,17.75,17.75,0,0,1-1.87,1.35,19.89,19.89,0,0,1-2.32,1.25l-.45.2-.78.31c-.21.09-.42.16-.64.23-.44.15-.89.28-1.34.4h0a19.51,19.51,0,0,1-4.87.61Z"/>
  </g>
  <circle class="cls-6" cx="449.02" cy="428.23" r="14.63"/>
  <circle class="cls-13" cx="449.02" cy="428.23" r="155.08"/>
  <g>
    <path class="cls-3" d="M91.27,541.46c-7.55-4.46-12.81-18.28-12.81-27.91v-393l159.05,94V627.85Z"/>
    <path class="cls-4" d="M81,124.9l154.05,91V623.46L92.54,539.31C85.91,535.39,81,522.48,81,513.56V124.9m-5-8.76V513.56c0,9.91,5.32,24.91,14,30.05l150,88.62V213L76,116.14Z"/>
  </g>
</svg>
