<svg id="Layer_1" data-name="Layer 1" xmlns="http://www.w3.org/2000/svg" viewBox="0 0 700 700">
  <defs>
    <style>
      .cls-1 {
        fill: #127dbc;
      }

      .cls-2 {
        fill: #0376aa;
      }

      .cls-3 {
        fill: #0a95d3;
      }

      .cls-4 {
        fill: #636b6f;
      }

      .cls-5 {
        fill: #515556;
      }

      .cls-6 {
        fill: #785836;
      }

      .cls-7 {
        fill: #3a2a1b;
      }

      .cls-10, .cls-8 {
        font-size: 33.61px;
      }

      .cls-8 {
        fill: #bdac68;
      }

      .cls-10, .cls-48, .cls-8 {
        font-family: Marion-Bold, Marion;
      }

      .cls-10, .cls-48, .cls-53, .cls-8 {
        font-weight: 700;
      }

      .cls-9 {
        letter-spacing: -0.09em;
      }

      .cls-10, .cls-27 {
        fill: #ddcc78;
      }

      .cls-11 {
        letter-spacing: -0.09em;
      }

      .cls-12 {
        fill: #db5853;
      }

      .cls-13 {
        fill: #3553a5;
      }

      .cls-14 {
        fill: #6a515b;
      }

      .cls-15 {
        fill: #da5885;
      }

      .cls-16 {
        fill: #e5bb6c;
      }

      .cls-17 {
        fill: #444f8a;
      }

      .cls-18 {
        fill: #9ea121;
      }

      .cls-19 {
        fill: #e19a63;
      }

      .cls-20 {
        fill: #182e17;
      }

      .cls-21 {
        fill: #db596f;
      }

      .cls-22 {
        fill: #923749;
      }

      .cls-23 {
        fill: #dd6d58;
      }

      .cls-24 {
        fill: #316b22;
      }

      .cls-25 {
        fill: #c06c77;
      }

      .cls-26, .cls-48, .cls-52, .cls-53 {
        fill: #ddd;
      }

      .cls-28 {
        fill: #2a4186;
      }

      .cls-29 {
        fill: #5a4a24;
      }

      .cls-30 {
        fill: #955388;
      }

      .cls-31 {
        fill: #88b4be;
      }

      .cls-32 {
        fill: #8e7ab5;
      }

      .cls-33 {
        fill: #ba9133;
      }

      .cls-34 {
        fill: #632423;
      }

      .cls-35 {
        fill: #c18555;
      }

      .cls-36 {
        fill: #e2b191;
      }

      .cls-37 {
        fill: #279dd8;
      }

      .cls-38 {
        fill: #0c95d3;
      }

      .cls-39 {
        fill: #d4d3c5;
      }

      .cls-40 {
        fill: #e7ddee;
      }

      .cls-41 {
        fill: #f9cde0;
      }

      .cls-42 {
        fill: #fff2d0;
      }

      .cls-43 {
        fill: #dfefd9;
      }

      .cls-44 {
        fill: #cee0f3;
      }

      .cls-45 {
        fill: #d2eef8;
      }

      .cls-46, .cls-51 {
        fill: none;
      }

      .cls-46 {
        stroke: #bcc3c4;
        stroke-width: 3px;
      }

      .cls-46, .cls-51, .cls-52 {
        stroke-miterlimit: 10;
      }

      .cls-47 {
        fill: #969696;
      }

      .cls-48 {
        font-size: 22px;
      }

      .cls-49 {
        letter-spacing: -0.09em;
      }

      .cls-50 {
        letter-spacing: 0em;
      }

      .cls-51, .cls-52 {
        stroke: #ddd;
        stroke-width: 1.05px;
      }

      .cls-53 {
        font-size: 7.09px;
        font-family: Baskerville-Bold, Baskerville;
        letter-spacing: 0.05em;
      }

      .cls-54 {
        letter-spacing: 0.1em;
      }

      .cls-55 {
        letter-spacing: 0.05em;
      }

      .cls-56 {
        letter-spacing: 0.2em;
      }
    </style>
  </defs>
  <g>
    <g>
      <path class="cls-1" d="M449.13,135.93c-7,0-15.31-2.67-19.06-4l7.13-27.15c15.75.51,22.5,7.38,22.5,22.7C459.7,131.4,458.5,135.93,449.13,135.93Z"/>
      <path class="cls-2" d="M439.11,107.35c12.95.9,18.09,6.78,18.09,20.1,0,3-.63,6-8.07,6-5.53,0-12-1.78-16.06-3.13l6-23m-3.83-5.13-8.2,31.22s12.06,5,22.05,5c7.05,0,13.07-2.49,13.07-11,0-20.53-12.06-25.23-26.92-25.23Z"/>
    </g>
    <g>
      <path class="cls-1" d="M70.68,109.9c0-2.56.65-5.18,5.44-5.18h47L70.68,142.58Z"/>
      <path class="cls-2" d="M115.38,107.22l-42.2,30.47V109.9c0-.52.06-1.78.55-2.17a3.93,3.93,0,0,1,2.39-.51h39.26m15.47-5H76.12c-4.07,0-7.94,1.68-7.94,7.68v37.57l62.67-45.25Z"/>
    </g>
    <g>
      <path class="cls-3" d="M94.17,595.28c-7.84,0-13.86-2.1-17.89-6.24-4.54-4.67-5.4-10.82-5.56-13.26l12.42-10.43c14.34,14,19.16,24.53,17.93,27.61C100.26,595,96.4,595.28,94.17,595.28Z"/>
      <path class="cls-2" d="M83,568.76c2.13,2.21,5.05,5.36,7.83,8.8,8.28,10.27,8,14,8,14.42-.21.16-1.3.8-4.58.8-7.12,0-12.52-1.84-16.06-5.45a18.48,18.48,0,0,1-4.78-10.48L83,568.76m.3-6.77L68.18,574.64s-.79,23.14,26,23.14S83.26,562,83.26,562Z"/>
    </g>
    <g>
      <rect class="cls-4" x="86.67" y="119.95" width="373.03" height="475.33" rx="7.5"/>
      <path class="cls-5" d="M452.2,122.45a5,5,0,0,1,5,5V587.78a5,5,0,0,1-5,5h-358a5,5,0,0,1-5-5V127.45a5,5,0,0,1,5-5h358m0-5h-358a10,10,0,0,0-10,10V587.78a10,10,0,0,0,10,10h358a10,10,0,0,0,10-10V127.45a10,10,0,0,0-10-10Z"/>
    </g>
    <g>
      <path class="cls-3" d="M94.17,595.28a7.51,7.51,0,0,1-7.5-7.5V175.31h373V587.78a7.52,7.52,0,0,1-7.5,7.5Z"/>
      <path class="cls-2" d="M457.2,177.81v410a5,5,0,0,1-5,5h-358a5,5,0,0,1-5-5v-410h368m5-5h-378v415a10,10,0,0,0,10,10h358a10,10,0,0,0,10-10v-415Z"/>
    </g>
    <g>
      <path class="cls-1" d="M86.67,175V127.45a7.5,7.5,0,0,1,7.5-7.5h358a7.51,7.51,0,0,1,7.5,7.5V175Z"/>
      <path class="cls-2" d="M452.2,122.45a5,5,0,0,1,5,5v45h-368v-45a5,5,0,0,1,5-5h358m0-5h-358a10,10,0,0,0-10,10v50h378v-50a10,10,0,0,0-10-10Z"/>
    </g>
    <g>
      <polygon class="cls-3" points="70.68 573.37 70.68 162.5 86.57 174.08 86.57 584.95 70.68 573.37"/>
      <path class="cls-2" d="M73.18,167.42l10.89,7.93V580L73.18,572.1V167.42m-5-9.83V574.64l20.89,15.22v-417L68.18,157.59Z"/>
    </g>
    <g>
      <polygon class="cls-1" points="70.68 160.99 70.68 114.75 86.57 126.33 86.57 172.57 70.68 160.99"/>
      <path class="cls-2" d="M73.18,119.67l10.89,7.93v40.06l-10.89-7.94v-40m-5-9.84v52.43l20.89,15.23V125.06L68.18,109.83Z"/>
    </g>
    <g>
      <polygon class="cls-1" points="95.03 114.95 82.94 104.72 434.37 104.72 446.46 114.95 95.03 114.95"/>
      <path class="cls-2" d="M433.45,107.22l6.18,5.23H96l-6.18-5.23H433.45m1.83-5H76.12l18,15.23H453.29l-18-15.23Z"/>
    </g>
    <g>
      <path class="cls-6" d="M95.66,592.68a6.18,6.18,0,0,1-6.18-6.18V179.71H455.22V586.5a6.18,6.18,0,0,1-6.18,6.18Z"/>
      <path class="cls-7" d="M453,181.94V586.5a4,4,0,0,1-3.95,4H95.66a4,4,0,0,1-4-4V181.94H453m4.45-4.45H87.25v409a8.42,8.42,0,0,0,8.41,8.41H449a8.41,8.41,0,0,0,8.4-8.41v-409Z"/>
    </g>
    <g>
      <rect class="cls-6" x="89.48" y="314.22" width="365.74" height="143.96"/>
      <path class="cls-7" d="M453,316.45V456H91.71V316.45H453m4.45-4.46H87.25V460.4H457.44V312Z"/>
    </g>
    <g>
      <polygon class="cls-6" points="70.68 573.37 70.68 167.23 86.57 178.76 86.57 584.95 70.68 573.37"/>
      <path class="cls-7" d="M73.18,172.14,84.07,180V580L73.18,572.1v-400m-5-9.81V574.64l20.89,15.22V177.49L68.18,162.33Z"/>
    </g>
    <g>
      <g>
        <text class="cls-8" transform="translate(235.09 355.37)">ME, <tspan x="-60.35" y="40.33">MY SHEL</tspan><tspan class="cls-9" x="98.02" y="40.33">F</tspan><tspan x="116.34" y="40.33">, </tspan><tspan x="-13.06" y="80.67">AND I</tspan></text>
        <text class="cls-10" transform="translate(235.82 354.65)">ME, <tspan x="-60.35" y="40.33">MY SHEL</tspan><tspan class="cls-11" x="98.02" y="40.33">F</tspan><tspan x="116.34" y="40.33">, </tspan><tspan x="-13.06" y="80.67">AND I</tspan></text>
      </g>
      <g>
        <text class="cls-8" transform="translate(235.09 355.73)">ME, <tspan x="-60.35" y="40.33">MY SHEL</tspan><tspan class="cls-9" x="98.02" y="40.33">F</tspan><tspan x="116.34" y="40.33">, </tspan><tspan x="-13.06" y="80.67">AND I</tspan></text>
        <text class="cls-10" transform="translate(235.82 355.01)">ME, <tspan x="-60.35" y="40.33">MY SHEL</tspan><tspan class="cls-11" x="98.02" y="40.33">F</tspan><tspan x="116.34" y="40.33">, </tspan><tspan x="-13.06" y="80.67">AND I</tspan></text>
      </g>
    </g>
    <g>
      <rect class="cls-12" x="96.39" y="184.37" width="32.45" height="127.49" rx="2.62"/>
      <rect class="cls-13" x="128.83" y="208.3" width="23.13" height="103.57" rx="2.62"/>
      <rect class="cls-14" x="207.6" y="202.31" width="24.99" height="109.56" rx="2.62"/>
      <rect class="cls-15" x="232.37" y="195.64" width="22.66" height="116.22" rx="2.62"/>
      <rect class="cls-16" x="255.04" y="200.74" width="29.87" height="111.13" rx="2.62"/>
      <rect class="cls-17" x="286.36" y="206.94" width="29.87" height="104.92" rx="2.62"/>
      <rect class="cls-18" x="370.97" y="206.94" width="29.87" height="104.92" rx="2.62"/>
      <rect class="cls-19" x="315.94" y="202.31" width="20.24" height="109.56" rx="2.62"/>
      <rect class="cls-20" x="424.66" y="202.31" width="24.38" height="109.56" rx="2.62"/>
      <rect class="cls-21" x="346.74" y="193.04" width="24.87" height="118.82" rx="2.62"/>
      <rect class="cls-22" x="400.84" y="184.37" width="22.47" height="127.49" rx="2.62"/>
      <rect class="cls-23" x="335.48" y="217.21" width="11.29" height="94.66" rx="2.62"/>
      <rect class="cls-24" x="193.96" y="214.07" width="9.41" height="97.93" rx="2.62"/>
      <rect class="cls-25" x="151.41" y="191.92" width="42.55" height="120.07" rx="2.62"/>
    </g>
    <g>
      <g>
        <path class="cls-26" d="M116.52,190.75h1.66v7.89h-1.66Zm1.59,3.61h.1l2.9-3.61H123l-2.9,3.57h-.33l-1.61,2Zm.53.55,1.19-1.09,3.32,4.82h-2Z"/>
        <path class="cls-26" d="M126.09,190.75h1.46v1.53h-.5l-2,6.36h-1.74Zm-.86,4.74h3.68l.41,1.24h-4.5Zm1.85-3.21v-1.53h1l2.75,7.89h-1.74Z"/>
        <path class="cls-26" d="M132.43,192.11h-2.29v-1.36h6.23v1.36h-2.29v6.53h-1.65Z"/>
        <path class="cls-26" d="M137.28,190.75h1.65V194h3.56v-3.2h1.65v7.89h-1.65v-3.32h-3.56v3.32h-1.65Z"/>
        <path class="cls-26" d="M145.45,190.75h5.23v1.36h-3.57V194h3.37v1.3h-3.37v2h3.57v1.36h-5.23Z"/>
        <path class="cls-26" d="M151.88,190.75h3.26a3.52,3.52,0,0,1,1.52.3,2.22,2.22,0,0,1,1,.87,2.62,2.62,0,0,1,.33,1.35v0a2.55,2.55,0,0,1-.38,1.38,2.1,2.1,0,0,1-1.05.86l1.67,3.11h-1.88l-1.47-2.85h-1.32v2.85h-1.65Zm3.08,3.78a1.33,1.33,0,0,0,1-.33,1.2,1.2,0,0,0,.35-.91h0a1.16,1.16,0,0,0-.36-.9,1.37,1.37,0,0,0-1-.34h-1.41v2.49Z"/>
        <path class="cls-26" d="M159.05,190.75h1.65v7.89h-1.65Z"/>
        <path class="cls-26" d="M162,190.75h1.44l4.29,6.18-1.38-1.05h.69v-5.13h1.65v7.89h-1.43L163,192.43l1.39,1h-.7v5.16H162Z"/>
        <path class="cls-26" d="M170,190.75h5.23v1.36h-3.58V194h3.38v1.3h-3.38v2h3.58v1.36H170Z"/>
        <path class="cls-26" d="M110.17,204.19h1.65v7.9h-1.65Zm.82,6.67h2.25a1.81,1.81,0,0,0,1.09-.29,1,1,0,0,0,.37-.83h0a1,1,0,0,0-.17-.61,1,1,0,0,0-.51-.38,2.6,2.6,0,0,0-.85-.12H111v-1.13h2a1.76,1.76,0,0,0,1.06-.27,1,1,0,0,0,.36-.8h0a.87.87,0,0,0-.32-.73,1.42,1.42,0,0,0-.9-.25H111v-1.24h2.61a3.08,3.08,0,0,1,1.3.25,1.82,1.82,0,0,1,.83.68,1.86,1.86,0,0,1,.3,1.06h0a1.67,1.67,0,0,1-.2.8,1.81,1.81,0,0,1-.55.62,1.77,1.77,0,0,1-.78.3v0a2.09,2.09,0,0,1,1,.29,1.85,1.85,0,0,1,.92,1.6h0a2.11,2.11,0,0,1-.34,1.19,2.08,2.08,0,0,1-.94.78,3.4,3.4,0,0,1-1.46.28H111Z"/>
        <path class="cls-26" d="M117.34,204.19H119v6.54h3.45v1.36h-5.1Z"/>
        <path class="cls-26" d="M125.67,204.19h1.46v1.54h-.5l-2,6.36h-1.73Zm-.86,4.75h3.68l.4,1.24H124.4Zm1.85-3.21v-1.54h1l2.75,7.9h-1.74Z"/>
        <path class="cls-26" d="M132.31,211.73a3.21,3.21,0,0,1-1.3-1.4,4.78,4.78,0,0,1-.47-2.19h0A4.74,4.74,0,0,1,131,206a3.21,3.21,0,0,1,1.3-1.4,3.88,3.88,0,0,1,2-.49,3.77,3.77,0,0,1,1.71.37,3.15,3.15,0,0,1,1.2,1,3.07,3.07,0,0,1,.53,1.49V207h-1.62l0-.1a1.93,1.93,0,0,0-.33-.76,1.69,1.69,0,0,0-.62-.5,2.09,2.09,0,0,0-2,.14,2.13,2.13,0,0,0-.72.93,3.57,3.57,0,0,0-.25,1.42h0a3.67,3.67,0,0,0,.25,1.44,2.13,2.13,0,0,0,.72.93,1.88,1.88,0,0,0,1.1.33,1.93,1.93,0,0,0,.85-.18,1.68,1.68,0,0,0,.62-.5,2.07,2.07,0,0,0,.36-.81v-.05h1.61v.06a3,3,0,0,1-.54,1.49,3.15,3.15,0,0,1-1.2,1,4.2,4.2,0,0,1-3.71-.13Z"/>
        <path class="cls-26" d="M138.78,204.19h1.65v7.9h-1.65Zm1.59,3.62h.1l2.9-3.62h1.83l-2.9,3.58H142l-1.61,2Zm.53.54,1.19-1.09,3.32,4.83h-2Z"/>
        <path class="cls-26" d="M146.1,204.19h1.65v7.9H146.1Zm.83,6.67h2.25a1.76,1.76,0,0,0,1.08-.29,1,1,0,0,0,.38-.83h0a1.07,1.07,0,0,0-.17-.61,1.09,1.09,0,0,0-.52-.38,2.57,2.57,0,0,0-.84-.12h-2.18v-1.13h2a1.74,1.74,0,0,0,1.06-.27,1,1,0,0,0,.37-.8h0a.88.88,0,0,0-.33-.73,1.4,1.4,0,0,0-.9-.25h-2.18v-1.24h2.61a3,3,0,0,1,1.29.25,1.9,1.9,0,0,1,.84.68,1.93,1.93,0,0,1,.29,1.06h0a1.56,1.56,0,0,1-.2.8,1.72,1.72,0,0,1-1.32.92v0a2.16,2.16,0,0,1,1,.29,2,2,0,0,1,.67.67,1.79,1.79,0,0,1,.24.93h0A2.1,2.1,0,0,1,152,211a2.13,2.13,0,0,1-.94.78,3.46,3.46,0,0,1-1.46.28h-2.67Z"/>
        <path class="cls-26" d="M154.82,211.86a2.69,2.69,0,0,1-1.14-1,2.9,2.9,0,0,1-.41-1.54v-5.11h1.65v5a1.69,1.69,0,0,0,.44,1.22,1.56,1.56,0,0,0,1.22.46,1.6,1.6,0,0,0,1.23-.46,1.72,1.72,0,0,0,.42-1.22v-5h1.66v5.11a2.84,2.84,0,0,1-.41,1.53,2.66,2.66,0,0,1-1.14,1,3.84,3.84,0,0,1-1.76.37A3.9,3.9,0,0,1,154.82,211.86Z"/>
        <path class="cls-26" d="M161.2,204.19h3.26a3.52,3.52,0,0,1,1.52.31,2.22,2.22,0,0,1,1,.87,2.6,2.6,0,0,1,.33,1.35h0a2.48,2.48,0,0,1-.38,1.39,2.18,2.18,0,0,1-1,.86l1.66,3.11h-1.88l-1.46-2.86h-1.33v2.86H161.2Zm3.08,3.79a1.33,1.33,0,0,0,1-.33,1.16,1.16,0,0,0,.35-.91h0a1.2,1.2,0,0,0-.36-.91,1.39,1.39,0,0,0-1-.33h-1.41V208Z"/>
        <path class="cls-26" d="M168.37,204.19h1.45l4.29,6.18-1.39-1h.7v-5.14h1.64v7.9h-1.43l-4.3-6.21,1.38,1.05H170v5.16h-1.65Z"/>
        <path class="cls-26" d="M176.38,204.19h5.23v1.37H178v1.89h3.38v1.3H178v2h3.58v1.36h-5.23Z"/>
      </g>
      <g>
        <path class="cls-26" d="M196.31,198.29a3.31,3.31,0,0,1-1.31-1.41,4.78,4.78,0,0,1-.46-2.19h0a4.78,4.78,0,0,1,.46-2.19,3.29,3.29,0,0,1,1.31-1.4,3.88,3.88,0,0,1,2-.49,3.76,3.76,0,0,1,1.7.37,3.19,3.19,0,0,1,1.21,1,3,3,0,0,1,.53,1.48v.06h-1.61l0-.09a2.08,2.08,0,0,0-.34-.77,1.66,1.66,0,0,0-.61-.5,2,2,0,0,0-.86-.18,1.84,1.84,0,0,0-1.1.33,2,2,0,0,0-.72.92,3.6,3.6,0,0,0-.26,1.42h0a3.65,3.65,0,0,0,.26,1.43,2,2,0,0,0,.72.93,1.86,1.86,0,0,0,1.1.33,1.89,1.89,0,0,0,.84-.18,1.61,1.61,0,0,0,.63-.5,2,2,0,0,0,.35-.8v-.06h1.62v.06a3,3,0,0,1-.53,1.49,3.26,3.26,0,0,1-1.21,1,3.76,3.76,0,0,1-1.7.37A3.88,3.88,0,0,1,196.31,198.29Z"/>
        <path class="cls-26" d="M204.31,198.28a3.33,3.33,0,0,1-1.32-1.41,4.73,4.73,0,0,1-.47-2.17h0a4.77,4.77,0,0,1,.47-2.18,3.39,3.39,0,0,1,1.33-1.4,4.33,4.33,0,0,1,4,0,3.33,3.33,0,0,1,1.32,1.41,4.7,4.7,0,0,1,.47,2.17h0a4.73,4.73,0,0,1-.47,2.17,3.37,3.37,0,0,1-1.31,1.41,4.37,4.37,0,0,1-4.06,0Zm3.16-1.23a2.12,2.12,0,0,0,.73-.94,3.58,3.58,0,0,0,.26-1.41h0a3.69,3.69,0,0,0-.26-1.43,2.08,2.08,0,0,0-.74-.92,1.92,1.92,0,0,0-1.12-.33,2,2,0,0,0-1.13.33,2.08,2.08,0,0,0-.74.92,3.65,3.65,0,0,0-.26,1.43h0a3.64,3.64,0,0,0,.26,1.42,2.16,2.16,0,0,0,.74.93,2.1,2.1,0,0,0,2.26,0Z"/>
        <path class="cls-26" d="M211.21,190.75h1.65v6.53h3.45v1.36h-5.1Z"/>
        <path class="cls-26" d="M217.29,190.75H219v7.89h-1.66Z"/>
        <path class="cls-26" d="M220.26,190.75h1.44l4.29,6.18-1.38-1.05h.69v-5.13H227v7.89h-1.43l-4.3-6.21,1.38,1h-.69v5.16h-1.65Z"/>
        <path class="cls-26" d="M193.56,204.19h1.65v7.9h-1.65Zm1.59,3.62h.1l2.9-3.62H200l-2.9,3.58h-.33l-1.61,2Zm.53.54,1.19-1.09,3.32,4.83h-2Z"/>
        <path class="cls-26" d="M200.88,204.19h5.23v1.37h-3.58v1.89h3.38v1.3h-3.38v2h3.58v1.36h-5.23Z"/>
        <path class="cls-26" d="M209.56,204.19H211v1.54h-.51l-2,6.36H206.8Zm-.87,4.75h3.68l.41,1.24h-4.49Zm1.86-3.21v-1.54h.95l2.76,7.9h-1.74Z"/>
        <path class="cls-26" d="M215.07,204.19h1.44l4.29,6.18-1.38-1h.69v-5.14h1.65v7.9h-1.44l-4.3-6.21,1.39,1.05h-.7v5.16h-1.64Z"/>
        <path class="cls-26" d="M223.07,204.19h5.23v1.37h-3.58v1.89h3.38v1.3h-3.38v2h3.58v1.36h-5.23Z"/>
      </g>
      <g>
        <path class="cls-26" d="M327.17,190.75h1.46v1.53h-.5l-2,6.36h-1.73Zm-.87,4.74H330l.4,1.24H325.9Zm1.86-3.21v-1.53h1l2.75,7.89h-1.74Z"/>
        <path class="cls-26" d="M332.68,190.75h3a4.22,4.22,0,0,1,2,.45,3.07,3.07,0,0,1,1.29,1.33,4.58,4.58,0,0,1,.45,2.12h0a4.71,4.71,0,0,1-.45,2.15,3,3,0,0,1-1.29,1.36,4,4,0,0,1-2,.47h-3Zm2.82,6.52a2.4,2.4,0,0,0,1.24-.29,1.85,1.85,0,0,0,.77-.88,3.35,3.35,0,0,0,.26-1.43h0a3.38,3.38,0,0,0-.26-1.39,1.87,1.87,0,0,0-.78-.86,2.39,2.39,0,0,0-1.23-.3h-1.17v5.16Z"/>
        <path class="cls-26" d="M342.45,190.75h1.46v1.53h-.51l-2,6.36H339.7Zm-.87,4.74h3.69l.4,1.24h-4.49Zm1.86-3.21v-1.53h.95l2.76,7.89h-1.74Z"/>
        <path class="cls-26" d="M348,190.75h1.91l2.24,5.67h0l2.24-5.67h1.92v7.89h-1.48v-5.33h-.76l1.65-2.34-3.06,7.67h-1L348.54,191l1.66,2.34h-.77v5.33H348Z"/>
        <path class="cls-26" d="M322.2,212a2.58,2.58,0,0,1-1.1-.79,2.19,2.19,0,0,1-.44-1.25v-.09h1.56v.07a1,1,0,0,0,.28.52,1.41,1.41,0,0,0,.57.35,2.55,2.55,0,0,0,.81.12,2.3,2.3,0,0,0,.79-.12,1.13,1.13,0,0,0,.51-.35.83.83,0,0,0,.18-.53h0a.72.72,0,0,0-.31-.62,2.87,2.87,0,0,0-1.05-.38l-.83-.17a3.39,3.39,0,0,1-1.76-.79,1.89,1.89,0,0,1-.6-1.45h0a2.12,2.12,0,0,1,.4-1.25,2.52,2.52,0,0,1,1.07-.84,3.79,3.79,0,0,1,1.55-.3,3.84,3.84,0,0,1,1.58.29,2.41,2.41,0,0,1,1,.8,2.33,2.33,0,0,1,.41,1.21v.1H325.3v-.07a.94.94,0,0,0-.23-.53,1.34,1.34,0,0,0-.51-.34,2.25,2.25,0,0,0-1.45,0,1.12,1.12,0,0,0-.47.34.85.85,0,0,0-.16.5h0a.72.72,0,0,0,.32.61,2.64,2.64,0,0,0,1,.36l.84.17a3.63,3.63,0,0,1,1.82.78,1.88,1.88,0,0,1,.58,1.46h0a2.27,2.27,0,0,1-.38,1.31,2.39,2.39,0,0,1-1.1.86,4.18,4.18,0,0,1-1.71.31A4.32,4.32,0,0,1,322.2,212Z"/>
        <path class="cls-26" d="M329.54,211.73a3.29,3.29,0,0,1-1.31-1.4,4.92,4.92,0,0,1-.45-2.19h0a4.87,4.87,0,0,1,.45-2.18,3.29,3.29,0,0,1,1.31-1.4,3.88,3.88,0,0,1,2-.49,3.77,3.77,0,0,1,1.71.37,3.15,3.15,0,0,1,1.2,1,3.07,3.07,0,0,1,.53,1.49V207h-1.62l0-.1a1.93,1.93,0,0,0-.33-.76,1.69,1.69,0,0,0-.62-.5,2.09,2.09,0,0,0-2,.14,2.13,2.13,0,0,0-.72.93,3.57,3.57,0,0,0-.26,1.42h0a3.67,3.67,0,0,0,.26,1.44,2.13,2.13,0,0,0,.72.93,1.86,1.86,0,0,0,1.1.33,1.93,1.93,0,0,0,.85-.18,1.76,1.76,0,0,0,.62-.5,2.07,2.07,0,0,0,.36-.81v-.05H335v.06a3,3,0,0,1-.54,1.49,3.15,3.15,0,0,1-1.2,1,4.2,4.2,0,0,1-3.71-.13Z"/>
        <path class="cls-26" d="M336,204.19h1.65v3.21h3.56v-3.21h1.65v7.9h-1.65v-3.32h-3.56v3.32H336Z"/>
        <path class="cls-26" d="M344.18,204.19h1.66v7.9h-1.66Z"/>
        <path class="cls-26" d="M347.15,204.19h5.23v1.37H348.8v1.89h3.38v1.3H348.8v2h3.58v1.36h-5.23Z"/>
        <path class="cls-26" d="M353.57,204.19H355l4.29,6.18-1.39-1h.7v-5.14h1.65v7.9h-1.44l-4.3-6.21,1.39,1.05h-.7v5.16h-1.65Z"/>
      </g>
      <g>
        <path class="cls-26" d="M374.33,198.5a2.5,2.5,0,0,1-1.1-.79,2.17,2.17,0,0,1-.45-1.24v-.09h1.56v.06a1.08,1.08,0,0,0,.27.53,1.65,1.65,0,0,0,.58.34,2.55,2.55,0,0,0,.81.12,2.34,2.34,0,0,0,.79-.12,1.13,1.13,0,0,0,.51-.35.83.83,0,0,0,.18-.53h0a.75.75,0,0,0-.31-.63,2.72,2.72,0,0,0-1.05-.37l-.83-.17a3.56,3.56,0,0,1-1.76-.79,1.92,1.92,0,0,1-.6-1.46h0a2.17,2.17,0,0,1,.4-1.26,2.55,2.55,0,0,1,1.06-.84,3.84,3.84,0,0,1,1.56-.3,4,4,0,0,1,1.58.29,2.39,2.39,0,0,1,1,.8,2.2,2.2,0,0,1,.41,1.21v.1h-1.56V193a1,1,0,0,0-.23-.53,1.24,1.24,0,0,0-.51-.34,2.25,2.25,0,0,0-1.45,0,1.11,1.11,0,0,0-.47.33.81.81,0,0,0-.16.5h0a.71.71,0,0,0,.32.61,2.64,2.64,0,0,0,1,.36l.84.17a3.82,3.82,0,0,1,1.82.78,1.93,1.93,0,0,1,.58,1.47h0a2.3,2.3,0,0,1-.38,1.32,2.53,2.53,0,0,1-1.1.86,4.36,4.36,0,0,1-1.71.3A4.28,4.28,0,0,1,374.33,198.5Z"/>
        <path class="cls-26" d="M382.24,190.75h1.46v1.53h-.5l-2,6.36h-1.73Zm-.87,4.74h3.69l.4,1.24H381Zm1.86-3.21v-1.53h1l2.75,7.89H385.2Z"/>
        <path class="cls-26" d="M387.75,190.75h1.91l2.24,5.67h0l2.23-5.67h1.92v7.89h-1.48v-5.33h-.76L395.5,191l-3.06,7.67h-1L388.34,191l1.65,2.34h-.77v5.33h-1.47Z"/>
        <path class="cls-26" d="M399.65,190.75h1.46v1.53h-.5l-2,6.36H396.9Zm-.86,4.74h3.68l.4,1.24h-4.49Zm1.85-3.21v-1.53h1l2.75,7.89h-1.74Z"/>
        <path class="cls-26" d="M405.16,190.75h1.45l4.29,6.18-1.39-1.05h.7v-5.13h1.64v7.89h-1.43l-4.3-6.21,1.38,1h-.69v5.16h-1.65Z"/>
        <path class="cls-26" d="M415.05,192.11h-2.28v-1.36H419v1.36h-2.28v6.53h-1.66Z"/>
        <path class="cls-26" d="M419.91,190.75h1.65V194h3.56v-3.2h1.65v7.89h-1.65v-3.32h-3.56v3.32h-1.65Z"/>
        <path class="cls-26" d="M430.33,190.75h1.46v1.53h-.5l-2,6.36h-1.73Zm-.86,4.74h3.68l.41,1.24h-4.5Zm1.85-3.21v-1.53h1l2.75,7.89h-1.74Z"/>
        <path class="cls-26" d="M380.15,204.19h1.47v1.54h-.51l-2,6.36H377.4Zm-.86,4.75H383l.41,1.24h-4.5Zm1.85-3.21v-1.54h1l2.76,7.9h-1.74Z"/>
        <path class="cls-26" d="M385.66,204.19h3a4.26,4.26,0,0,1,2,.46A3,3,0,0,1,392,206a4.71,4.71,0,0,1,.45,2.12h0a4.74,4.74,0,0,1-.45,2.15,3.14,3.14,0,0,1-1.29,1.36,4.14,4.14,0,0,1-2,.47h-3Zm2.82,6.53a2.54,2.54,0,0,0,1.25-.29,2,2,0,0,0,.77-.88,3.55,3.55,0,0,0,.26-1.43h0a3.22,3.22,0,0,0-.27-1.39,1.87,1.87,0,0,0-.78-.86,2.39,2.39,0,0,0-1.23-.3h-1.16v5.16Z"/>
        <path class="cls-26" d="M393.51,204.19h5.23v1.37h-3.58v1.89h3.38v1.3h-3.38v2h3.58v1.36h-5.23Z"/>
        <path class="cls-26" d="M399.94,204.19h1.65v6.54H405v1.36h-5.1Z"/>
        <path class="cls-26" d="M408.27,204.19h1.46v1.54h-.5l-2,6.36h-1.73Zm-.87,4.75h3.69l.4,1.24H407Zm1.86-3.21v-1.54h1l2.75,7.9h-1.74Z"/>
        <path class="cls-26" d="M413.78,204.19h1.65v7.9h-1.65Z"/>
        <path class="cls-26" d="M416.75,204.19h3a4.26,4.26,0,0,1,2,.46,3,3,0,0,1,1.29,1.33,4.58,4.58,0,0,1,.45,2.12h0a4.74,4.74,0,0,1-.45,2.15,3.14,3.14,0,0,1-1.29,1.36,4.14,4.14,0,0,1-2,.47h-3Zm2.81,6.53a2.51,2.51,0,0,0,1.25-.29,1.9,1.9,0,0,0,.77-.88,3.55,3.55,0,0,0,.26-1.43h0a3.22,3.22,0,0,0-.27-1.39,1.87,1.87,0,0,0-.78-.86,2.39,2.39,0,0,0-1.23-.3H418.4v5.16Z"/>
        <path class="cls-26" d="M424.59,204.19h5.23v1.37h-3.57v1.89h3.37v1.3h-3.37v2h3.57v1.36h-5.23Z"/>
      </g>
      <g>
        <path class="cls-26" d="M250.59,190.75h3.26a3.52,3.52,0,0,1,1.52.3,2.22,2.22,0,0,1,1,.87,2.62,2.62,0,0,1,.33,1.35v0a2.55,2.55,0,0,1-.38,1.38,2.1,2.1,0,0,1-1.05.86l1.67,3.11H255l-1.47-2.85h-1.32v2.85h-1.65Zm3.08,3.78a1.33,1.33,0,0,0,1-.33,1.16,1.16,0,0,0,.35-.91h0a1.16,1.16,0,0,0-.36-.9,1.37,1.37,0,0,0-1-.34h-1.41v2.49Z"/>
        <path class="cls-26" d="M257.76,190.75h1.65v7.89h-1.65Z"/>
        <path class="cls-26" d="M262.24,198.29a3.29,3.29,0,0,1-1.3-1.41,4.78,4.78,0,0,1-.46-2.19h0a4.78,4.78,0,0,1,.46-2.19,3.26,3.26,0,0,1,1.3-1.4,3.88,3.88,0,0,1,2-.49A3.77,3.77,0,0,1,266,191a3.09,3.09,0,0,1,1.2,1,3,3,0,0,1,.53,1.48v.06h-1.62l0-.09a1.92,1.92,0,0,0-.33-.77,1.75,1.75,0,0,0-.61-.5,2,2,0,0,0-.87-.18,1.86,1.86,0,0,0-1.1.33,2,2,0,0,0-.72.92,3.61,3.61,0,0,0-.25,1.42h0a3.66,3.66,0,0,0,.25,1.43,2,2,0,0,0,.72.93,1.86,1.86,0,0,0,1.1.33,1.93,1.93,0,0,0,.85-.18,1.58,1.58,0,0,0,.62-.5,2,2,0,0,0,.36-.8v-.06h1.61v.06a3,3,0,0,1-.54,1.49,3.15,3.15,0,0,1-1.2,1,3.77,3.77,0,0,1-1.71.37A3.88,3.88,0,0,1,262.24,198.29Z"/>
        <path class="cls-26" d="M268.71,190.75h1.65V194h3.56v-3.2h1.65v7.89h-1.65v-3.32h-3.56v3.32h-1.65Z"/>
        <path class="cls-26" d="M279.13,190.75h1.47v1.53h-.51l-2,6.36h-1.74Zm-.86,4.74H282l.41,1.24h-4.49Zm1.85-3.21v-1.53h1l2.75,7.89h-1.74Z"/>
        <path class="cls-26" d="M284.64,190.75h3.27a3.48,3.48,0,0,1,1.51.3,2.11,2.11,0,0,1,1,.87,2.53,2.53,0,0,1,.34,1.35v0a2.48,2.48,0,0,1-.39,1.38,2,2,0,0,1-1,.86l1.66,3.11h-1.87l-1.47-2.85H286.3v2.85h-1.66Zm3.09,3.78a1.37,1.37,0,0,0,1-.33,1.2,1.2,0,0,0,.35-.91h0a1.13,1.13,0,0,0-.37-.9,1.34,1.34,0,0,0-1-.34h-1.4v2.49Z"/>
        <path class="cls-26" d="M291.82,190.75h3a4.26,4.26,0,0,1,2,.45,3.07,3.07,0,0,1,1.29,1.33,4.58,4.58,0,0,1,.45,2.12h0a4.71,4.71,0,0,1-.45,2.15,3.07,3.07,0,0,1-1.28,1.36,4.1,4.1,0,0,1-2,.47h-3Zm2.82,6.52a2.4,2.4,0,0,0,1.24-.29,1.85,1.85,0,0,0,.77-.88,3.35,3.35,0,0,0,.26-1.43h0a3.22,3.22,0,0,0-.27-1.39,1.8,1.8,0,0,0-.77-.86,2.39,2.39,0,0,0-1.23-.3h-1.17v5.16Z"/>
        <path class="cls-26" d="M240.28,204.19h1.91l2.24,5.68h0l2.23-5.68h1.92v7.9h-1.48v-5.33h-.76l1.65-2.35L245,212.09h-1l-3.06-7.68,1.65,2.35h-.77v5.33h-1.47Z"/>
        <path class="cls-26" d="M252.18,204.19h1.46v1.54h-.5l-2,6.36h-1.73Zm-.86,4.75H255l.41,1.24h-4.5Zm1.85-3.21v-1.54h1l2.75,7.9h-1.74Z"/>
        <path class="cls-26" d="M258.82,211.73a3.21,3.21,0,0,1-1.3-1.4,4.78,4.78,0,0,1-.46-2.19h0a4.74,4.74,0,0,1,.46-2.18,3.21,3.21,0,0,1,1.3-1.4,3.9,3.9,0,0,1,2-.49,3.77,3.77,0,0,1,1.71.37,3.15,3.15,0,0,1,1.2,1,3,3,0,0,1,.53,1.49V207h-1.61l0-.1a1.93,1.93,0,0,0-.33-.76,1.66,1.66,0,0,0-.61-.5,2,2,0,0,0-.87-.18,1.92,1.92,0,0,0-1.1.32,2.13,2.13,0,0,0-.72.93,3.57,3.57,0,0,0-.25,1.42h0a3.67,3.67,0,0,0,.25,1.44,2.13,2.13,0,0,0,.72.93,1.88,1.88,0,0,0,1.1.33,1.93,1.93,0,0,0,.85-.18,1.6,1.6,0,0,0,.62-.5,2.07,2.07,0,0,0,.36-.81v-.05h1.62v.06a3.07,3.07,0,0,1-.53,1.49,3.26,3.26,0,0,1-1.21,1,4.2,4.2,0,0,1-3.71-.13Z"/>
        <path class="cls-26" d="M267.27,204.19h1.46v1.54h-.5l-2,6.36h-1.73Zm-.87,4.75h3.69l.4,1.24H266Zm1.86-3.21v-1.54h1l2.75,7.9h-1.74Z"/>
        <path class="cls-26" d="M272.78,204.19H276a3.52,3.52,0,0,1,1.52.31,2.22,2.22,0,0,1,1,.87,2.6,2.6,0,0,1,.33,1.35h0a2.56,2.56,0,0,1-.38,1.39,2.18,2.18,0,0,1-1,.86l1.66,3.11h-1.88l-1.46-2.86h-1.33v2.86h-1.65Zm3.08,3.79a1.33,1.33,0,0,0,1-.33,1.16,1.16,0,0,0,.35-.91h0a1.2,1.2,0,0,0-.36-.91,1.39,1.39,0,0,0-1-.33h-1.41V208Z"/>
        <path class="cls-26" d="M281.84,205.56h-2.29v-1.37h6.23v1.37h-2.29v6.53h-1.65Z"/>
        <path class="cls-26" d="M286.69,204.19h1.66v3.21h3.55v-3.21h1.66v7.9H291.9v-3.32h-3.55v3.32h-1.66Z"/>
        <path class="cls-26" d="M296.42,211.86a2.72,2.72,0,0,1-1.15-1,2.9,2.9,0,0,1-.4-1.54v-5.11h1.65v5a1.73,1.73,0,0,0,.43,1.22,1.6,1.6,0,0,0,1.23.46,1.56,1.56,0,0,0,1.22-.46,1.68,1.68,0,0,0,.43-1.22v-5h1.65v5.11a2.84,2.84,0,0,1-.4,1.53,2.71,2.71,0,0,1-1.14,1,4.37,4.37,0,0,1-3.52,0Z"/>
        <path class="cls-26" d="M302.8,204.19h3.26a3.52,3.52,0,0,1,1.52.31,2.22,2.22,0,0,1,1,.87,2.6,2.6,0,0,1,.33,1.35h0a2.56,2.56,0,0,1-.38,1.39,2.16,2.16,0,0,1-1.05.86l1.67,3.11h-1.88l-1.46-2.86h-1.33v2.86H302.8Zm3.08,3.79a1.33,1.33,0,0,0,1-.33,1.2,1.2,0,0,0,.35-.91h0a1.2,1.2,0,0,0-.36-.91,1.39,1.39,0,0,0-1-.33h-1.41V208Z"/>
      </g>
    </g>
    <g>
      <path class="cls-27" d="M77,262.11l.38.19q0,1.21.6,1.53l3.82,1.83L77,260.44v-1.26l4.77-.61-3.66-1.89c-.49-.25-.73.09-.73,1l-.38-.19V254l.38.19a2.63,2.63,0,0,0,.19,1.07,1.38,1.38,0,0,0,.61.65l4,2.11a.71.71,0,0,0,.19.08c.06,0,.11,0,.15-.08a1.23,1.23,0,0,0,.1-.37,7.24,7.24,0,0,0,0-.77l.41.2v3.79l-4.43.48L83,266.22v3.33l-.41-.21a4.64,4.64,0,0,0,0-.7,1.73,1.73,0,0,0-.11-.46.58.58,0,0,0-.15-.26.75.75,0,0,0-.17-.14L78,265.84c-.44-.21-.66.09-.66.91l-.38-.2Z"/>
      <path class="cls-27" d="M77,268l.38.19c0,.84.17,1.36.53,1.54l4.06,2.09c.46.24.68-.1.68-1L83,271v8.1l-1.8-.83,0-.88a1.43,1.43,0,0,0,.78,0,.66.66,0,0,0,.39-.38,1.87,1.87,0,0,0,.15-.7c0-.28,0-.6,0-1a3.16,3.16,0,0,0-.08-.76.62.62,0,0,0-.26-.39l-1.6-.83c-.15-.08-.22,0-.22.21a6.19,6.19,0,0,0,0,.63,2.14,2.14,0,0,0,.12.57,1.63,1.63,0,0,0,.29.51,2.14,2.14,0,0,0,.52.45v.82l-2.44-1.27v-.82a1.47,1.47,0,0,0,.5.12.34.34,0,0,0,.29-.12.7.7,0,0,0,.14-.37c0-.17,0-.38,0-.63s-.1-.53-.25-.6L77.9,272c-.29-.15-.43.13-.43.83a10.75,10.75,0,0,0,.08,1.41,4.22,4.22,0,0,0,.27,1,3.55,3.55,0,0,0,.45.75c.18.23.4.48.65.75l-.07.76L77,276.14Z"/>
      <path class="cls-27" d="M75.83,277.06c.13.38.25.67.35.89a3.05,3.05,0,0,0,.27.5,1.16,1.16,0,0,0,.23.25.94.94,0,0,0,.18.12c.1.05.14,0,.14-.15,0-.58.17-.78.49-.61a1.28,1.28,0,0,1,.64,1.26c0,.79-.3,1-.91.7a2.45,2.45,0,0,1-1-1,8.7,8.7,0,0,1-.72-1.83Z"/>
      <path class="cls-27" d="M77,293.19l.38.21c0,.81.2,1.33.6,1.55l3.82,2L77,291.53v-1.27l4.77-.44-3.66-2c-.49-.26-.73.07-.73,1l-.38-.21v-3.49l.38.2a2.63,2.63,0,0,0,.19,1.07,1.45,1.45,0,0,0,.61.68l4,2.25.19.09a.13.13,0,0,0,.15-.08,1.24,1.24,0,0,0,.1-.36,7.59,7.59,0,0,0,0-.78l.41.22v3.78l-4.43.33,4.43,5v3.33l-.41-.22a4.47,4.47,0,0,0,0-.7,1.81,1.81,0,0,0-.11-.47.68.68,0,0,0-.15-.27.75.75,0,0,0-.17-.14L78,297c-.44-.22-.66.07-.66.89l-.38-.21Z"/>
      <path class="cls-27" d="M77,300.6l.38.21c0,.93.12,1.47.35,1.6l1.73.95,2.47-.93a1.1,1.1,0,0,0,.72-1.13l.41.23v4.7l-.41-.23q0-1-.24-1.14a.43.43,0,0,0-.33.05l-2,.75,2,2.81a1.55,1.55,0,0,0,.36.28c.14.08.21-.25.21-1L83,308v3.4l-.41-.22a2.56,2.56,0,0,0-.3-1.29l-2.86-4.15-1.79-1c-.21-.12-.32.27-.32,1.17l-.38-.21Z"/>
      <path class="cls-27" d="M81.06,320.28a3.42,3.42,0,0,0,.66.1,1.09,1.09,0,0,0,.53-.12.82.82,0,0,0,.34-.37,1.51,1.51,0,0,0,.12-.65,3.83,3.83,0,0,0-.22-1.39,1.4,1.4,0,0,0-.56-.77.48.48,0,0,0-.41-.08.69.69,0,0,0-.28.3,3.16,3.16,0,0,0-.23.59l-.24.83c-.11.34-.21.65-.31.93a1.89,1.89,0,0,1-.38.65.79.79,0,0,1-.53.26,1.57,1.57,0,0,1-.79-.26,2.92,2.92,0,0,1-.81-.69,4,4,0,0,1-.6-1,5.8,5.8,0,0,1-.39-1.24,7.89,7.89,0,0,1-.13-1.39,5.61,5.61,0,0,1,.08-1,1.57,1.57,0,0,1,.29-.69c-.08-.23-.16-.47-.22-.71s-.12-.47-.17-.71a2,2,0,0,1,.64.12,3.62,3.62,0,0,1,.67.31c.16.09.32.18.47.28s.3.21.46.34v.91a1.8,1.8,0,0,0-.61-.22.84.84,0,0,0-1,.52,2.15,2.15,0,0,0-.16.94,5.54,5.54,0,0,0,.07,1,3.06,3.06,0,0,0,.22.72,2,2,0,0,0,.31.52,1.41,1.41,0,0,0,.38.32.5.5,0,0,0,.53.05,1,1,0,0,0,.34-.63c.13-.5.26-1,.38-1.36a3.83,3.83,0,0,1,.45-1,1.05,1.05,0,0,1,.62-.48,1.26,1.26,0,0,1,.88.2,2.36,2.36,0,0,1,.71.64,4.2,4.2,0,0,1,.54.93,5.71,5.71,0,0,1,.33,1.11,6.08,6.08,0,0,1,.12,1.19,2.94,2.94,0,0,1-.13.93.88.88,0,0,1-.42.57,2.06,2.06,0,0,1,.31.63,3.85,3.85,0,0,1,.17.69,3,3,0,0,1-1-.31c-.37-.18-.72-.36-1-.55Z"/>
      <path class="cls-27" d="M77,326.46l.38.22c0,.91.18,1.48.55,1.7l1.85,1.07a1.63,1.63,0,0,0,.07-.35,3,3,0,0,0,0-.56v-1.69a4.39,4.39,0,0,0-.11-1l-1.85-1.06c-.37-.21-.55.1-.55.94l-.38-.22v-5l.38.22c0,1,.18,1.52.55,1.74l4,2.29c.48.28.72-.05.72-1L83,324v5l-.41-.23a1.79,1.79,0,0,0-.72-1.69l-1.5-.87a2.32,2.32,0,0,0-.07.38c0,.14,0,.3,0,.49v1.68a4.55,4.55,0,0,0,.08,1l1.51.88q.72.42.72-1L83,330v5l-.41-.24A1.81,1.81,0,0,0,81.9,333l-4-2.33c-.37-.22-.55.1-.55.95L77,331.4Z"/>
      <path class="cls-27" d="M77,332.83l.38.23c0,.84.17,1.37.53,1.57L81.94,337c.46.27.68,0,.68-1l.41.24v8.1l-1.8-1,0-.89a1.38,1.38,0,0,0,.78.1.63.63,0,0,0,.39-.34,1.86,1.86,0,0,0,.15-.69c0-.29,0-.61,0-1a3.4,3.4,0,0,0-.08-.78.68.68,0,0,0-.26-.4l-1.6-1c-.15-.08-.22,0-.22.2s0,.43,0,.63a2.3,2.3,0,0,0,.12.58,2,2,0,0,0,.29.53,2.76,2.76,0,0,0,.52.49v.82l-2.44-1.46v-.81a1.75,1.75,0,0,0,.5.16.31.31,0,0,0,.29-.11.6.6,0,0,0,.14-.36c0-.16,0-.37,0-.62s-.1-.53-.25-.62l-1.71-1c-.29-.17-.43.09-.43.8a10.86,10.86,0,0,0,.08,1.41,4.4,4.4,0,0,0,.27,1,3.77,3.77,0,0,0,.45.78c.18.24.4.51.65.8l-.07.76L77,341Z"/>
      <path class="cls-27" d="M77,342.62l.38.23c0,.81.14,1.29.42,1.46L82,346.85c.42.25.62-.09.62-1l.41.24v5l-.41-.24c0-.85-.2-1.4-.62-1.65l-4.23-2.55q-.3-.18-.3.63v.24c0,.41,0,.77,0,1.07a3.37,3.37,0,0,0,.16.85,4,4,0,0,0,.45.86,10.94,10.94,0,0,0,.86,1.05l0,.78L77,350.46Z"/>
      <path class="cls-27" d="M77,351.53l.38.23a1.75,1.75,0,0,0,.66,1.61l3.89,2.37q.72.43.72-.87l.41.25v7.93l-1.76-.85-.06-1a1.39,1.39,0,0,0,.72.08.6.6,0,0,0,.39-.34,2.06,2.06,0,0,0,.17-.72c0-.31,0-.66,0-1.06s-.1-.83-.31-1l-1.57-1c-.19-.11-.28.06-.28.53a3.39,3.39,0,0,0,0,.6,1.52,1.52,0,0,0,.15.44,1.61,1.61,0,0,0,.28.38l.45.43v.76l-2.4-1.48v-.77l.23.14a.88.88,0,0,0,.24.11.28.28,0,0,0,.25-.05.7.7,0,0,0,.18-.35,3,3,0,0,0,.08-.78.93.93,0,0,0-.06-.39.45.45,0,0,0-.15-.18l-1.64-1c-.44-.27-.66.07-.66,1l-.38-.24Z"/>
      <path class="cls-27" d="M75.83,358.4c.13.39.25.69.35.92a4.22,4.22,0,0,0,.27.53,1.75,1.75,0,0,0,.23.27,1,1,0,0,0,.18.13c.1.06.14,0,.14-.13,0-.58.17-.77.49-.57a1.42,1.42,0,0,1,.64,1.32c0,.79-.3,1-.91.62a2.81,2.81,0,0,1-1-1.09,9.76,9.76,0,0,1-.72-1.9Z"/>
      <path class="cls-27" d="M77,371.52l.37.24c0,.14,0,.28,0,.43s0,.3,0,.42a2.32,2.32,0,0,0,0,.33.34.34,0,0,0,.07.15.19.19,0,0,0,.1,0h.14l1.11.08c.06,0,.11-.06.14-.19a2,2,0,0,0,0-.44v-2.05a1,1,0,0,0-.18-.66l-.93-1-.1-.1-.12-.09c-.24-.15-.35.18-.35,1l-.42-.26v-3.27l.42.26a2.68,2.68,0,0,0,.61,1.55l5.18,6.59-.12,1.24-5.37-.12a.18.18,0,0,0-.16.08.9.9,0,0,0-.1.22c0,.1,0,.19-.06.3l0,.3-.37-.24Zm4.7,1.84-1.75-2.21a2.46,2.46,0,0,0-.27-.33c-.05,0-.08.1-.08.39v1.73c0,.22,0,.35,0,.36a2.46,2.46,0,0,0,.49.05Z"/>
      <path class="cls-27" d="M76.86,384.62l4.08-3.35-2.59-1.66c-.67-.42-1-.16-1,.79l-.38-.24v-3.49l.38.24a2,2,0,0,0,1,1.82l4,2.53c.2.13.3-.27.3-1.19l.41.26V383l-3.69,2.91,2.36,1.52c.62.4.92.13.92-.83l.41.27v3.5l-.41-.26a2.08,2.08,0,0,0-.92-1.89l-4.76-3.07Z"/>
      <path class="cls-27" d="M77,387.31l.38.25a6.39,6.39,0,0,0,0,.68,1.2,1.2,0,0,0,.11.47.89.89,0,0,0,.23.34,2.79,2.79,0,0,0,.39.31l3.72,2.42a1.72,1.72,0,0,0,.46.23.18.18,0,0,0,.2-.1,1.35,1.35,0,0,0,.07-.37c0-.17,0-.37.07-.6l.41.27c0,.22,0,.43,0,.64s0,.41,0,.63,0,.56,0,.8,0,.51,0,.8,0,.62,0,1,0,.85,0,1.42a8.66,8.66,0,0,1-.17,1.84,2.15,2.15,0,0,1-.54,1.08,1.09,1.09,0,0,1-1,.26,3.58,3.58,0,0,1-1.41-.62,7,7,0,0,1-1.35-1.16,5.74,5.74,0,0,1-.94-1.45,7.23,7.23,0,0,1-.54-1.86,14.19,14.19,0,0,1-.18-2.39Zm1.06,4.3a.82.82,0,0,0-.34-.16.17.17,0,0,0-.18.07.62.62,0,0,0-.07.31c0,.14,0,.32,0,.54a4.9,4.9,0,0,0,.62,2.45,5.88,5.88,0,0,0,1.93,2c.88.57,1.53.77,2,.59s.63-.8.63-1.88c0-.18,0-.34,0-.47a1,1,0,0,0-.07-.33.58.58,0,0,0-.15-.25,1.72,1.72,0,0,0-.27-.2Z"/>
      <path class="cls-27" d="M77,402.51l.38.25c0,.88.18,1.43.55,1.68l4,2.66c.48.33.72,0,.72-.88l.41.27v4.94l-.41-.27a1.94,1.94,0,0,0-.72-1.74l-4-2.68c-.37-.24-.55.07-.55.95l-.38-.26Z"/>
    </g>
    <g>
      <rect class="cls-12" x="419.45" y="463.47" width="32.45" height="126.93" rx="2.62" transform="translate(871.35 1053.86) rotate(-180)"/>
      <rect class="cls-28" x="396.32" y="487.29" width="23.13" height="103.11" rx="2.62" transform="translate(815.77 1077.68) rotate(-180)"/>
      <rect class="cls-14" x="259.94" y="481.33" width="24.99" height="109.07" rx="2.62" transform="translate(544.87 1071.72) rotate(-180)"/>
      <rect class="cls-15" x="238.04" y="474.69" width="22.66" height="115.7" rx="2.62" transform="translate(498.74 1065.09) rotate(-180)"/>
      <rect class="cls-29" x="207.62" y="479.76" width="29.87" height="110.63" rx="2.62" transform="translate(445.12 1070.16) rotate(-180)"/>
      <rect class="cls-30" x="176.3" y="485.94" width="29.87" height="104.46" rx="2.62" transform="translate(382.47 1076.33) rotate(-180)"/>
      <rect class="cls-31" x="155.52" y="473.82" width="20.41" height="116.58" rx="2.62" transform="translate(331.44 1064.21) rotate(-180)"/>
      <rect class="cls-32" x="107.16" y="479.62" width="20.41" height="110.78" rx="2.62" transform="translate(234.73 1070.01) rotate(-180)"/>
      <rect class="cls-33" x="93.53" y="470.11" width="13.56" height="120.28" rx="2.62" transform="translate(200.62 1060.5) rotate(-180)"/>
      <rect class="cls-34" x="127.39" y="508.34" width="28.61" height="82.05" rx="2.62" transform="translate(283.39 1098.73) rotate(-180)"/>
      <rect class="cls-35" x="322.7" y="481.33" width="20.24" height="109.07" rx="2.62" transform="translate(665.64 1071.72) rotate(-180)"/>
      <rect class="cls-36" x="287.27" y="472.1" width="24.87" height="118.29" rx="2.62" transform="translate(599.41 1062.5) rotate(-180)"/>
      <rect class="cls-23" x="312.12" y="496.16" width="11.29" height="94.23" rx="2.62" transform="translate(635.52 1086.55) rotate(-180)"/>
      <rect class="cls-37" x="354.32" y="470.86" width="42.55" height="119.54" rx="2.62" transform="translate(751.19 1061.25) rotate(-180)"/>
      <rect class="cls-24" x="344.91" y="492.9" width="9.41" height="97.49" rx="2.62" transform="translate(699.23 1083.3) rotate(-180)"/>
    </g>
    <g>
      <path class="cls-38" d="M247.75,159.51a1.85,1.85,0,0,0-1.24.91c-.51.75-2.8,4.52-3.21,5.23s-.3,1,.17,1h1c.47,0,.91-.54,1.08-.91s2.94-4.72,3.38-5.36.13-.88-.17-.88Z"/>
      <path class="cls-38" d="M238.54,166.66c1.73-.06,2.87-.13,4.22-2.59.58-1.12-1-1.15-1-1.15a3.12,3.12,0,0,0,2.39-1.89c.85-1.75-.64-1.62-.91-1.65a37.19,37.19,0,0,0-5.5,0c-.37,0-.81.5-1,.81s-3,4.85-3.38,5.5,0,.94.44,1c1.28.07,2.9.07,4.82,0ZM240,164.3a1.84,1.84,0,0,1-1.86,1h-1.35c-.16,0-.33,0-.16-.38s.57-.84.7-1a.55.55,0,0,1,.58-.31h1.45c.27,0,1,0,.64.71Zm1.25-2.9a1.82,1.82,0,0,1-1.86,1h-.81c-.13,0-.37,0-.13-.3s.5-.92.67-1.12a.66.66,0,0,1,.54-.3h1c.27,0,1,0,.61.74Z"/>
      <path class="cls-38" d="M294.72,162.21l-2.23,3.54c-.47.75-.07.91.17.91h1c.37,0,.64,0,1.21-.91l2.23-3.61c.61-1-.14-.91-.61-.91-.84,0-1,0-1.75,1Z"/>
      <path class="cls-38" d="M303.89,162.45h-2.66a1.28,1.28,0,0,0-.85.5c-.16.27-.06.54.21.54,0,0,1.08,0,1.89,0s1.14.54.23,1.79a3.06,3.06,0,0,1-.84.88s-.74.61-3.14.61c-2.19,0-2.29-.24-2.29-.24a.63.63,0,0,1-.21-.64,1.05,1.05,0,0,1,.71-.27h2.77a1.09,1.09,0,0,0,.81-.54c.2-.27.1-.61-.17-.61h-2.06c-1,0-.84-.64-.1-1.72a4.4,4.4,0,0,1,.84-.88,5.78,5.78,0,0,1,3.18-.6c.94,0,2.53-.11,2.43.7,0,.38-.58.48-.75.48Z"/>
      <path class="cls-38" d="M310.88,162.48h-2.16a1.05,1.05,0,0,0-.81.57l-1.28,2c-.17.27-.07.57.13.57h2.56c.38,0,.61,0,.58.13,0,.37-.58,1-3.58,1-2.7,0-2.53-.38-2.5-.78a23.3,23.3,0,0,1,1.79-3.17c.41-.68,1-1.55,3.65-1.55,2.49,0,2.36.57,2.32.71s-.13.5-.7.5Z"/>
      <path class="cls-38" d="M298.36,159.21a.34.34,0,0,1,.27.54,3.09,3.09,0,0,0-.37.61,1,1,0,0,1-.81.3h-1.38c-.27,0-.27-.24-.14-.47a2.42,2.42,0,0,1,.27-.44.86.86,0,0,1,.81-.54Z"/>
      <path class="cls-38" d="M258,163.09a.89.89,0,0,0-.81.5c-.07.14-.17.24-.3.48s-.07.47.07.47h1.45a.9.9,0,0,0,.81-.34c.13-.23.16-.3.37-.64s-.07-.47-.24-.47Z"/>
      <path class="cls-38" d="M291.55,164.47c.87-1.42.33-.54,1.58-2.53s-.71-2.43-2.6-2.43a29.8,29.8,0,0,0-3.78.14,1.14,1.14,0,0,0-.87.6l-3.51,5.67c-.2.34-.14.61.13.68,0,0,.85.06,3.75.06,4,0,4.35-.74,5.3-2.19Zm-1.19-2.53s-1.51,2.4-1.62,2.53a1.72,1.72,0,0,1-1.31.85h-1.49c-.27,0-.4,0-.23-.31l2.43-3.88a.6.6,0,0,1,.47-.23h1.45c.47,0,.61.5.3,1Z"/>
      <path class="cls-38" d="M268.3,163.36c-.84,0-1.11.07-1.85.1a1.1,1.1,0,0,0-.88.57l-.71,1.22c-.88,1.38,1,1.48,2.5,1.48a7.54,7.54,0,0,0,3.54-.67,2.25,2.25,0,0,0,.84-.81l1.55-2.53a1.07,1.07,0,0,0,.07-1s-.2-.48-2.6-.48a10.14,10.14,0,0,0-3.3.37,2.55,2.55,0,0,0-.71.51c-.07.2.07.34.34.34h3.5c.27,0,.38.23.24.47a1.22,1.22,0,0,1-.81.44Zm1.35,1.65v0a1.6,1.6,0,0,1-1,.64h-1.35c-.27,0-.37-.31-.13-.64v0a1.48,1.48,0,0,1,1-.67h1.34c.27,0,.38.3.14.67Z"/>
      <path class="cls-38" d="M263.65,163a1.25,1.25,0,0,1,.87-.57h1.08c.17,0,.71,0,.74-.37,0-.54-1.11-.68-1.55-.68-1.58,0-2.46.07-3.37,1.42-.71,1.08-1.42,2.19-1.89,3s0,.92.2.92h1c.37,0,.64,0,1.21-.92l1.73-2.8Z"/>
      <path class="cls-38" d="M256.59,162.25l-1.51,2.53c-.21.26,0,.4.16.4h.54a.3.3,0,0,1,.21.51,3.57,3.57,0,0,1-.37.67c-.14.24-.38.3-.78.3h-.64c-.44,0-.2-.64-.2-.64-.64.71-2.13.71-3.68.71s-3.41,0-2.53-1.48l1.89-3a1.75,1.75,0,0,1,.84-.84s.07-.1.88-.1c.54,0,1.25,0,.64.94l-1.72,2.8c-.2.27-.1.54.2.54h1.18a1.42,1.42,0,0,0,.91-.54s.88-1.52,1.66-2.76c.2-.31.7-1,1.21-1h.84c.38,0,.81.1.27,1Z"/>
      <path class="cls-38" d="M271.94,168.08h2.8l.58,0a1.08,1.08,0,0,0,.84-.61l.57-.85a6.3,6.3,0,0,1-1.18.07c-1.41,0-3.37,0-2.49-1.48l1.82-2.94a3.5,3.5,0,0,1,.84-.84c0-.07.14-.1.91-.1.51,0,1.32-.14.61.94l-1.62,2.7c-.2.27-.13.54.14.54h1.14a1.32,1.32,0,0,0,.85-.54l1.68-2.7a2.28,2.28,0,0,1,.85-.84s.13-.1.91-.1c.44,0,1.31-.14.61.94l-1.42,2.26a1.22,1.22,0,0,0-.17.31l-1.79,2.9a3.35,3.35,0,0,1-.84.84,7.6,7.6,0,0,1-3.54.68h-.34c-2.19-.07-2.09-.21-2.23-.31a.43.43,0,0,1-.23-.5c0-.24.33-.41.7-.41Z"/>
      <path class="cls-38" d="M249.68,130.26c-.07,0-.07,0-.1.07a89.26,89.26,0,0,0-6.48,10.22l-.2.37,0,.14a.93.93,0,0,0,.1,1c1.08,1.69,7.12,3.68,20.58,3.68,10.06,0,20.75-1.62,20.75-4.66,0-2.87-10.52-4.59-20.75-4.59a51.64,51.64,0,0,0-7.69.61c.91-1.42,4.76-6.58,4.76-6.61s.07-.07.07-.1v-.07c-.07,0-.11-.07-.17-.07Zm3.91,10.83c0-.61,3.81-1.48,10-1.48s9.92.87,9.92,1.48-3.78,1.52-9.92,1.52-10-.84-10-1.52Z"/>
      <path class="cls-38" d="M257.3,156.24c1.72,0,50.14,1.72,51.21-15.45.88-14.2-34.74-12.86-34.74-12.86s-.31,0-.31.17.1.24.24.24c9.88,0,25.94,3.95,25.44,12.45-.41,6.88-13,15-41.84,15a.29.29,0,0,0-.27.23c0,.11.1.21.27.24Z"/>
      <polygon class="cls-38" points="301.7 154.99 300.75 154.99 300.75 154.79 302.91 154.79 302.91 154.99 302.04 154.99 302.04 156.68 301.7 156.68 301.7 154.99"/>
      <polygon class="cls-38" points="303.39 154.79 303.79 154.79 304.5 156.38 305.24 154.79 305.65 154.79 305.65 156.68 305.38 156.68 305.38 155.13 305.34 155.13 304.63 156.68 304.37 156.68 303.66 155.13 303.66 156.68 303.39 156.68 303.39 154.79"/>
    </g>
    <g>
      <path class="cls-39" d="M473.86,191.08a158.59,158.59,0,0,0-39.48,5c-3.7,1-7.36,2-10.95,3.26q-2.6.87-5.14,1.84c-2.12.79-4.23,1.63-6.31,2.52-1.25.53-2.48,1.07-3.7,1.64a158,158,0,0,0-18.74,10.14,158.68,158.68,0,0,0-40.16,36.36A157.2,157.2,0,0,0,316,342.73q-.12,3.13-.12,6.3A158.11,158.11,0,0,0,513.36,502q5.55-1.45,10.95-3.26c1.72-.58,3.44-1.19,5.13-1.83,2.13-.79,4.23-1.64,6.31-2.53,1.24-.53,2.48-1.07,3.71-1.63a158.07,158.07,0,0,0,92.23-137.44c.08-2.09.13-4.19.13-6.29A158,158,0,0,0,473.86,191.08Zm38.72,159.49a38.72,38.72,0,0,1-14.31,28.55,39.08,39.08,0,0,1-8.31,5.16h0l-.91.41c-.5.22-1,.43-1.54.62l-1.26.45c-.88.3-1.78.56-2.69.79A38.74,38.74,0,0,1,435.12,349c0-.52,0-1,0-1.54a38.82,38.82,0,0,1,14.31-28.55,36,36,0,0,1,3.72-2.67,37.76,37.76,0,0,1,4.6-2.49c.3-.14.59-.28.9-.41h0c.51-.21,1-.42,1.54-.61h0c.42-.16.83-.31,1.26-.45.88-.3,1.77-.57,2.68-.8A38.75,38.75,0,0,1,512.62,349C512.62,349.54,512.6,350.05,512.58,350.57Z"/>
      <path class="cls-40" d="M458.49,330.07a24.74,24.74,0,0,0-3.86,3.93l-11.3-8.82-93.95-73.37a159.09,159.09,0,0,1,25-25.45l75.1,92.58Z"/>
      <path class="cls-41" d="M467.76,325.39c-.56.15-1.13.31-1.69.51l-4.58-13.6-38.07-113q5.4-1.81,11-3.26l29.79,115.46h0Z"/>
      <path class="cls-42" d="M465.28,326.18c-.33.12-.66.25-1,.39l-5.62-13.2L412,203.67c2.08-.9,4.19-1.74,6.31-2.53l41.94,111.61h0Z"/>
      <path class="cls-43" d="M463.73,326.82a25.06,25.06,0,0,0-2.89,1.56l-7.66-12.11L389.54,215.45a158,158,0,0,1,18.74-10.15l49.49,108.48Z"/>
      <path class="cls-44" d="M454.63,334a24.21,24.21,0,0,0-5.15,14.05l-14.33-.56L316,342.73a157.18,157.18,0,0,1,33.34-90.92l93.95,73.37Z"/>
      <path class="cls-40" d="M598.35,446.25a157.91,157.91,0,0,1-25,25.45l-75.09-92.58-9-11.14a24.68,24.68,0,0,0,3.86-3.92l11.3,8.82Z"/>
      <path class="cls-41" d="M524.31,498.75q-5.4,1.81-11,3.26l-29.8-115.46L480,372.67c.57-.15,1.13-.32,1.69-.51l4.58,13.59Z"/>
      <path class="cls-42" d="M535.75,494.39q-3.12,1.33-6.31,2.52l-42-111.61-5-13.42c.33-.12.65-.25,1-.39l5.62,13.2Z"/>
      <path class="cls-43" d="M558.19,482.6a156.48,156.48,0,0,1-18.74,10.15L490,384.28l-5.95-13a23.81,23.81,0,0,0,2.9-1.57l7.65,12.12Z"/>
      <path class="cls-44" d="M631.69,355.32a157.21,157.21,0,0,1-33.34,90.93l-94-73.37-11.3-8.82A24.34,24.34,0,0,0,498.26,350l14.32.56Z"/>
      <path class="cls-45" d="M473.86,299.92a49.11,49.11,0,0,0-12.27,1.55h0c-1.15.3-2.28.63-3.4,1-.54.18-1.06.36-1.59.56h0c-.67.25-1.31.51-1.95.78h0l-1.14.52a46.67,46.67,0,0,0-5.82,3.16,47.65,47.65,0,0,0-4.72,3.38,49.62,49.62,0,0,0-7.76,7.91,48.94,48.94,0,0,0-10.37,28.26h0c0,.66,0,1.29,0,1.94a49.12,49.12,0,0,0,61.36,47.56h0c1.15-.3,2.28-.63,3.4-1h0c.53-.17,1.06-.36,1.59-.56s1.31-.51,2-.78l1.15-.52h0a48.13,48.13,0,0,0,5.82-3.16,47.52,47.52,0,0,0,4.71-3.38A49.05,49.05,0,0,0,522.91,351h0c0-.66,0-1.3,0-2A49.1,49.1,0,0,0,473.86,299.92Zm19.47,49.87a19.53,19.53,0,0,1-7.2,14.36,17.75,17.75,0,0,1-1.87,1.35,19.76,19.76,0,0,1-2.31,1.25l-.46.2-.78.31c-.21.09-.42.16-.64.23-.44.15-.89.28-1.34.4A19.51,19.51,0,0,1,454.38,349c0-.26,0-.52,0-.77h0A19.31,19.31,0,0,1,458.51,337a19.82,19.82,0,0,1,3.07-3.14,22,22,0,0,1,1.87-1.34,19.3,19.3,0,0,1,2.32-1.26l.45-.2.78-.31c.21-.08.42-.16.64-.22.44-.15.89-.28,1.34-.41A19.52,19.52,0,0,1,493.34,349C493.34,349.28,493.33,349.54,493.33,349.79Z"/>
      <circle class="cls-46" cx="473.86" cy="349.02" r="155.08"/>
      <path class="cls-47" d="M473.86,196a153,153,0,1,0,153,153A153,153,0,0,0,473.86,196Zm49,154.93h0a49.05,49.05,0,0,1-18.13,36.17,47.52,47.52,0,0,1-4.71,3.38,48.13,48.13,0,0,1-5.82,3.16h0l-1.15.52c-.65.27-1.3.54-2,.78s-1.06.39-1.59.56h0c-1.12.39-2.25.72-3.4,1h0A49.12,49.12,0,0,1,424.76,349c0-.65,0-1.28,0-1.94h0a48.94,48.94,0,0,1,10.37-28.26,49.62,49.62,0,0,1,7.76-7.91,47.65,47.65,0,0,1,4.72-3.38,46.67,46.67,0,0,1,5.82-3.16l1.14-.52h0c.64-.27,1.28-.53,1.95-.78h0c.53-.2,1.05-.38,1.59-.56,1.12-.39,2.25-.72,3.4-1h0A49.12,49.12,0,0,1,523,349C523,349.67,522.94,350.31,522.91,351Z"/>
      <text class="cls-48" transform="translate(352.66 286.21)">ME, MY SHEL<tspan class="cls-49" x="152.44" y="0">F</tspan><tspan class="cls-50" x="164.42" y="0">, AND I</tspan></text>
      <g>
        <path class="cls-26" d="M372.76,450.85l2-1.86c.24-.23.42-.42.55-.57a2,2,0,0,0,.26-.4,1.21,1.21,0,0,0,.06-.38h0a.72.72,0,0,0-.11-.41.74.74,0,0,0-.3-.28,1,1,0,0,0-.44-.1,1.07,1.07,0,0,0-.51.12.93.93,0,0,0-.34.31.91.91,0,0,0-.13.46v0h-1.09v0a1.69,1.69,0,0,1,.27-.94,1.93,1.93,0,0,1,.74-.64,2.43,2.43,0,0,1,1.06-.23,2.54,2.54,0,0,1,1.06.21,1.75,1.75,0,0,1,.7.58,1.47,1.47,0,0,1,.26.85h0a1.53,1.53,0,0,1-.13.64,2.19,2.19,0,0,1-.4.61,10.92,10.92,0,0,1-.77.78l-1.63,1.48.45-.79v.79l-.45-.36h3v.94h-4.09Z"/>
        <path class="cls-26" d="M378.56,451.4a2.26,2.26,0,0,1-.8-1,4,4,0,0,1-.27-1.55h0a4.05,4.05,0,0,1,.27-1.55,2.23,2.23,0,0,1,.8-1,2.08,2.08,0,0,1,1.23-.36,2.12,2.12,0,0,1,1.23.36,2.28,2.28,0,0,1,.79,1,4.05,4.05,0,0,1,.27,1.55h0a4,4,0,0,1-.27,1.55,2.31,2.31,0,0,1-.79,1,2.12,2.12,0,0,1-1.23.36A2.08,2.08,0,0,1,378.56,451.4Zm1.83-.82a1.63,1.63,0,0,0,.37-.68,3.66,3.66,0,0,0,.13-1.06h0a3.58,3.58,0,0,0-.13-1.05,1.57,1.57,0,0,0-.37-.68.88.88,0,0,0-.6-.23.85.85,0,0,0-.6.23,1.48,1.48,0,0,0-.38.68,4,4,0,0,0-.13,1.05h0a4,4,0,0,0,.13,1.06,1.54,1.54,0,0,0,.38.68.85.85,0,0,0,.6.23A.88.88,0,0,0,380.39,450.58Z"/>
        <path class="cls-26" d="M384.17,447.1h0l-1.44,1V447l1.46-1h1.18v5.64h-1.18Z"/>
        <path class="cls-26" d="M388,447.1h0l-1.44,1V447l1.46-1h1.18v5.64H388Z"/>
        <path class="cls-26" d="M392.65,453h-1l1.41-7h1Z"/>
        <path class="cls-26" d="M397.18,451.4a2.37,2.37,0,0,1-.93-1,3.42,3.42,0,0,1-.33-1.56h0a3.45,3.45,0,0,1,.33-1.56,2.43,2.43,0,0,1,.93-1,2.86,2.86,0,0,1,1.43-.35,2.67,2.67,0,0,1,1.22.27,2.27,2.27,0,0,1,.86.73,2.15,2.15,0,0,1,.38,1.06v0h-1.15V448a1.65,1.65,0,0,0-.24-.54,1.29,1.29,0,0,0-.44-.36,1.49,1.49,0,0,0-.62-.13,1.29,1.29,0,0,0-.78.24,1.48,1.48,0,0,0-.52.65,2.66,2.66,0,0,0-.18,1h0a2.67,2.67,0,0,0,.18,1,1.45,1.45,0,0,0,.52.66,1.29,1.29,0,0,0,.78.24,1.48,1.48,0,0,0,.61-.13,1.17,1.17,0,0,0,.44-.36,1.49,1.49,0,0,0,.26-.57v0h1.16v0a2.06,2.06,0,0,1-.38,1.06,2.19,2.19,0,0,1-.86.73,2.67,2.67,0,0,1-1.22.27A2.76,2.76,0,0,1,397.18,451.4Z"/>
        <path class="cls-26" d="M402.9,451.4a2.3,2.3,0,0,1-.94-1,3.25,3.25,0,0,1-.34-1.55h0a3.41,3.41,0,0,1,.34-1.55,2.39,2.39,0,0,1,.94-1,2.81,2.81,0,0,1,1.45-.36,2.77,2.77,0,0,1,1.44.36,2.39,2.39,0,0,1,.94,1,3.41,3.41,0,0,1,.34,1.55h0a3.38,3.38,0,0,1-.34,1.55,2.36,2.36,0,0,1-.94,1,2.75,2.75,0,0,1-1.44.36A2.81,2.81,0,0,1,402.9,451.4Zm2.25-.88a1.47,1.47,0,0,0,.52-.67,2.4,2.4,0,0,0,.19-1h0a2.4,2.4,0,0,0-.19-1,1.45,1.45,0,0,0-.52-.66,1.47,1.47,0,0,0-1.61,0,1.45,1.45,0,0,0-.52.66,2.4,2.4,0,0,0-.19,1h0a2.48,2.48,0,0,0,.19,1,1.57,1.57,0,0,0,.52.66,1.38,1.38,0,0,0,.81.24A1.33,1.33,0,0,0,405.15,450.52Z"/>
        <path class="cls-26" d="M407.82,446H409v4.67h2.47v1h-3.65Z"/>
        <path class="cls-26" d="M413,451.4a2.38,2.38,0,0,1-.95-1,3.38,3.38,0,0,1-.33-1.55h0a3.28,3.28,0,0,1,.34-1.55,2.33,2.33,0,0,1,.94-1,3.08,3.08,0,0,1,2.89,0,2.39,2.39,0,0,1,.94,1,3.41,3.41,0,0,1,.33,1.55h0a3.38,3.38,0,0,1-.33,1.55,2.36,2.36,0,0,1-.94,1,2.77,2.77,0,0,1-1.44.36A2.81,2.81,0,0,1,413,451.4Zm2.25-.88a1.47,1.47,0,0,0,.52-.67,2.4,2.4,0,0,0,.19-1h0a2.4,2.4,0,0,0-.19-1,1.45,1.45,0,0,0-.52-.66,1.47,1.47,0,0,0-1.61,0,1.45,1.45,0,0,0-.52.66,2.4,2.4,0,0,0-.19,1h0a2.48,2.48,0,0,0,.19,1,1.49,1.49,0,0,0,.52.66,1.38,1.38,0,0,0,.81.24A1.33,1.33,0,0,0,415.28,450.52Z"/>
        <path class="cls-26" d="M418,446h2.33a2.39,2.39,0,0,1,1.08.22,1.57,1.57,0,0,1,.7.62,1.86,1.86,0,0,1,.24,1h0a1.8,1.8,0,0,1-.28,1,1.49,1.49,0,0,1-.74.62l1.18,2.22h-1.34l-1-2h-.95v2H418Zm2.2,2.7a1,1,0,0,0,.69-.23.85.85,0,0,0,.25-.65h0a.82.82,0,0,0-.26-.64,1,1,0,0,0-.69-.24h-1v1.77Z"/>
        <path class="cls-26" d="M425.2,453h-1l1.41-7h1Z"/>
        <path class="cls-26" d="M430,447.1h0l-1.44,1V447l1.46-1h1.18v5.64H430Z"/>
        <path class="cls-26" d="M432.43,450.85l2-1.86a6.67,6.67,0,0,0,.55-.57,1.66,1.66,0,0,0,.26-.4,1.22,1.22,0,0,0,.07-.38h0a.81.81,0,0,0-.11-.41.89.89,0,0,0-.3-.28,1.06,1.06,0,0,0-.45-.1,1,1,0,0,0-.5.12,1,1,0,0,0-.35.31.91.91,0,0,0-.13.46v0h-1.1v0a1.69,1.69,0,0,1,.27-.94,1.93,1.93,0,0,1,.74-.64,2.66,2.66,0,0,1,2.12,0,1.69,1.69,0,0,1,.7.58,1.47,1.47,0,0,1,.26.85h0a1.53,1.53,0,0,1-.13.64,2.19,2.19,0,0,1-.4.61,9.12,9.12,0,0,1-.77.78l-1.63,1.48.45-.79v.79l-.45-.36h3v.94h-4.1Z"/>
        <path class="cls-26" d="M438.66,447.1h0l-1.44,1V447l1.46-1h1.17v5.64h-1.17Z"/>
        <path class="cls-26" d="M442.74,446h1.37l1.6,4.05h0l1.6-4.05h1.37v5.64h-1.06v-3.81h-.54l1.18-1.67-2.19,5.48h-.74l-2.19-5.48,1.18,1.67h-.54v3.81h-1.06Z"/>
        <path class="cls-26" d="M449.64,446h1.18v5.64h-1.18Z"/>
        <path class="cls-26" d="M451.75,446h1l3.07,4.41-1-.74h.49V446h1.18v5.64h-1l-3.07-4.44,1,.75h-.49v3.69h-1.18Z"/>
        <path class="cls-26" d="M458.36,451.56a1.86,1.86,0,0,1-.79-.57,1.54,1.54,0,0,1-.31-.89V450h1.12v0a.74.74,0,0,0,.2.38,1.05,1.05,0,0,0,.41.25,1.73,1.73,0,0,0,.58.08,1.58,1.58,0,0,0,.56-.08.84.84,0,0,0,.37-.25.65.65,0,0,0,.13-.38h0a.53.53,0,0,0-.23-.45,2,2,0,0,0-.75-.27l-.59-.12a2.59,2.59,0,0,1-1.26-.56,1.39,1.39,0,0,1-.42-1h0a1.5,1.5,0,0,1,.28-.89,1.82,1.82,0,0,1,.76-.6,2.65,2.65,0,0,1,1.11-.22,2.78,2.78,0,0,1,1.13.21,1.79,1.79,0,0,1,.74.57,1.62,1.62,0,0,1,.29.87v.07h-1.12v-.05a.73.73,0,0,0-.17-.38A1,1,0,0,0,460,447a1.55,1.55,0,0,0-1,0,.83.83,0,0,0-.33.24.55.55,0,0,0-.12.35h0a.51.51,0,0,0,.23.43,2,2,0,0,0,.71.26l.6.12a2.67,2.67,0,0,1,1.3.56,1.36,1.36,0,0,1,.41,1h0a1.65,1.65,0,0,1-.27.94,1.8,1.8,0,0,1-.78.61,3.51,3.51,0,0,1-2.39,0Z"/>
        <path class="cls-26" d="M462.56,451.54a.65.65,0,0,1,0-.9.64.64,0,0,1,.45-.18.61.61,0,0,1,.45.18.63.63,0,0,1,0,.9.61.61,0,0,1-.45.18A.64.64,0,0,1,462.56,451.54Z"/>
        <path class="cls-26" d="M466.1,453h-1l1.41-7h1Z"/>
        <path class="cls-26" d="M470.67,451.5a2,2,0,0,1-.82-.74,2.06,2.06,0,0,1-.29-1.09V446h1.18v3.54a1.19,1.19,0,0,0,.31.87,1.33,1.33,0,0,0,1.75,0,1.23,1.23,0,0,0,.3-.87V446h1.18v3.65a2.06,2.06,0,0,1-.28,1.09,1.94,1.94,0,0,1-.82.73,2.73,2.73,0,0,1-1.26.27A2.88,2.88,0,0,1,470.67,451.5Z"/>
        <path class="cls-26" d="M476.11,451.56a1.77,1.77,0,0,1-.78-.57,1.55,1.55,0,0,1-.32-.89V450h1.11v0a.66.66,0,0,0,.19.38,1.09,1.09,0,0,0,.42.25,1.71,1.71,0,0,0,.57.08,1.64,1.64,0,0,0,.57-.08.8.8,0,0,0,.36-.25.58.58,0,0,0,.13-.38h0a.55.55,0,0,0-.22-.45,2,2,0,0,0-.75-.27l-.6-.12a2.55,2.55,0,0,1-1.25-.56,1.39,1.39,0,0,1-.43-1h0a1.5,1.5,0,0,1,.29-.89,1.7,1.7,0,0,1,.76-.6,2.59,2.59,0,0,1,1.11-.22,2.73,2.73,0,0,1,1.12.21,1.73,1.73,0,0,1,.74.57,1.62,1.62,0,0,1,.3.87v.07h-1.11v-.05a.66.66,0,0,0-.17-.38,1,1,0,0,0-.36-.24,1.36,1.36,0,0,0-.51-.09,1.35,1.35,0,0,0-.52.09.8.8,0,0,0-.34.24.61.61,0,0,0-.11.35h0a.5.5,0,0,0,.22.43,2,2,0,0,0,.71.26l.6.12a2.62,2.62,0,0,1,1.3.56,1.32,1.32,0,0,1,.41,1h0a1.65,1.65,0,0,1-.27.94,1.8,1.8,0,0,1-.78.61,3.51,3.51,0,0,1-2.39,0Z"/>
        <path class="cls-26" d="M481.85,446H483v5.64h-1.18Zm.6,2.94h1.38a1.14,1.14,0,0,0,.79-.26.94.94,0,0,0,.28-.74h0a1,1,0,0,0-.28-.74,1.14,1.14,0,0,0-.79-.25h-1.38V446h1.67a2.16,2.16,0,0,1,1,.24,1.67,1.67,0,0,1,.69.68,1.92,1.92,0,0,1,.25,1h0a2,2,0,0,1-.25,1,1.65,1.65,0,0,1-.69.67,2.16,2.16,0,0,1-1,.24h-1.67Z"/>
        <path class="cls-26" d="M487.89,451.4a2.33,2.33,0,0,1-.94-1,3.51,3.51,0,0,1-.33-1.58h0a3.48,3.48,0,0,1,.32-1.55,2.28,2.28,0,0,1,.94-1,2.83,2.83,0,0,1,1.43-.35,2.71,2.71,0,0,1,1.2.25,2.37,2.37,0,0,1,.84.65,2.09,2.09,0,0,1,.42.95v.06H490.6l0,0a1.27,1.27,0,0,0-.46-.64,1.52,1.52,0,0,0-1.61,0,1.38,1.38,0,0,0-.51.64,2.59,2.59,0,0,0-.18,1h0a2.74,2.74,0,0,0,.19,1.05,1.47,1.47,0,0,0,.53.66,1.38,1.38,0,0,0,.81.24,1.48,1.48,0,0,0,.68-.15,1.06,1.06,0,0,0,.46-.4,1.13,1.13,0,0,0,.19-.61v-.08H489.4v-.88h2.43v.65a2.74,2.74,0,0,1-.29,1.32,2.07,2.07,0,0,1-.86.85,2.81,2.81,0,0,1-1.35.3A2.77,2.77,0,0,1,487.89,451.4Z"/>
        <path class="cls-26" d="M494.74,453h-1l1.41-7h1Z"/>
        <path class="cls-26" d="M497.89,446h1.23l.89,4h0l1-4h1l1,4h0l.89-4h1.23l-1.5,5.64h-1.15l-1-3.78h0l-1,3.78h-1.15Z"/>
        <path class="cls-26" d="M505.92,446h1.18v5.64h-1.18Z"/>
        <path class="cls-26" d="M508,446h2.15a3,3,0,0,1,1.45.33,2.2,2.2,0,0,1,.92.94,3.35,3.35,0,0,1,.32,1.52h0a3.45,3.45,0,0,1-.32,1.53,2.21,2.21,0,0,1-.92,1,2.85,2.85,0,0,1-1.45.34H508Zm2,4.66a1.75,1.75,0,0,0,.89-.21,1.39,1.39,0,0,0,.55-.62,2.6,2.6,0,0,0,.18-1h0a2.27,2.27,0,0,0-.19-1,1.31,1.31,0,0,0-.55-.61,1.74,1.74,0,0,0-.88-.21h-.83v3.68Z"/>
        <path class="cls-26" d="M513.64,446h3.73v1h-2.55v1.36h2.41v.92h-2.41v1.42h2.55v1h-3.73Z"/>
        <path class="cls-26" d="M519.12,451.56a1.8,1.8,0,0,1-.79-.57,1.55,1.55,0,0,1-.32-.89V450h1.11v0a.67.67,0,0,0,.2.38,1,1,0,0,0,.41.25,1.73,1.73,0,0,0,.58.08,1.61,1.61,0,0,0,.56-.08.75.75,0,0,0,.36-.25.58.58,0,0,0,.13-.38h0a.52.52,0,0,0-.22-.45,2,2,0,0,0-.75-.27l-.59-.12a2.55,2.55,0,0,1-1.26-.56,1.39,1.39,0,0,1-.42-1h0a1.43,1.43,0,0,1,.28-.89,1.76,1.76,0,0,1,.76-.6,2.59,2.59,0,0,1,1.11-.22,2.81,2.81,0,0,1,1.13.21,1.86,1.86,0,0,1,.74.57,1.7,1.7,0,0,1,.29.87v.07h-1.11v-.05a.72.72,0,0,0-.16-.38,1.13,1.13,0,0,0-.36-.24,1.55,1.55,0,0,0-1,0,.77.77,0,0,0-.33.24.55.55,0,0,0-.12.35h0a.51.51,0,0,0,.23.43,2,2,0,0,0,.71.26l.6.12a2.67,2.67,0,0,1,1.3.56,1.36,1.36,0,0,1,.41,1h0a1.65,1.65,0,0,1-.27.94,1.83,1.83,0,0,1-.79.61,3.48,3.48,0,0,1-2.38,0Z"/>
        <path class="cls-26" d="M524.36,451.4a2.33,2.33,0,0,1-.94-1,3.56,3.56,0,0,1-.32-1.56h0a3.59,3.59,0,0,1,.32-1.56,2.39,2.39,0,0,1,.94-1,2.79,2.79,0,0,1,1.42-.35,2.64,2.64,0,0,1,1.22.27,2.2,2.2,0,0,1,.86.73,2.15,2.15,0,0,1,.38,1.06v0h-1.15V448a1.65,1.65,0,0,0-.24-.54,1.29,1.29,0,0,0-.44-.36,1.49,1.49,0,0,0-.62-.13,1.29,1.29,0,0,0-.78.24,1.46,1.46,0,0,0-.51.65,2.48,2.48,0,0,0-.19,1h0a2.49,2.49,0,0,0,.19,1,1.44,1.44,0,0,0,.51.66,1.29,1.29,0,0,0,.78.24,1.48,1.48,0,0,0,.61-.13,1.1,1.1,0,0,0,.44-.36,1.49,1.49,0,0,0,.26-.57v0h1.15v0a2.06,2.06,0,0,1-.38,1.06,2.12,2.12,0,0,1-.86.73,2.64,2.64,0,0,1-1.22.27A2.7,2.7,0,0,1,524.36,451.4Z"/>
        <path class="cls-26" d="M529,446h2.32a2.41,2.41,0,0,1,1.09.22,1.54,1.54,0,0,1,.69.62,1.86,1.86,0,0,1,.24,1h0a1.72,1.72,0,0,1-.28,1,1.49,1.49,0,0,1-.74.62l1.19,2.22h-1.34l-1-2h-.94v2H529Zm2.19,2.7a1,1,0,0,0,.69-.23.85.85,0,0,0,.25-.65h0a.79.79,0,0,0-.26-.64,1,1,0,0,0-.69-.24h-1v1.77Z"/>
        <path class="cls-26" d="M534.1,446h3.73v1h-2.55v1.36h2.41v.92h-2.41v1.42h2.55v1H534.1Z"/>
        <path class="cls-26" d="M538.68,446h3.74v1h-2.56v1.36h2.41v.92h-2.41v1.42h2.56v1h-3.74Z"/>
        <path class="cls-26" d="M543.27,446h1l3.06,4.41-1-.74h.5V446h1.18v5.64h-1L544,447.22l1,.75h-.5v3.69h-1.17Z"/>
        <path class="cls-26" d="M551.11,453h-1l1.41-7h1Z"/>
        <path class="cls-26" d="M554.57,446h1l3.06,4.41-1-.74h.5V446h1.18v5.64h-1l-3.07-4.44,1,.75h-.5v3.69h-1.17Z"/>
        <path class="cls-26" d="M561.63,447H560v-1h4.44v1h-1.63v4.67h-1.18Z"/>
        <path class="cls-26" d="M566,451.56a1.86,1.86,0,0,1-.79-.57,1.54,1.54,0,0,1-.31-.89V450H566v0a.67.67,0,0,0,.2.38,1.05,1.05,0,0,0,.41.25,1.73,1.73,0,0,0,.58.08,1.58,1.58,0,0,0,.56-.08.84.84,0,0,0,.37-.25.64.64,0,0,0,.12-.38h0a.52.52,0,0,0-.22-.45,2,2,0,0,0-.75-.27l-.59-.12a2.55,2.55,0,0,1-1.26-.56,1.39,1.39,0,0,1-.42-1h0a1.5,1.5,0,0,1,.28-.89,1.76,1.76,0,0,1,.76-.6,2.62,2.62,0,0,1,1.11-.22,2.78,2.78,0,0,1,1.13.21,1.86,1.86,0,0,1,.74.57,1.62,1.62,0,0,1,.29.87v.07H568.2v-.05a.65.65,0,0,0-.16-.38,1,1,0,0,0-.36-.24,1.55,1.55,0,0,0-1,0,.77.77,0,0,0-.33.24.55.55,0,0,0-.12.35h0a.51.51,0,0,0,.23.43,2,2,0,0,0,.71.26l.6.12a2.67,2.67,0,0,1,1.3.56,1.36,1.36,0,0,1,.41,1h0a1.65,1.65,0,0,1-.27.94,1.8,1.8,0,0,1-.78.61,3.51,3.51,0,0,1-2.39,0Z"/>
        <path class="cls-26" d="M571.23,451.4a2.25,2.25,0,0,1-.93-1,3.42,3.42,0,0,1-.33-1.56h0a3.45,3.45,0,0,1,.33-1.56,2.31,2.31,0,0,1,.93-1,2.83,2.83,0,0,1,1.43-.35,2.63,2.63,0,0,1,1.21.27,2.2,2.2,0,0,1,.86.73,2.06,2.06,0,0,1,.38,1.06v0H574V448a1.65,1.65,0,0,0-.24-.54,1.2,1.2,0,0,0-.44-.36,1.44,1.44,0,0,0-.61-.13,1.3,1.3,0,0,0-.79.24,1.46,1.46,0,0,0-.51.65,2.65,2.65,0,0,0-.19,1h0a2.67,2.67,0,0,0,.19,1,1.44,1.44,0,0,0,.51.66,1.32,1.32,0,0,0,.79.24,1.47,1.47,0,0,0,.6-.13,1.13,1.13,0,0,0,.45-.36,1.48,1.48,0,0,0,.25-.57v0h1.15v0a2.25,2.25,0,0,1-.38,1.06,2.22,2.22,0,0,1-.87.73,2.63,2.63,0,0,1-1.21.27A2.74,2.74,0,0,1,571.23,451.4Z"/>
      </g>
      <g>
        <path class="cls-26" d="M548.2,332.22v33.6h48.89v-33.6Zm47.17,31.88H549.92V334h45.45Z"/>
        <path class="cls-26" d="M586.11,353.12c-.06.83.28,2.91-3.44,3-4.33-.1-4-3-4.1-4.09s0-3.21,0-5.82.28-4.46,4.31-4.52,3.81,3,3.88,3.88a1.15,1.15,0,0,0,1.07.64h2.37a1,1,0,0,0,.87-.86v-3.44a1.56,1.56,0,0,0-1.08-1.3,41.58,41.58,0,0,0-6.68-.43c-5.77.06-6.92.76-7.75,1.51s-2.26,1-2.16,6.89c-.1,6,.17,6.5,1.08,7.54,1.1,1.11,5.41,1.65,7.75,1.51a26.3,26.3,0,0,0,8.19-1.08.8.8,0,0,0,.43-.86v-2.58c.08-1.53.89-2.44,1.94-2.37.46-.07.73-.34.64-.65v-.43A.47.47,0,0,0,593,349h-9a.59.59,0,0,0-.65.65v.43c0,.31.25.58.65.65C585.45,350.71,586.08,351.59,586.11,353.12Z"/>
        <path class="cls-26" d="M566.29,340.62H552.51a.71.71,0,0,0-.65.43v.65a.6.6,0,0,0,.65.43c2,0,3,1,3,2.59v8.61c-.06,1.59-1.1,2.53-3,2.59a.52.52,0,0,0-.65.43V357a.32.32,0,0,0,.43.22h11.63c.27.1.46,0,.43-.22v-.64a.36.36,0,0,0-.43-.43c-2.84-.09-3.71-1-3.66-2.59v-2.58h5.6c2.18-.1,5.82-.24,5.82-5.6C571.68,341.13,569.25,340.59,566.29,340.62Zm-2.15,8.19h-3.88v-6.46h3.66c2.14,0,2.48,1.49,2.37,3C566.4,346.94,566.16,348.9,564.14,348.81Z"/>
      </g>
      <g>
        <rect class="cls-51" x="447" y="464.71" width="53.73" height="19.44" rx="2.08"/>
        <rect class="cls-51" x="447" y="461.97" width="53.73" height="24.94" rx="2.08"/>
        <rect class="cls-51" x="447" y="459.23" width="53.73" height="30.41" rx="2.7"/>
        <path class="cls-52" d="M449.7,489.64H447a2.7,2.7,0,0,1-2.7-2.7v-25a2.7,2.7,0,0,1,2.7-2.7h2.74a2.7,2.7,0,0,0-2.7,2.7v25A2.7,2.7,0,0,0,449.7,489.64Z"/>
        <path class="cls-52" d="M503.48,461.93v25a2.7,2.7,0,0,1-2.7,2.7H498a2.7,2.7,0,0,0,2.7-2.7v-25a2.7,2.7,0,0,0-2.7-2.7h2.75A2.7,2.7,0,0,1,503.48,461.93Z"/>
        <rect class="cls-51" x="447" y="459.23" width="53.73" height="30.41" rx="2.7"/>
        <text class="cls-53" transform="translate(449.4 473.03)">BOO<tspan class="cls-54" x="17.75" y="0">KS</tspan><tspan class="cls-55" x="28.53" y="0">HELF</tspan><tspan class="cls-56"><tspan x="3.72" y="8.5">STUDIOS</tspan></tspan></text>
      </g>
      <g>
        <path class="cls-26" d="M352.36,358.48a1.6,1.6,0,0,0-1.08.78c-.43.65-2.42,3.92-2.77,4.53s-.26.88.14.88h.88c.41,0,.79-.47.94-.79s2.54-4.09,2.92-4.65.11-.75-.15-.75Z"/>
        <path class="cls-26" d="M344.39,364.67c1.49-.06,2.48-.12,3.65-2.25.5-1-.9-1-.9-1a2.69,2.69,0,0,0,2.07-1.63c.73-1.52-.56-1.4-.79-1.43a31.34,31.34,0,0,0-4.76,0c-.32,0-.7.44-.9.7s-2.57,4.2-2.92,4.76,0,.82.38.85c1.11.05,2.51.05,4.17,0Zm1.29-2.05a1.59,1.59,0,0,1-1.61.88H342.9c-.14,0-.29,0-.14-.32s.49-.73.61-.91a.47.47,0,0,1,.5-.26h1.25c.24,0,.85,0,.56.61Zm1.08-2.51a1.58,1.58,0,0,1-1.61.85h-.7c-.12,0-.32,0-.12-.27s.44-.78.59-1a.56.56,0,0,1,.46-.26h.85c.23,0,.85,0,.53.64Z"/>
        <path class="cls-26" d="M393,360.81l-1.92,3.07c-.41.64-.06.79.14.79h.85c.32,0,.55,0,1.05-.79l1.93-3.13c.52-.84-.12-.79-.53-.79-.73,0-.9,0-1.52.85Z"/>
        <path class="cls-26" d="M401,361h-2.31a1.09,1.09,0,0,0-.73.43c-.15.24-.06.47.17.47,0,0,.94,0,1.64,0s1,.47.2,1.55a2.51,2.51,0,0,1-.73.76,4.66,4.66,0,0,1-2.71.52c-1.9,0-2-.2-2-.2a.56.56,0,0,1-.17-.56.93.93,0,0,1,.61-.23h2.39a.93.93,0,0,0,.71-.47c.17-.23.08-.52-.15-.52h-1.78c-.85,0-.73-.56-.09-1.49a3.78,3.78,0,0,1,.73-.76,4.91,4.91,0,0,1,2.75-.53c.81,0,2.19-.08,2.1.62,0,.32-.5.41-.64.41Z"/>
        <path class="cls-26" d="M407,361h-1.87a.92.92,0,0,0-.7.5l-1.11,1.72c-.14.24-.06.5.12.5h2.22c.32,0,.52,0,.49.12,0,.32-.49.87-3.09.87-2.34,0-2.19-.32-2.16-.67a19.37,19.37,0,0,1,1.54-2.74c.36-.59.85-1.35,3.16-1.35,2.16,0,2,.5,2,.62s-.11.43-.61.43Z"/>
        <path class="cls-26" d="M396.17,358.21a.29.29,0,0,1,.23.47,3,3,0,0,0-.32.53.84.84,0,0,1-.7.26h-1.2c-.23,0-.23-.21-.12-.41a2.09,2.09,0,0,1,.24-.38.74.74,0,0,1,.7-.47Z"/>
        <path class="cls-26" d="M361.24,361.57a.76.76,0,0,0-.7.44c-.06.12-.15.2-.26.41s-.06.41.06.41h1.25a.74.74,0,0,0,.7-.3l.32-.55c.21-.29-.06-.41-.2-.41Z"/>
        <path class="cls-26" d="M390.27,362.77c.76-1.23.29-.47,1.37-2.19s-.61-2.1-2.25-2.1a28.33,28.33,0,0,0-3.27.11,1,1,0,0,0-.76.53l-3,4.9c-.17.3-.11.53.12.59,0,0,.73.06,3.24.06,3.45,0,3.77-.65,4.59-1.9Zm-1-2.19s-1.32,2.07-1.41,2.19a1.49,1.49,0,0,1-1.13.73h-1.29c-.23,0-.35,0-.2-.26l2.1-3.36a.51.51,0,0,1,.41-.21H389c.41,0,.53.44.27.91Z"/>
        <path class="cls-26" d="M370.15,361.8c-.73,0-1,.06-1.61.09a1,1,0,0,0-.76.5l-.61,1.05c-.76,1.2.88,1.28,2.16,1.28a6.57,6.57,0,0,0,3.07-.58,2,2,0,0,0,.73-.7l1.34-2.19a1,1,0,0,0,.06-.88s-.18-.41-2.25-.41a8.6,8.6,0,0,0-2.86.33,2.2,2.2,0,0,0-.62.43c-.05.18.06.3.3.3h3c.24,0,.32.2.21.4a1,1,0,0,1-.7.38Zm1.17,1.44v0a1.36,1.36,0,0,1-.85.56H369.3c-.23,0-.32-.26-.12-.56v0a1.3,1.3,0,0,1,.85-.59h1.17c.23,0,.32.26.12.59Z"/>
        <path class="cls-26" d="M366.12,361.45a1.07,1.07,0,0,1,.76-.49h.93c.15,0,.61,0,.64-.32,0-.47-1-.59-1.34-.59-1.37,0-2.13.06-2.92,1.23-.61.93-1.23,1.9-1.64,2.6s0,.79.18.79h.85c.32,0,.55,0,1.05-.79l1.49-2.43Z"/>
        <path class="cls-26" d="M360,360.84,358.7,363c-.17.23,0,.35.15.35h.46a.26.26,0,0,1,.18.44,2.94,2.94,0,0,1-.32.58c-.12.21-.32.27-.67.27h-.56c-.38,0-.17-.56-.17-.56-.56.61-1.84.61-3.19.61s-2.95,0-2.19-1.28l1.64-2.63a1.57,1.57,0,0,1,.73-.73s.06-.09.76-.09c.46,0,1.08,0,.55.82l-1.49,2.43c-.17.23-.08.46.18.46h1a1.28,1.28,0,0,0,.79-.46s.76-1.32,1.43-2.4c.17-.26.61-.85,1.05-.85h.73c.32,0,.7.09.23.85Z"/>
        <path class="cls-26" d="M373.3,365.89h2.43l.49,0a.93.93,0,0,0,.73-.52l.5-.73a6.57,6.57,0,0,1-1,.05c-1.23,0-2.92,0-2.16-1.28l1.57-2.54a3.13,3.13,0,0,1,.73-.73c0-.06.12-.09.79-.09.44,0,1.14-.12.53.82l-1.41,2.34c-.17.23-.11.46.12.46h1a1.11,1.11,0,0,0,.73-.46l1.46-2.34a2,2,0,0,1,.73-.73s.12-.09.79-.09c.38,0,1.14-.12.53.82l-1.23,2a.69.69,0,0,0-.14.26l-1.55,2.51a3.16,3.16,0,0,1-.73.73,6.66,6.66,0,0,1-3.07.58h-.29c-1.9-.05-1.81-.17-1.93-.26a.39.39,0,0,1-.2-.44c0-.2.29-.35.61-.35Z"/>
        <path class="cls-26" d="M354,333.16c-.06,0-.06,0-.09.06a77.78,77.78,0,0,0-5.61,8.84l-.17.32,0,.12a.79.79,0,0,0,.09.88c.93,1.46,6.16,3.18,17.81,3.18,8.7,0,18-1.4,18-4,0-2.48-9.11-4-18-4a44.16,44.16,0,0,0-6.66.53c.79-1.23,4.12-5.7,4.12-5.73s.06-.06.06-.09v0c-.06,0-.09-.06-.15-.06Zm3.39,9.37c0-.52,3.3-1.28,8.61-1.28s8.59.76,8.59,1.28-3.27,1.31-8.59,1.31-8.61-.73-8.61-1.31Z"/>
        <path class="cls-26" d="M360.63,355.64c1.49,0,43.39,1.49,44.33-13.37.76-12.3-30.08-11.13-30.08-11.13s-.26,0-.26.15.08.2.2.2c8.56,0,22.46,3.42,22,10.78-.35,6-11.21,13-36.21,13a.26.26,0,0,0-.24.21c0,.09.09.17.24.2Z"/>
        <polygon class="cls-26" points="399.06 354.56 398.24 354.56 398.24 354.39 400.11 354.39 400.11 354.56 399.35 354.56 399.35 356.02 399.06 356.02 399.06 354.56"/>
        <polygon class="cls-26" points="400.52 354.39 400.87 354.39 401.48 355.76 402.12 354.39 402.48 354.39 402.48 356.02 402.24 356.02 402.24 354.68 402.21 354.68 401.6 356.02 401.37 356.02 400.75 354.68 400.75 356.02 400.52 356.02 400.52 354.39"/>
      </g>
    </g>
  </g>
</svg>
