<svg id="Layer_1" data-name="Layer 1" xmlns="http://www.w3.org/2000/svg" viewBox="0 0 700 700">
  <defs>
    <style>
      .cls-1 {
        fill: #636b6f;
      }

      .cls-2 {
        fill: #515556;
      }

      .cls-3 {
        fill: #505556;
      }

      .cls-4 {
        fill: #62686b;
      }

      .cls-5 {
        fill: #d4d3c5;
      }

      .cls-6 {
        fill: #e7ddee;
      }

      .cls-7 {
        fill: #f9cde0;
      }

      .cls-8 {
        fill: #fff2d0;
      }

      .cls-9 {
        fill: #dfefd9;
      }

      .cls-10 {
        fill: #cee0f3;
      }

      .cls-11 {
        fill: none;
        stroke: #bcc3c4;
        stroke-miterlimit: 10;
        stroke-width: 3px;
      }
    </style>
  </defs>
  <g>
    <path class="cls-1" d="M262.51,664V137.09H628a7.5,7.5,0,0,1,7.5,7.5V656.51A7.5,7.5,0,0,1,628,664Z"/>
    <path class="cls-2" d="M628,139.59a5,5,0,0,1,5,5V656.51a5,5,0,0,1-5,5H265V139.59H628m0-5H260V666.51H628a10,10,0,0,0,10-10V144.59a10,10,0,0,0-10-10Z"/>
  </g>
  <path class="cls-3" d="M240,134.59V666.52L66.81,561.42A11.09,11.09,0,0,1,62,552.86V44.22c0-6.8,3.37-10.74,8.26-10.74a13.61,13.61,0,0,1,6.88,2.2l5.65,3.43,1.5.91Z"/>
  <path class="cls-4" d="M84.25,33.48V44.22H62c0-6.8,3.37-10.74,8.26-10.74Z"/>
  <path class="cls-4" d="M86.81,552.86v8.56h-20A11.09,11.09,0,0,1,62,552.86Z"/>
  <polygon class="cls-3" points="260.01 134.59 260.01 666.51 240.01 666.51 240.01 126.08 254.01 134.59 260.01 134.59"/>
  <path class="cls-4" d="M240,126.09V658L80.81,561.42A11.09,11.09,0,0,1,76,552.86V44.24c0-9.7,6.81-13.56,15.14-8.56Z"/>
  <circle class="cls-3" cx="449.02" cy="401.52" r="168.01"/>
  <path class="cls-5" d="M449,243.58a158.59,158.59,0,0,0-39.48,5c-3.7,1-7.36,2-10.95,3.26q-2.59.87-5.14,1.84c-2.12.79-4.23,1.63-6.31,2.52-1.25.53-2.48,1.07-3.7,1.64A158,158,0,0,0,364.69,268a158.68,158.68,0,0,0-40.16,36.36,157.2,157.2,0,0,0-33.34,90.92q-.12,3.13-.12,6.3a158.11,158.11,0,0,0,197.44,153q5.55-1.46,10.95-3.26c1.72-.58,3.44-1.19,5.13-1.83,2.13-.79,4.23-1.64,6.31-2.53,1.24-.53,2.48-1.07,3.71-1.63a158.07,158.07,0,0,0,92.23-137.44c.08-2.09.13-4.19.13-6.29A158,158,0,0,0,449,243.58Zm38.72,159.49a38.72,38.72,0,0,1-14.31,28.55,39.08,39.08,0,0,1-8.31,5.16h0l-.91.41c-.5.22-1,.43-1.54.62l-1.26.45c-.88.3-1.78.56-2.69.79a38.74,38.74,0,0,1-48.43-37.52c0-.52,0-1,0-1.54a38.82,38.82,0,0,1,14.31-28.55,36,36,0,0,1,3.72-2.67,37.76,37.76,0,0,1,4.6-2.49c.3-.14.59-.28.9-.41h0c.51-.21,1-.42,1.54-.61h0c.42-.16.83-.31,1.26-.45.88-.3,1.77-.57,2.68-.8a38.75,38.75,0,0,1,48.44,37.52C487.77,402,487.75,402.55,487.73,403.07Z"/>
  <path class="cls-6" d="M433.65,382.57a24.38,24.38,0,0,0-3.87,3.93l-11.29-8.82-94-73.38a159.5,159.5,0,0,1,25-25.44l75.1,92.58Z"/>
  <path class="cls-7" d="M442.92,377.89c-.57.15-1.13.31-1.69.5l-4.58-13.59-38.07-113q5.4-1.81,10.95-3.26L439.33,364h0Z"/>
  <path class="cls-8" d="M440.44,378.68a10.52,10.52,0,0,0-1,.39l-5.62-13.2-46.7-109.71q3.12-1.34,6.31-2.52l41.94,111.61h0Z"/>
  <path class="cls-9" d="M438.89,379.32a25.2,25.2,0,0,0-2.9,1.56l-7.65-12.12L364.7,268a157.12,157.12,0,0,1,18.73-10.15l49.5,108.48Z"/>
  <path class="cls-10" d="M429.78,386.5a24.34,24.34,0,0,0-5.15,14.05L410.31,400,291.2,395.23a157.23,157.23,0,0,1,33.33-90.93l94,73.38Z"/>
  <path class="cls-6" d="M573.5,498.75a157.79,157.79,0,0,1-25,25.44l-75.09-92.57-9-11.14a24.33,24.33,0,0,0,3.86-3.93l11.3,8.83Z"/>
  <path class="cls-7" d="M499.46,551.24c-3.59,1.22-7.25,2.3-10.95,3.27l-29.8-115.46-3.58-13.88c.56-.15,1.13-.32,1.69-.51l4.57,13.59Z"/>
  <path class="cls-8" d="M510.91,546.89c-2.08.88-4.18,1.73-6.31,2.52l-42-111.61-5-13.42c.33-.12.65-.25,1-.39l5.62,13.2Z"/>
  <path class="cls-9" d="M533.35,535.1a158,158,0,0,1-18.74,10.15l-49.5-108.47-5.95-13a22.46,22.46,0,0,0,2.89-1.58l7.66,12.13Z"/>
  <path class="cls-10" d="M606.85,407.82a157.15,157.15,0,0,1-33.35,90.93l-93.94-73.37-11.3-8.83a24.21,24.21,0,0,0,5.15-14.05l14.33.56Z"/>
  <g>
    <path class="cls-1" d="M449,448.13a46.66,46.66,0,0,1-46.61-46.61c0-.58,0-1.13,0-1.71v-.16a46.3,46.3,0,0,1,9.84-26.8,47.63,47.63,0,0,1,7.37-7.52,49,49,0,0,1,4.47-3.2,45.23,45.23,0,0,1,5.53-3c.18-.07.38-.17.59-.27l.3-.14.21-.08,1.49-.61.38-.13c.5-.19,1-.36,1.5-.53.94-.33,1.92-.63,3-.92l.2-.05a46.62,46.62,0,0,1,58.24,45.12c0,.62,0,1.22,0,1.84v.12a46.15,46.15,0,0,1-9.83,26.73,46.71,46.71,0,0,1-7.37,7.51,47.7,47.7,0,0,1-9.84,6.13s-1.09.5-1.27.57c-.58.24-1.19.5-1.82.73l-1.14.41h0l-.41.14c-.91.31-1.89.61-3,.91l-.2.05A46.87,46.87,0,0,1,449,448.13Zm-7-67.45c-.27.08-.53.17-.79.27l-.09,0-.77.31-.53.23a20.75,20.75,0,0,0-2.61,1.42,24,24,0,0,0-2.07,1.48,22.59,22.59,0,0,0-3.49,3.56,21.73,21.73,0,0,0-4.65,12.66l0,.88a22,22,0,0,0,27.47,21.29c.53-.14,1-.29,1.53-.46.23-.07.49-.16.76-.27l.83-.33.53-.23a22.91,22.91,0,0,0,2.61-1.41,20.9,20.9,0,0,0,2.11-1.53,21.45,21.45,0,0,0,3.46-3.53A21.75,21.75,0,0,0,471,402.39v-.86a22,22,0,0,0-22-22,22.6,22.6,0,0,0-5.51.68Z"/>
    <path class="cls-2" d="M449,357.43a44.14,44.14,0,0,1,44.09,44.09c0,.66,0,1.21,0,1.73v.14a43.7,43.7,0,0,1-9.3,25.28,43.94,43.94,0,0,1-11.22,10.15,43.08,43.08,0,0,1-5,2.73l-.14.06-.67.3-.45.21c-.6.25-1.16.48-1.7.68h-.06l-.65.24h0l-.8.27c-.8.28-1.67.55-2.65.81l-.36.09a44.1,44.1,0,0,1-55.12-42.71c0-.58,0-1.13,0-1.71v-.08h0a44.14,44.14,0,0,1,16.29-32.44,41.89,41.89,0,0,1,4.26-3,41.25,41.25,0,0,1,5.16-2.81l.65-.29.16-.08.26-.11c.42-.17.79-.33,1.14-.46l.64-.25,1.41-.49H435c.8-.28,1.67-.54,2.65-.81l.36-.09a44,44,0,0,1,11-1.39m-7.7,20.86c-.38.11-.7.23-.95.33l-.94.37-.09,0-.07,0-.1,0-.33.15a23.7,23.7,0,0,0-2.89,1.57,24.77,24.77,0,0,0-2.3,1.64l0,0,0,0a25.52,25.52,0,0,0-3.84,3.93,24.29,24.29,0,0,0-5.18,14.1V401c0,.16,0,.32,0,.49a24.5,24.5,0,0,0,30.59,23.71h.05c.62-.17,1.13-.32,1.62-.48.28-.09.58-.2.91-.33s.6-.23.89-.36h.06l.12-.05.43-.2a25.21,25.21,0,0,0,2.88-1.55,24.1,24.1,0,0,0,2.35-1.69,25,25,0,0,0,3.87-3.95,24.22,24.22,0,0,0,5.18-14.11v-.19c0-.1,0-.19,0-.28v-.49a24.54,24.54,0,0,0-30.6-23.72l-.07,0-.07,0c-.44.13-.93.27-1.44.44m7.7-25.86A49.11,49.11,0,0,0,436.75,354h0c-1.15.3-2.28.63-3.4,1-.54.18-1.06.36-1.59.56h0c-.67.25-1.31.51-1.95.78h0l-1.14.52a46.67,46.67,0,0,0-5.82,3.16,47.65,47.65,0,0,0-4.72,3.38,49.62,49.62,0,0,0-7.76,7.91A48.94,48.94,0,0,0,400,399.57h0c0,.66,0,1.29,0,1.94a49.12,49.12,0,0,0,61.36,47.56h0c1.15-.3,2.28-.63,3.4-1h0c.53-.17,1.06-.36,1.59-.56s1.31-.51,2-.78l1.15-.52h0a48.13,48.13,0,0,0,5.82-3.16,47.52,47.52,0,0,0,4.71-3.38,49.05,49.05,0,0,0,18.13-36.17h0c0-.66,0-1.3,0-2A49.1,49.1,0,0,0,449,352.43ZM449,421a19.48,19.48,0,0,1-19.48-19.48c0-.26,0-.52,0-.77h0a19.31,19.31,0,0,1,4.12-11.21,19.82,19.82,0,0,1,3.07-3.14,22,22,0,0,1,1.87-1.34,19.3,19.3,0,0,1,2.32-1.26l.45-.2.78-.31c.21-.08.42-.16.64-.22.44-.15.89-.28,1.34-.41a19.52,19.52,0,0,1,24.36,18.87c0,.26,0,.52,0,.77a19.53,19.53,0,0,1-7.2,14.36,17.75,17.75,0,0,1-1.87,1.35,19.76,19.76,0,0,1-2.31,1.25l-.46.2-.78.31c-.21.09-.42.16-.64.23-.44.15-.89.28-1.34.4A19.57,19.57,0,0,1,449,421Z"/>
  </g>
  <circle class="cls-4" cx="449.02" cy="401.52" r="14.63"/>
  <circle class="cls-11" cx="449.02" cy="401.52" r="155.08"/>
</svg>
