<svg id="Layer_1" data-name="Layer 1" xmlns="http://www.w3.org/2000/svg" viewBox="0 0 700 700">
  <defs>
    <style>
      .cls-1 {
        fill: #181818;
      }

      .cls-2 {
        fill: #121212;
      }

      .cls-3 {
        fill: #141414;
      }

      .cls-22, .cls-4, .cls-6, .cls-7 {
        fill: #ddd;
      }

      .cls-21, .cls-24, .cls-25, .cls-26, .cls-32, .cls-5 {
        fill: none;
      }

      .cls-21, .cls-22, .cls-24, .cls-25, .cls-5, .cls-6 {
        stroke: #ddd;
      }

      .cls-21, .cls-22, .cls-24, .cls-26, .cls-32, .cls-33, .cls-5, .cls-6 {
        stroke-miterlimit: 10;
      }

      .cls-5, .cls-6 {
        stroke-width: 1.12px;
      }

      .cls-7 {
        font-size: 7.58px;
        letter-spacing: 0.05em;
      }

      .cls-34, .cls-7 {
        font-family: Baskerville-Bold, Baskerville;
        font-weight: 700;
      }

      .cls-8 {
        letter-spacing: 0.1em;
      }

      .cls-9 {
        letter-spacing: 0.05em;
      }

      .cls-10 {
        letter-spacing: 0.2em;
      }

      .cls-11 {
        font-size: 25px;
        font-family: Hero;
        letter-spacing: 0.1em;
      }

      .cls-11, .cls-23 {
        fill: #b83b3b;
      }

      .cls-12 {
        letter-spacing: 0.09em;
      }

      .cls-13 {
        letter-spacing: 0.13em;
      }

      .cls-14 {
        letter-spacing: 0.12em;
      }

      .cls-15 {
        letter-spacing: 0.1em;
      }

      .cls-16 {
        letter-spacing: 0.08em;
      }

      .cls-17 {
        letter-spacing: 0.1em;
      }

      .cls-18 {
        letter-spacing: 0.13em;
      }

      .cls-19 {
        letter-spacing: 0.09em;
      }

      .cls-20 {
        letter-spacing: 0.08em;
      }

      .cls-21, .cls-22 {
        stroke-width: 0.47px;
      }

      .cls-24, .cls-25, .cls-26 {
        stroke-width: 5.21px;
      }

      .cls-25 {
        stroke-linejoin: bevel;
      }

      .cls-26 {
        stroke: #b83b3b;
        stroke-linecap: square;
      }

      .cls-27 {
        fill: #333;
      }

      .cls-28 {
        fill: #444545;
      }

      .cls-29 {
        fill: #ababab;
      }

      .cls-30 {
        fill: #555;
      }

      .cls-31 {
        fill: #fff;
      }

      .cls-32, .cls-33 {
        stroke: #222;
        stroke-width: 0.97px;
      }

      .cls-33, .cls-34 {
        fill: #222;
      }

      .cls-34 {
        font-size: 6.52px;
        letter-spacing: 0.05em;
      }

      .cls-35 {
        letter-spacing: 0.1em;
      }

      .cls-36 {
        letter-spacing: 0.2em;
      }
    </style>
  </defs>
  <g>
    <rect class="cls-1" x="50.82" y="95.42" width="319.84" height="504.2"/>
    <polygon class="cls-2" points="32.37 582.14 50.82 599.62 50.82 95.42 32.37 77.94 32.37 582.14"/>
    <polygon class="cls-3" points="352.21 77.94 370.66 95.42 50.82 95.42 32.37 77.94 352.21 77.94"/>
    <g>
      <path class="cls-4" d="M72.47,505.27h.88v4.88H76v.76H72.47Z"/>
      <path class="cls-4" d="M77.52,510.65a2.37,2.37,0,0,1-.92-1,3.54,3.54,0,0,1-.32-1.55h0a3.36,3.36,0,0,1,.33-1.54,2.35,2.35,0,0,1,.91-1,2.78,2.78,0,0,1,1.41-.35,2.72,2.72,0,0,1,1.4.35,2.37,2.37,0,0,1,.92,1,3.5,3.5,0,0,1,.32,1.54h0a3.54,3.54,0,0,1-.32,1.55,2.43,2.43,0,0,1-.92,1,2.72,2.72,0,0,1-1.4.35A2.76,2.76,0,0,1,77.52,510.65Zm2.34-.69a1.65,1.65,0,0,0,.6-.74,2.81,2.81,0,0,0,.21-1.13h0a2.81,2.81,0,0,0-.21-1.13,1.72,1.72,0,0,0-.61-.74,1.78,1.78,0,0,0-1.85,0,1.73,1.73,0,0,0-.61.74,2.81,2.81,0,0,0-.21,1.13h0a2.78,2.78,0,0,0,.21,1.13A1.73,1.73,0,0,0,78,510a1.79,1.79,0,0,0,1.86,0Z"/>
      <path class="cls-4" d="M83.22,510.81a1.8,1.8,0,0,1-.76-.55,1.62,1.62,0,0,1-.31-.85v-.06H83v0a.87.87,0,0,0,.22.45,1.25,1.25,0,0,0,.46.29,2,2,0,0,0,.67.1,1.8,1.8,0,0,0,.65-.11,1,1,0,0,0,.43-.3.72.72,0,0,0,.15-.45h0a.69.69,0,0,0-.25-.54,2,2,0,0,0-.81-.32l-.61-.13a2.61,2.61,0,0,1-1.23-.56,1.36,1.36,0,0,1-.41-1h0a1.41,1.41,0,0,1,.27-.85,1.73,1.73,0,0,1,.72-.57,2.71,2.71,0,0,1,1.06-.2,2.4,2.4,0,0,1,1,.2,1.64,1.64,0,0,1,.71.55,1.53,1.53,0,0,1,.3.84v.06h-.85v-.05a.85.85,0,0,0-.2-.45.88.88,0,0,0-.41-.29,1.52,1.52,0,0,0-.59-.1,1.57,1.57,0,0,0-.6.1.89.89,0,0,0-.4.29.65.65,0,0,0-.14.43h0a.61.61,0,0,0,.25.51,1.8,1.8,0,0,0,.77.32l.62.13a2.59,2.59,0,0,1,1.27.56,1.36,1.36,0,0,1,.4,1h0a1.53,1.53,0,0,1-.26.89,1.66,1.66,0,0,1-.75.59,3,3,0,0,1-1.15.2A2.85,2.85,0,0,1,83.22,510.81Z"/>
      <path class="cls-4" d="M88.5,506H86.77v-.76H91.1V506H89.37v4.88H88.5Z"/>
      <path class="cls-4" d="M94.82,506H93.1v-.76h4.32V506H95.7v4.88h-.88Z"/>
      <path class="cls-4" d="M98.13,505.27h2.19a2.2,2.2,0,0,1,1,.21,1.51,1.51,0,0,1,.65.6,1.79,1.79,0,0,1,.23.92h0a1.78,1.78,0,0,1-.29,1,1.5,1.5,0,0,1-.8.6l1.26,2.3h-1l-1.15-2.16H99v2.16h-.88Zm2.11,2.75a1.08,1.08,0,0,0,.78-.26,1,1,0,0,0,.28-.75h0a1,1,0,0,0-.29-.74,1.14,1.14,0,0,0-.8-.26H99v2Z"/>
      <path class="cls-4" d="M104.68,505.27h.71v.93h-.25l-1.59,4.71h-.92Zm-.8,3.41h2.55l.25.7h-3.06Zm1.28-2.48v-.93h.47l2.05,5.64h-.93Z"/>
      <path class="cls-4" d="M109.12,510.65a2.48,2.48,0,0,1-.91-1,3.57,3.57,0,0,1-.32-1.55h0a3.5,3.5,0,0,1,.32-1.54,2.42,2.42,0,0,1,.91-1,2.68,2.68,0,0,1,1.39-.35,2.59,2.59,0,0,1,1.12.24,2,2,0,0,1,.82.66,2,2,0,0,1,.41,1v0H112l0-.08a1.4,1.4,0,0,0-.29-.57,1.38,1.38,0,0,0-.49-.37,1.83,1.83,0,0,0-.68-.13,1.55,1.55,0,0,0-.91.27,1.67,1.67,0,0,0-.6.73,2.81,2.81,0,0,0-.21,1.13h0a2.81,2.81,0,0,0,.21,1.13,1.65,1.65,0,0,0,.6.74,1.55,1.55,0,0,0,.91.26,1.78,1.78,0,0,0,.67-.12,1.42,1.42,0,0,0,.5-.38,1.55,1.55,0,0,0,.31-.6v0h.87v0a2,2,0,0,1-.41,1,2.14,2.14,0,0,1-.82.66,2.89,2.89,0,0,1-2.51-.12Z"/>
      <path class="cls-4" d="M113.66,505.27h.88v5.64h-.88Zm.82,2.7h.09l2.27-2.7h1l-2.17,2.55h-.11l-1.11,1.27Zm.54.26.62-.6,2.42,3.28H117Z"/>
      <path class="cls-4" d="M121.27,510.65a2.37,2.37,0,0,1-.92-1,3.54,3.54,0,0,1-.32-1.55h0a3.36,3.36,0,0,1,.33-1.54,2.35,2.35,0,0,1,.91-1,2.78,2.78,0,0,1,1.41-.35,2.72,2.72,0,0,1,1.4.35,2.37,2.37,0,0,1,.92,1,3.5,3.5,0,0,1,.32,1.54h0a3.54,3.54,0,0,1-.32,1.55,2.43,2.43,0,0,1-.92,1,2.72,2.72,0,0,1-1.4.35A2.76,2.76,0,0,1,121.27,510.65Zm2.34-.69a1.65,1.65,0,0,0,.6-.74,2.81,2.81,0,0,0,.21-1.13h0a2.81,2.81,0,0,0-.21-1.13,1.72,1.72,0,0,0-.61-.74,1.78,1.78,0,0,0-1.85,0,1.73,1.73,0,0,0-.61.74,2.81,2.81,0,0,0-.21,1.13h0a2.78,2.78,0,0,0,.21,1.13,1.73,1.73,0,0,0,.61.74,1.79,1.79,0,0,0,1.86,0Z"/>
      <path class="cls-4" d="M126.15,505.27h3.52V506H127v1.78h2.42v.74H127v2.36h-.88Z"/>
      <path class="cls-4" d="M132.05,505.27h.88v5.64h-.88Z"/>
      <path class="cls-4" d="M135.36,506h-1.72v-.76H138V506h-1.72v4.88h-.88Z"/>
      <path class="cls-4" d="M141.92,505.27h.71v.93h-.24l-1.6,4.71h-.92Zm-.8,3.41h2.55l.25.7h-3Zm1.29-2.48v-.93h.46l2,5.64H144Z"/>
      <path class="cls-4" d="M145.54,505.27h.87v4.88H149v.76h-3.5Z"/>
      <path class="cls-4" d="M149.79,505.27h.87v4.88h2.63v.76h-3.5Z"/>
      <path class="cls-4" d="M155.61,508.24h2.51V509h-2.51Z"/>
      <path class="cls-4" d="M160.74,505.27h1l1.82,4.5h0l1.82-4.5h1v5.64h-.8v-4.16h-.41l.92-1.32-2.24,5.48h-.65L161,505.43l.91,1.32h-.4v4.16h-.8Z"/>
      <path class="cls-4" d="M169,508.6l-2-3.33h1l1.44,2.49h0l1.43-2.49h1l-2,3.33v2.31H169Z"/>
      <path class="cls-4" d="M173.8,505.27h.91l1,4.41h0l1.19-4.41h.83l1.19,4.41h0l1-4.41H181l-1.52,5.64h-.85l-1.21-4.25h0l-1.21,4.25h-.84Z"/>
      <path class="cls-4" d="M182.78,505.27h.71v.93h-.25l-1.59,4.71h-.92Zm-.8,3.41h2.54l.26.7h-3.06Zm1.28-2.48v-.93h.47l2,5.64h-.92Z"/>
      <path class="cls-4" d="M187.23,508.6l-2-3.33h1l1.44,2.49h0l1.44-2.49h1l-2,3.33v2.31h-.88Z"/>
      <path class="cls-4" d="M193.37,510.65a2.37,2.37,0,0,1-.92-1,3.54,3.54,0,0,1-.32-1.55h0a3.5,3.5,0,0,1,.32-1.54,2.37,2.37,0,0,1,.92-1,2.78,2.78,0,0,1,1.41-.35,2.74,2.74,0,0,1,1.4.35,2.29,2.29,0,0,1,.91,1,3.36,3.36,0,0,1,.32,1.54h0a3.41,3.41,0,0,1-.32,1.55,2.35,2.35,0,0,1-.91,1,3,3,0,0,1-2.81,0Zm2.34-.69a1.65,1.65,0,0,0,.6-.74,2.81,2.81,0,0,0,.21-1.13h0a2.81,2.81,0,0,0-.21-1.13,1.79,1.79,0,0,0-.61-.74,1.66,1.66,0,0,0-2.46.74,2.81,2.81,0,0,0-.21,1.13h0a2.78,2.78,0,0,0,.21,1.13,1.66,1.66,0,0,0,.61.74,1.79,1.79,0,0,0,1.86,0Z"/>
      <path class="cls-4" d="M198.25,505.27h3.52V506h-2.65v1.78h2.43v.74h-2.43v2.36h-.87Z"/>
      <path class="cls-4" d="M204.15,505.27h2.19a2.26,2.26,0,0,1,1,.21,1.57,1.57,0,0,1,.65.6,1.79,1.79,0,0,1,.22.92h0a1.7,1.7,0,0,1-.29,1,1.47,1.47,0,0,1-.8.6l1.27,2.3h-1l-1.14-2.16H205v2.16h-.87Zm2.1,2.75a1.05,1.05,0,0,0,.78-.26,1,1,0,0,0,.28-.75h0a1,1,0,0,0-.29-.74,1.11,1.11,0,0,0-.79-.26H205v2Z"/>
      <path class="cls-4" d="M209.06,505.27h3.58V506h-2.7v1.64h2.56v.73h-2.56v1.75h2.7v.76h-3.58Z"/>
      <path class="cls-4" d="M213.54,505.27h1l1.83,4.5h0l1.83-4.5h1v5.64h-.8v-4.16H218l.91-1.32-2.24,5.48h-.64l-2.24-5.48.92,1.32h-.41v4.16h-.8Z"/>
      <path class="cls-4" d="M220.28,505.27h3.58V506h-2.7v1.64h2.55v.73h-2.55v1.75h2.7v.76h-3.58Z"/>
      <path class="cls-4" d="M224.76,505.27h1l1.83,4.5h0l1.82-4.5h1v5.64h-.8v-4.16h-.4l.91-1.32-2.24,5.48h-.65l-2.23-5.48.91,1.32h-.4v4.16h-.8Z"/>
      <path class="cls-4" d="M231.5,505.27h.87v5.64h-.87Zm.44,4.92h1.65a1.5,1.5,0,0,0,.89-.23.81.81,0,0,0,.31-.69h0a.8.8,0,0,0-.57-.82,2,2,0,0,0-.7-.1h-1.58v-.68h1.41a1.47,1.47,0,0,0,.88-.22.77.77,0,0,0,.3-.65h0a.71.71,0,0,0-.26-.6,1.11,1.11,0,0,0-.73-.2h-1.6v-.72h1.81a2.16,2.16,0,0,1,.88.17,1.27,1.27,0,0,1,.57.5,1.31,1.31,0,0,1,.21.74h0a1.22,1.22,0,0,1-.14.56,1.24,1.24,0,0,1-.37.45,1.17,1.17,0,0,1-.54.22h0a1.7,1.7,0,0,1,.7.23,1.18,1.18,0,0,1,.46.48,1.36,1.36,0,0,1,.17.67h0a1.49,1.49,0,0,1-.24.85,1.44,1.44,0,0,1-.66.55,2.63,2.63,0,0,1-1,.19h-1.82Z"/>
      <path class="cls-4" d="M236.44,505.27H240V506h-2.71v1.64h2.56v.73h-2.56v1.75H240v.76h-3.58Z"/>
      <path class="cls-4" d="M240.92,505.27h2.19a2.19,2.19,0,0,1,1,.21,1.54,1.54,0,0,1,.66.6,1.79,1.79,0,0,1,.22.92h0a1.7,1.7,0,0,1-.29,1,1.47,1.47,0,0,1-.8.6l1.27,2.3h-1L243,508.75h-1.21v2.16h-.87ZM243,508a1.05,1.05,0,0,0,.78-.26,1,1,0,0,0,.28-.75h0a1,1,0,0,0-.29-.74A1.11,1.11,0,0,0,243,506h-1.21v2Z"/>
      <path class="cls-4" d="M245.83,505.27h.88v5.64h-.88Z"/>
      <path class="cls-4" d="M247.75,505.27h.8l3.47,5-.92-.82h.38v-4.16h.87v5.64h-.81l-3.47-5,.93.82h-.38v4.17h-.87Z"/>
      <path class="cls-4" d="M254.41,510.64a2.36,2.36,0,0,1-.91-1,3.6,3.6,0,0,1-.32-1.57h0a3.5,3.5,0,0,1,.32-1.54,2.36,2.36,0,0,1,.91-1,3,3,0,0,1,2.54-.12,2.18,2.18,0,0,1,.8.63,2.36,2.36,0,0,1,.43.92l0,.06h-.9l0,0a1.6,1.6,0,0,0-.55-.76,1.55,1.55,0,0,0-.93-.27,1.71,1.71,0,0,0-.92.25,1.62,1.62,0,0,0-.6.73,2.75,2.75,0,0,0-.21,1.13h0a2.76,2.76,0,0,0,.22,1.16,1.65,1.65,0,0,0,.6.74,1.59,1.59,0,0,0,.93.26,1.71,1.71,0,0,0,.8-.18,1.27,1.27,0,0,0,.55-.5,1.4,1.4,0,0,0,.2-.75v-.09h-1.48V508h2.35v.57a2.79,2.79,0,0,1-.29,1.31,1.92,1.92,0,0,1-.83.84,2.81,2.81,0,0,1-1.31.29A2.65,2.65,0,0,1,254.41,510.64Z"/>
      <path class="cls-4" d="M260.67,508.24h2.51V509h-2.51Z"/>
      <path class="cls-4" d="M265.79,505.27h3.58V506h-2.7v1.64h2.56v.73h-2.56v1.75h2.7v.76h-3.58Z"/>
      <path class="cls-4" d="M269.85,505.27h.95l1.54,4.66h0l1.54-4.66h.95l-2,5.64h-1Z"/>
      <path class="cls-4" d="M275.46,505.27H279V506h-2.7v1.64h2.55v.73h-2.55v1.75H279v.76h-3.58Z"/>
      <path class="cls-4" d="M279.94,505.27h2.19a2.2,2.2,0,0,1,1,.21,1.51,1.51,0,0,1,.65.6,1.79,1.79,0,0,1,.23.92h0a1.78,1.78,0,0,1-.29,1,1.5,1.5,0,0,1-.8.6l1.26,2.3h-1L282,508.75h-1.2v2.16h-.88Zm2.11,2.75a1.08,1.08,0,0,0,.78-.26,1,1,0,0,0,.27-.75h0a.94.94,0,0,0-.29-.74A1.11,1.11,0,0,0,282,506h-1.2v2Z"/>
      <path class="cls-4" d="M286.21,508.6l-2-3.33h1l1.44,2.49h0l1.43-2.49h1l-2,3.33v2.31h-.88Z"/>
      <path class="cls-4" d="M291.1,506h-1.73v-.76h4.33V506H292v4.88h-.88Z"/>
      <path class="cls-4" d="M294.41,505.27h.87v2.38h2.9v-2.38h.87v5.64h-.87v-2.5h-2.9v2.5h-.87Z"/>
      <path class="cls-4" d="M300.09,505.27H301v5.64h-.88Z"/>
      <path class="cls-4" d="M302,505.27h.81l3.46,5-.92-.82h.38v-4.16h.87v5.64h-.81l-3.47-5,.93.82h-.38v4.17H302Z"/>
      <path class="cls-4" d="M308.68,510.64a2.32,2.32,0,0,1-.92-1,3.6,3.6,0,0,1-.32-1.57h0a3.5,3.5,0,0,1,.32-1.54,2.36,2.36,0,0,1,.91-1,3,3,0,0,1,2.54-.12,2.22,2.22,0,0,1,.81.63,2.34,2.34,0,0,1,.42.92l0,.06h-.9l0,0a1.47,1.47,0,0,0-1.48-1,1.73,1.73,0,0,0-.92.25,1.62,1.62,0,0,0-.6.73,2.75,2.75,0,0,0-.2,1.13h0a2.93,2.93,0,0,0,.21,1.16,1.65,1.65,0,0,0,.6.74,1.59,1.59,0,0,0,.93.26,1.71,1.71,0,0,0,.8-.18,1.27,1.27,0,0,0,.55-.5,1.4,1.4,0,0,0,.2-.75v-.09h-1.47V508h2.34v.57a2.79,2.79,0,0,1-.29,1.31,1.92,1.92,0,0,1-.83.84,2.79,2.79,0,0,1-1.31.29A2.59,2.59,0,0,1,308.68,510.64Z"/>
      <path class="cls-4" d="M315,505.27h.88v5.64H315Z"/>
      <path class="cls-4" d="M317,505.27h.85l-.57,2h-.6Z"/>
      <path class="cls-4" d="M318.26,505.27h.95l1.53,4.66h0l1.54-4.66h.95l-2,5.64h-1Z"/>
      <path class="cls-4" d="M323.87,505.27h3.57V506h-2.7v1.64h2.56v.73h-2.56v1.75h2.7v.76h-3.57Z"/>
      <path class="cls-4" d="M331,510.64a2.32,2.32,0,0,1-.92-1,3.6,3.6,0,0,1-.32-1.57h0a3.5,3.5,0,0,1,.32-1.54,2.36,2.36,0,0,1,.91-1,3,3,0,0,1,2.54-.12,2.22,2.22,0,0,1,.81.63,2.51,2.51,0,0,1,.43.92V507h-.9l0,0a1.47,1.47,0,0,0-1.48-1,1.73,1.73,0,0,0-.92.25,1.62,1.62,0,0,0-.6.73,2.75,2.75,0,0,0-.2,1.13h0a2.93,2.93,0,0,0,.21,1.16,1.65,1.65,0,0,0,.6.74,1.59,1.59,0,0,0,.93.26,1.71,1.71,0,0,0,.8-.18,1.27,1.27,0,0,0,.55-.5,1.4,1.4,0,0,0,.2-.75v-.09h-1.47V508h2.34v.57a2.79,2.79,0,0,1-.29,1.31,1.92,1.92,0,0,1-.83.84,2.79,2.79,0,0,1-1.31.29A2.59,2.59,0,0,1,331,510.64Z"/>
      <path class="cls-4" d="M336.71,510.65a2.37,2.37,0,0,1-.92-1,3.54,3.54,0,0,1-.32-1.55h0a3.5,3.5,0,0,1,.32-1.54,2.37,2.37,0,0,1,.92-1,2.78,2.78,0,0,1,1.41-.35,2.74,2.74,0,0,1,1.4.35,2.29,2.29,0,0,1,.91,1,3.36,3.36,0,0,1,.32,1.54h0a3.41,3.41,0,0,1-.32,1.55,2.35,2.35,0,0,1-.91,1,3,3,0,0,1-2.81,0Zm2.34-.69a1.65,1.65,0,0,0,.6-.74,2.81,2.81,0,0,0,.21-1.13h0a2.81,2.81,0,0,0-.21-1.13,1.79,1.79,0,0,0-.61-.74,1.66,1.66,0,0,0-2.46.74,2.81,2.81,0,0,0-.21,1.13h0a2.78,2.78,0,0,0,.21,1.13,1.66,1.66,0,0,0,.61.74,1.79,1.79,0,0,0,1.86,0Z"/>
      <path class="cls-4" d="M342.65,506h-1.72v-.76h4.32V506h-1.72v4.88h-.88Z"/>
      <path class="cls-4" d="M79.72,515.63H78v-.76h4.32v.76H80.6v4.88h-.88Z"/>
      <path class="cls-4" d="M83,514.87h.88v2.38H86.8v-2.38h.88v5.64H86.8V518H83.91v2.5H83Z"/>
      <path class="cls-4" d="M88.72,514.87H92.3v.76H89.59v1.64h2.56V518H89.59v1.75H92.3v.76H88.72Z"/>
      <path class="cls-4" d="M95.84,520.25a2.48,2.48,0,0,1-.91-1,3.57,3.57,0,0,1-.32-1.55h0a3.5,3.5,0,0,1,.32-1.54,2.42,2.42,0,0,1,.91-1,2.59,2.59,0,0,1,1.39-.35,2.73,2.73,0,0,1,1.12.23,2.15,2.15,0,0,1,.82.67,2.05,2.05,0,0,1,.41,1v0h-.88l0-.07a1.46,1.46,0,0,0-.29-.57,1.34,1.34,0,0,0-.5-.37,1.74,1.74,0,0,0-.67-.13,1.53,1.53,0,0,0-.91.27,1.67,1.67,0,0,0-.6.73,2.81,2.81,0,0,0-.21,1.13h0a2.81,2.81,0,0,0,.21,1.13,1.65,1.65,0,0,0,.6.74,1.55,1.55,0,0,0,.91.26,1.78,1.78,0,0,0,.67-.12,1.42,1.42,0,0,0,.5-.38,1.55,1.55,0,0,0,.31-.6v0h.87v0a2.09,2.09,0,0,1-.41,1,2.22,2.22,0,0,1-.82.66,2.89,2.89,0,0,1-2.51-.12Z"/>
      <path class="cls-4" d="M101.41,520.25a2.35,2.35,0,0,1-.91-1,3.54,3.54,0,0,1-.32-1.55h0a3.5,3.5,0,0,1,.32-1.54,2.37,2.37,0,0,1,.92-1,2.62,2.62,0,0,1,1.4-.35,2.68,2.68,0,0,1,1.41.35,2.35,2.35,0,0,1,.91,1,3.5,3.5,0,0,1,.32,1.54h0a3.54,3.54,0,0,1-.32,1.55,2.41,2.41,0,0,1-.91,1,3,3,0,0,1-2.82,0Zm2.34-.69a1.65,1.65,0,0,0,.6-.74,2.65,2.65,0,0,0,.22-1.13h0a2.65,2.65,0,0,0-.22-1.13,1.7,1.7,0,0,0-.6-.74,1.78,1.78,0,0,0-1.85,0,1.6,1.6,0,0,0-.61.74,2.81,2.81,0,0,0-.22,1.13h0a2.78,2.78,0,0,0,.22,1.13,1.65,1.65,0,0,0,.6.74,1.79,1.79,0,0,0,1.86,0Z"/>
      <path class="cls-4" d="M106.3,514.87h.87v4.88h2.63v.76h-3.5Z"/>
      <path class="cls-4" d="M110.55,514.87h.87v4.88h2.63v.76h-3.5Z"/>
      <path class="cls-4" d="M114.8,514.87h3.57v.76h-2.7v1.64h2.56V518h-2.56v1.75h2.7v.76H114.8Z"/>
      <path class="cls-4" d="M120.3,520.25a2.48,2.48,0,0,1-.91-1,3.57,3.57,0,0,1-.32-1.55h0a3.5,3.5,0,0,1,.32-1.54,2.42,2.42,0,0,1,.91-1,2.59,2.59,0,0,1,1.39-.35,2.73,2.73,0,0,1,1.12.23,2.15,2.15,0,0,1,.82.67,2,2,0,0,1,.41,1v0h-.87l0-.07a1.37,1.37,0,0,0-.79-.94,1.74,1.74,0,0,0-.67-.13,1.55,1.55,0,0,0-.91.27,1.67,1.67,0,0,0-.6.73,2.81,2.81,0,0,0-.21,1.13h0a2.81,2.81,0,0,0,.21,1.13,1.65,1.65,0,0,0,.6.74,1.55,1.55,0,0,0,.91.26,1.78,1.78,0,0,0,.67-.12,1.42,1.42,0,0,0,.5-.38,1.55,1.55,0,0,0,.31-.6v0h.87v0a2,2,0,0,1-.41,1,2.14,2.14,0,0,1-.82.66,2.89,2.89,0,0,1-2.51-.12Z"/>
      <path class="cls-4" d="M126,515.63h-1.72v-.76h4.32v.76h-1.72v4.88H126Z"/>
      <path class="cls-4" d="M130,520.25a2.37,2.37,0,0,1-.92-1,3.54,3.54,0,0,1-.32-1.55h0a3.36,3.36,0,0,1,.33-1.54,2.35,2.35,0,0,1,.91-1,2.68,2.68,0,0,1,1.41-.35,2.65,2.65,0,0,1,1.4.35,2.29,2.29,0,0,1,.91,1,3.36,3.36,0,0,1,.32,1.54h0a3.41,3.41,0,0,1-.32,1.55,2.35,2.35,0,0,1-.91,1,3,3,0,0,1-2.81,0Zm2.34-.69a1.65,1.65,0,0,0,.6-.74,2.81,2.81,0,0,0,.21-1.13h0a2.81,2.81,0,0,0-.21-1.13,1.79,1.79,0,0,0-.61-.74,1.78,1.78,0,0,0-1.85,0,1.73,1.73,0,0,0-.61.74,2.81,2.81,0,0,0-.21,1.13h0a2.78,2.78,0,0,0,.21,1.13,1.73,1.73,0,0,0,.61.74,1.79,1.79,0,0,0,1.86,0Z"/>
      <path class="cls-4" d="M134.89,514.87h2.19a2.23,2.23,0,0,1,1,.21,1.51,1.51,0,0,1,.65.6,1.79,1.79,0,0,1,.23.92h0a1.79,1.79,0,0,1-.29,1,1.56,1.56,0,0,1-.8.6l1.26,2.3h-1L137,518.35h-1.2v2.16h-.88Zm2.11,2.75a1.08,1.08,0,0,0,.78-.26,1,1,0,0,0,.27-.75h0a.94.94,0,0,0-.29-.73,1.11,1.11,0,0,0-.79-.27h-1.2v2Z"/>
      <path class="cls-4" d="M141.38,517.84h2.51v.76h-2.51Z"/>
      <path class="cls-4" d="M145.76,515.63H144v-.76h4.32v.76h-1.72v4.88h-.88Z"/>
      <path class="cls-4" d="M149.07,514.87H150v2.38h2.89v-2.38h.88v5.64h-.88V518H150v2.5h-.88Z"/>
      <path class="cls-4" d="M154.76,514.87h3.58v.76h-2.71v1.64h2.56V518h-2.56v1.75h2.71v.76h-3.58Z"/>
      <path class="cls-4" d="M160.85,514.87h1l1.82,4.5h0l1.83-4.5h1v5.64h-.8v-4.16h-.4l.92-1.32L164,520.51h-.65L161.14,515l.92,1.32h-.4v4.16h-.81Z"/>
      <path class="cls-4" d="M169.23,514.87h.71v.93h-.25l-1.59,4.71h-.92Zm-.8,3.41H171l.26.7h-3.06Zm1.28-2.48v-.93h.47l2,5.64h-.92Z"/>
      <path class="cls-4" d="M172.84,514.87h.81l3.47,5-.93-.82h.38v-4.16h.87v5.64h-.8l-3.47-5,.92.82h-.38v4.17h-.87Z"/>
      <path class="cls-4" d="M179.75,514.87h.91l1.05,4.41h0l1.19-4.41h.83l1.19,4.41h0l1-4.41h.92l-1.52,5.64h-.85l-1.21-4.25h0l-1.21,4.25h-.84Z"/>
      <path class="cls-4" d="M187.61,514.87h.87v2.38h2.89v-2.38h.88v5.64h-.88V518h-2.89v2.5h-.87Z"/>
      <path class="cls-4" d="M194.32,520.25a2.35,2.35,0,0,1-.91-1,3.54,3.54,0,0,1-.32-1.55h0a3.5,3.5,0,0,1,.32-1.54,2.37,2.37,0,0,1,.92-1,2.62,2.62,0,0,1,1.4-.35,2.68,2.68,0,0,1,1.41.35,2.35,2.35,0,0,1,.91,1,3.5,3.5,0,0,1,.32,1.54h0a3.54,3.54,0,0,1-.32,1.55,2.41,2.41,0,0,1-.91,1,3,3,0,0,1-2.82,0Zm2.34-.69a1.73,1.73,0,0,0,.61-.74,2.81,2.81,0,0,0,.21-1.13h0a2.65,2.65,0,0,0-.22-1.13,1.7,1.7,0,0,0-.6-.74,1.78,1.78,0,0,0-1.85,0,1.6,1.6,0,0,0-.61.74,2.81,2.81,0,0,0-.22,1.13h0a2.78,2.78,0,0,0,.22,1.13,1.65,1.65,0,0,0,.6.74,1.79,1.79,0,0,0,1.86,0Z"/>
      <path class="cls-4" d="M200.82,514.87h.88v2.38h2.89v-2.38h.88v5.64h-.88V518H201.7v2.5h-.88Z"/>
      <path class="cls-4" d="M208.14,514.87h.71v.93h-.25L207,520.51h-.92Zm-.8,3.41h2.55l.25.7h-3Zm1.28-2.48v-.93h.47l2,5.64h-.93Z"/>
      <path class="cls-4" d="M212.53,520.41a1.71,1.71,0,0,1-.75-.55,1.55,1.55,0,0,1-.32-.85V519h.86v0a.87.87,0,0,0,.22.45,1.21,1.21,0,0,0,.47.29,2.18,2.18,0,0,0,.66.1,1.8,1.8,0,0,0,.65-.11.93.93,0,0,0,.43-.3.72.72,0,0,0,.15-.45h0a.65.65,0,0,0-.25-.54,2,2,0,0,0-.8-.32l-.62-.13a2.61,2.61,0,0,1-1.23-.56,1.36,1.36,0,0,1-.41-1h0a1.48,1.48,0,0,1,.27-.85,1.73,1.73,0,0,1,.72-.57,2.71,2.71,0,0,1,1.06-.2,2.44,2.44,0,0,1,1,.2,1.77,1.77,0,0,1,.71.55,1.6,1.6,0,0,1,.29.84v.06h-.85v0a.84.84,0,0,0-.19-.45,1,1,0,0,0-.42-.29,1.52,1.52,0,0,0-.59-.1,1.57,1.57,0,0,0-.6.1.94.94,0,0,0-.4.29.71.71,0,0,0-.14.43h0a.61.61,0,0,0,.25.51,1.91,1.91,0,0,0,.78.31l.61.14a2.59,2.59,0,0,1,1.27.56,1.33,1.33,0,0,1,.4,1h0a1.55,1.55,0,0,1-.26.89,1.69,1.69,0,0,1-.74.59,3.11,3.11,0,0,1-1.15.2A2.9,2.9,0,0,1,212.53,520.41Z"/>
      <path class="cls-4" d="M218.19,514.87h3.58v.76h-2.71v1.64h2.56V518h-2.56v1.75h2.71v.76h-3.58Z"/>
      <path class="cls-4" d="M222.25,514.87h.94l1.54,4.66h0l1.53-4.66h.95l-2,5.64h-1Z"/>
      <path class="cls-4" d="M227.85,514.87h3.58v.76h-2.7v1.64h2.56V518h-2.56v1.75h2.7v.76h-3.58Z"/>
      <path class="cls-4" d="M232.34,514.87h2.19a2.19,2.19,0,0,1,1,.21,1.51,1.51,0,0,1,.65.6,1.7,1.7,0,0,1,.23.92h0a1.79,1.79,0,0,1-.29,1,1.52,1.52,0,0,1-.8.6l1.26,2.3h-1l-1.15-2.16h-1.2v2.16h-.87Zm2.1,2.75a1.05,1.05,0,0,0,.78-.26,1,1,0,0,0,.28-.75h0a1,1,0,0,0-.29-.73,1.14,1.14,0,0,0-.8-.27h-1.2v2Z"/>
      <path class="cls-4" d="M238.61,518.2l-2-3.33h1l1.44,2.48h0l1.44-2.48h1l-2,3.33v2.31h-.88Z"/>
      <path class="cls-4" d="M243.49,515.63h-1.72v-.76h4.32v.76h-1.72v4.88h-.88Z"/>
      <path class="cls-4" d="M246.8,514.87h.88v2.38h2.89v-2.38h.88v5.64h-.88V518h-2.89v2.5h-.88Z"/>
      <path class="cls-4" d="M252.49,514.87h.87v5.64h-.87Z"/>
      <path class="cls-4" d="M254.4,514.87h.81l3.47,5-.93-.82h.38v-4.16H259v5.64h-.81l-3.46-5,.92.82h-.38v4.17h-.87Z"/>
      <path class="cls-4" d="M261.07,520.24a2.3,2.3,0,0,1-.91-1,3.47,3.47,0,0,1-.32-1.57h0a3.36,3.36,0,0,1,.32-1.54,2.24,2.24,0,0,1,.91-1,2.59,2.59,0,0,1,1.39-.35,2.55,2.55,0,0,1,1.14.23,2.22,2.22,0,0,1,.81.63,2.36,2.36,0,0,1,.43.92v.06H264v0a1.49,1.49,0,0,0-1.48-1,1.74,1.74,0,0,0-.93.25,1.62,1.62,0,0,0-.59.72,2.83,2.83,0,0,0-.21,1.14h0a2.93,2.93,0,0,0,.21,1.16,1.66,1.66,0,0,0,.61.74,1.58,1.58,0,0,0,.92.26,1.73,1.73,0,0,0,.81-.18,1.39,1.39,0,0,0,.55-.5,1.49,1.49,0,0,0,.2-.75v-.09h-1.48v-.71h2.34v.57a2.67,2.67,0,0,1-.29,1.31,1.92,1.92,0,0,1-.83.84,2.79,2.79,0,0,1-1.31.29A2.62,2.62,0,0,1,261.07,520.24Z"/>
      <path class="cls-4" d="M267.32,517.84h2.52v.76h-2.52Z"/>
      <path class="cls-4" d="M272.45,514.87h2.19a2.26,2.26,0,0,1,1,.21,1.57,1.57,0,0,1,.65.6,1.79,1.79,0,0,1,.23.92h0a1.72,1.72,0,0,1-.3,1,1.53,1.53,0,0,1-.79.6l1.26,2.3h-1l-1.15-2.16h-1.21v2.16h-.87Zm2.1,2.75a1.09,1.09,0,0,0,.79-.26,1,1,0,0,0,.27-.75h0a.94.94,0,0,0-.29-.73,1.11,1.11,0,0,0-.79-.27h-1.21v2Z"/>
      <path class="cls-4" d="M277.36,514.87h3.58v.76h-2.7v1.64h2.56V518h-2.56v1.75h2.7v.76h-3.58Z"/>
      <path class="cls-4" d="M281.84,514.87h.88v4.88h2.63v.76h-3.51Z"/>
      <path class="cls-4" d="M286.09,514.87H287v5.64h-.88Z"/>
      <path class="cls-4" d="M289.64,514.87h.71v.93h-.25l-1.59,4.71h-.92Zm-.8,3.41h2.55l.25.7h-3.05Zm1.28-2.48v-.93h.47l2.05,5.64h-.93Z"/>
      <path class="cls-4" d="M293.26,514.87h.87v5.64h-.87Zm.43,4.92h1.65a1.53,1.53,0,0,0,.9-.23.84.84,0,0,0,.31-.69h0a.81.81,0,0,0-.15-.51.8.8,0,0,0-.42-.31,2,2,0,0,0-.7-.1h-1.59v-.68h1.41a1.5,1.5,0,0,0,.89-.22.78.78,0,0,0,.3-.65h0a.71.71,0,0,0-.26-.6,1.13,1.13,0,0,0-.73-.2h-1.61v-.72h1.82a2.11,2.11,0,0,1,.87.17,1.3,1.3,0,0,1,.58.5,1.31,1.31,0,0,1,.21.74h0a1.22,1.22,0,0,1-.14.56,1.24,1.24,0,0,1-.37.45,1.17,1.17,0,0,1-.54.22h0a1.7,1.7,0,0,1,.7.23,1.25,1.25,0,0,1,.46.48,1.35,1.35,0,0,1,.16.67h0a1.48,1.48,0,0,1-.23.85,1.44,1.44,0,0,1-.66.55,2.67,2.67,0,0,1-1,.19h-1.83Z"/>
      <path class="cls-4" d="M298.19,514.87h.88v4.88h2.63v.76h-3.51Z"/>
      <path class="cls-4" d="M302.44,514.87H306v.76h-2.7v1.64h2.56V518h-2.56v1.75H306v.76h-3.58Z"/>
      <path class="cls-4" d="M306.89,519.64h.84l-.57,2h-.59Z"/>
      <path class="cls-4" d="M311.55,514.87h.71v.93H312l-1.6,4.71h-.92Zm-.8,3.41h2.55l.25.7H310.5ZM312,515.8v-.93h.47l2.05,5.64h-.93Z"/>
      <path class="cls-4" d="M315.17,514.87H316v4.88h2.63v.76h-3.5Z"/>
      <path class="cls-4" d="M318.63,514.87h.92l1,4.41h0l1.19-4.41h.83l1.19,4.41h0l1.05-4.41h.91l-1.52,5.64h-.84l-1.21-4.25h0L321,520.51h-.85Z"/>
      <path class="cls-4" d="M327.61,514.87h.71v.93h-.25l-1.59,4.71h-.92Zm-.8,3.41h2.54l.26.7h-3.06Zm1.28-2.48v-.93h.47l2,5.64h-.92Z"/>
      <path class="cls-4" d="M332.06,518.2l-2-3.33h1l1.44,2.48h0l1.43-2.48h1l-2,3.33v2.31h-.88Z"/>
      <path class="cls-4" d="M336.06,520.41a1.83,1.83,0,0,1-.75-.55A1.54,1.54,0,0,1,335,519V519h.85v0a.8.8,0,0,0,.22.45,1.17,1.17,0,0,0,.46.29,2.3,2.3,0,0,0,.67.1,1.8,1.8,0,0,0,.65-.11,1,1,0,0,0,.42-.3.72.72,0,0,0,.15-.45h0a.67.67,0,0,0-.24-.54,2,2,0,0,0-.81-.32l-.61-.13a2.7,2.7,0,0,1-1.24-.56,1.35,1.35,0,0,1-.4-1h0a1.47,1.47,0,0,1,.26-.85,1.83,1.83,0,0,1,.73-.57,2.67,2.67,0,0,1,1.06-.2,2.4,2.4,0,0,1,1,.2,1.64,1.64,0,0,1,.71.55,1.52,1.52,0,0,1,.29.84v.06h-.86v0a.77.77,0,0,0-.19-.45.88.88,0,0,0-.41-.29,1.55,1.55,0,0,0-.59-.1,1.66,1.66,0,0,0-.61.1.91.91,0,0,0-.39.29.65.65,0,0,0-.14.43h0a.61.61,0,0,0,.25.51,1.8,1.8,0,0,0,.77.31l.62.14a2.64,2.64,0,0,1,1.27.56,1.36,1.36,0,0,1,.39,1h0a1.48,1.48,0,0,1-.26.89,1.69,1.69,0,0,1-.74.59,3,3,0,0,1-1.15.2A2.93,2.93,0,0,1,336.06,520.41Z"/>
      <path class="cls-4" d="M69.09,530a1.44,1.44,0,0,1-.58-.54,1.7,1.7,0,0,1-.23-.79v0h.86v0a1.27,1.27,0,0,0,.12.39.75.75,0,0,0,.28.28,1,1,0,0,0,1.09-.15,1,1,0,0,0,.23-.74v-4h.88v4a1.77,1.77,0,0,1-.47,1.3,1.73,1.73,0,0,1-1.29.46A1.77,1.77,0,0,1,69.09,530Z"/>
      <path class="cls-4" d="M73.86,529.94a1.8,1.8,0,0,1-.79-.73,2,2,0,0,1-.28-1.08v-3.66h.88v3.59a1.28,1.28,0,0,0,1.41,1.36,1.27,1.27,0,0,0,1.4-1.36v-3.59h.88v3.66a2,2,0,0,1-.28,1.08,1.9,1.9,0,0,1-.78.73,3,3,0,0,1-2.44,0Z"/>
      <path class="cls-4" d="M79.21,530a1.71,1.71,0,0,1-.75-.55,1.55,1.55,0,0,1-.32-.85v-.06H79v.05a.87.87,0,0,0,.22.45,1.21,1.21,0,0,0,.47.29,1.91,1.91,0,0,0,.66.1,1.8,1.8,0,0,0,.65-.11.93.93,0,0,0,.43-.3.72.72,0,0,0,.15-.45h0a.66.66,0,0,0-.25-.54,2,2,0,0,0-.8-.32l-.62-.13a2.61,2.61,0,0,1-1.23-.56,1.36,1.36,0,0,1-.41-1h0a1.48,1.48,0,0,1,.27-.85,1.73,1.73,0,0,1,.72-.57,2.71,2.71,0,0,1,1.06-.2,2.37,2.37,0,0,1,1,.2,1.74,1.74,0,0,1,.72.55,1.6,1.6,0,0,1,.29.84V526h-.85v0a.84.84,0,0,0-.19-.45,1,1,0,0,0-.42-.29,1.52,1.52,0,0,0-.59-.1,1.57,1.57,0,0,0-.6.1.94.94,0,0,0-.4.29.71.71,0,0,0-.14.43h0a.61.61,0,0,0,.25.51,1.91,1.91,0,0,0,.78.32l.61.13a2.59,2.59,0,0,1,1.27.56,1.33,1.33,0,0,1,.4,1h0a1.53,1.53,0,0,1-.26.89,1.63,1.63,0,0,1-.74.59,3.11,3.11,0,0,1-1.15.2A2.87,2.87,0,0,1,79.21,530Z"/>
      <path class="cls-4" d="M84.49,525.23H82.77v-.76h4.32v.76H85.37v4.88h-.88Z"/>
      <path class="cls-4" d="M89.42,524.47h.87v2.38h2.89v-2.38h.88v5.64h-.88v-2.5H90.29v2.5h-.87Z"/>
      <path class="cls-4" d="M96.13,529.85a2.35,2.35,0,0,1-.91-1,3.41,3.41,0,0,1-.32-1.55h0a3.5,3.5,0,0,1,.32-1.54,2.37,2.37,0,0,1,.92-1,3,3,0,0,1,2.8,0,2.31,2.31,0,0,1,.92,1,3.5,3.5,0,0,1,.32,1.54h0a3.54,3.54,0,0,1-.32,1.55,2.41,2.41,0,0,1-.91,1,3,3,0,0,1-2.82,0Zm2.34-.69a1.65,1.65,0,0,0,.6-.74,2.81,2.81,0,0,0,.21-1.13h0a2.81,2.81,0,0,0-.21-1.13,1.71,1.71,0,0,0-2.46-.74,1.65,1.65,0,0,0-.6.74,2.65,2.65,0,0,0-.22,1.13h0a2.62,2.62,0,0,0,.22,1.13,1.65,1.65,0,0,0,.6.74,1.79,1.79,0,0,0,1.86,0Z"/>
      <path class="cls-4" d="M100.47,524.47h.92l1,4.42h0l1.19-4.42h.83l1.19,4.42h0l1-4.42h.91l-1.52,5.64h-.84l-1.21-4.25h0l-1.21,4.25H102Z"/>
      <path class="cls-4" d="M110,524.47h.87v5.64H110Z"/>
      <path class="cls-4" d="M113.48,524.47h.87v4.88H117v.76h-3.5Z"/>
      <path class="cls-4" d="M117.73,524.47h.87v5.64h-.87Z"/>
      <path class="cls-4" d="M119.64,524.47h.88v5.64h-.88Zm.82,2.7h.09l2.27-2.7h1L121.68,527h-.11l-1.11,1.27Zm.54.26.62-.6,2.42,3.28H123Z"/>
      <path class="cls-4" d="M124.6,524.47h3.58v.76h-2.7v1.64H128v.73h-2.55v1.75h2.7v.76H124.6Z"/>
      <path class="cls-4" d="M130.7,524.47h.87v5.64h-.87Z"/>
      <path class="cls-4" d="M134,525.23h-1.73v-.76h4.33v.76h-1.72v4.88H134Z"/>
      <path class="cls-4" d="M138.89,527.44h2.52v.77h-2.52Z"/>
      <path class="cls-4" d="M142.4,524.47h.81l3.47,5-.93-.82h.38v-4.16H147v5.64h-.81l-3.46-5,.92.82h-.38v4.17h-.87Z"/>
      <path class="cls-4" d="M149.07,529.85a2.29,2.29,0,0,1-.91-1,3.41,3.41,0,0,1-.32-1.55h0a3.36,3.36,0,0,1,.32-1.54,2.35,2.35,0,0,1,.91-1,2.78,2.78,0,0,1,1.41-.35,2.72,2.72,0,0,1,1.4.35,2.37,2.37,0,0,1,.92,1,3.5,3.5,0,0,1,.32,1.54h0a3.54,3.54,0,0,1-.32,1.55,2.43,2.43,0,0,1-.92,1,2.72,2.72,0,0,1-1.4.35A2.78,2.78,0,0,1,149.07,529.85Zm2.34-.69a1.65,1.65,0,0,0,.6-.74,2.81,2.81,0,0,0,.21-1.13h0a2.81,2.81,0,0,0-.21-1.13,1.71,1.71,0,0,0-2.46-.74,1.73,1.73,0,0,0-.61.74,2.81,2.81,0,0,0-.21,1.13h0a2.78,2.78,0,0,0,.21,1.13,1.73,1.73,0,0,0,.61.74,1.79,1.79,0,0,0,1.86,0Z"/>
      <path class="cls-4" d="M155,525.23h-1.72v-.76h4.32v.76h-1.72v4.88H155Z"/>
      <path class="cls-4" d="M158.32,524.47h.88v2.38h2.89v-2.38H163v5.64h-.88v-2.5H159.2v2.5h-.88Z"/>
      <path class="cls-4" d="M164,524.47h.87v5.64H164Z"/>
      <path class="cls-4" d="M165.92,524.47h.81l3.47,5-.93-.82h.38v-4.16h.87v5.64h-.81l-3.46-5,.92.82h-.38v4.17h-.87Z"/>
      <path class="cls-4" d="M172.59,529.84a2.3,2.3,0,0,1-.91-1,3.46,3.46,0,0,1-.33-1.57h0a3.36,3.36,0,0,1,.33-1.54,2.3,2.3,0,0,1,.91-1,2.59,2.59,0,0,1,1.39-.35,2.55,2.55,0,0,1,1.14.23,2.22,2.22,0,0,1,.81.63,2.36,2.36,0,0,1,.43.92v.06h-.9v0a1.49,1.49,0,0,0-1.48-1,1.74,1.74,0,0,0-.93.25,1.54,1.54,0,0,0-.59.73,2.75,2.75,0,0,0-.21,1.13h0a2.93,2.93,0,0,0,.21,1.16,1.66,1.66,0,0,0,.61.74,1.56,1.56,0,0,0,.92.26,1.73,1.73,0,0,0,.81-.18,1.39,1.39,0,0,0,.55-.5,1.49,1.49,0,0,0,.2-.75v-.09h-1.48v-.71h2.34v.57a2.67,2.67,0,0,1-.29,1.31,1.92,1.92,0,0,1-.83.84,2.79,2.79,0,0,1-1.31.29A2.62,2.62,0,0,1,172.59,529.84Z"/>
      <path class="cls-4" d="M178.89,524.47h3.57v.76h-2.7v1.64h2.56v.73h-2.56v1.75h2.7v.76h-3.57Z"/>
      <path class="cls-4" d="M185.1,527l-.21.69v-.39L183,524.47h1.05l1.39,2.18h.4l-.58.33,1.61-2.51h1L186,527.29v.4l-.21-.7,2.09,3.12h-1L185.43,528H185l.58-.32L184,530.11h-1Z"/>
      <path class="cls-4" d="M190,525.23h-1.72v-.76h4.32v.76h-1.72v4.88H190Z"/>
      <path class="cls-4" d="M193.3,524.47h2.19a2.23,2.23,0,0,1,1,.21,1.51,1.51,0,0,1,.65.6,1.79,1.79,0,0,1,.23.92h0a1.78,1.78,0,0,1-.29,1,1.5,1.5,0,0,1-.8.6l1.26,2.3h-1L195.38,528h-1.2v2.16h-.88Zm2.11,2.75a1.08,1.08,0,0,0,.78-.26,1,1,0,0,0,.27-.75h0a.94.94,0,0,0-.29-.74,1.11,1.11,0,0,0-.79-.26h-1.2v2Z"/>
      <path class="cls-4" d="M199.85,524.47h.71v.93h-.25l-1.59,4.71h-.92Zm-.8,3.41h2.54l.26.7h-3.06Zm1.28-2.48v-.93h.47l2,5.64h-.92Z"/>
      <path class="cls-4" d="M205,527.44h2.51v.77H205Z"/>
      <path class="cls-4" d="M210.16,524.47h1L213,529h0l1.83-4.5h1v5.64h-.8V526h-.4l.91-1.32-2.23,5.48h-.65l-2.24-5.48.92,1.32H211v4.16h-.8Z"/>
      <path class="cls-4" d="M216.9,524.47h.88v5.64h-.88Z"/>
      <path class="cls-4" d="M219.63,530a1.71,1.71,0,0,1-.75-.55,1.47,1.47,0,0,1-.31-.85v-.06h.86v.05a.78.78,0,0,0,.21.45,1.29,1.29,0,0,0,.47.29,1.91,1.91,0,0,0,.66.1,1.86,1.86,0,0,0,.66-.11,1,1,0,0,0,.42-.3.72.72,0,0,0,.15-.45h0a.68.68,0,0,0-.24-.54,2.09,2.09,0,0,0-.81-.32l-.61-.13a2.61,2.61,0,0,1-1.24-.56,1.36,1.36,0,0,1-.41-1h0a1.56,1.56,0,0,1,.27-.85,1.79,1.79,0,0,1,.72-.57,2.71,2.71,0,0,1,1.06-.2,2.44,2.44,0,0,1,1,.2,1.7,1.7,0,0,1,.71.55,1.6,1.6,0,0,1,.29.84V526h-.85v0a.84.84,0,0,0-.19-.45.93.93,0,0,0-.41-.29,1.55,1.55,0,0,0-.59-.1,1.59,1.59,0,0,0-.61.1,1,1,0,0,0-.4.29.71.71,0,0,0-.14.43h0a.63.63,0,0,0,.25.51,1.91,1.91,0,0,0,.78.32l.61.13a2.55,2.55,0,0,1,1.27.56,1.33,1.33,0,0,1,.4,1h0a1.53,1.53,0,0,1-.26.89,1.63,1.63,0,0,1-.74.59,3.07,3.07,0,0,1-1.15.2A2.93,2.93,0,0,1,219.63,530Z"/>
      <path class="cls-4" d="M223.67,524.47h3.58v.76h-2.7v1.64h2.55v.73h-2.55v1.75h2.7v.76h-3.58Z"/>
      <path class="cls-4" d="M229.77,524.47h3.58v.76h-2.71v1.64h2.56v.73h-2.56v1.75h2.71v.76h-3.58Z"/>
      <path class="cls-4" d="M234.25,524.47h.81l3.47,5-.93-.82H238v-4.16h.87v5.64H238l-3.47-5,.93.82h-.38v4.17h-.87Z"/>
      <path class="cls-4" d="M241.5,524.47h.88v5.64h-.88Zm.44,3h1.45a1.24,1.24,0,0,0,.88-.3,1.06,1.06,0,0,0,.31-.82h0a1.08,1.08,0,0,0-.31-.83,1.28,1.28,0,0,0-.88-.29h-1.45v-.74h1.66a2.06,2.06,0,0,1,1,.23,1.72,1.72,0,0,1,.66.65,1.91,1.91,0,0,1,.24,1h0a1.94,1.94,0,0,1-.24,1,1.72,1.72,0,0,1-.66.65,2.06,2.06,0,0,1-1,.23h-1.66Z"/>
      <path class="cls-4" d="M246.24,524.47h.88v4.88h2.63v.76h-3.51Z"/>
      <path class="cls-4" d="M252.12,524.47h.72v.93h-.25L251,530.11h-.93Zm-.8,3.41h2.55l.25.7h-3.05Zm1.29-2.48v-.93h.46l2.05,5.64h-.92Z"/>
      <path class="cls-4" d="M256.57,529.85a2.41,2.41,0,0,1-.91-1,3.57,3.57,0,0,1-.32-1.55h0a3.5,3.5,0,0,1,.32-1.54,2.35,2.35,0,0,1,.91-1,2.67,2.67,0,0,1,1.38-.35,2.52,2.52,0,0,1,1.12.24,2.07,2.07,0,0,1,.83.66,2.16,2.16,0,0,1,.41,1v0h-.87l0-.08a1.54,1.54,0,0,0-.29-.57,1.42,1.42,0,0,0-.5-.37,1.79,1.79,0,0,0-.68-.13,1.55,1.55,0,0,0-.91.27,1.72,1.72,0,0,0-.59.73,2.81,2.81,0,0,0-.21,1.13h0a2.81,2.81,0,0,0,.21,1.13,1.65,1.65,0,0,0,.6.74,1.51,1.51,0,0,0,.9.26,1.74,1.74,0,0,0,.67-.12,1.26,1.26,0,0,0,.5-.38,1.43,1.43,0,0,0,.31-.6v0h.88v0a2.2,2.2,0,0,1-.41,1,2.22,2.22,0,0,1-.82.66,2.75,2.75,0,0,1-1.13.23A2.67,2.67,0,0,1,256.57,529.85Z"/>
      <path class="cls-4" d="M261.11,524.47h3.58v.76H262v1.64h2.56v.73H262v1.75h2.71v.76h-3.58Z"/>
      <path class="cls-4" d="M267.16,527.44h2.52v.77h-2.52Z"/>
      <path class="cls-4" d="M272.29,524.47h1l1.82,4.5h0l1.82-4.5h1v5.64h-.8V526h-.41l.92-1.32-2.24,5.48h-.65l-2.23-5.48.91,1.32h-.4v4.16h-.8Z"/>
      <path class="cls-4" d="M280.59,527.8l-2-3.33h1L281,527h0l1.43-2.49h1l-2,3.33v2.31h-.88Z"/>
      <path class="cls-4" d="M285.7,524.47h3.52v.76h-2.65V527H289v.74h-2.43v2.36h-.87Z"/>
      <path class="cls-4" d="M291.22,524.47h.71v.93h-.24l-1.6,4.71h-.92Zm-.8,3.41H293l.25.7h-3.05Zm1.29-2.48v-.93h.46l2.05,5.64h-.92Z"/>
      <path class="cls-4" d="M293.77,524.47h.94l1.54,4.66h0l1.53-4.66h.95l-2,5.64h-1Z"/>
      <path class="cls-4" d="M300.38,529.85a2.37,2.37,0,0,1-.92-1,3.54,3.54,0,0,1-.32-1.55h0a3.36,3.36,0,0,1,.33-1.54,2.35,2.35,0,0,1,.91-1,2.78,2.78,0,0,1,1.41-.35,2.74,2.74,0,0,1,1.4.35,2.29,2.29,0,0,1,.91,1,3.36,3.36,0,0,1,.33,1.54h0a3.41,3.41,0,0,1-.33,1.55,2.35,2.35,0,0,1-.91,1,3,3,0,0,1-2.81,0Zm2.34-.69a1.65,1.65,0,0,0,.6-.74,2.81,2.81,0,0,0,.21-1.13h0a2.81,2.81,0,0,0-.21-1.13,1.72,1.72,0,0,0-.61-.74,1.78,1.78,0,0,0-1.85,0,1.73,1.73,0,0,0-.61.74,2.81,2.81,0,0,0-.21,1.13h0a2.78,2.78,0,0,0,.21,1.13,1.73,1.73,0,0,0,.61.74,1.79,1.79,0,0,0,1.86,0Z"/>
      <path class="cls-4" d="M305.26,524.47h2.19a2.2,2.2,0,0,1,1,.21,1.51,1.51,0,0,1,.65.6,1.79,1.79,0,0,1,.23.92h0a1.78,1.78,0,0,1-.29,1,1.5,1.5,0,0,1-.8.6l1.26,2.3h-1L307.34,528h-1.2v2.16h-.88Zm2.11,2.75a1.08,1.08,0,0,0,.78-.26,1,1,0,0,0,.28-.75h0a1,1,0,0,0-.3-.74,1.09,1.09,0,0,0-.79-.26h-1.2v2Z"/>
      <path class="cls-4" d="M310.18,524.47h.87v5.64h-.87Z"/>
      <path class="cls-4" d="M313.48,525.23h-1.72v-.76h4.33v.76h-1.73v4.88h-.88Z"/>
      <path class="cls-4" d="M316.8,524.47h3.57v.76h-2.7v1.64h2.56v.73h-2.56v1.75h2.7v.76H316.8Z"/>
      <path class="cls-4" d="M324.29,525.23h-1.72v-.76h4.32v.76h-1.72v4.88h-.88Z"/>
      <path class="cls-4" d="M327.6,524.47h.88v2.38h2.89v-2.38h.88v5.64h-.88v-2.5h-2.89v2.5h-.88Z"/>
      <path class="cls-4" d="M333.28,524.47h.88v5.64h-.88Z"/>
      <path class="cls-4" d="M335.2,524.47H336l3.47,5-.93-.82h.38v-4.16h.87v5.64H339l-3.47-5,.93.82h-.38v4.17h-.87Z"/>
      <path class="cls-4" d="M341.87,529.84a2.32,2.32,0,0,1-.92-1,3.6,3.6,0,0,1-.32-1.57h0a3.5,3.5,0,0,1,.32-1.54,2.42,2.42,0,0,1,.91-1,2.64,2.64,0,0,1,1.39-.35,2.6,2.6,0,0,1,1.15.23,2.22,2.22,0,0,1,.81.63,2.36,2.36,0,0,1,.43.92v.06h-.9l0,0a1.47,1.47,0,0,0-1.48-1,1.73,1.73,0,0,0-.92.25,1.62,1.62,0,0,0-.6.73,2.93,2.93,0,0,0-.2,1.13h0a2.93,2.93,0,0,0,.21,1.16,1.65,1.65,0,0,0,.6.74,1.59,1.59,0,0,0,.93.26,1.79,1.79,0,0,0,.81-.18,1.3,1.3,0,0,0,.54-.5,1.4,1.4,0,0,0,.2-.75v-.09h-1.47v-.71h2.34v.57a2.79,2.79,0,0,1-.29,1.31,1.92,1.92,0,0,1-.83.84,2.79,2.79,0,0,1-1.31.29A2.59,2.59,0,0,1,341.87,529.84Z"/>
      <path class="cls-4" d="M347.36,530a1.71,1.71,0,0,1-.75-.55,1.47,1.47,0,0,1-.31-.85v-.06h.86v.05a.78.78,0,0,0,.21.45,1.29,1.29,0,0,0,.47.29,1.91,1.91,0,0,0,.66.1,1.86,1.86,0,0,0,.66-.11,1,1,0,0,0,.42-.3.72.72,0,0,0,.15-.45h0a.68.68,0,0,0-.24-.54,2.09,2.09,0,0,0-.81-.32l-.61-.13a2.61,2.61,0,0,1-1.24-.56,1.35,1.35,0,0,1-.4-1h0a1.47,1.47,0,0,1,.26-.85,1.87,1.87,0,0,1,.72-.57,2.71,2.71,0,0,1,1.06-.2,2.44,2.44,0,0,1,1,.2,1.7,1.7,0,0,1,.71.55,1.6,1.6,0,0,1,.29.84V526h-.86v0a.84.84,0,0,0-.19-.45.93.93,0,0,0-.41-.29,1.55,1.55,0,0,0-.59-.1,1.59,1.59,0,0,0-.61.1,1,1,0,0,0-.4.29.71.71,0,0,0-.14.43h0a.63.63,0,0,0,.25.51,1.91,1.91,0,0,0,.78.32l.61.13a2.55,2.55,0,0,1,1.27.56,1.33,1.33,0,0,1,.4,1h0a1.53,1.53,0,0,1-.26.89,1.63,1.63,0,0,1-.74.59,3.07,3.07,0,0,1-1.15.2A2.93,2.93,0,0,1,347.36,530Z"/>
    </g>
    <g>
      <rect class="cls-5" x="71.21" y="558.41" width="57.45" height="20.79" rx="2.08"/>
      <rect class="cls-5" x="71.21" y="555.48" width="57.45" height="26.66" rx="2.08"/>
      <rect class="cls-5" x="71.21" y="552.55" width="57.45" height="32.51" rx="2.89"/>
      <path class="cls-6" d="M74.1,585.06H71.16a2.88,2.88,0,0,1-2.88-2.88V555.44a2.89,2.89,0,0,1,2.88-2.89H74.1a2.89,2.89,0,0,0-2.89,2.89v26.74A2.88,2.88,0,0,0,74.1,585.06Z"/>
      <path class="cls-6" d="M131.59,555.44v26.74a2.88,2.88,0,0,1-2.88,2.88h-2.94a2.89,2.89,0,0,0,2.89-2.88V555.44a2.9,2.9,0,0,0-2.89-2.89h2.94A2.89,2.89,0,0,1,131.59,555.44Z"/>
      <rect class="cls-5" x="71.21" y="552.55" width="57.45" height="32.51" rx="2.89"/>
      <text class="cls-7" transform="translate(73.78 567.31)">BOO<tspan class="cls-8" x="18.97" y="0">KS</tspan><tspan class="cls-9" x="30.51" y="0">HELF</tspan><tspan class="cls-10"><tspan x="2.24" y="9.09">RECORDS</tspan></tspan></text>
    </g>
    <g>
      <path class="cls-4" d="M306.13,577.52h1.95v7.68h-1.95Zm1,6.3h2.13a1.51,1.51,0,0,0,.92-.24.84.84,0,0,0,.33-.71h0a.86.86,0,0,0-.15-.52.87.87,0,0,0-.44-.32,2.1,2.1,0,0,0-.72-.11h-2.07v-1.23H309a1.41,1.41,0,0,0,.89-.24.83.83,0,0,0,.31-.68h0a.75.75,0,0,0-.29-.62,1.18,1.18,0,0,0-.77-.23h-2.07v-1.38h2.59a3.23,3.23,0,0,1,1.31.24,2,2,0,0,1,.84.66,1.84,1.84,0,0,1,.29,1h0a1.63,1.63,0,0,1-.2.79,1.82,1.82,0,0,1-.55.59,1.93,1.93,0,0,1-.79.29v0a2.08,2.08,0,0,1,1,.26,1.9,1.9,0,0,1,.67.65,1.63,1.63,0,0,1,.25.9v0a2,2,0,0,1-.33,1.16,2.2,2.2,0,0,1-.93.76,3.48,3.48,0,0,1-1.43.27h-2.68Z"/>
      <path class="cls-4" d="M314.6,585.07a2.54,2.54,0,0,1-1.1-.79,2.27,2.27,0,0,1-.44-1.25v-.1h1.81l0,.05a.77.77,0,0,0,.24.44,1.28,1.28,0,0,0,.5.28,2.06,2.06,0,0,0,.68.11,1.82,1.82,0,0,0,.66-.11,1,1,0,0,0,.44-.28.64.64,0,0,0,.15-.42h0a.56.56,0,0,0-.28-.5,2.85,2.85,0,0,0-1-.3l-.79-.16a3.43,3.43,0,0,1-1.73-.77,1.9,1.9,0,0,1-.59-1.44h0a2.17,2.17,0,0,1,.39-1.29,2.64,2.64,0,0,1,1.09-.84,3.88,3.88,0,0,1,1.56-.3,4.23,4.23,0,0,1,1.64.28,2.46,2.46,0,0,1,1.05.8,2.27,2.27,0,0,1,.4,1.21v.12h-1.81v-.06a.77.77,0,0,0-.19-.44,1.15,1.15,0,0,0-.44-.28,1.72,1.72,0,0,0-.62-.1,1.59,1.59,0,0,0-.61.1,1,1,0,0,0-.38.27.7.7,0,0,0-.13.39h0a.57.57,0,0,0,.28.49,2.74,2.74,0,0,0,.9.3l.79.15a3.59,3.59,0,0,1,1.8.75,1.84,1.84,0,0,1,.58,1.45h0a2.28,2.28,0,0,1-.38,1.33A2.38,2.38,0,0,1,318,585a4.33,4.33,0,0,1-1.74.31A4.66,4.66,0,0,1,314.6,585.07Z"/>
      <path class="cls-4" d="M320.4,577.52h3.32a3.74,3.74,0,0,1,1.58.3,2.12,2.12,0,0,1,1,.87,2.62,2.62,0,0,1,.34,1.38h0a2.47,2.47,0,0,1-.35,1.33,2.12,2.12,0,0,1-.95.86l1.53,2.93h-2.2l-1.31-2.64h-1v2.64h-2Zm3.11,3.62a1.11,1.11,0,0,0,.82-.29,1,1,0,0,0,.31-.77h0a1,1,0,0,0-.32-.78,1.16,1.16,0,0,0-.82-.29h-1.15v2.14Z"/>
      <path class="cls-4" d="M329.39,585.07a2.89,2.89,0,0,1-1.05-.78,3.44,3.44,0,0,1-.67-1.24,5.33,5.33,0,0,1-.23-1.66h0a5.16,5.16,0,0,1,.4-2.13,3.17,3.17,0,0,1,1.16-1.38,3.27,3.27,0,0,1,1.78-.48,3.52,3.52,0,0,1,1.44.28,2.89,2.89,0,0,1,1,.76,2.24,2.24,0,0,1,.52,1.1v0h-1.91l0,0a1.16,1.16,0,0,0-.24-.34,1,1,0,0,0-.35-.22,1.22,1.22,0,0,0-.49-.09,1.12,1.12,0,0,0-.79.28,1.68,1.68,0,0,0-.48.75,3.92,3.92,0,0,0-.2,1.09c0,.06,0,.12,0,.19v.19l.25,1.28a1.07,1.07,0,0,0,.16.59,1.18,1.18,0,0,0,.44.42,1.33,1.33,0,0,0,.62.16,1.27,1.27,0,0,0,.62-.16,1.16,1.16,0,0,0,.44-.41,1,1,0,0,0,.17-.58h0a1.09,1.09,0,0,0-.16-.61,1,1,0,0,0-.44-.41,1.23,1.23,0,0,0-.61-.15,1.33,1.33,0,0,0-.63.15,1.09,1.09,0,0,0-.45.4,1.12,1.12,0,0,0-.16.6h-.33v-1.3h.12a1.84,1.84,0,0,1,.44-.64,2,2,0,0,1,.7-.44,2.75,2.75,0,0,1,.93-.15,2.52,2.52,0,0,1,1.31.32,2.32,2.32,0,0,1,.86.87,2.65,2.65,0,0,1,.31,1.27h0a2.52,2.52,0,0,1-.41,1.42,2.68,2.68,0,0,1-1.09,1,3.8,3.8,0,0,1-3,.08Z"/>
      <path class="cls-4" d="M336.41,585a2.61,2.61,0,0,1-1-.82A2.25,2.25,0,0,1,335,583V583h1.78v0a1,1,0,0,0,.23.43,1.43,1.43,0,0,0,.42.31,1.34,1.34,0,0,0,.58.12,1.32,1.32,0,0,0,.64-.16,1.14,1.14,0,0,0,.45-.42,1.27,1.27,0,0,0,.16-.62h0a1.24,1.24,0,0,0-.16-.62,1.14,1.14,0,0,0-.45-.42,1.46,1.46,0,0,0-1.09-.08,1.16,1.16,0,0,0-.37.18,1.37,1.37,0,0,0-.22.19,1.88,1.88,0,0,0-.16.23h-1.69l.33-4.59h5.17V579h-3.63l-.15,1.94h0a1.55,1.55,0,0,1,.67-.62,2.2,2.2,0,0,1,1.05-.23,2.57,2.57,0,0,1,1.29.31,2.42,2.42,0,0,1,.89.88,2.59,2.59,0,0,1,.32,1.28h0a2.56,2.56,0,0,1-1.48,2.4,4,4,0,0,1-3.16,0Z"/>
      <path class="cls-4" d="M343.29,585.05a2.73,2.73,0,0,1-1.08-.82,2.21,2.21,0,0,1-.45-1.21V583h1.86V583a.81.81,0,0,0,.38.55,1.5,1.5,0,0,0,.88.23,1.73,1.73,0,0,0,.63-.11,1,1,0,0,0,.41-.33.82.82,0,0,0,.14-.47h0a.82.82,0,0,0-.35-.71,1.69,1.69,0,0,0-1-.24h-.83V580.6h.82a1.8,1.8,0,0,0,.65-.11,1,1,0,0,0,.41-.32.75.75,0,0,0,.15-.46h0a.86.86,0,0,0-.13-.46.7.7,0,0,0-.36-.29,1.41,1.41,0,0,0-.57-.11,1.46,1.46,0,0,0-.58.11.88.88,0,0,0-.58.73v.05h-1.77v-.08a2.22,2.22,0,0,1,.42-1.19,2.47,2.47,0,0,1,1-.79,3.6,3.6,0,0,1,1.49-.28,4.1,4.1,0,0,1,1.52.25,2.22,2.22,0,0,1,1,.71,1.72,1.72,0,0,1,.35,1.07h0a1.65,1.65,0,0,1-.21.85,1.92,1.92,0,0,1-.58.59,2.48,2.48,0,0,1-.79.32v0a2.34,2.34,0,0,1,1.37.55A1.58,1.58,0,0,1,348,583v0a2.06,2.06,0,0,1-.38,1.23,2.5,2.5,0,0,1-1.1.81,4.47,4.47,0,0,1-1.68.29A4.14,4.14,0,0,1,343.29,585.05Z"/>
      <path class="cls-4" d="M350.53,585a2.58,2.58,0,0,1-1-.82,2.09,2.09,0,0,1-.42-1.18V583h1.78v0a1,1,0,0,0,.23.43,1.21,1.21,0,0,0,.42.31,1.32,1.32,0,0,0,.57.12,1.36,1.36,0,0,0,.65-.16,1.05,1.05,0,0,0,.44-.42,1.17,1.17,0,0,0,.16-.62h0a1.15,1.15,0,0,0-.16-.62,1.05,1.05,0,0,0-.44-.42,1.36,1.36,0,0,0-.65-.15,1.23,1.23,0,0,0-.44.07,1.21,1.21,0,0,0-.38.18,1.29,1.29,0,0,0-.21.19,1.19,1.19,0,0,0-.16.23H349.2l.33-4.59h5.17V579h-3.63l-.15,1.94h0a1.58,1.58,0,0,1,.68-.62,2.2,2.2,0,0,1,1.05-.23,2.62,2.62,0,0,1,1.29.31,2.4,2.4,0,0,1,.88.88,2.48,2.48,0,0,1,.32,1.28h0a2.71,2.71,0,0,1-.38,1.44,2.62,2.62,0,0,1-1.09,1,4,4,0,0,1-3.17,0Z"/>
    </g>
    <g>
      <path class="cls-4" d="M69,123.68l.34-.34h6.35v3.72H72.41Zm14.61,3.38v19.82H78.77l-3.38-3.39.33-.33h4.2V123.34h6.35v-3.86l.34-.34L90,122.53v4.53Z"/>
      <path class="cls-4" d="M105.14,146.88h-4.87l-3.38-3.39.34-.33h4.23l0-10.15h9.06v3.72h-5.34Zm-3.38-27.74,3.38,3.39v6.56h-3.72v-9.61Zm11.77,27.74-3.38-3.39.33-.33h4.2V119.48l.34-.34,3.38,3.39v24.35Z"/>
      <path class="cls-4" d="M146.43,146.88H130.5l-3.38-3.39.34-.33h15.25v-3.93l.34-.34,3.38,3.39Zm-11.06-19.75v2h-3.72v-5.68h11.06v-3.93l.34-.34,3.38,3.39v4.6Zm5.58,1.62,3.38,3.38v4.6h-9v2.5h-3.72V133h9v-3.92Z"/>
      <path class="cls-4" d="M177.37,136.19a7.19,7.19,0,0,1-3.66-1.86l-3.21-3.21a6.64,6.64,0,0,0,3.49,1.35l6.62,1.35c.75.17,1.15.41,1.15,1.15v2.17Zm11-1.49a4.27,4.27,0,0,1,1.32,3.11v4.4a4.58,4.58,0,0,1-4.81,4.8H177.3a4.88,4.88,0,0,1-3.79-1.69l-2.74-2.74a4.75,4.75,0,0,0,3.15.71h7.57c2.84,0,4.47-1.62,4.47-4.46v-4.4a4,4,0,0,0-.85-3Zm-13.7,4.67a1,1,0,0,1-1.15-1.15v-2.17l.34-.33,3.65,3.65Zm.14-10.89c-.75-.17-1.15-.41-1.15-1.15v-2.91a1,1,0,0,1,1.15-1.15h5.54c.75,0,1.25.41,1.15,1.15v1.89h4.06v-2.5a5.91,5.91,0,0,0-.71-3.14l3.42,3.41a4.36,4.36,0,0,1,1,3.11V130h-4.73l-3-3h-3a1,1,0,0,0-1.15,1.15V129Z"/>
      <path class="cls-4" d="M205.94,146.88h-4.87l-3.38-3.39.34-.33h4.22l0-10.15h9.06v3.72h-5.34Zm-3.38-27.74,3.38,3.39v6.56h-3.72v-9.61Zm11.77,27.74L211,143.49l.33-.33h4.2V119.48l.33-.34,3.39,3.39v24.35Z"/>
      <path class="cls-4" d="M247.23,146.88H231.3l-3.38-3.39.34-.33h15.25v-3.93l.34-.34,3.38,3.39Zm-11.06-19.75v2h-3.72v-5.68h11.06v-3.93l.34-.34,3.38,3.39v4.6Zm5.58,1.62,3.38,3.38v4.6h-9v2.5h-3.72V133h9v-3.92Z"/>
      <path class="cls-4" d="M258.28,146.88l-3.38-3.39.34-.33h14.41v-3.93l.33-.34,3.39,3.39v4.6Zm1.49-27.74,3.38,3.39v16.7h-3.72V119.48Z"/>
      <path class="cls-4" d="M280.53,119.48l.34-.34,3.38,3.39L287,133.15l-1.29,4.9h-.34Zm5.58,27.4-3.38-3.39.34-.33h5.17l7.24-23.85.34-.17,3.38,3.39-7.41,24.35Z"/>
      <path class="cls-4" d="M325.17,146.88H309.24l-3.38-3.39.34-.33h15.25v-3.93l.34-.34,3.38,3.39Zm-11.06-19.75v2h-3.72v-5.68h11.06v-3.93l.34-.34,3.38,3.39v4.6Zm5.58,1.62,3.38,3.38v4.6h-9v2.5h-3.72V133h9v-3.92Z"/>
      <path class="cls-4" d="M340.15,136.19a7.19,7.19,0,0,1-3.66-1.86l-3.21-3.21a6.64,6.64,0,0,0,3.48,1.35l6.63,1.35c.75.17,1.15.41,1.15,1.15v2.17Zm11-1.49a4.27,4.27,0,0,1,1.32,3.11v4.4a4.59,4.59,0,0,1-4.81,4.8h-7.57a4.88,4.88,0,0,1-3.79-1.69l-2.74-2.74a4.75,4.75,0,0,0,3.15.71h7.57c2.84,0,4.47-1.62,4.47-4.46v-4.4a4,4,0,0,0-.85-3Zm-13.7,4.67a1,1,0,0,1-1.15-1.15v-2.17l.34-.33,3.65,3.65Zm.14-10.89c-.75-.17-1.15-.41-1.15-1.15v-2.91a1,1,0,0,1,1.15-1.15h5.54c.75,0,1.25.41,1.15,1.15v1.89h4.06v-2.5a5.91,5.91,0,0,0-.71-3.14l3.42,3.41a4.36,4.36,0,0,1,1,3.11V130h-4.73l-3.05-3h-3a1,1,0,0,0-1.15,1.15V129Z"/>
    </g>
    <text class="cls-11" transform="translate(73.98 176.81)">E<tspan class="cls-12" x="18.47" y="0">v</tspan><tspan x="34.58" y="0">e</tspan><tspan class="cls-13" x="52.55" y="0">r</tspan><tspan class="cls-14" x="64.25" y="0">y</tspan><tspan class="cls-15" x="81.25" y="0">t</tspan><tspan class="cls-16" x="93.37" y="0">h</tspan><tspan class="cls-17" x="111.5" y="0">ing I</tspan><tspan class="cls-18" x="172.95" y="0">’</tspan><tspan class="cls-19" x="179.57" y="0">v</tspan><tspan x="195.67" y="0">e G</tspan><tspan class="cls-20" x="243.1" y="0">o</tspan><tspan x="260.3" y="0">t</tspan></text>
    <path class="cls-21" d="M37.26,555.84l0-24.27c0-.77.55-.82,1.24-.09l6,6.35a4.69,4.69,0,0,1,1.25,2.72l.19,24.4c0,.81-.56.87-1.25.14l-6.16-6.47A4.83,4.83,0,0,1,37.26,555.84Z"/>
    <path class="cls-21" d="M36,554.55l0-24.25c0-.77.55-.82,1.24-.09l8.45,8.89A4.82,4.82,0,0,1,47,541.82l.2,24.41c0,.81-.55.88-1.25.14l-8.6-9A4.79,4.79,0,0,1,36,554.55Z"/>
    <path class="cls-21" d="M47.18,567.72,36,556a4.56,4.56,0,0,1-1.21-2.66V529c0-.74.53-.78,1.18-.09l11,11.54a4.54,4.54,0,0,1,1.2,2.6l.22,24.57C48.38,568.36,47.85,568.42,47.18,567.72Z"/>
    <path class="cls-22" d="M34.81,529v-1.36c0-.73.53-.77,1.18-.09l10.95,11.53a4.53,4.53,0,0,1,1.19,2.6l0,1.37a4.54,4.54,0,0,0-1.2-2.6L36,528.88C35.34,528.19,34.81,528.23,34.81,529Z"/>
    <path class="cls-22" d="M47.19,569.14,36,557.4a4.56,4.56,0,0,1-1.21-2.66v-1.41A4.56,4.56,0,0,0,36,556l11.16,11.73c.67.7,1.2.64,1.19-.13l0,1.42C48.39,569.78,47.86,569.84,47.19,569.14Z"/>
    <path class="cls-21" d="M47.18,567.72,36,556a4.56,4.56,0,0,1-1.21-2.66V529c0-.74.53-.78,1.18-.09l11,11.54a4.54,4.54,0,0,1,1.2,2.6l.22,24.57C48.38,568.36,47.85,568.42,47.18,567.72Z"/>
    <g>
      <path class="cls-4" d="M43.2,539.23c0,.19-.1.29-.19.31s-.21,0-.36-.21a1.84,1.84,0,0,1-.4-.63,2.9,2.9,0,0,1-.15-.89v-1.23l.17.18a.65.65,0,0,0,0,.3.84.84,0,0,0,.2.27l1.21,1.27c.09.1.16.16.19.15s.06-.06.06-.19l.16.18,0,.92v.13c0,.41,0,.64-.12.69s-.21,0-.36-.16a1.48,1.48,0,0,1-.3-.45A3.46,3.46,0,0,1,43.2,539.23Zm-.1-.68-.58-.61-.13-.12a.06.06,0,0,0-.08,0,.19.19,0,0,0,0,.13.92.92,0,0,0,.11.36,2.31,2.31,0,0,0,.3.4,1.17,1.17,0,0,0,.26.21c.06,0,.1,0,.12,0a.65.65,0,0,0,0-.25Zm.19.2v.12a.78.78,0,0,0,.08.36,1.35,1.35,0,0,0,.27.38.71.71,0,0,0,.22.18c.06,0,.1,0,.11,0a.83.83,0,0,0,0-.26Z"/>
      <path class="cls-4" d="M43.15,540.36a4.72,4.72,0,0,1,.94,1.64,3,3,0,0,1,.13.78c0,.41-.1.63-.31.64s-.47-.14-.77-.46a4.12,4.12,0,0,1-.75-1.13,3.07,3.07,0,0,1-.31-1.29.75.75,0,0,1,.15-.57c.1-.1.23-.11.41,0A2.29,2.29,0,0,1,43.15,540.36Zm0,.74a2.58,2.58,0,0,0-.69-.58q-.21-.07-.21.21a1.55,1.55,0,0,0,.2.66,4.16,4.16,0,0,0,.68.86,2.44,2.44,0,0,0,.65.55c.15.06.22,0,.22-.22a1.33,1.33,0,0,0-.21-.66A4.3,4.3,0,0,0,43.17,541.1Z"/>
      <path class="cls-4" d="M43.17,543.5a4.72,4.72,0,0,1,.94,1.64,3,3,0,0,1,.13.78c0,.42-.1.64-.31.65s-.47-.14-.77-.46a4,4,0,0,1-.75-1.14,3.06,3.06,0,0,1-.32-1.29.83.83,0,0,1,.15-.57.32.32,0,0,1,.41,0A1.91,1.91,0,0,1,43.17,543.5Zm0,.74a2.58,2.58,0,0,0-.69-.58c-.14,0-.21,0-.21.22a1.35,1.35,0,0,0,.2.65,4.43,4.43,0,0,0,.67.87,2.6,2.6,0,0,0,.66.55c.15.06.22,0,.22-.23a1.27,1.27,0,0,0-.21-.65A4.32,4.32,0,0,0,43.19,544.24Z"/>
      <path class="cls-4" d="M43,547.26l-.4-.41c-.09-.11-.16-.16-.2-.16s0,.06,0,.18l-.17-.18v-1.23l.17.18v0a.67.67,0,0,0,.06.3,1.21,1.21,0,0,0,.2.26l1.22,1.28a.61.61,0,0,0,.2.16s0-.06,0-.17v0l.17.18v1.26l-.17-.18v0a.65.65,0,0,0-.06-.29,1.51,1.51,0,0,0-.19-.26l-.58-.6.52,1.18a1.43,1.43,0,0,0,.22.4c.06.07.09,0,.09-.11l.17.18v1.05l-.17-.18a1.18,1.18,0,0,0-.07-.37,6.14,6.14,0,0,0-.3-.76l-.17-.4-.85-.24a.47.47,0,0,0-.28,0s-.06.1-.06.22l-.17-.18v-1.37l.17.18a.57.57,0,0,0,.09.37.55.55,0,0,0,.18.07l.57.16Z"/>
      <path class="cls-4" d="M42.19,548.7l.71.75v.21c-.22-.17-.37-.24-.46-.22s-.13.1-.13.24a.83.83,0,0,0,.08.32,1,1,0,0,0,.18.28.33.33,0,0,0,.15.1c.05,0,.11,0,.17-.09a1.39,1.39,0,0,1,.25-.27.22.22,0,0,1,.21,0,1,1,0,0,1,.3.22,2.63,2.63,0,0,1,.44.69,1.91,1.91,0,0,1,.17.69c0,.2-.05.31-.17.33a2.51,2.51,0,0,0,.14.21v.2l-.61-.65v-.19a.51.51,0,0,0,.33.15c.09,0,.13-.07.13-.19a.62.62,0,0,0-.07-.29.82.82,0,0,0-.16-.26.3.3,0,0,0-.15-.1.14.14,0,0,0-.11,0l-.16.21a.56.56,0,0,1-.19.19.28.28,0,0,1-.21,0,1,1,0,0,1-.27-.22,2.23,2.23,0,0,1-.46-.71,1.88,1.88,0,0,1-.19-.75.5.5,0,0,1,.07-.29.16.16,0,0,1,.17-.09,1.67,1.67,0,0,0-.16-.24Z"/>
      <path class="cls-4" d="M43.17,552.93l-.57-.61c-.1-.1-.16-.15-.2-.15s0,.07,0,.2l-.17-.18v-1.25l.17.18a.87.87,0,0,0,0,.31,1.33,1.33,0,0,0,.21.27L43.83,553c.09.11.16.16.2.16s0-.07,0-.2l.17.18v1.24l-.17-.18a.67.67,0,0,0-.06-.3.84.84,0,0,0-.2-.27l-.47-.49v1l.47.49c.09.1.16.15.19.15s.06-.06.06-.19l.17.18V556l-.17-.18a.68.68,0,0,0-.06-.31,1,1,0,0,0-.2-.28l-1.23-1.29c-.1-.1-.17-.16-.2-.15s-.06.07,0,.2l-.18-.18v-1.24l.17.17a.87.87,0,0,0,0,.31,1.68,1.68,0,0,0,.21.27l.57.6Z"/>
      <path class="cls-4" d="M43.19,556.15l-.52-.54-.19-.18a0,0,0,0,0-.07,0,.56.56,0,0,0,0,.23,1.18,1.18,0,0,0,0,.4,1.42,1.42,0,0,0,.18.38,3,3,0,0,0,.27.42v.2l-.68-.74v-2.19l.17.18v0a.67.67,0,0,0,.06.3,1.11,1.11,0,0,0,.19.26l1.24,1.29c.09.1.16.16.2.16s.05-.06.05-.17v-.05l.17.18v2l-.54-.53v-.2a.85.85,0,0,0,.23.12c.05,0,.09,0,.1,0a.4.4,0,0,0,0-.2v-.45l-.72-.75v.22a.67.67,0,0,0,.06.27,1.14,1.14,0,0,0,.2.27v.2l-.71-.74v-.2l0,0a.57.57,0,0,0,.16.13c.05,0,.07,0,.07-.15Z"/>
      <path class="cls-4" d="M42.91,559.67l-.7-.74v-2.19l.17.18v0a.6.6,0,0,0,.06.29.86.86,0,0,0,.2.26l1.23,1.3c.1.1.16.15.2.15s.06-.05.06-.17v0l.17.18v1.29l-.17-.18v0a.67.67,0,0,0-.06-.3,1.2,1.2,0,0,0-.19-.26l-1.2-1.25L42.5,558a.05.05,0,0,0-.08,0,.53.53,0,0,0,0,.23,1.51,1.51,0,0,0,.14.62,3.9,3.9,0,0,0,.37.6Z"/>
      <path class="cls-4" d="M43.21,561.24l-.57-.59c-.09-.11-.16-.16-.19-.16s-.06.06-.06.18v.05l-.17-.18v-1.3l.17.18v0a.62.62,0,0,0,.06.29,1.07,1.07,0,0,0,.2.26l1.24,1.31c.1.1.16.15.2.15s.05-.06.05-.17v0l.17.18v2l-.55-.57v-.2a.8.8,0,0,0,.23.13c.06,0,.1,0,.11,0a.43.43,0,0,0,0-.2v-.39l-.72-.76v.19a.48.48,0,0,0,.06.24,1.38,1.38,0,0,0,.2.29v.2l-.72-.76v-.2c.11.11.19.17.22.17s.06,0,.06-.14Z"/>
      <path class="cls-4" d="M39.28,535.57l-.49-.51c-.09-.1-.16-.15-.19-.15s-.06.05-.06.17v0l-.17-.18v-1.26l.17.18v0a.6.6,0,0,0,.06.29.94.94,0,0,0,.19.26L40,535.73a.61.61,0,0,0,.2.16s0-.06,0-.17v-.05l.17.18V537a4,4,0,0,1,0,.44.33.33,0,0,1-.08.19.16.16,0,0,1-.19,0,.68.68,0,0,1-.26-.19,2,2,0,0,1-.51-1s-.19,0-.43-.07a.78.78,0,0,0-.35-.07s-.05.06-.05.13l-.17-.17v-.74a3.62,3.62,0,0,1,.53.19,1.17,1.17,0,0,0,.27.1s.07,0,.08,0A.63.63,0,0,0,39.28,535.57Zm.19.2a2.31,2.31,0,0,0,0,.43,1.12,1.12,0,0,0,.12.29,2,2,0,0,0,.24.31c.15.15.25.22.31.2s.08-.13.08-.32v-.09Z"/>
      <path class="cls-4" d="M39.37,539l-.51-.53-.19-.19a.06.06,0,0,0-.08,0,.51.51,0,0,0,0,.22,1.48,1.48,0,0,0,0,.39,2.52,2.52,0,0,0,.18.38c.09.15.18.28.27.41v.19l-.68-.73v-2.14l.17.17v0a.65.65,0,0,0,.06.29.91.91,0,0,0,.19.25L40,539.1a.62.62,0,0,0,.19.16s.06-.06.06-.17v0l.16.17v2l-.53-.53v-.19a1,1,0,0,0,.22.12s.09,0,.1,0a.38.38,0,0,0,0-.19V540l-.72-.75v.22a.53.53,0,0,0,.06.26,1.14,1.14,0,0,0,.2.27v.2l-.7-.74v-.2l0,0a.43.43,0,0,0,.16.13c.05,0,.07,0,.07-.14Z"/>
      <path class="cls-4" d="M39.19,543.32l-.78-.82v-.19a.58.58,0,0,0,.2.11,2.45,2.45,0,0,1-.26-1c0-.37.1-.55.31-.55a1.12,1.12,0,0,1,.74.46,4.31,4.31,0,0,1,.76,1.12,2.87,2.87,0,0,1,.34,1.25c0,.28-.08.44-.25.47a1.88,1.88,0,0,0,.19.26v.2l-.77-.79v-.19c.21.16.37.24.47.22s.16-.12.16-.29a1.43,1.43,0,0,0-.21-.69,4.26,4.26,0,0,0-.66-.84,3.78,3.78,0,0,0-.5-.47c-.12-.1-.22-.12-.28-.08s-.1.12-.1.25a1.57,1.57,0,0,0,.16.63,3.48,3.48,0,0,0,.48.79Z"/>
      <path class="cls-4" d="M39.44,544.69a4.27,4.27,0,0,1,.54.75,4.37,4.37,0,0,1,.4.9,2.7,2.7,0,0,1,.13.79c0,.42-.1.63-.31.65s-.47-.14-.78-.46a4.34,4.34,0,0,1-.75-1.14,3.12,3.12,0,0,1-.31-1.3.81.81,0,0,1,.15-.58.32.32,0,0,1,.41,0A2.13,2.13,0,0,1,39.44,544.69Zm0,.75a2.39,2.39,0,0,0-.69-.58q-.21-.08-.21.21a1.39,1.39,0,0,0,.19.66,4.55,4.55,0,0,0,.68.87,2.39,2.39,0,0,0,.66.55c.15.06.22,0,.22-.23a1.42,1.42,0,0,0-.2-.65A4.9,4.9,0,0,0,39.46,545.44Z"/>
      <path class="cls-4" d="M39.32,549.12l-.49-.52c-.09-.1-.16-.15-.2-.15s-.05,0-.05.17v0l-.17-.18V547.2l.17.18v0a.65.65,0,0,0,.06.29,1.66,1.66,0,0,0,.2.26l1.23,1.29a.53.53,0,0,0,.2.16s.05-.06.05-.18v0l.17.18v1.17a2.38,2.38,0,0,1,0,.44.34.34,0,0,1-.08.2.15.15,0,0,1-.19,0,.68.68,0,0,1-.26-.19,2.06,2.06,0,0,1-.51-1s-.2,0-.44-.07-.31-.08-.35-.06-.06.06-.06.13l-.17-.18v-.74a2.58,2.58,0,0,1,.53.18,1.2,1.2,0,0,0,.29.1.06.06,0,0,0,.08,0A1,1,0,0,0,39.32,549.12Zm.19.2a2.24,2.24,0,0,0,0,.43,1.45,1.45,0,0,0,.13.29,1.67,1.67,0,0,0,.24.32c.15.15.25.22.31.2s.08-.13.08-.32v-.1Z"/>
      <path class="cls-4" d="M38.41,550.65l.17.18a.68.68,0,0,0,.06.31.84.84,0,0,0,.2.27l1.23,1.3c.1.1.17.16.2.16s.06-.07.06-.2l.17.18v.29c0,.3,0,.54,0,.7a3.53,3.53,0,0,1,0,.63.46.46,0,0,1-.18.3.41.41,0,0,1-.37,0,1.93,1.93,0,0,1-.49-.39,4.18,4.18,0,0,1-.84-1.37,2.64,2.64,0,0,1-.16-.63c0-.18,0-.46,0-.84Zm1.93,3L38.9,552.1l-.19-.18a.06.06,0,0,0-.08,0s0,.07,0,.16a1.54,1.54,0,0,0,.21.72,4.32,4.32,0,0,0,.64.83,2.14,2.14,0,0,0,.54.45c.14.06.23,0,.28,0A1,1,0,0,0,40.34,553.61Z"/>
      <path class="cls-4" d="M38.46,554.41l.71.75v.21q-.31-.24-.45-.21c-.1,0-.14.1-.14.24a.79.79,0,0,0,.08.32,1,1,0,0,0,.18.29.31.31,0,0,0,.16.1s.1,0,.16-.09a1.94,1.94,0,0,1,.26-.28.22.22,0,0,1,.21,0,.8.8,0,0,1,.3.23,2,2,0,0,1,.44.68,1.85,1.85,0,0,1,.18.7c0,.21-.06.32-.18.34l.15.21v.2l-.62-.65v-.2a.6.6,0,0,0,.34.16c.08,0,.13-.08.13-.2a.82.82,0,0,0-.07-.29,1,1,0,0,0-.17-.27.44.44,0,0,0-.15-.1.11.11,0,0,0-.11,0l-.16.21a.48.48,0,0,1-.19.19.27.27,0,0,1-.21,0,1.27,1.27,0,0,1-.28-.22,2.33,2.33,0,0,1-.46-.73,1.8,1.8,0,0,1-.19-.75.48.48,0,0,1,.07-.29.16.16,0,0,1,.18-.1l-.17-.24Z"/>
    </g>
    <g>
      <g>
        <path class="cls-4" d="M43.77,198.28l.1.2v1.73l-1.06-1.14v-.91Zm-.94,3-5.69-6.11V193.8l1,.12.09.19v1.15l5.68,6.1v1.75L45,204.3l.1.19-1-.11-1.3-1.4Z"/>
        <path class="cls-4" d="M37.16,201v-1.34l1,.12.09.19v1.17l2.92,3.12v2.51l-1.07-1.15v-1.48Zm8,7.64-1-.11-1.89-2v-1l2.76,3Zm-8-5.33,1,.12.1.2v1.15l6.83,7.34.1.19-1-.1-7-7.55Z"/>
        <path class="cls-4" d="M37.19,212.48v-4.43l1,.11.1.2,0,4.24,1.13,1.22.1.2-1-.1Zm5.71,3.06-.57-.61v-1L44,215.65l0,3.1L45.13,220l.1.21-1-.11-1.34-1.43Zm-.46,1.05-1-.1-1.34-1.43v-2.51l-.72-.77v-1l1.8,1.93,0,2.5,1.13,1.22Z"/>
        <path class="cls-4" d="M40.33,224.52c.09-.31.27-.49.54-.46l.93.1c-.24,0-.31.25-.39.56L41,226.18c-.05.15-.12.19-.33,0l-.64-.68Zm.45,3.58a1.66,1.66,0,0,1-.9-.6l-1.29-1.38a4.89,4.89,0,0,1-1.41-2.87v-2.14c0-.48.17-.57.49-.54l.79.09c-.19,0-.2.31-.2.66v2.14a4.2,4.2,0,0,0,1.3,2.66l1.29,1.38c.35.38.63.65.87.69Zm-1.38-5.34c0-.21.12-.2.34,0l.63.68.1.2-1.06-.11Zm3.18,3.44c.05-.16.11-.2.33,0l.85.91a1.12,1.12,0,0,1,.34.69v1.57c0,.21-.12.23-.34,0l-.55-.6v1.16l.73.78a3.36,3.36,0,0,0,.92.78l-1-.1a2,2,0,0,1-.91-.68l-.83-.89v-1.35l.88.09v-.84a1,1,0,0,0-.34-.69l-.26-.27Z"/>
        <path class="cls-4" d="M37.24,229.28v-1.39l1,.1.1.2v1.21l3,3.17v2.6L40.22,234v-1.53ZM45.36,237l-1-.09-1.93-2.06v-1.06l2.81,3Zm-8.11-5.34,1,.09.09.21v1.2l6.95,7.44.1.2-1-.09-7.15-7.66Z"/>
        <path class="cls-4" d="M37.27,241.14v-4.6l1,.1.1.2,0,4.4,1.16,1.24.1.2-1-.09Zm5.81,3-.57-.62v-1.07l1.67,1.79,0,3.2,1.16,1.24.1.2-1-.08-1.36-1.46Zm-.46,1.1-1-.09-1.35-1.45,0-2.59-.73-.79v-1.07l1.83,2,0,2.59,1.16,1.24Z"/>
        <path class="cls-4" d="M37.28,244.34l1,.09.1.21v4.19l1.17,1.25.1.2-1-.08-1.37-1.46Zm8.21,9.22-1-.09-4.94-5.29V247.1l5.85,6.25Z"/>
        <path class="cls-4" d="M45.43,259.53l.11.21-1-.08-3.15-2.58-1.46-1.94V255Zm-8.13-7.06,1,.08.1.21v1.51L45.52,264l0,.16-1-.08-7.26-9.94Z"/>
        <path class="cls-4" d="M37.34,264l0-4.72,1,.08.1.2,0,4.52,1.17,1.26.1.21-1-.08Zm5.89,3-.59-.63v-1.11l1.69,1.82,0,3.29,1.17,1.25.1.21-1-.07-1.38-1.47Zm-.48,1.14-1-.08-1.38-1.47V264l-.75-.8v-1.1l1.86,2v2.66L42.65,268Z"/>
        <path class="cls-4" d="M40.56,271.89c.09-.33.27-.53.55-.5l1,.07c-.25,0-.32.28-.4.61l-.4,1.55c-.05.17-.12.22-.34,0l-.65-.69Zm.46,3.78a1.57,1.57,0,0,1-.93-.61l-1.32-1.41a5,5,0,0,1-1.45-3V268.4c0-.51.18-.61.5-.59l.82.06c-.2,0-.21.34-.21.71v2.27a4.33,4.33,0,0,0,1.35,2.77L41.1,275c.37.39.65.67.89.7Zm-1.42-5.61c0-.22.12-.21.34,0l.65.69.11.21-1.1-.08Zm3.27,3.53c.05-.16.12-.21.34,0l.87.93a1.08,1.08,0,0,1,.35.71v1.67c0,.22-.12.24-.34,0l-.57-.6v1.22l.75.8a3.46,3.46,0,0,0,.94.8l-1-.07a2.05,2.05,0,0,1-.93-.7l-.85-.91V276l.91.06v-.89a1.06,1.06,0,0,0-.35-.72l-.26-.28Z"/>
      </g>
      <g>
        <path class="cls-23" d="M38.33,282.59l0,5c0,.53-.83-.28-.83-.88l0-5.31c0-.35.25-.31.55,0l6.87,7.34a2,2,0,0,1,.54,1.15l0,5.34c0,.55-.8-.33-.8-.87l0-5-2.81-3,0,4.75c0,.5-.8-.33-.8-.86l0-4.75Z"/>
        <path class="cls-23" d="M43.41,295.51c.53.37.83,1.54.35,1.24L38.86,294l5,7.8c.47.69.21,1.28-.31.5l-5.8-9.13c-.33-.52-.43-1.06,0-.85Z"/>
        <path class="cls-23" d="M44,309c-.39,1-1.55.7-3.17-1v0a1.88,1.88,0,0,1-.59-1.26l0-5.08c-1-.94-1.89-1-1.89.32a6.34,6.34,0,0,0,.54,2.28c.41.89-.11,1-.62,0a7.6,7.6,0,0,1-.77-3.1c0-1,.38-1.6,1.12-1.41,1.79.53,4.7,4.23,5.37,7.33A3.69,3.69,0,0,1,44,309Zm-3-6.55,0,4.86c1.07,1.05,1.89,1.26,2.14.52v0a2.8,2.8,0,0,0,0-1.41A9.43,9.43,0,0,0,41,302.46Z"/>
        <path class="cls-23" d="M43,314.14a5.82,5.82,0,0,1,1.09,3.09c0,.3-.15.34-.44,0a1.55,1.55,0,0,1-.44-1c0-1.34-1.05-3-2.33-4.39L38,308.84a1.66,1.66,0,0,1-.45-.94c0-.28.18-.29.45,0l5.63,6c.56.59.61,1.57,0,.92Z"/>
        <path class="cls-23" d="M43.53,319.14c.51.31.95,1.64.38,1.29L39,317.7l5,7.78c.5.77.19,1.31-.34.53l-8.18-12.9c-.6-.95-.28-1.43.32-.55l2.29,3.59Z"/>
        <path class="cls-23" d="M44.17,332.34c0,.6-.81-.26-.81-.86V330l-3.46-3.69c-.74-.78-1.51-1.48-1.5-.58a2.67,2.67,0,0,0,.14.77c.31.89-.45.52-.77-.42a3.61,3.61,0,0,1-.22-1.25c0-1.59,1.12-.77,2.34.53l3.46,3.69v-.88c0-.62.8.28.8.86V330l1.49,1.58c.61.65.61,1.6,0,1l-1.48-1.58Z"/>
        <path class="cls-23" d="M41.45,338.49c1.19,1.26,2,1.15,2,.06a8.44,8.44,0,0,0-2.21-4.85L38,330.29a1.56,1.56,0,0,1-.46-1c0-.31.17-.31.46,0l7.7,8.2c.56.59.55,1.56,0,1L43,335.62a7.9,7.9,0,0,1,1.29,3.88c0,1.55-1,1.94-2.87,0l-3.41-3.62a1.54,1.54,0,0,1-.47-1c0-.29.18-.3.46,0Z"/>
        <path class="cls-23" d="M45.23,347.5c-.58-.62-.6-1.64,0-1l.58.62c.6.63.61,1.64,0,1ZM43.83,345c.55.59.57,1.59,0,1L38,339.8c-.57-.6-.56-1.57,0-1Z"/>
        <path class="cls-23" d="M41.52,352.34c1.2,1.27,2,1.15,2,.05a9.28,9.28,0,0,0-2.47-5.15l-3-3.21a1.52,1.52,0,0,1-.45-1c0-.31.16-.33.45,0l5.81,6.18c.59.64.61,1.63,0,1l-.8-.85a8,8,0,0,1,1.36,4c0,1.58-1,2-2.89,0l-3.45-3.66a1.51,1.51,0,0,1-.46-1c0-.29.17-.32.46,0Z"/>
        <path class="cls-23" d="M38,359.41A10.14,10.14,0,0,1,35.16,353c0-1,.23-1.62.89-1.64s1.11,1.38.68,1.39-.65.48-.64,1.24A7,7,0,0,0,38,358.43l.71.75a7,7,0,0,1-1.16-3.41,2.08,2.08,0,0,1,.24-1.22c.5-.74,1.68-.25,3,1.12a14.27,14.27,0,0,1,3.4,5.79,6,6,0,0,1,.23,1.53c0,.84-.29,1.48-1,1.17l.49.53a1.61,1.61,0,0,1,.48,1c0,.31-.18.32-.47,0Zm5,.63h0a11,11,0,0,0-2.23-3.37,5.77,5.77,0,0,0-1-.82c-.91-.59-1.41-.13-1.39.85h0a7.79,7.79,0,0,0,2,4.33l1,1.1c.82.88,1.45,1.19,1.78.74S43.62,361.37,43.07,360Z"/>
        <path class="cls-23" d="M46,376.47c.65.7.65,1.73,0,1l-7.87-8.36c-.61-.64-.64-1.71,0-1Z"/>
        <path class="cls-23" d="M44.41,379.3c-.58-.92-.19-1.27.35-.45L46,380.77c.58.9.17,1.36-.37.48Z"/>
        <path class="cls-23" d="M44,381.59c.55.37.87,1.64.36,1.34l-5.14-2.72,5.2,8.3c.49.73.22,1.4-.32.57L38,379.37c-.34-.55-.45-1.14,0-.94Z"/>
        <path class="cls-23" d="M44.57,396.45c-.41,1.17-1.63.87-3.33-.91v0a2,2,0,0,1-.61-1.35l0-5.62c-1.09-1-2-.94-2,.48a6.75,6.75,0,0,0,.56,2.49c.43.95-.11,1.11-.65,0a8.39,8.39,0,0,1-.81-3.38c0-1.11.4-1.79,1.18-1.62,1.88.47,4.93,4.37,5.64,7.75a4.36,4.36,0,0,1,0,2.13Zm-3.15-7,0,5.36c1.13,1.1,2,1.28,2.25.45h0a3.24,3.24,0,0,0,0-1.55A10,10,0,0,0,41.42,389.41Z"/>
        <path class="cls-23" d="M39.37,409.9a12.42,12.42,0,0,1-1.63-5.41c0-2.46,1.92-2.56,4.45.18a18.19,18.19,0,0,1,4.31,8.4c0,.24,0,.53,0,.8,0,1.26-.39,2.18-1.24,2.07-.47-.06-1.12-1.48-.64-1.42.87.11,1.17-.91.91-2.27a14.48,14.48,0,0,0-3.43-6.59c-1.89-2-3.46-2-3.5-.18a9.47,9.47,0,0,0,1.22,4.1l1.79,1.9v-2.61c0-.69.88.33.89.93v3.08c0,.42-.2.34-.49,0l-2.25-2.38A2.41,2.41,0,0,1,39.37,409.9Z"/>
        <path class="cls-23" d="M39,413.78a5.07,5.07,0,0,1,2.58,1.85,14.4,14.4,0,0,1,3.19,6.06,7.27,7.27,0,0,1,.13,1.24,3.2,3.2,0,0,1-.12,1c-.41,1.16-1.65.84-3.16-.63a14.44,14.44,0,0,1-2.6-3.63,10,10,0,0,1-1.23-4.22C37.77,414.24,38.18,413.65,39,413.78Zm5,8.16a5.16,5.16,0,0,0-.1-.87,10.37,10.37,0,0,0-2.58-4.66,3.52,3.52,0,0,0-1.71-1.17c-.56-.09-.88.34-.88,1.14a7.82,7.82,0,0,0,.9,3.06,11.09,11.09,0,0,0,1.69,2.43c1.23,1.31,2.3,1.72,2.59.78A2.73,2.73,0,0,0,44,421.94Z"/>
        <path class="cls-23" d="M44.83,432.82c0,.67-.85-.24-.85-.9V430.3l-3.66-3.87c-.78-.82-1.59-1.55-1.59-.55a3.31,3.31,0,0,0,.15.86c.33,1-.47.6-.81-.42a4.11,4.11,0,0,1-.23-1.38c0-1.78,1.18-.94,2.47.42L44,429.24v-1c0-.69.85.25.85.9v1l1.57,1.66c.65.69.64,1.74,0,1.07l-1.58-1.67Z"/>
      </g>
    </g>
    <g>
      <polygon class="cls-24" points="279.41 452.39 279.41 209.95 139.34 209.95 139.34 452.39 209.27 452.39 279.41 452.39 279.41 452.39"/>
      <polyline class="cls-25" points="139.34 375.01 209.27 375.01 279.19 375.01 279.19 331.5 279.19 287.99 209.27 287.99 139.34 287.99"/>
      <polyline class="cls-26" points="245.5 271.54 255.04 271.54 255.04 230.54"/>
      <polyline class="cls-26" points="204.22 352 213.76 352 213.76 311"/>
      <polyline class="cls-26" points="168.83 352 178.38 352 178.38 311"/>
      <polyline class="cls-26" points="204.22 436.81 213.76 436.81 213.76 395.81"/>
      <polyline class="cls-26" points="241.56 436.81 251.11 436.81 251.11 395.81"/>
      <polyline class="cls-26" points="165.18 436.81 174.73 436.81 174.73 395.81"/>
    </g>
  </g>
  <g>
    <path class="cls-27" d="M311.32,336.82A111.05,111.05,0,1,0,422.37,447.87,111,111,0,0,0,311.32,336.82Zm0,141.86a30.81,30.81,0,1,1,30.81-30.81A30.8,30.8,0,0,1,311.32,478.68Z"/>
    <path class="cls-27" d="M519.74,396.74a51.13,51.13,0,1,0,51.13,51.13A51.13,51.13,0,0,0,519.74,396.74Zm0,88.68a37.55,37.55,0,1,1,37.55-37.55A37.55,37.55,0,0,1,519.74,485.42Z"/>
    <g>
      <path class="cls-4" d="M314.26,432h-5.88a1.68,1.68,0,0,1-1.61-1.66l-.86-18.17a1.69,1.69,0,0,1,1.6-1.84h7.61a1.69,1.69,0,0,1,1.6,1.84l-.86,18.17A1.67,1.67,0,0,1,314.26,432Z"/>
      <path class="cls-4" d="M314.26,463.75h-5.88a1.68,1.68,0,0,0-1.61,1.66l-.86,18.17a1.69,1.69,0,0,0,1.6,1.84h7.61a1.69,1.69,0,0,0,1.6-1.84l-.86-18.17A1.67,1.67,0,0,0,314.26,463.75Z"/>
      <path class="cls-4" d="M299,437.38l-2.94,5.1a1.67,1.67,0,0,1-2.23.56l-16.17-8.34a1.69,1.69,0,0,1-.79-2.31l3.8-6.59a1.7,1.7,0,0,1,2.4-.47l15.3,9.83A1.68,1.68,0,0,1,299,437.38Z"/>
      <path class="cls-4" d="M326.54,453.26l-2.94,5.1a1.68,1.68,0,0,0,.63,2.22l15.31,9.83a1.69,1.69,0,0,0,2.39-.47l3.8-6.59A1.69,1.69,0,0,0,345,461l-16.17-8.34A1.68,1.68,0,0,0,326.54,453.26Z"/>
      <path class="cls-4" d="M296.09,453.26l2.94,5.1a1.68,1.68,0,0,1-.63,2.22l-15.3,9.83a1.7,1.7,0,0,1-2.4-.47l-3.8-6.59a1.69,1.69,0,0,1,.79-2.31l16.17-8.34A1.67,1.67,0,0,1,296.09,453.26Z"/>
      <path class="cls-4" d="M323.6,437.38l2.94,5.1a1.68,1.68,0,0,0,2.24.56L345,434.7a1.69,1.69,0,0,0,.78-2.31l-3.8-6.59a1.69,1.69,0,0,0-2.39-.47l-15.31,9.83A1.68,1.68,0,0,0,323.6,437.38Z"/>
    </g>
    <g>
      <path class="cls-4" d="M522.68,432H516.8a1.68,1.68,0,0,1-1.61-1.66l-.86-18.17a1.69,1.69,0,0,1,1.6-1.84h7.61a1.69,1.69,0,0,1,1.6,1.84l-.86,18.17A1.67,1.67,0,0,1,522.68,432Z"/>
      <path class="cls-4" d="M522.68,463.75H516.8a1.68,1.68,0,0,0-1.61,1.66l-.86,18.17a1.69,1.69,0,0,0,1.6,1.84h7.61a1.69,1.69,0,0,0,1.6-1.84l-.86-18.17A1.67,1.67,0,0,0,522.68,463.75Z"/>
      <path class="cls-4" d="M507.45,437.38l-2.94,5.1a1.67,1.67,0,0,1-2.23.56l-16.17-8.34a1.69,1.69,0,0,1-.79-2.31l3.8-6.59a1.7,1.7,0,0,1,2.4-.47l15.3,9.83A1.68,1.68,0,0,1,507.45,437.38Z"/>
      <path class="cls-4" d="M535,453.26l-2.94,5.1a1.68,1.68,0,0,0,.63,2.22L548,470.41a1.69,1.69,0,0,0,2.39-.47l3.8-6.59a1.69,1.69,0,0,0-.78-2.31L537.2,452.7A1.68,1.68,0,0,0,535,453.26Z"/>
      <path class="cls-4" d="M504.51,453.26l2.94,5.1a1.68,1.68,0,0,1-.63,2.22l-15.3,9.83a1.7,1.7,0,0,1-2.4-.47l-3.8-6.59a1.69,1.69,0,0,1,.79-2.31l16.17-8.34A1.67,1.67,0,0,1,504.51,453.26Z"/>
      <path class="cls-4" d="M532,437.38l2.94,5.1a1.68,1.68,0,0,0,2.24.56l16.17-8.34a1.69,1.69,0,0,0,.78-2.31l-3.8-6.59a1.69,1.69,0,0,0-2.39-.47l-15.31,9.83A1.68,1.68,0,0,0,532,437.38Z"/>
    </g>
    <path class="cls-27" d="M651.46,302.22H179.6a16.16,16.16,0,0,0-16.17,16.16V605.9a16.17,16.17,0,0,0,16.17,16.16H651.46a16.17,16.17,0,0,0,16.17-16.16V318.38A16.16,16.16,0,0,0,651.46,302.22ZM285.52,447.87a25.8,25.8,0,1,1,25.8,25.8A25.8,25.8,0,0,1,285.52,447.87Zm72.07,24.29V422.7a3.25,3.25,0,0,1,3.24-3.25h109.4a3.25,3.25,0,0,1,3.24,3.25v49.46a3.25,3.25,0,0,1-3.24,3.24H360.83A3.25,3.25,0,0,1,357.59,472.16Zm136.35-24.29a25.8,25.8,0,1,1,25.8,25.8A25.8,25.8,0,0,1,493.94,447.87Z"/>
    <path class="cls-28" d="M179.59,302.22h16.16a0,0,0,0,1,0,0V622.06a0,0,0,0,1,0,0H179.59a16.16,16.16,0,0,1-16.16-16.16V318.38a16.16,16.16,0,0,1,16.16-16.16Z"/>
    <path class="cls-28" d="M651.46,302.22h16.16a0,0,0,0,1,0,0V622.06a0,0,0,0,1,0,0H651.46A16.16,16.16,0,0,1,635.3,605.9V318.38a16.16,16.16,0,0,1,16.16-16.16Z" transform="translate(1302.92 924.27) rotate(-180)"/>
    <path class="cls-4" d="M623.31,328.91H207.75a12,12,0,0,0-12,12V517.44a12,12,0,0,0,12,12H623.31a12,12,0,0,0,12-12V340.91A12,12,0,0,0,623.31,328.91Zm-337.79,119a25.8,25.8,0,1,1,25.8,25.8A25.8,25.8,0,0,1,285.52,447.87Zm188-25.17v49.46a3.25,3.25,0,0,1-3.24,3.24H360.83a3.25,3.25,0,0,1-3.24-3.24V422.7a3.25,3.25,0,0,1,3.24-3.25h109.4A3.25,3.25,0,0,1,473.47,422.7Zm20.47,25.17a25.8,25.8,0,1,1,25.8,25.8A25.8,25.8,0,0,1,493.94,447.87Z"/>
    <path class="cls-29" d="M519.69,402.47H311.37a45,45,0,0,0,0,89.91H519.69a45,45,0,0,0,0-89.91Zm-208.37,71.2a25.8,25.8,0,1,1,25.8-25.8A25.8,25.8,0,0,1,311.32,473.67Zm162.15-1.51a3.25,3.25,0,0,1-3.24,3.24H360.83a3.25,3.25,0,0,1-3.24-3.24V422.7a3.25,3.25,0,0,1,3.24-3.25h109.4a3.25,3.25,0,0,1,3.24,3.25Zm46.27,1.51a25.8,25.8,0,1,1,25.8-25.8A25.8,25.8,0,0,1,519.74,473.67Z"/>
    <path class="cls-30" d="M565,544.37H266a5,5,0,0,0-4.94,4.29L250.65,616.2a5.06,5.06,0,0,0,4.95,5.86H575.46a5.05,5.05,0,0,0,4.94-5.86L570,548.66A5,5,0,0,0,565,544.37Z"/>
    <g>
      <circle class="cls-29" cx="179.19" cy="318.38" r="8.17"/>
      <path class="cls-30" d="M179.19,311.71a6.67,6.67,0,1,1-6.67,6.67,6.67,6.67,0,0,1,6.67-6.67m0-3a9.67,9.67,0,1,0,9.67,9.67,9.67,9.67,0,0,0-9.67-9.67Z"/>
    </g>
    <circle class="cls-31" cx="289.02" cy="606.07" r="11.34"/>
    <circle class="cls-31" cx="542.03" cy="606.07" r="11.34"/>
    <g>
      <circle class="cls-29" cx="651.87" cy="318.38" r="8.17"/>
      <path class="cls-30" d="M651.87,311.71a6.67,6.67,0,1,1-6.67,6.67,6.67,6.67,0,0,1,6.67-6.67m0-3a9.67,9.67,0,1,0,9.67,9.67,9.67,9.67,0,0,0-9.67-9.67Z"/>
    </g>
    <g>
      <path class="cls-29" d="M179.19,614.25a8.18,8.18,0,1,1,8.17-8.18A8.18,8.18,0,0,1,179.19,614.25Z"/>
      <path class="cls-30" d="M179.19,599.4a6.68,6.68,0,1,1-6.67,6.67,6.68,6.68,0,0,1,6.67-6.67m0-3a9.68,9.68,0,1,0,9.67,9.67,9.67,9.67,0,0,0-9.67-9.67Z"/>
    </g>
    <g>
      <path class="cls-29" d="M651.87,614.25a8.18,8.18,0,1,1,8.17-8.18A8.18,8.18,0,0,1,651.87,614.25Z"/>
      <path class="cls-30" d="M651.87,599.4a6.68,6.68,0,1,1-6.67,6.67,6.68,6.68,0,0,1,6.67-6.67m0-3a9.68,9.68,0,1,0,9.67,9.67,9.67,9.67,0,0,0-9.67-9.67Z"/>
    </g>
    <g>
      <circle class="cls-29" cx="415.53" cy="560.52" r="5.84"/>
      <path class="cls-28" d="M415.53,555.68a4.84,4.84,0,1,1-4.84,4.84,4.84,4.84,0,0,1,4.84-4.84m0-2a6.84,6.84,0,1,0,6.84,6.84,6.84,6.84,0,0,0-6.84-6.84Z"/>
    </g>
    <rect class="cls-31" x="336.32" y="585.27" width="18.93" height="18.93" rx="3.24"/>
    <rect class="cls-31" x="475.81" y="585.27" width="18.93" height="18.93" rx="3.24"/>
    <path class="cls-27" d="M600.18,439h-.12l-8.83,6.09v-5l8.9-6.33h5.21V467.6h-5.16Z"/>
    <g>
      <path class="cls-27" d="M218.29,506.36h-4.86v-2.44H226v2.44h-4.84v13.77h-2.88Z"/>
      <path class="cls-27" d="M228,503.92h2.9v6.74h7.88v-6.74h2.89v16.21h-2.89v-7h-7.88v7H228Z"/>
      <path class="cls-27" d="M244.51,503.92H255v2.44h-7.59v4.37h7.17v2.33h-7.17v4.63H255v2.44H244.51Z"/>
      <path class="cls-27" d="M264.57,519.85a5.16,5.16,0,0,1-2.2-1.61,4.5,4.5,0,0,1-.9-2.49v-.17h2.76l0,.13a2.29,2.29,0,0,0,.61,1.21,3.26,3.26,0,0,0,1.27.78,5.58,5.58,0,0,0,1.8.27,4.91,4.91,0,0,0,1.77-.28,2.48,2.48,0,0,0,1.15-.8,2,2,0,0,0,.41-1.22h0a1.73,1.73,0,0,0-.68-1.44,5.68,5.68,0,0,0-2.25-.86l-1.74-.36a7.16,7.16,0,0,1-3.57-1.63,3.83,3.83,0,0,1-1.19-2.93h0a4.14,4.14,0,0,1,.78-2.51,5,5,0,0,1,2.12-1.68,7.62,7.62,0,0,1,3.1-.6,7.74,7.74,0,0,1,3.09.58,5.06,5.06,0,0,1,2.09,1.63,4.51,4.51,0,0,1,.83,2.43v.19h-2.76l0-.15a2.35,2.35,0,0,0-.53-1.2,2.67,2.67,0,0,0-1.12-.77,5,5,0,0,0-3.24,0,2.49,2.49,0,0,0-1.07.77,1.85,1.85,0,0,0-.38,1.15h0a1.68,1.68,0,0,0,.69,1.39,5.49,5.49,0,0,0,2.16.83l1.74.36a7.65,7.65,0,0,1,3.69,1.61,3.92,3.92,0,0,1,1.16,3h0a4.56,4.56,0,0,1-.76,2.61,4.86,4.86,0,0,1-2.18,1.72,8.54,8.54,0,0,1-3.4.61A8.74,8.74,0,0,1,264.57,519.85Z"/>
      <path class="cls-27" d="M276.33,503.92h2.89v6.74h7.89v-6.74H290v16.21h-2.88v-7h-7.89v7h-2.89Z"/>
      <path class="cls-27" d="M292.85,503.92h10.48v2.44h-7.59v4.37h7.18v2.33h-7.18v4.63h7.59v2.44H292.85Z"/>
      <path class="cls-27" d="M305.85,503.92h2.9v13.77h7.34v2.44H305.85Z"/>
      <path class="cls-27" d="M315.71,503.92h3.16L323,517h0l4.12-13.12h3.16l-5.63,16.21h-3.34Z"/>
      <path class="cls-27" d="M332,503.92h10.49v2.44h-7.59v4.37h7.17v2.33h-7.17v4.63h7.59v2.44H332Z"/>
      <path class="cls-27" d="M347.47,519.85a5.16,5.16,0,0,1-2.2-1.61,4.58,4.58,0,0,1-.9-2.49v-.17h2.76l0,.13a2.37,2.37,0,0,0,.61,1.21,3.31,3.31,0,0,0,1.28.78,5.5,5.5,0,0,0,1.8.27,5,5,0,0,0,1.77-.28,2.59,2.59,0,0,0,1.15-.8,1.94,1.94,0,0,0,.4-1.22h0a1.7,1.7,0,0,0-.68-1.44,5.68,5.68,0,0,0-2.25-.86l-1.74-.36a7.16,7.16,0,0,1-3.57-1.63,3.87,3.87,0,0,1-1.19-2.93h0a4.28,4.28,0,0,1,.78-2.51,5,5,0,0,1,2.13-1.68,7.59,7.59,0,0,1,3.1-.6,7.81,7.81,0,0,1,3.09.58,5.1,5.1,0,0,1,2.08,1.63,4.61,4.61,0,0,1,.84,2.43v.19H354l0-.15a2.27,2.27,0,0,0-.53-1.2,2.61,2.61,0,0,0-1.12-.77,4.42,4.42,0,0,0-1.61-.27,4.49,4.49,0,0,0-1.63.27,2.49,2.49,0,0,0-1.07.77,1.84,1.84,0,0,0-.37,1.15h0a1.68,1.68,0,0,0,.69,1.39,5.43,5.43,0,0,0,2.15.83l1.74.36a7.65,7.65,0,0,1,3.69,1.61,3.88,3.88,0,0,1,1.16,3h0a4.48,4.48,0,0,1-.76,2.61,4.81,4.81,0,0,1-2.18,1.72,8.49,8.49,0,0,1-3.39.61A8.76,8.76,0,0,1,347.47,519.85Z"/>
      <path class="cls-27" d="M363.81,512.31h7.24v2.47h-7.24Z"/>
      <path class="cls-27" d="M378.5,503.92H389v2.44H381.4v4.37h7.17v2.33H381.4v4.63H389v2.44H378.5Z"/>
      <path class="cls-27" d="M390.38,503.92h3.16L397.65,517h.05l4.13-13.12H405l-5.62,16.21H396Z"/>
      <path class="cls-27" d="M406.7,503.92h10.49v2.44H409.6v4.37h7.17v2.33H409.6v4.63h7.59v2.44H406.7Z"/>
      <path class="cls-27" d="M419.71,503.92h6.46a6.8,6.8,0,0,1,3,.61,4.47,4.47,0,0,1,1.92,1.75,5.16,5.16,0,0,1,.67,2.69v0a5,5,0,0,1-.82,2.87,4.51,4.51,0,0,1-2.23,1.76l3.54,6.5h-3.31l-3.18-6.07H422.6v6.07h-2.89Zm6.16,7.85a3,3,0,0,0,2.15-.72,2.71,2.71,0,0,0,.76-2v0a2.61,2.61,0,0,0-.8-2,3.06,3.06,0,0,0-2.17-.73H422.6v5.51Z"/>
      <path class="cls-27" d="M437.94,513.74l-5.68-9.82h3.17l3.92,7.05h.08l3.91-7.05h3.17l-5.68,9.82v6.39h-2.89Z"/>
      <path class="cls-27" d="M452.19,506.36h-4.85v-2.44h12.58v2.44h-4.84v13.77h-2.89Z"/>
      <path class="cls-27" d="M461.9,503.92h2.89v6.74h7.89v-6.74h2.89v16.21h-2.89v-7h-7.89v7H461.9Z"/>
      <path class="cls-27" d="M478.42,503.92h2.9v16.21h-2.9Z"/>
      <path class="cls-27" d="M484.17,503.92h2.6l9.48,13.63-2.74-2.26h1.23V503.92h2.87v16.21H495l-9.49-13.67,2.74,2.26H487v11.41h-2.87Z"/>
      <path class="cls-27" d="M503.51,519.39a6.83,6.83,0,0,1-2.65-2.92,10,10,0,0,1-.94-4.51h0a9.7,9.7,0,0,1,.94-4.44,6.71,6.71,0,0,1,2.64-2.86,8.63,8.63,0,0,1,7.41-.33,6.28,6.28,0,0,1,3.58,4.52l0,.19H511.6l0-.12a4,4,0,0,0-1.49-2,4.22,4.22,0,0,0-2.52-.74,4.47,4.47,0,0,0-2.51.69,4.41,4.41,0,0,0-1.6,2,7.77,7.77,0,0,0-.56,3.12h0a8,8,0,0,0,.58,3.2,4.51,4.51,0,0,0,1.64,2.05,4.42,4.42,0,0,0,2.53.71,4.67,4.67,0,0,0,2.16-.47,3.49,3.49,0,0,0,1.47-1.32,3.83,3.83,0,0,0,.56-2v-.25h-4v-2.26h6.85v1.76a7.92,7.92,0,0,1-.84,3.77,5.88,5.88,0,0,1-2.42,2.42,8.81,8.81,0,0,1-7.89-.17Z"/>
      <path class="cls-27" d="M521.63,503.92h2.9v16.21h-2.9Z"/>
      <path class="cls-27" d="M527.7,503.92h2.72l-1.66,5.95h-1.94Z"/>
      <path class="cls-27" d="M531.58,503.92h3.16L538.85,517h.06L543,503.92h3.15l-5.62,16.21h-3.35Z"/>
      <path class="cls-27" d="M547.9,503.92h10.49v2.44H550.8v4.37H558v2.33H550.8v4.63h7.59v2.44H547.9Z"/>
      <path class="cls-27" d="M568.56,519.39a6.85,6.85,0,0,1-2.66-2.92A10.11,10.11,0,0,1,565,512h0a9.83,9.83,0,0,1,.93-4.44,6.73,6.73,0,0,1,2.65-2.86,8.61,8.61,0,0,1,7.4-.33,6.34,6.34,0,0,1,2.37,1.85,6.51,6.51,0,0,1,1.22,2.67l0,.19h-2.93l0-.12a4.09,4.09,0,0,0-1.49-2,4.24,4.24,0,0,0-2.52-.74,4.45,4.45,0,0,0-2.51.69,4.41,4.41,0,0,0-1.6,2,7.76,7.76,0,0,0-.57,3.12h0a8.16,8.16,0,0,0,.58,3.2,4.59,4.59,0,0,0,1.65,2.05,4.39,4.39,0,0,0,2.52.71,4.71,4.71,0,0,0,2.17-.47,3.61,3.61,0,0,0,1.47-1.32,3.82,3.82,0,0,0,.55-2l0-.25h-4v-2.26h6.86v1.76a7.92,7.92,0,0,1-.85,3.77,5.82,5.82,0,0,1-2.42,2.42,8.79,8.79,0,0,1-7.88-.17Z"/>
      <path class="cls-27" d="M585.11,519.39a6.89,6.89,0,0,1-2.66-2.91,9.93,9.93,0,0,1-.94-4.45v0a9.77,9.77,0,0,1,1-4.45,6.8,6.8,0,0,1,2.66-2.9,8.69,8.69,0,0,1,8.17,0,6.86,6.86,0,0,1,2.66,2.9,9.9,9.9,0,0,1,.94,4.45v0a9.93,9.93,0,0,1-.94,4.45,6.89,6.89,0,0,1-2.66,2.91,7.82,7.82,0,0,1-4.08,1A7.92,7.92,0,0,1,585.11,519.39Zm6.63-2.21a4.62,4.62,0,0,0,1.63-2A7.81,7.81,0,0,0,594,512v0a7.82,7.82,0,0,0-.58-3.12,4.59,4.59,0,0,0-1.65-2,4.74,4.74,0,0,0-5,0,4.54,4.54,0,0,0-1.66,2,7.76,7.76,0,0,0-.57,3.12v0a7.83,7.83,0,0,0,.57,3.12,4.59,4.59,0,0,0,1.65,2,4.79,4.79,0,0,0,5,0Z"/>
      <path class="cls-27" d="M602.21,506.36h-4.85v-2.44h12.58v2.44H605.1v13.77h-2.89Z"/>
    </g>
    <g>
      <path class="cls-27" d="M210,350.64h1.31V358h3.94v1.13H210Z"/>
      <path class="cls-27" d="M217.55,358.7a3.41,3.41,0,0,1-1.37-1.51,5.22,5.22,0,0,1-.48-2.32h0a5.19,5.19,0,0,1,.48-2.32,3.47,3.47,0,0,1,1.37-1.51,4.47,4.47,0,0,1,4.22,0,3.58,3.58,0,0,1,1.37,1.51,5.19,5.19,0,0,1,.48,2.32h0a5.22,5.22,0,0,1-.48,2.32,3.58,3.58,0,0,1-1.37,1.51,4.05,4.05,0,0,1-2.11.53A4,4,0,0,1,217.55,358.7Zm3.51-1a2.5,2.5,0,0,0,.9-1.11,4.18,4.18,0,0,0,.32-1.69h0a4.19,4.19,0,0,0-.32-1.7,2.58,2.58,0,0,0-.91-1.11,2.67,2.67,0,0,0-2.78,0,2.61,2.61,0,0,0-.91,1.1,4.24,4.24,0,0,0-.32,1.71h0a4.23,4.23,0,0,0,.32,1.7,2.58,2.58,0,0,0,.91,1.11,2.44,2.44,0,0,0,1.39.39A2.4,2.4,0,0,0,221.06,357.67Z"/>
      <path class="cls-27" d="M226.09,359a2.66,2.66,0,0,1-1.12-.83,2.24,2.24,0,0,1-.47-1.28v-.09h1.28l0,.08a1.2,1.2,0,0,0,.32.67,1.71,1.71,0,0,0,.7.44,3,3,0,0,0,1,.15,2.65,2.65,0,0,0,1-.16,1.35,1.35,0,0,0,.63-.45,1.07,1.07,0,0,0,.23-.68h0a1,1,0,0,0-.37-.81,3,3,0,0,0-1.21-.49l-.92-.19a3.71,3.71,0,0,1-1.85-.85,2,2,0,0,1-.61-1.52h0a2.13,2.13,0,0,1,.4-1.27,2.59,2.59,0,0,1,1.08-.86,4,4,0,0,1,1.59-.3,3.76,3.76,0,0,1,1.55.3,2.48,2.48,0,0,1,1.07.83,2.33,2.33,0,0,1,.44,1.25V353h-1.29v-.07a1.23,1.23,0,0,0-.29-.68,1.47,1.47,0,0,0-.62-.43,2.39,2.39,0,0,0-.88-.15,2.52,2.52,0,0,0-.91.15,1.45,1.45,0,0,0-.6.43,1.08,1.08,0,0,0-.21.66h0a.93.93,0,0,0,.38.77,2.76,2.76,0,0,0,1.16.47l.92.2a4.05,4.05,0,0,1,1.91.84,2,2,0,0,1,.59,1.55h0a2.28,2.28,0,0,1-.39,1.34,2.53,2.53,0,0,1-1.11.88,5.1,5.1,0,0,1-3.39,0Z"/>
      <path class="cls-27" d="M234,351.77h-2.58v-1.13h6.49v1.13h-2.59v7.32H234Z"/>
      <path class="cls-27" d="M243.5,351.77h-2.58v-1.13h6.48v1.13h-2.58v7.32H243.5Z"/>
      <path class="cls-27" d="M248.47,350.64h3.28a3.32,3.32,0,0,1,1.5.31,2.23,2.23,0,0,1,1,.9,2.67,2.67,0,0,1,.35,1.38h0a2.62,2.62,0,0,1-.44,1.5,2.34,2.34,0,0,1-1.2.91l1.9,3.44h-1.52l-1.73-3.24h-1.8v3.24h-1.31Zm3.16,4.13a1.61,1.61,0,0,0,1.17-.4,1.46,1.46,0,0,0,.41-1.12h0a1.42,1.42,0,0,0-.43-1.1,1.69,1.69,0,0,0-1.2-.4h-1.8v3Z"/>
      <path class="cls-27" d="M258.29,350.64h1.06V352H259l-2.4,7h-1.38Zm-1.2,5.11h3.82l.38,1.06h-4.58ZM259,352v-1.4h.7l3.07,8.45H261.4Z"/>
      <path class="cls-27" d="M265,358.7a3.59,3.59,0,0,1-1.36-1.52,5.19,5.19,0,0,1-.48-2.32h0a5.19,5.19,0,0,1,.48-2.32A3.45,3.45,0,0,1,265,351a3.9,3.9,0,0,1,2.08-.53,4,4,0,0,1,1.68.35,3.45,3.45,0,0,1,1.24,1,3.2,3.2,0,0,1,.61,1.47v.06h-1.31l0-.11a2.19,2.19,0,0,0-.44-.86,2,2,0,0,0-.74-.55,2.73,2.73,0,0,0-1-.19,2.36,2.36,0,0,0-1.36.39,2.69,2.69,0,0,0-.9,1.11,4.2,4.2,0,0,0-.31,1.7h0a4.23,4.23,0,0,0,.31,1.7,2.56,2.56,0,0,0,.9,1.11,2.32,2.32,0,0,0,1.36.4,2.67,2.67,0,0,0,1-.19,2.17,2.17,0,0,0,.75-.56,2.37,2.37,0,0,0,.46-.91l0-.05h1.31l0,.05a3.11,3.11,0,0,1-.61,1.48,3.14,3.14,0,0,1-1.23,1,3.84,3.84,0,0,1-1.69.35A4,4,0,0,1,265,358.7Z"/>
      <path class="cls-27" d="M271.76,350.64h1.32v8.45h-1.32Zm1.24,4h.12l3.4-4h1.56l-3.26,3.82h-.17L273,356.37Zm.8.39.94-.9,3.62,4.92h-1.63Z"/>
      <path class="cls-27" d="M283.17,358.7a3.47,3.47,0,0,1-1.37-1.51,5.22,5.22,0,0,1-.48-2.32h0a5.19,5.19,0,0,1,.48-2.32,3.49,3.49,0,0,1,1.38-1.51,4.45,4.45,0,0,1,4.21,0,3.52,3.52,0,0,1,1.37,1.51,5.19,5.19,0,0,1,.48,2.32h0a5.22,5.22,0,0,1-.48,2.32,3.52,3.52,0,0,1-1.37,1.51,4.47,4.47,0,0,1-4.22,0Zm3.51-1a2.5,2.5,0,0,0,.9-1.11,4,4,0,0,0,.32-1.69h0a4.19,4.19,0,0,0-.32-1.7,2.55,2.55,0,0,0-3.68-1.11,2.48,2.48,0,0,0-.91,1.1,4.08,4.08,0,0,0-.33,1.71h0a4.06,4.06,0,0,0,.33,1.7,2.37,2.37,0,0,0,2.3,1.5A2.37,2.37,0,0,0,286.68,357.67Z"/>
      <path class="cls-27" d="M290.5,350.64h5.28v1.13h-4v2.68h3.63v1.1h-3.63v3.54H290.5Z"/>
      <path class="cls-27" d="M299.34,350.64h1.32v8.45h-1.32Z"/>
      <path class="cls-27" d="M304.31,351.77h-2.59v-1.13h6.49v1.13h-2.58v7.32h-1.32Z"/>
      <path class="cls-27" d="M314.15,350.64h1.07V352h-.37l-2.39,7h-1.38Zm-1.2,5.11h3.82l.38,1.06h-4.58Zm1.93-3.71v-1.4h.7l3.07,8.45h-1.39Z"/>
      <path class="cls-27" d="M319.58,350.64h1.31V358h3.94v1.13h-5.25Z"/>
      <path class="cls-27" d="M326,350.64h1.31V358h3.95v1.13H326Z"/>
      <path class="cls-27" d="M334.69,355.08h3.77v1.16h-3.77Z"/>
      <path class="cls-27" d="M342.38,350.64h1.51l2.74,6.74h0l2.73-6.74h1.52v8.45h-1.2v-6.23h-.6l1.37-2-3.36,8.22h-1l-3.35-8.22,1.37,2h-.6v6.23h-1.2Z"/>
      <path class="cls-27" d="M354.83,355.63l-3-5h1.46l2.16,3.72h0l2.16-3.72h1.46l-3,5v3.46h-1.32Z"/>
      <path class="cls-27" d="M362,350.64h1.37l1.57,6.62h0l1.78-6.62H368l1.78,6.62h0l1.57-6.62h1.37l-2.28,8.45h-1.26l-1.82-6.37h0l-1.82,6.37h-1.26Z"/>
      <path class="cls-27" d="M375.43,350.64h1.07V352h-.37l-2.39,7h-1.38Zm-1.2,5.11h3.82l.38,1.06h-4.58Zm1.93-3.71v-1.4h.7l3.07,8.45h-1.38Z"/>
      <path class="cls-27" d="M382.11,355.63l-3-5h1.46l2.16,3.72h0l2.16-3.72h1.47l-3,5v3.46h-1.32Z"/>
      <path class="cls-27" d="M391.32,358.7a3.47,3.47,0,0,1-1.37-1.51,5.22,5.22,0,0,1-.48-2.32h0a5.19,5.19,0,0,1,.48-2.32,3.43,3.43,0,0,1,1.38-1.51,4,4,0,0,1,2.1-.53,4,4,0,0,1,2.11.53,3.58,3.58,0,0,1,1.37,1.51,5.19,5.19,0,0,1,.48,2.32h0a5.22,5.22,0,0,1-.48,2.32,3.58,3.58,0,0,1-1.37,1.51,4.05,4.05,0,0,1-2.11.53A4,4,0,0,1,391.32,358.7Zm3.51-1a2.5,2.5,0,0,0,.9-1.11,4.18,4.18,0,0,0,.32-1.69h0a4.19,4.19,0,0,0-.32-1.7,2.51,2.51,0,0,0-.91-1.11,2.44,2.44,0,0,0-1.39-.39,2.49,2.49,0,0,0-1.39.39,2.61,2.61,0,0,0-.91,1.1,4.24,4.24,0,0,0-.32,1.71h0a4.23,4.23,0,0,0,.32,1.7,2.58,2.58,0,0,0,.91,1.11,2.46,2.46,0,0,0,1.39.39A2.4,2.4,0,0,0,394.83,357.67Z"/>
      <path class="cls-27" d="M398.64,350.64h5.28v1.13h-4v2.68h3.63v1.1H400v3.54h-1.32Z"/>
      <path class="cls-27" d="M407.49,350.64h3.29a3.31,3.31,0,0,1,1.49.31,2.31,2.31,0,0,1,1,.9,2.67,2.67,0,0,1,.34,1.38h0a2.55,2.55,0,0,1-.44,1.5,2.35,2.35,0,0,1-1.19.91l1.89,3.44h-1.52l-1.72-3.24H408.8v3.24h-1.31Zm3.16,4.13a1.61,1.61,0,0,0,1.17-.4,1.46,1.46,0,0,0,.42-1.12h0a1.42,1.42,0,0,0-.44-1.1,1.68,1.68,0,0,0-1.19-.4H408.8v3Z"/>
      <path class="cls-27" d="M414.86,350.64h5.37v1.13h-4.06v2.46H420v1.11h-3.84V358h4.06v1.13h-5.37Z"/>
      <path class="cls-27" d="M421.58,350.64h1.52l2.74,6.74h0l2.74-6.74h1.52v8.45h-1.2v-6.23h-.6l1.37-2-3.36,8.22h-1L422,350.87l1.37,2h-.61v6.23h-1.2Z"/>
      <path class="cls-27" d="M431.69,350.64h5.37v1.13H433v2.46h3.84v1.11H433V358h4.06v1.13h-5.37Z"/>
      <path class="cls-27" d="M438.41,350.64h1.52l2.74,6.74h0l2.74-6.74H447v8.45h-1.2v-6.23h-.6l1.37-2-3.36,8.22h-1l-3.36-8.22,1.38,2h-.61v6.23h-1.2Z"/>
      <path class="cls-27" d="M448.52,350.64h1.31v8.45h-1.31Zm.65,7.38h2.48a2.23,2.23,0,0,0,1.34-.35,1.22,1.22,0,0,0,.46-1h0a1.19,1.19,0,0,0-.85-1.22,3.13,3.13,0,0,0-1.05-.16h-2.38v-1h2.12a2.14,2.14,0,0,0,1.32-.34,1.13,1.13,0,0,0,.46-1h0a1.09,1.09,0,0,0-.39-.9,1.71,1.71,0,0,0-1.1-.31h-2.41v-1.07h2.72a3,3,0,0,1,1.32.26,1.93,1.93,0,0,1,1.17,1.85h0a1.8,1.8,0,0,1-.2.85,2,2,0,0,1-.56.67,1.7,1.7,0,0,1-.81.33v0a2.37,2.37,0,0,1,1.06.34,2.16,2.16,0,0,1,.69.72,2.09,2.09,0,0,1,.24,1h0a2.28,2.28,0,0,1-.35,1.27,2.18,2.18,0,0,1-1,.82,3.67,3.67,0,0,1-1.55.29h-2.74Z"/>
      <path class="cls-27" d="M455.92,350.64h5.37v1.13h-4.05v2.46h3.84v1.11h-3.84V358h4.05v1.13h-5.37Z"/>
      <path class="cls-27" d="M462.65,350.64h3.28a3.35,3.35,0,0,1,1.5.31,2.28,2.28,0,0,1,1,.9,2.67,2.67,0,0,1,.35,1.38h0a2.62,2.62,0,0,1-.44,1.5,2.34,2.34,0,0,1-1.2.91l1.89,3.44h-1.51l-1.73-3.24H464v3.24h-1.31Zm3.15,4.13a1.62,1.62,0,0,0,1.18-.4,1.5,1.5,0,0,0,.41-1.12h0a1.42,1.42,0,0,0-.43-1.1,1.71,1.71,0,0,0-1.2-.4H464v3Z"/>
      <path class="cls-27" d="M470,350.64h1.31v8.45H470Z"/>
      <path class="cls-27" d="M472.89,350.64h1.21l5.2,7.47-1.38-1.23h.56v-6.24h1.31v8.45h-1.21l-5.21-7.48,1.39,1.22h-.57v6.26h-1.3Z"/>
      <path class="cls-27" d="M482.89,358.7a3.58,3.58,0,0,1-1.37-1.53,5.31,5.31,0,0,1-.48-2.34h0a5.1,5.1,0,0,1,.48-2.3,3.53,3.53,0,0,1,1.36-1.5,4,4,0,0,1,2.09-.52,3.86,3.86,0,0,1,1.72.35,3.17,3.17,0,0,1,1.21.95,3.39,3.39,0,0,1,.64,1.37l0,.1h-1.36l0-.07a2.23,2.23,0,0,0-2.22-1.54,2.51,2.51,0,0,0-1.39.38,2.46,2.46,0,0,0-.89,1.08,4.11,4.11,0,0,0-.31,1.69h0a4.39,4.39,0,0,0,.32,1.74,2.52,2.52,0,0,0,.9,1.12,2.49,2.49,0,0,0,1.39.39,2.6,2.6,0,0,0,1.21-.27A2,2,0,0,0,487,357a2.16,2.16,0,0,0,.31-1.12v-.14h-2.22v-1.07h3.52v.87a4.14,4.14,0,0,1-.44,2,2.92,2.92,0,0,1-1.25,1.26,4.08,4.08,0,0,1-2,.43A4,4,0,0,1,482.89,358.7Z"/>
      <path class="cls-27" d="M492.27,355.08H496v1.16h-3.77Z"/>
      <path class="cls-27" d="M500,350.64h5.37v1.13h-4.06v2.46h3.84v1.11h-3.84V358h4.06v1.13H500Z"/>
      <path class="cls-27" d="M506.05,350.64h1.42l2.3,7h0l2.3-7h1.43l-3,8.45h-1.46Z"/>
      <path class="cls-27" d="M514.46,350.64h5.37v1.13h-4.06v2.46h3.84v1.11h-3.84V358h4.06v1.13h-5.37Z"/>
      <path class="cls-27" d="M521.18,350.64h3.29A3.31,3.31,0,0,1,526,351a2.31,2.31,0,0,1,1,.9,2.67,2.67,0,0,1,.34,1.38h0a2.62,2.62,0,0,1-.44,1.5,2.35,2.35,0,0,1-1.19.91l1.89,3.44H526l-1.72-3.24h-1.81v3.24h-1.31Zm3.16,4.13a1.61,1.61,0,0,0,1.17-.4,1.46,1.46,0,0,0,.42-1.12h0a1.42,1.42,0,0,0-.44-1.1,1.68,1.68,0,0,0-1.19-.4h-1.81v3Z"/>
      <path class="cls-27" d="M530.59,355.63l-3-5h1.46l2.17,3.72h0l2.16-3.72h1.46l-3,5v3.46h-1.32Z"/>
      <path class="cls-27" d="M537.92,351.77h-2.59v-1.13h6.49v1.13h-2.59v7.32h-1.31Z"/>
      <path class="cls-27" d="M542.88,350.64h1.32v3.57h4.33v-3.57h1.32v8.45h-1.32v-3.74H544.2v3.74h-1.32Z"/>
      <path class="cls-27" d="M551.41,350.64h1.31v8.45h-1.31Z"/>
      <path class="cls-27" d="M554.28,350.64h1.21l5.21,7.47-1.39-1.23h.57v-6.24h1.3v8.45H560l-5.2-7.48,1.39,1.22h-.57v6.26h-1.31Z"/>
      <path class="cls-27" d="M564.28,358.7a3.64,3.64,0,0,1-1.37-1.53,5.31,5.31,0,0,1-.48-2.34h0a5.1,5.1,0,0,1,.48-2.3,3.56,3.56,0,0,1,1.37-1.5,4,4,0,0,1,2.08-.52,3.86,3.86,0,0,1,1.72.35,3.09,3.09,0,0,1,1.21.95,3.54,3.54,0,0,1,.65,1.37l0,.1h-1.35l0-.07a2.29,2.29,0,0,0-.83-1.13,2.31,2.31,0,0,0-1.39-.41A2.5,2.5,0,0,0,565,352a2.41,2.41,0,0,0-.9,1.08,4.29,4.29,0,0,0-.31,1.69h0a4.39,4.39,0,0,0,.32,1.74,2.54,2.54,0,0,0,.91,1.12,2.44,2.44,0,0,0,1.39.39,2.63,2.63,0,0,0,1.21-.27,2,2,0,0,0,.82-.76,2.25,2.25,0,0,0,.3-1.12v-.14H566.5v-1.07H570v.87a4.14,4.14,0,0,1-.44,2,2.9,2.9,0,0,1-1.24,1.26,4.15,4.15,0,0,1-2,.43A4,4,0,0,1,564.28,358.7Z"/>
      <path class="cls-27" d="M573.73,350.64H575v8.45h-1.31Z"/>
      <path class="cls-27" d="M576.77,350.64H578l-.86,3h-.89Z"/>
      <path class="cls-27" d="M578.66,350.64h1.42l2.3,7h0l2.3-7h1.43l-3,8.45h-1.46Z"/>
      <path class="cls-27" d="M587.07,350.64h5.37v1.13h-4.06v2.46h3.84v1.11h-3.84V358h4.06v1.13h-5.37Z"/>
      <path class="cls-27" d="M597.76,358.7a3.64,3.64,0,0,1-1.37-1.53,5.31,5.31,0,0,1-.48-2.34h0a5.1,5.1,0,0,1,.48-2.3,3.56,3.56,0,0,1,1.37-1.5,4,4,0,0,1,2.08-.52,3.93,3.93,0,0,1,1.73.35,3.13,3.13,0,0,1,1.2.95,3.54,3.54,0,0,1,.65,1.37l0,.1h-1.35l0-.07a2.29,2.29,0,0,0-.83-1.13,2.31,2.31,0,0,0-1.39-.41,2.5,2.5,0,0,0-1.38.38,2.41,2.41,0,0,0-.9,1.08,4.29,4.29,0,0,0-.31,1.69h0a4.39,4.39,0,0,0,.32,1.74,2.61,2.61,0,0,0,.91,1.12,2.44,2.44,0,0,0,1.39.39,2.63,2.63,0,0,0,1.21-.27,2,2,0,0,0,.82-.76,2.25,2.25,0,0,0,.3-1.12v-.14H600v-1.07h3.52v.87a4.26,4.26,0,0,1-.43,2,3,3,0,0,1-1.25,1.26,4.15,4.15,0,0,1-2,.43A4,4,0,0,1,597.76,358.7Z"/>
      <path class="cls-27" d="M606.33,358.7a3.47,3.47,0,0,1-1.37-1.51,5.22,5.22,0,0,1-.48-2.32h0a5.19,5.19,0,0,1,.48-2.32,3.47,3.47,0,0,1,1.37-1.51,4.47,4.47,0,0,1,4.22,0,3.58,3.58,0,0,1,1.37,1.51,5.19,5.19,0,0,1,.48,2.32h0a5.22,5.22,0,0,1-.48,2.32,3.58,3.58,0,0,1-1.37,1.51,4.05,4.05,0,0,1-2.11.53A4,4,0,0,1,606.33,358.7Zm3.51-1a2.5,2.5,0,0,0,.9-1.11,4.18,4.18,0,0,0,.32-1.69h0a4.19,4.19,0,0,0-.32-1.7,2.51,2.51,0,0,0-.91-1.11,2.44,2.44,0,0,0-1.39-.39,2.49,2.49,0,0,0-1.39.39,2.61,2.61,0,0,0-.91,1.1,4.24,4.24,0,0,0-.32,1.71h0a4.23,4.23,0,0,0,.32,1.7,2.58,2.58,0,0,0,.91,1.11,2.46,2.46,0,0,0,1.39.39A2.4,2.4,0,0,0,609.84,357.67Z"/>
      <path class="cls-27" d="M615.24,351.77h-2.58v-1.13h6.48v1.13h-2.58v7.32h-1.32Z"/>
      <path class="cls-27" d="M272.1,366.17h-2.59V365H276v1.13h-2.58v7.32H272.1Z"/>
      <path class="cls-27" d="M277.07,365h1.31v3.57h4.34V365H284v8.45h-1.31v-3.74h-4.34v3.74h-1.31Z"/>
      <path class="cls-27" d="M285.59,365H291v1.13h-4v2.47h3.83v1.1h-3.83v2.62h4v1.13h-5.37Z"/>
      <path class="cls-27" d="M296.28,373.1a3.56,3.56,0,0,1-1.36-1.51,5.13,5.13,0,0,1-.49-2.33h0a5.06,5.06,0,0,1,.49-2.32,3.49,3.49,0,0,1,1.35-1.51,3.9,3.9,0,0,1,2.08-.53,4,4,0,0,1,1.69.35,3.33,3.33,0,0,1,1.23,1,3.21,3.21,0,0,1,.62,1.48v0h-1.3l0-.11a2.18,2.18,0,0,0-.43-.86,2.06,2.06,0,0,0-.75-.55,2.65,2.65,0,0,0-1-.19,2.32,2.32,0,0,0-1.36.4,2.57,2.57,0,0,0-.89,1.1,4.19,4.19,0,0,0-.32,1.7h0a4.23,4.23,0,0,0,.32,1.7,2.5,2.5,0,0,0,.9,1.11,2.27,2.27,0,0,0,1.35.4,2.67,2.67,0,0,0,1-.19,2.08,2.08,0,0,0,.75-.56,2.53,2.53,0,0,0,.47-.91v-.05h1.31v.05a3.21,3.21,0,0,1-.61,1.48,3.25,3.25,0,0,1-1.24,1,3.84,3.84,0,0,1-1.69.35A3.89,3.89,0,0,1,296.28,373.1Z"/>
      <path class="cls-27" d="M304.64,373.1a3.43,3.43,0,0,1-1.38-1.51,5.22,5.22,0,0,1-.48-2.32h0a5.19,5.19,0,0,1,.49-2.32,3.47,3.47,0,0,1,1.37-1.51,4,4,0,0,1,2.11-.53,4,4,0,0,1,2.1.53,3.54,3.54,0,0,1,1.38,1.51,5.19,5.19,0,0,1,.48,2.32h0a5.22,5.22,0,0,1-.48,2.32,3.58,3.58,0,0,1-1.37,1.51,4.47,4.47,0,0,1-4.22,0Zm3.51-1a2.5,2.5,0,0,0,.9-1.11,4.18,4.18,0,0,0,.31-1.69h0a4,4,0,0,0-.32-1.7,2.37,2.37,0,0,0-2.29-1.5,2.46,2.46,0,0,0-1.39.39,2.54,2.54,0,0,0-.91,1.1,4.08,4.08,0,0,0-.32,1.71h0a4.06,4.06,0,0,0,.32,1.7,2.51,2.51,0,0,0,.91,1.11,2.66,2.66,0,0,0,2.79,0Z"/>
      <path class="cls-27" d="M312,365h1.31v7.32h4v1.13H312Z"/>
      <path class="cls-27" d="M318.33,365h1.32v7.32h3.94v1.13h-5.26Z"/>
      <path class="cls-27" d="M324.71,365h5.37v1.13H326v2.47h3.84v1.1H326v2.62h4.06v1.13h-5.37Z"/>
      <path class="cls-27" d="M333,373.1a3.56,3.56,0,0,1-1.36-1.51,5.27,5.27,0,0,1-.48-2.33h0a5.19,5.19,0,0,1,.48-2.32,3.45,3.45,0,0,1,1.36-1.51,3.88,3.88,0,0,1,2.08-.53,4,4,0,0,1,1.68.35,3.33,3.33,0,0,1,1.23,1,3.21,3.21,0,0,1,.62,1.48v0h-1.3l0-.11a2.18,2.18,0,0,0-.43-.86,2,2,0,0,0-.75-.55,2.64,2.64,0,0,0-1-.19,2.33,2.33,0,0,0-1.37.4,2.57,2.57,0,0,0-.89,1.1,4.19,4.19,0,0,0-.32,1.7h0a4.23,4.23,0,0,0,.32,1.7,2.5,2.5,0,0,0,.9,1.11,2.3,2.3,0,0,0,1.36.4,2.62,2.62,0,0,0,1-.19,2,2,0,0,0,.75-.56,2.38,2.38,0,0,0,.47-.91v-.05h1.31v.05a3.21,3.21,0,0,1-.61,1.48,3.25,3.25,0,0,1-1.24,1,3.83,3.83,0,0,1-1.68.35A3.9,3.9,0,0,1,333,373.1Z"/>
      <path class="cls-27" d="M341.51,366.17h-2.58V365h6.49v1.13h-2.59v7.32h-1.32Z"/>
      <path class="cls-27" d="M347.53,373.1a3.41,3.41,0,0,1-1.37-1.51,5.09,5.09,0,0,1-.49-2.32h0a5.19,5.19,0,0,1,.49-2.32,3.47,3.47,0,0,1,1.37-1.51,4.47,4.47,0,0,1,4.22,0,3.58,3.58,0,0,1,1.37,1.51,5.19,5.19,0,0,1,.48,2.32h0a5.22,5.22,0,0,1-.48,2.32,3.58,3.58,0,0,1-1.37,1.51,4.47,4.47,0,0,1-4.22,0Zm3.51-1a2.5,2.5,0,0,0,.9-1.11,4.18,4.18,0,0,0,.31-1.69h0a4.2,4.2,0,0,0-.31-1.7,2.58,2.58,0,0,0-.91-1.11,2.67,2.67,0,0,0-2.78,0,2.54,2.54,0,0,0-.91,1.1,4.08,4.08,0,0,0-.32,1.71h0a4.06,4.06,0,0,0,.32,1.7,2.51,2.51,0,0,0,.91,1.11,2.44,2.44,0,0,0,1.39.39A2.4,2.4,0,0,0,351,372.07Z"/>
      <path class="cls-27" d="M354.85,365h3.29a3.31,3.31,0,0,1,1.49.31,2.31,2.31,0,0,1,1,.9,2.67,2.67,0,0,1,.34,1.38h0a2.6,2.6,0,0,1-.44,1.5,2.3,2.3,0,0,1-1.19.91l1.89,3.44h-1.52L358,370.25h-1.81v3.24h-1.31Zm3.16,4.13a1.61,1.61,0,0,0,1.17-.4,1.45,1.45,0,0,0,.42-1.12h0a1.42,1.42,0,0,0-.44-1.1,1.68,1.68,0,0,0-1.19-.4h-1.81v3Z"/>
      <path class="cls-27" d="M364.58,369.48h3.77v1.16h-3.77Z"/>
      <path class="cls-27" d="M374.36,366.17h-2.58V365h6.48v1.13h-2.58v7.32h-1.32Z"/>
      <path class="cls-27" d="M379.33,365h1.31v3.57H385V365h1.32v8.45H385v-3.74h-4.34v3.74h-1.31Z"/>
      <path class="cls-27" d="M387.86,365h5.36v1.13h-4.05v2.47H393v1.1h-3.84v2.62h4.05v1.13h-5.36Z"/>
      <path class="cls-27" d="M397,365h1.52l2.74,6.74h0L404,365h1.52v8.45h-1.2v-6.23h-.6l1.37-2-3.36,8.22h-1l-3.35-8.22,1.37,2h-.61v6.23H397Z"/>
      <path class="cls-27" d="M409.56,365h1.07v1.4h-.37l-2.39,7.05h-1.39Zm-1.2,5.11h3.82l.38,1.06H408Zm1.93-3.71V365H411l3.07,8.45h-1.38Z"/>
      <path class="cls-27" d="M415,365h1.21l5.2,7.47L420,371.28h.57V365h1.31v8.45h-1.22l-5.2-7.48,1.39,1.22h-.57v6.26H415Z"/>
      <path class="cls-27" d="M426.92,374a8.42,8.42,0,0,1-.56-1.74,10.87,10.87,0,0,1,0-3.94,8.05,8.05,0,0,1,.56-1.74,7.32,7.32,0,0,1,1-1.54H429a4,4,0,0,0-.6,1,7.33,7.33,0,0,0-.48,1.3,9.69,9.69,0,0,0-.32,1.48,11.19,11.19,0,0,0-.11,1.51,11.31,11.31,0,0,0,.11,1.51,10.24,10.24,0,0,0,.32,1.48,7.33,7.33,0,0,0,.48,1.3,4,4,0,0,0,.6,1h-1.12A7.32,7.32,0,0,1,426.92,374Z"/>
      <path class="cls-27" d="M429.48,365h1.37l1.57,6.62h0l1.78-6.62h1.25l1.78,6.62h0l1.57-6.62h1.37L438,373.49h-1.27l-1.81-6.37h0L433,373.49h-1.27Z"/>
      <path class="cls-27" d="M441.26,365h1.32v3.57h4.33V365h1.32v8.45h-1.32v-3.74h-4.33v3.74h-1.32Z"/>
      <path class="cls-27" d="M451.34,373.1a3.41,3.41,0,0,1-1.37-1.51,5.22,5.22,0,0,1-.48-2.32h0a5.19,5.19,0,0,1,.48-2.32,3.47,3.47,0,0,1,1.37-1.51,4.47,4.47,0,0,1,4.22,0,3.58,3.58,0,0,1,1.37,1.51,5.19,5.19,0,0,1,.48,2.32h0a5.22,5.22,0,0,1-.48,2.32,3.58,3.58,0,0,1-1.37,1.51,4.47,4.47,0,0,1-4.22,0Zm3.51-1a2.5,2.5,0,0,0,.9-1.11,4.18,4.18,0,0,0,.32-1.69h0a4.19,4.19,0,0,0-.32-1.7,2.58,2.58,0,0,0-.91-1.11,2.67,2.67,0,0,0-2.78,0,2.54,2.54,0,0,0-.91,1.1,4.08,4.08,0,0,0-.32,1.71h0a4.06,4.06,0,0,0,.32,1.7,2.51,2.51,0,0,0,.91,1.11,2.44,2.44,0,0,0,1.39.39A2.4,2.4,0,0,0,454.85,372.07Z"/>
      <path class="cls-27" d="M461.09,365h1.31v3.57h4.34V365h1.31v8.45h-1.31v-3.74H462.4v3.74h-1.31Z"/>
      <path class="cls-27" d="M472.06,365h1.07v1.4h-.37l-2.39,7.05H469Zm-1.2,5.11h3.82l.38,1.06h-4.58Zm1.93-3.71V365h.7l3.07,8.45h-1.39Z"/>
      <path class="cls-27" d="M478.64,373.35a2.66,2.66,0,0,1-1.12-.83,2.22,2.22,0,0,1-.47-1.28v-.09h1.29v.08a1.2,1.2,0,0,0,.32.67,1.71,1.71,0,0,0,.7.44,3,3,0,0,0,1,.15,2.65,2.65,0,0,0,1-.16,1.35,1.35,0,0,0,.63-.45,1.07,1.07,0,0,0,.23-.68h0a1,1,0,0,0-.37-.81,3,3,0,0,0-1.21-.49l-.92-.19a3.71,3.71,0,0,1-1.85-.85,2,2,0,0,1-.61-1.52h0a2.23,2.23,0,0,1,.4-1.27,2.59,2.59,0,0,1,1.08-.86,4,4,0,0,1,1.59-.3,3.73,3.73,0,0,1,1.55.3,2.48,2.48,0,0,1,1.07.83,2.33,2.33,0,0,1,.44,1.25v.1h-1.29v-.08a1.23,1.23,0,0,0-.29-.68,1.47,1.47,0,0,0-.62-.43,2.39,2.39,0,0,0-.88-.15,2.52,2.52,0,0,0-.91.15,1.38,1.38,0,0,0-.6.44,1,1,0,0,0-.21.65h0a.93.93,0,0,0,.38.77,2.76,2.76,0,0,0,1.16.47l.92.2a4.05,4.05,0,0,1,1.91.84,2,2,0,0,1,.59,1.55h0a2.28,2.28,0,0,1-.39,1.34,2.53,2.53,0,0,1-1.11.88,5.1,5.1,0,0,1-3.39,0Z"/>
      <path class="cls-27" d="M487.13,365h5.37v1.13h-4.06v2.47h3.84v1.1h-3.84v2.62h4.06v1.13h-5.37Z"/>
      <path class="cls-27" d="M493.23,365h1.41l2.31,7h0l2.3-7h1.42l-3,8.45h-1.45Z"/>
      <path class="cls-27" d="M501.63,365H507v1.13H503v2.47h3.83v1.1H503v2.62H507v1.13h-5.37Z"/>
      <path class="cls-27" d="M508.35,365h3.29a3.35,3.35,0,0,1,1.5.31,2.28,2.28,0,0,1,1,.9,2.67,2.67,0,0,1,.34,1.38h0a2.59,2.59,0,0,1-.43,1.5,2.29,2.29,0,0,1-1.2.91l1.89,3.44h-1.52l-1.72-3.24h-1.8v3.24h-1.32Zm3.16,4.13a1.58,1.58,0,0,0,1.17-.4,1.45,1.45,0,0,0,.42-1.12h0a1.39,1.39,0,0,0-.44-1.1,1.66,1.66,0,0,0-1.19-.4h-1.8v3Z"/>
      <path class="cls-27" d="M517.76,370l-3-5h1.46l2.16,3.72h0L520.6,365h1.47l-3,5v3.46h-1.32Z"/>
      <path class="cls-27" d="M525.09,366.17H522.5V365H529v1.13h-2.58v7.32h-1.32Z"/>
      <path class="cls-27" d="M530.06,365h1.31v3.57h4.34V365H537v8.45h-1.31v-3.74h-4.34v3.74h-1.31Z"/>
      <path class="cls-27" d="M538.58,365h1.32v8.45h-1.32Z"/>
      <path class="cls-27" d="M541.45,365h1.22l5.2,7.47-1.39-1.23h.57V365h1.31v8.45h-1.22l-5.2-7.48,1.39,1.22h-.57v6.26h-1.31Z"/>
      <path class="cls-27" d="M551.46,373.1a3.58,3.58,0,0,1-1.37-1.53,5.28,5.28,0,0,1-.49-2.34h0a5.1,5.1,0,0,1,.48-2.3,3.62,3.62,0,0,1,1.37-1.5,4,4,0,0,1,2.09-.52,3.89,3.89,0,0,1,1.72.35,3.35,3.35,0,0,1,1.21.95,3.53,3.53,0,0,1,.64,1.37l0,.1h-1.35l0-.07a2.41,2.41,0,0,0-.83-1.13,2.33,2.33,0,0,0-1.39-.41,2.51,2.51,0,0,0-1.39.38,2.33,2.33,0,0,0-.89,1.08,4.13,4.13,0,0,0-.31,1.7h0a4.22,4.22,0,0,0,.32,1.74,2.52,2.52,0,0,0,.9,1.12,2.44,2.44,0,0,0,1.39.39,2.6,2.6,0,0,0,1.21-.27,2,2,0,0,0,.82-.76,2.06,2.06,0,0,0,.3-1.12v-.14h-2.21v-1.07h3.51V370a4.14,4.14,0,0,1-.43,2,3,3,0,0,1-1.25,1.26,4.11,4.11,0,0,1-2,.43A4,4,0,0,1,551.46,373.1Z"/>
      <path class="cls-27" d="M557.92,375.54a4.28,4.28,0,0,0,.59-1,8.2,8.2,0,0,0,.48-1.3,11.93,11.93,0,0,0,.32-1.49,9.64,9.64,0,0,0,.11-1.5,9.77,9.77,0,0,0-.11-1.51,11.05,11.05,0,0,0-.32-1.48,8.2,8.2,0,0,0-.48-1.3,4.28,4.28,0,0,0-.59-1H559a7.32,7.32,0,0,1,1,1.54,8,8,0,0,1,.55,1.74,10.87,10.87,0,0,1,0,3.94A8.4,8.4,0,0,1,560,374a7.32,7.32,0,0,1-1,1.54Z"/>
    </g>
    <g>
      <rect class="cls-32" x="206.37" y="432.06" width="49.44" height="17.89" rx="2.08"/>
      <rect class="cls-32" x="206.37" y="429.53" width="49.44" height="22.94" rx="2.08"/>
      <path class="cls-32" d="M208.85,427h44.47a2.48,2.48,0,0,1,2.48,2.48v23a2.48,2.48,0,0,1-2.48,2.48H208.85a2.49,2.49,0,0,1-2.49-2.49v-23A2.48,2.48,0,0,1,208.85,427Z"/>
      <path class="cls-33" d="M208.85,455h-2.52a2.48,2.48,0,0,1-2.49-2.48v-23a2.48,2.48,0,0,1,2.49-2.49h2.52a2.48,2.48,0,0,0-2.48,2.49v23A2.48,2.48,0,0,0,208.85,455Z"/>
      <path class="cls-33" d="M258.33,429.5v23a2.49,2.49,0,0,1-2.49,2.48h-2.52a2.48,2.48,0,0,0,2.48-2.48v-23a2.48,2.48,0,0,0-2.48-2.49h2.52A2.49,2.49,0,0,1,258.33,429.5Z"/>
      <path class="cls-32" d="M208.85,427h44.47a2.48,2.48,0,0,1,2.48,2.48v23a2.48,2.48,0,0,1-2.48,2.48H208.85a2.49,2.49,0,0,1-2.49-2.49v-23A2.48,2.48,0,0,1,208.85,427Z"/>
      <text class="cls-34" transform="translate(208.57 439.71)">BOO<tspan class="cls-35" x="16.33" y="0">KS</tspan><tspan x="26.25" y="0">HELF</tspan><tspan class="cls-36"><tspan x="1.93" y="7.82">RECORDS</tspan></tspan></text>
    </g>
    <g>
      <path class="cls-27" d="M206.68,461.05h1.95v7.68h-1.95Zm1,6.3h2.13a1.49,1.49,0,0,0,.93-.25.84.84,0,0,0,.32-.71h0a.85.85,0,0,0-.15-.51.83.83,0,0,0-.43-.32,2.2,2.2,0,0,0-.73-.11h-2.07v-1.23h1.93a1.35,1.35,0,0,0,.89-.25.79.79,0,0,0,.31-.67h0a.76.76,0,0,0-.28-.62,1.17,1.17,0,0,0-.78-.23h-2.07v-1.38h2.6a3.21,3.21,0,0,1,1.3.24,1.72,1.72,0,0,1,1.13,1.69h0a1.56,1.56,0,0,1-.2.8,1.69,1.69,0,0,1-.55.58,1.64,1.64,0,0,1-.78.29v0a2.18,2.18,0,0,1,1,.27,1.87,1.87,0,0,1,.67.64,1.66,1.66,0,0,1,.25.91h0a2,2,0,0,1-.33,1.16,2.15,2.15,0,0,1-.93.77,3.43,3.43,0,0,1-1.42.27h-2.69Z"/>
      <path class="cls-27" d="M215.15,468.59a2.44,2.44,0,0,1-1.1-.79,2.24,2.24,0,0,1-.44-1.25v-.09h1.82v.05a.76.76,0,0,0,.25.43,1.25,1.25,0,0,0,.49.29,2.11,2.11,0,0,0,.68.11,1.92,1.92,0,0,0,.67-.11A1,1,0,0,0,218,467a.64.64,0,0,0,.15-.42h0a.55.55,0,0,0-.28-.5,3,3,0,0,0-1-.31l-.78-.15a3.35,3.35,0,0,1-1.73-.77,1.87,1.87,0,0,1-.6-1.44h0a2.08,2.08,0,0,1,.4-1.28,2.57,2.57,0,0,1,1.08-.85,3.89,3.89,0,0,1,1.57-.3,4.17,4.17,0,0,1,1.63.29,2.38,2.38,0,0,1,1,.8,2.16,2.16,0,0,1,.4,1.21v.11h-1.82v-.06a.75.75,0,0,0-.2-.43,1,1,0,0,0-.44-.28,1.68,1.68,0,0,0-.62-.1,1.51,1.51,0,0,0-.6.1.88.88,0,0,0-.39.27.7.7,0,0,0-.13.39h0a.57.57,0,0,0,.29.49,2.41,2.41,0,0,0,.9.29l.78.15a3.77,3.77,0,0,1,1.81.76,1.87,1.87,0,0,1,.58,1.45h0a2.27,2.27,0,0,1-.39,1.33,2.36,2.36,0,0,1-1.1.87,4.58,4.58,0,0,1-1.74.31A4.46,4.46,0,0,1,215.15,468.59Z"/>
      <path class="cls-27" d="M221,461.05h3.33a3.77,3.77,0,0,1,1.58.3,2.22,2.22,0,0,1,1,.87,2.71,2.71,0,0,1,.34,1.38h0a2.5,2.5,0,0,1-.36,1.33,2.13,2.13,0,0,1-1,.86l1.53,2.93h-2.2l-1.31-2.65h-1v2.65h-2Zm3.11,3.62a1.18,1.18,0,0,0,.83-.29,1,1,0,0,0,.3-.78h0a1,1,0,0,0-.31-.77,1.16,1.16,0,0,0-.83-.3H222.9v2.15Z"/>
      <path class="cls-27" d="M230,468.6a2.84,2.84,0,0,1-1.06-.78,3.69,3.69,0,0,1-.67-1.24,5.64,5.64,0,0,1-.23-1.66h0a5.17,5.17,0,0,1,.41-2.14,3.08,3.08,0,0,1,2.94-1.86,3.65,3.65,0,0,1,1.43.28,3,3,0,0,1,1,.77,2.28,2.28,0,0,1,.51,1.1v0h-1.91l0,0a1,1,0,0,0-.23-.33,1.31,1.31,0,0,0-.36-.23,1.42,1.42,0,0,0-.48-.08,1.15,1.15,0,0,0-.8.28,1.67,1.67,0,0,0-.47.75,4.3,4.3,0,0,0-.21,1.09,1.09,1.09,0,0,1,0,.18v.19l.25,1.29a1.18,1.18,0,0,0,.16.59,1.21,1.21,0,0,0,.45.42,1.34,1.34,0,0,0,1.23,0,1.19,1.19,0,0,0,.45-.41,1.1,1.1,0,0,0,.17-.59h0a1.14,1.14,0,0,0-.17-.61,1.21,1.21,0,0,0-.43-.41,1.41,1.41,0,0,0-.62-.14,1.46,1.46,0,0,0-.63.14,1.24,1.24,0,0,0-.44.41,1.08,1.08,0,0,0-.17.6h-.33v-1.3h.12a1.88,1.88,0,0,1,.44-.64,2.09,2.09,0,0,1,.7-.44,2.75,2.75,0,0,1,.93-.16,2.62,2.62,0,0,1,1.31.32,2.34,2.34,0,0,1,.86.88,2.52,2.52,0,0,1,.31,1.27h0a2.53,2.53,0,0,1-.4,1.42,2.78,2.78,0,0,1-1.1,1,3.54,3.54,0,0,1-1.59.35A3.46,3.46,0,0,1,230,468.6Z"/>
      <path class="cls-27" d="M237,468.56a2.55,2.55,0,0,1-1-.83,2.21,2.21,0,0,1-.42-1.17v-.09h1.77l0,0a1,1,0,0,0,.23.43,1.21,1.21,0,0,0,.42.31,1.45,1.45,0,0,0,.57.11,1.38,1.38,0,0,0,.65-.15,1.11,1.11,0,0,0,.44-.42,1.18,1.18,0,0,0,.16-.63h0a1.17,1.17,0,0,0-.16-.62,1.09,1.09,0,0,0-.44-.41,1.38,1.38,0,0,0-.65-.15,1.63,1.63,0,0,0-.45.06,1.43,1.43,0,0,0-.37.19,1.3,1.3,0,0,0-.22.19,1.07,1.07,0,0,0-.15.22h-1.7l.33-4.58h5.17v1.51h-3.63l-.15,1.93h0a1.62,1.62,0,0,1,.67-.62,2.32,2.32,0,0,1,1-.23,2.64,2.64,0,0,1,1.3.32,2.4,2.4,0,0,1,.88.88,2.56,2.56,0,0,1,.32,1.28h0a2.62,2.62,0,0,1-.39,1.43,2.58,2.58,0,0,1-1.08,1,3.64,3.64,0,0,1-1.62.35A3.73,3.73,0,0,1,237,468.56Z"/>
      <path class="cls-27" d="M243.85,468.57a2.49,2.49,0,0,1-1.08-.81,2.25,2.25,0,0,1-.46-1.21v-.07h1.87v.06a.8.8,0,0,0,.38.56,1.53,1.53,0,0,0,.88.23,1.46,1.46,0,0,0,.62-.12,1,1,0,0,0,.41-.32.84.84,0,0,0,.14-.47h0a.81.81,0,0,0-.34-.71,1.65,1.65,0,0,0-1-.25h-.83v-1.32h.82a1.6,1.6,0,0,0,.65-.12.82.82,0,0,0,.41-.31.75.75,0,0,0,.15-.47h0a.78.78,0,0,0-.13-.46.81.81,0,0,0-.36-.29,1.37,1.37,0,0,0-.56-.1,1.73,1.73,0,0,0-.59.1.94.94,0,0,0-.4.3.83.83,0,0,0-.18.44v0h-1.78v-.07a2.31,2.31,0,0,1,.42-1.2,2.55,2.55,0,0,1,1-.79,3.82,3.82,0,0,1,1.5-.28,4.08,4.08,0,0,1,1.51.26,2.1,2.1,0,0,1,1,.71,1.66,1.66,0,0,1,.35,1.07h0a1.64,1.64,0,0,1-.21.84,1.82,1.82,0,0,1-.58.59,2.19,2.19,0,0,1-.79.32v0a2.34,2.34,0,0,1,1.37.55,1.54,1.54,0,0,1,.52,1.22h0a2,2,0,0,1-.39,1.23,2.59,2.59,0,0,1-1.1.82,4.45,4.45,0,0,1-1.67.29A3.89,3.89,0,0,1,243.85,468.57Z"/>
      <path class="cls-27" d="M251.09,468.56a2.55,2.55,0,0,1-1-.83,2.21,2.21,0,0,1-.42-1.17v-.09h1.78v0a1.06,1.06,0,0,0,.23.43,1.21,1.21,0,0,0,.42.31,1.5,1.5,0,0,0,.58.11,1.32,1.32,0,0,0,.64-.15,1.14,1.14,0,0,0,.45-.42,1.28,1.28,0,0,0,.16-.63h0a1.27,1.27,0,0,0-.16-.62,1.11,1.11,0,0,0-.45-.41,1.32,1.32,0,0,0-.64-.15,1.63,1.63,0,0,0-.45.06,1.43,1.43,0,0,0-.37.19.82.82,0,0,0-.22.19,1.77,1.77,0,0,0-.16.22h-1.69l.33-4.58h5.17v1.51h-3.63l-.15,1.93h0a1.62,1.62,0,0,1,.67-.62,2.32,2.32,0,0,1,1-.23,2.57,2.57,0,0,1,1.29.32,2.26,2.26,0,0,1,.88.88,2.46,2.46,0,0,1,.33,1.28h0a2.62,2.62,0,0,1-.39,1.43,2.55,2.55,0,0,1-1.09,1,3.57,3.57,0,0,1-1.61.35A3.69,3.69,0,0,1,251.09,468.56Z"/>
    </g>
  </g>
</svg>
