<?xml version="1.0" encoding="utf-8"?>
<!-- Generator: Adobe Illustrator 25.4.1, SVG Export Plug-In . SVG Version: 6.00 Build 0)  -->
<svg version="1.1" xmlns="http://www.w3.org/2000/svg" xmlns:xlink="http://www.w3.org/1999/xlink" x="0px" y="0px"
	 viewBox="0 0 700 700" style="enable-background:new 0 0 700 700;" xml:space="preserve">
<style type="text/css">
	.st0{fill:#606161;}
	.st1{fill:#787878;stroke:#999999;stroke-width:5;stroke-miterlimit:10;}
	.st2{fill:#787878;stroke:#999999;stroke-width:5;stroke-linejoin:round;stroke-miterlimit:10;}
	.st3{fill:#B68A41;stroke:#A0762B;stroke-width:6.0751;stroke-miterlimit:10;}
	.st4{fill:none;stroke:#A0762B;stroke-width:6.0751;stroke-miterlimit:10;}
	.st5{fill:url(#SVGID_1_);stroke:#BD4D3F;stroke-width:3.1411;stroke-miterlimit:10;}
	.st6{fill:#EABF8E;}
	
		.st7{fill:url(#SVGID_00000042696804564666896680000017979356858486827437_);stroke:#BD4D3F;stroke-width:3.1411;stroke-miterlimit:10;}
	
		.st8{fill:url(#SVGID_00000173858511405304391770000009560856039681293997_);stroke:#BD4D3F;stroke-width:3.1411;stroke-miterlimit:10;}
	.st9{fill:none;stroke:#E2B416;stroke-linecap:round;stroke-miterlimit:10;}
	.st10{fill:none;stroke:#999999;stroke-width:5;stroke-linecap:round;stroke-miterlimit:10;}
	.st11{fill:none;stroke:#999999;stroke-width:5;stroke-linejoin:round;stroke-miterlimit:10;}
	.st12{fill:#787878;stroke:#999999;stroke-width:3;stroke-miterlimit:10;}
	.st13{fill:none;stroke:#999999;stroke-width:3;stroke-linecap:round;stroke-miterlimit:10;}
	.st14{fill:#64BD55;stroke:#999999;stroke-width:3;stroke-linejoin:round;stroke-miterlimit:10;}
	.st15{fill:#FFF4DC;stroke:#E8D1B2;stroke-miterlimit:10;}
	.st16{fill:none;stroke:#222222;stroke-width:5;stroke-miterlimit:10;}
	.st17{fill:#7A6E73;}
	.st18{fill:#999999;stroke:#999999;stroke-width:3;stroke-linejoin:round;stroke-miterlimit:10;}
	.st19{fill:#B58C6D;stroke:#513D20;stroke-width:40;stroke-miterlimit:10;}
	.st20{fill:none;stroke:#513D20;stroke-width:40;stroke-miterlimit:10;}
	.st21{fill:#A93C3B;}
	.st22{fill:#02A8B4;}
	.st23{fill:#1B3018;}
	.st24{fill:#D89EC7;}
	.st25{fill:#FFD325;}
	.st26{fill:#71C3ED;}
	.st27{fill:#C82127;}
	.st28{fill:#AA6A28;}
	.st29{fill:#CACAB6;}
	.st30{fill:#FAA719;}
	.st31{fill:#3A52A4;}
	.st32{fill:#6F0F11;}
	.st33{fill:#9D58A3;}
	.st34{fill:#2D2813;}
	.st35{fill:#457B28;}
	.st36{fill:#CF6027;}
	.st37{fill:#88C653;}
	.st38{fill:#AE511E;}
	.st39{fill:#C25A24;}
	.st40{fill:url(#SVGID_00000029724383219890182790000003030199789469241733_);stroke:#E8D1B2;stroke-miterlimit:10;}
	.st41{fill:url(#SVGID_00000177462216098999018380000014703392306412654236_);stroke:#E8D1B2;stroke-miterlimit:10;}
</style>
<g id="Layer_1">
	<rect x="56.3" y="56.3" class="st19" width="587.5" height="587.5"/>
	<line class="st20" x1="56.3" y1="350" x2="643.7" y2="350"/>
	<path class="st21" d="M149.2,342.1h-35.9c-4.3,0-7.7-3.5-7.7-7.7V132.1c0-4.3,3.5-7.7,7.7-7.7h35.9c4.3,0,7.7,3.5,7.7,7.7v202.3
		C157,338.6,153.5,342.1,149.2,342.1z"/>
	<path class="st22" d="M191.1,342.1h-26.3c-4.3,0-7.7-3.5-7.7-7.7V155.9c0-4.3,3.5-7.7,7.7-7.7h26.3c4.3,0,7.7,3.5,7.7,7.7v178.4
		C198.8,338.6,195.4,342.1,191.1,342.1z"/>
	<path class="st23" d="M101.9,616.6v-26.3c0-4.3,3.5-7.7,7.7-7.7h178.4c4.3,0,7.7,3.5,7.7,7.7v26.3c0,4.3-3.5,7.7-7.7,7.7H109.7
		C105.4,624.4,101.9,620.9,101.9,616.6z"/>
	<path class="st24" d="M94.8,574.8v-18.8c0-4.3,3.5-7.7,7.7-7.7h196.2c4.3,0,7.7,3.5,7.7,7.7v18.8c0,4.3-3.5,7.7-7.7,7.7H102.6
		C98.3,582.6,94.8,579.1,94.8,574.8z"/>
	<path class="st25" d="M121.8,540.6v-49.5c0-4.3,3.5-7.7,7.7-7.7h150.5c4.3,0,7.7,3.5,7.7,7.7v49.5c0,4.3-3.5,7.7-7.7,7.7H129.5
		C125.2,548.3,121.8,544.9,121.8,540.6z"/>
	<path class="st26" d="M108.8,475.7v-33.2c0-4.3,3.5-7.7,7.7-7.7h184.1c4.3,0,7.7,3.5,7.7,7.7v33.2c0,4.3-3.5,7.7-7.7,7.7H116.5
		C112.3,483.4,108.8,479.9,108.8,475.7z"/>
	<path class="st27" d="M99.9,427v-2.4c0-4.3,3.5-7.7,7.7-7.7h155.5c4.3,0,7.7,3.5,7.7,7.7v2.4c0,4.3-3.5,7.7-7.7,7.7H107.7
		C103.4,434.7,99.9,431.3,99.9,427z"/>
	<path class="st28" d="M262.9,342.4h-56.2c-4.3,0-7.7-3.5-7.7-7.7V122.4c0-4.3,3.5-7.7,7.7-7.7h56.2c4.3,0,7.7,3.5,7.7,7.7v212.2
		C270.7,338.9,267.2,342.4,262.9,342.4z"/>
	<path class="st29" d="M376.2,626.2H320c-4.3,0-7.7-3.5-7.7-7.7V406.3c0-4.3,3.5-7.7,7.7-7.7h56.2c4.3,0,7.7,3.5,7.7,7.7v212.2
		C384,622.8,380.5,626.2,376.2,626.2z"/>
	<path class="st30" d="M522.6,341.9h-24.3c-4.3,0-7.7-3.5-7.7-7.7V163.9c0-4.3,3.5-7.7,7.7-7.7h24.3c4.3,0,7.7,3.5,7.7,7.7v170.3
		C530.4,338.4,526.9,341.9,522.6,341.9z"/>
	<path class="st31" d="M591,342.2h-52.8c-4.3,0-7.7-3.5-7.7-7.7V131.9c0-4.3,3.5-7.7,7.7-7.7H591c4.3,0,7.7,3.5,7.7,7.7v202.6
		C598.7,338.8,595.3,342.2,591,342.2z"/>
	<path class="st32" d="M460.2,625.5l-10.2,0.8c-4.3,0.3-8-2.9-8.3-7.1l-17-222.7c-0.3-4.3,2.9-8,7.1-8.3l10.2-0.8
		c4.3-0.3,8,2.9,8.3,7.1l17,222.7C467.7,621.5,464.5,625.2,460.2,625.5z"/>
	<path class="st33" d="M384.2,341.7h-34c-4.3,0-7.7-3.5-7.7-7.7V112.4c0-4.3,3.5-7.7,7.7-7.7h34c4.3,0,7.7,3.5,7.7,7.7V334
		C391.9,338.3,388.5,341.7,384.2,341.7z"/>
	<path class="st34" d="M462,337.9l-38,5.1c-4.2,0.6-8.1-2.4-8.7-6.6L392,163.7c-0.6-4.2,2.4-8.1,6.6-8.7l38-5.1
		c4.2-0.6,8.1,2.4,8.7,6.6l23.3,172.7C469.2,333.4,466.2,337.3,462,337.9z"/>
	<path class="st35" d="M334.6,341.7h-56.2c-4.3,0-7.7-3.5-7.7-7.7V155.2c0-4.3,3.5-7.7,7.7-7.7h56.2c4.3,0,7.7,3.5,7.7,7.7V334
		C342.4,338.3,338.9,341.7,334.6,341.7z"/>
	<path class="st36" d="M505.5,626.2h-30.3c-4.3,0-7.7-3.5-7.7-7.7V463c0-4.3,3.5-7.7,7.7-7.7h30.3c4.3,0,7.7,3.5,7.7,7.7v155.5
		C513.2,622.8,509.7,626.2,505.5,626.2z"/>
	<path class="st37" d="M422,626.2h-30.3c-4.3,0-7.7-3.5-7.7-7.7V463c0-4.3,3.5-7.7,7.7-7.7H422c4.3,0,7.7,3.5,7.7,7.7v155.5
		C429.8,622.8,426.3,626.2,422,626.2z"/>
	<path class="st38" d="M551.3,626.2H521c-4.3,0-7.7-3.5-7.7-7.7V463c0-4.3,3.5-7.7,7.7-7.7h30.3c4.3,0,7.7,3.5,7.7,7.7v155.5
		C559.1,622.8,555.6,626.2,551.3,626.2z"/>
	<path class="st39" d="M597.2,626.2h-30.3c-4.3,0-7.7-3.5-7.7-7.7V463c0-4.3,3.5-7.7,7.7-7.7h30.3c4.3,0,7.7,3.5,7.7,7.7v155.5
		C604.9,622.8,601.4,626.2,597.2,626.2z"/>
</g>
<g id="pages">
</g>
</svg>
